<?xml version="1.0" encoding="utf-8" standalone="no"?>
<!DOCTYPE svg PUBLIC "-//W3C//DTD SVG 1.1//EN"
  "http://www.w3.org/Graphics/SVG/1.1/DTD/svg11.dtd">
<svg xmlns:xlink="http://www.w3.org/1999/xlink" width="377.564375pt" height="377.1pt" viewBox="0 0 377.564375 377.1" xmlns="http://www.w3.org/2000/svg" version="1.1">
 <metadata>
  <rdf:RDF xmlns:dc="http://purl.org/dc/elements/1.1/" xmlns:cc="http://creativecommons.org/ns#" xmlns:rdf="http://www.w3.org/1999/02/22-rdf-syntax-ns#">
   <cc:Work>
    <dc:type rdf:resource="http://purl.org/dc/dcmitype/StillImage"/>
    <dc:date>2023-12-29T01:10:43.470691</dc:date>
    <dc:format>image/svg+xml</dc:format>
    <dc:creator>
     <cc:Agent>
      <dc:title>Matplotlib v3.8.1, https://matplotlib.org/</dc:title>
     </cc:Agent>
    </dc:creator>
   </cc:Work>
  </rdf:RDF>
 </metadata>
 <defs>
  <style type="text/css">*{stroke-linejoin: round; stroke-linecap: butt}</style>
 </defs>
 <g id="figure_1">
  <g id="patch_1">
   <path d="M 0 377.1 
L 377.564375 377.1 
L 377.564375 0 
L 0 0 
L 0 377.1 
z
" style="fill: none"/>
  </g>
  <g id="axes_1">
   <g id="patch_2">
    <path d="M 35.564375 339.84 
L 370.364375 339.84 
L 370.364375 7.2 
L 35.564375 7.2 
L 35.564375 339.84 
z
" style="fill: none"/>
   </g>
   <g id="PolyCollection_1">
    <defs>
     <path id="m2952e34a97" d="M 90.21934 -37.80992 
L 90.21934 -37.26 
L 91.55063 -37.26 
L 92.881921 -37.26 
L 94.213212 -37.26 
L 95.544503 -37.26 
L 96.875793 -37.26 
L 98.207084 -37.26 
L 99.538375 -37.26 
L 100.869665 -37.26 
L 102.200956 -37.26 
L 103.532247 -37.26 
L 104.863538 -37.26 
L 106.194828 -37.26 
L 107.526119 -37.26 
L 108.85741 -37.26 
L 110.1887 -37.26 
L 111.519991 -37.26 
L 112.851282 -37.26 
L 114.182573 -37.26 
L 115.513863 -37.26 
L 116.845154 -37.26 
L 118.176445 -37.26 
L 119.507736 -37.26 
L 120.839026 -37.26 
L 122.170317 -37.26 
L 123.501608 -37.26 
L 124.832898 -37.26 
L 126.164189 -37.26 
L 127.49548 -37.26 
L 128.826771 -37.26 
L 130.158061 -37.26 
L 131.489352 -37.26 
L 132.820643 -37.26 
L 134.151933 -37.26 
L 135.483224 -37.26 
L 136.814515 -37.26 
L 138.145806 -37.26 
L 139.477096 -37.26 
L 140.808387 -37.26 
L 142.139678 -37.26 
L 143.470968 -37.26 
L 144.802259 -37.26 
L 146.13355 -37.26 
L 147.464841 -37.26 
L 148.796131 -37.26 
L 150.127422 -37.26 
L 151.458713 -37.26 
L 152.790004 -37.26 
L 154.121294 -37.26 
L 155.452585 -37.26 
L 156.783876 -37.26 
L 158.115166 -37.26 
L 159.446457 -37.26 
L 160.777748 -37.26 
L 162.109039 -37.26 
L 163.440329 -37.26 
L 164.77162 -37.26 
L 166.102911 -37.26 
L 167.434201 -37.26 
L 168.765492 -37.26 
L 170.096783 -37.26 
L 171.428074 -37.26 
L 172.759364 -37.26 
L 174.090655 -37.26 
L 175.421946 -37.26 
L 176.753237 -37.26 
L 178.084527 -37.26 
L 179.415818 -37.26 
L 180.747109 -37.26 
L 182.078399 -37.26 
L 183.40969 -37.26 
L 184.740981 -37.26 
L 186.072272 -37.26 
L 187.403562 -37.26 
L 188.734853 -37.26 
L 190.066144 -37.26 
L 191.397434 -37.26 
L 192.728725 -37.26 
L 194.060016 -37.26 
L 195.391307 -37.26 
L 196.722597 -37.26 
L 198.053888 -37.26 
L 199.385179 -37.26 
L 200.71647 -37.26 
L 202.04776 -37.26 
L 203.379051 -37.26 
L 204.710342 -37.26 
L 206.041632 -37.26 
L 207.372923 -37.26 
L 208.704214 -37.26 
L 210.035505 -37.26 
L 211.366795 -37.26 
L 212.698086 -37.26 
L 214.029377 -37.26 
L 215.360667 -37.26 
L 216.691958 -37.26 
L 218.023249 -37.26 
L 219.35454 -37.26 
L 220.68583 -37.26 
L 222.017121 -37.26 
L 223.348412 -37.26 
L 224.679702 -37.26 
L 226.010993 -37.26 
L 227.342284 -37.26 
L 228.673575 -37.26 
L 230.004865 -37.26 
L 231.336156 -37.26 
L 232.667447 -37.26 
L 233.998738 -37.26 
L 235.330028 -37.26 
L 236.661319 -37.26 
L 237.99261 -37.26 
L 239.3239 -37.26 
L 240.655191 -37.26 
L 241.986482 -37.26 
L 243.317773 -37.26 
L 244.649063 -37.26 
L 245.980354 -37.26 
L 247.311645 -37.26 
L 248.642935 -37.26 
L 249.974226 -37.26 
L 251.305517 -37.26 
L 252.636808 -37.26 
L 253.968098 -37.26 
L 255.299389 -37.26 
L 256.63068 -37.26 
L 257.961971 -37.26 
L 259.293261 -37.26 
L 260.624552 -37.26 
L 261.955843 -37.26 
L 263.287133 -37.26 
L 264.618424 -37.26 
L 265.949715 -37.26 
L 267.281006 -37.26 
L 268.612296 -37.26 
L 269.943587 -37.26 
L 271.274878 -37.26 
L 272.606168 -37.26 
L 273.937459 -37.26 
L 275.26875 -37.26 
L 276.600041 -37.26 
L 277.931331 -37.26 
L 279.262622 -37.26 
L 280.593913 -37.26 
L 281.925204 -37.26 
L 283.256494 -37.26 
L 284.587785 -37.26 
L 285.919076 -37.26 
L 287.250366 -37.26 
L 288.581657 -37.26 
L 289.912948 -37.26 
L 291.244239 -37.26 
L 292.575529 -37.26 
L 293.90682 -37.26 
L 295.238111 -37.26 
L 296.569401 -37.26 
L 297.900692 -37.26 
L 299.231983 -37.26 
L 300.563274 -37.26 
L 301.894564 -37.26 
L 303.225855 -37.26 
L 304.557146 -37.26 
L 305.888436 -37.26 
L 307.219727 -37.26 
L 308.551018 -37.26 
L 309.882309 -37.26 
L 311.213599 -37.26 
L 312.54489 -37.26 
L 313.876181 -37.26 
L 315.207472 -37.26 
L 316.538762 -37.26 
L 317.870053 -37.26 
L 319.201344 -37.26 
L 320.532634 -37.26 
L 321.863925 -37.26 
L 323.195216 -37.26 
L 324.526507 -37.26 
L 325.857797 -37.26 
L 327.189088 -37.26 
L 328.520379 -37.26 
L 329.851669 -37.26 
L 331.18296 -37.26 
L 332.514251 -37.26 
L 333.845542 -37.26 
L 335.176832 -37.26 
L 336.508123 -37.26 
L 337.839414 -37.26 
L 339.170705 -37.26 
L 340.501995 -37.26 
L 341.833286 -37.26 
L 343.164577 -37.26 
L 344.495867 -37.26 
L 345.827158 -37.26 
L 347.158449 -37.26 
L 348.48974 -37.26 
L 349.82103 -37.26 
L 351.152321 -37.26 
L 352.483612 -37.26 
L 353.814902 -37.26 
L 355.146193 -37.26 
L 355.146193 -37.677197 
L 355.146193 -37.677197 
L 353.814902 -37.737143 
L 352.483612 -37.804597 
L 351.152321 -37.880327 
L 349.82103 -37.965158 
L 348.48974 -38.059966 
L 347.158449 -38.165683 
L 345.827158 -38.283297 
L 344.495867 -38.413844 
L 343.164577 -38.558415 
L 341.833286 -38.718145 
L 340.501995 -38.894216 
L 339.170705 -39.087847 
L 337.839414 -39.300292 
L 336.508123 -39.532831 
L 335.176832 -39.786767 
L 333.845542 -40.06341 
L 332.514251 -40.364075 
L 331.18296 -40.690066 
L 329.851669 -41.042667 
L 328.520379 -41.423129 
L 327.189088 -41.832656 
L 325.857797 -42.272393 
L 324.526507 -42.743408 
L 323.195216 -43.246678 
L 321.863925 -43.783075 
L 320.532634 -44.353347 
L 319.201344 -44.958106 
L 317.870053 -45.59781 
L 316.538762 -46.272747 
L 315.207472 -46.983024 
L 313.876181 -47.728551 
L 312.54489 -48.509031 
L 311.213599 -49.323946 
L 309.882309 -50.172555 
L 308.551018 -51.05388 
L 307.219727 -51.966706 
L 305.888436 -52.90958 
L 304.557146 -53.88081 
L 303.225855 -54.878469 
L 301.894564 -55.900406 
L 300.563274 -56.944251 
L 299.231983 -58.007435 
L 297.900692 -59.087202 
L 296.569401 -60.180633 
L 295.238111 -61.284669 
L 293.90682 -62.396136 
L 292.575529 -63.51178 
L 291.244239 -64.628294 
L 289.912948 -65.742355 
L 288.581657 -66.850663 
L 287.250366 -67.949978 
L 285.919076 -69.037159 
L 284.587785 -70.109206 
L 283.256494 -71.163298 
L 281.925204 -72.196837 
L 280.593913 -73.207484 
L 279.262622 -74.193197 
L 277.931331 -75.152267 
L 276.600041 -76.083348 
L 275.26875 -76.98549 
L 273.937459 -77.858159 
L 272.606168 -78.70126 
L 271.274878 -79.515154 
L 269.943587 -80.300662 
L 268.612296 -81.059078 
L 267.281006 -81.79216 
L 265.949715 -82.502125 
L 264.618424 -83.191635 
L 263.287133 -83.863775 
L 261.955843 -84.522029 
L 260.624552 -85.170244 
L 259.293261 -85.812594 
L 257.961971 -86.453531 
L 256.63068 -87.097743 
L 255.299389 -87.750092 
L 253.968098 -88.415563 
L 252.636808 -89.099195 
L 251.305517 -89.806024 
L 249.974226 -90.541015 
L 248.642935 -91.308989 
L 247.311645 -92.114565 
L 245.980354 -92.962085 
L 244.649063 -93.855552 
L 243.317773 -94.798567 
L 241.986482 -95.794266 
L 240.655191 -96.845265 
L 239.3239 -97.953608 
L 237.99261 -99.120719 
L 236.661319 -100.347363 
L 235.330028 -101.633608 
L 233.998738 -102.9788 
L 232.667447 -104.381543 
L 231.336156 -105.839685 
L 230.004865 -107.350312 
L 228.673575 -108.909757 
L 227.342284 -110.513603 
L 226.010993 -112.156709 
L 224.679702 -113.833237 
L 223.348412 -115.536683 
L 222.017121 -117.259922 
L 220.68583 -118.99526 
L 219.35454 -120.734485 
L 218.023249 -122.46893 
L 216.691958 -124.189546 
L 215.360667 -125.886963 
L 214.029377 -127.551577 
L 212.698086 -129.17362 
L 211.366795 -130.743246 
L 210.035505 -132.250613 
L 208.704214 -133.685966 
L 207.372923 -135.039718 
L 206.041632 -136.302536 
L 204.710342 -137.465421 
L 203.379051 -138.519781 
L 202.04776 -139.457512 
L 200.71647 -140.271062 
L 199.385179 -140.953501 
L 198.053888 -141.49858 
L 196.722597 -141.900781 
L 195.391307 -142.155369 
L 194.060016 -142.258429 
L 192.728725 -142.206901 
L 191.397434 -141.998602 
L 190.066144 -141.632247 
L 188.734853 -141.107455 
L 187.403562 -140.424751 
L 186.072272 -139.585561 
L 184.740981 -138.592194 
L 183.40969 -137.447822 
L 182.078399 -136.15645 
L 180.747109 -134.722879 
L 179.415818 -133.152663 
L 178.084527 -131.452059 
L 176.753237 -129.627976 
L 175.421946 -127.687911 
L 174.090655 -125.639887 
L 172.759364 -123.492391 
L 171.428074 -121.254296 
L 170.096783 -118.934798 
L 168.765492 -116.543338 
L 167.434201 -114.089532 
L 166.102911 -111.583097 
L 164.77162 -109.03378 
L 163.440329 -106.451289 
L 162.109039 -103.845223 
L 160.777748 -101.225013 
L 159.446457 -98.599856 
L 158.115166 -95.97866 
L 156.783876 -93.369993 
L 155.452585 -90.782037 
L 154.121294 -88.222542 
L 152.790004 -85.698793 
L 151.458713 -83.217576 
L 150.127422 -80.785158 
L 148.796131 -78.40726 
L 147.464841 -76.089049 
L 146.13355 -73.835126 
L 144.802259 -71.649524 
L 143.470968 -69.535713 
L 142.139678 -67.4966 
L 140.808387 -65.534544 
L 139.477096 -63.651375 
L 138.145806 -61.848405 
L 136.814515 -60.126458 
L 135.483224 -58.485888 
L 134.151933 -56.926615 
L 132.820643 -55.448147 
L 131.489352 -54.049617 
L 130.158061 -52.72981 
L 128.826771 -51.487201 
L 127.49548 -50.319987 
L 126.164189 -49.226118 
L 124.832898 -48.203333 
L 123.501608 -47.249191 
L 122.170317 -46.361101 
L 120.839026 -45.536355 
L 119.507736 -44.772153 
L 118.176445 -44.065635 
L 116.845154 -43.4139 
L 115.513863 -42.814033 
L 114.182573 -42.263127 
L 112.851282 -41.7583 
L 111.519991 -41.296714 
L 110.1887 -40.875588 
L 108.85741 -40.492215 
L 107.526119 -40.14397 
L 106.194828 -39.828321 
L 104.863538 -39.542837 
L 103.532247 -39.285194 
L 102.200956 -39.053177 
L 100.869665 -38.844688 
L 99.538375 -38.657743 
L 98.207084 -38.490476 
L 96.875793 -38.341135 
L 95.544503 -38.208084 
L 94.213212 -38.0898 
L 92.881921 -37.984867 
L 91.55063 -37.891976 
L 90.21934 -37.80992 
z
"/>
    </defs>
    <g clip-path="url(#p01a67ab0d2)">
     <use xlink:href="#m2952e34a97" x="0" y="377.1" style="fill: #edb081; fill-opacity: 0.3"/>
    </g>
   </g>
   <g id="PolyCollection_2">
    <defs>
     <path id="m7325ea99ea" d="M 86.107911 -37.709255 
L 86.107911 -37.26 
L 87.202081 -37.26 
L 88.29625 -37.26 
L 89.39042 -37.26 
L 90.484589 -37.26 
L 91.578759 -37.26 
L 92.672928 -37.26 
L 93.767097 -37.26 
L 94.861267 -37.26 
L 95.955436 -37.26 
L 97.049606 -37.26 
L 98.143775 -37.26 
L 99.237945 -37.26 
L 100.332114 -37.26 
L 101.426284 -37.26 
L 102.520453 -37.26 
L 103.614623 -37.26 
L 104.708792 -37.26 
L 105.802962 -37.26 
L 106.897131 -37.26 
L 107.991301 -37.26 
L 109.08547 -37.26 
L 110.17964 -37.26 
L 111.273809 -37.26 
L 112.367979 -37.26 
L 113.462148 -37.26 
L 114.556318 -37.26 
L 115.650487 -37.26 
L 116.744656 -37.26 
L 117.838826 -37.26 
L 118.932995 -37.26 
L 120.027165 -37.26 
L 121.121334 -37.26 
L 122.215504 -37.26 
L 123.309673 -37.26 
L 124.403843 -37.26 
L 125.498012 -37.26 
L 126.592182 -37.26 
L 127.686351 -37.26 
L 128.780521 -37.26 
L 129.87469 -37.26 
L 130.96886 -37.26 
L 132.063029 -37.26 
L 133.157199 -37.26 
L 134.251368 -37.26 
L 135.345538 -37.26 
L 136.439707 -37.26 
L 137.533877 -37.26 
L 138.628046 -37.26 
L 139.722215 -37.26 
L 140.816385 -37.26 
L 141.910554 -37.26 
L 143.004724 -37.26 
L 144.098893 -37.26 
L 145.193063 -37.26 
L 146.287232 -37.26 
L 147.381402 -37.26 
L 148.475571 -37.26 
L 149.569741 -37.26 
L 150.66391 -37.26 
L 151.75808 -37.26 
L 152.852249 -37.26 
L 153.946419 -37.26 
L 155.040588 -37.26 
L 156.134758 -37.26 
L 157.228927 -37.26 
L 158.323097 -37.26 
L 159.417266 -37.26 
L 160.511436 -37.26 
L 161.605605 -37.26 
L 162.699774 -37.26 
L 163.793944 -37.26 
L 164.888113 -37.26 
L 165.982283 -37.26 
L 167.076452 -37.26 
L 168.170622 -37.26 
L 169.264791 -37.26 
L 170.358961 -37.26 
L 171.45313 -37.26 
L 172.5473 -37.26 
L 173.641469 -37.26 
L 174.735639 -37.26 
L 175.829808 -37.26 
L 176.923978 -37.26 
L 178.018147 -37.26 
L 179.112317 -37.26 
L 180.206486 -37.26 
L 181.300656 -37.26 
L 182.394825 -37.26 
L 183.488995 -37.26 
L 184.583164 -37.26 
L 185.677333 -37.26 
L 186.771503 -37.26 
L 187.865672 -37.26 
L 188.959842 -37.26 
L 190.054011 -37.26 
L 191.148181 -37.26 
L 192.24235 -37.26 
L 193.33652 -37.26 
L 194.430689 -37.26 
L 195.524859 -37.26 
L 196.619028 -37.26 
L 197.713198 -37.26 
L 198.807367 -37.26 
L 199.901537 -37.26 
L 200.995706 -37.26 
L 202.089876 -37.26 
L 203.184045 -37.26 
L 204.278215 -37.26 
L 205.372384 -37.26 
L 206.466554 -37.26 
L 207.560723 -37.26 
L 208.654892 -37.26 
L 209.749062 -37.26 
L 210.843231 -37.26 
L 211.937401 -37.26 
L 213.03157 -37.26 
L 214.12574 -37.26 
L 215.219909 -37.26 
L 216.314079 -37.26 
L 217.408248 -37.26 
L 218.502418 -37.26 
L 219.596587 -37.26 
L 220.690757 -37.26 
L 221.784926 -37.26 
L 222.879096 -37.26 
L 223.973265 -37.26 
L 225.067435 -37.26 
L 226.161604 -37.26 
L 227.255774 -37.26 
L 228.349943 -37.26 
L 229.444113 -37.26 
L 230.538282 -37.26 
L 231.632451 -37.26 
L 232.726621 -37.26 
L 233.82079 -37.26 
L 234.91496 -37.26 
L 236.009129 -37.26 
L 237.103299 -37.26 
L 238.197468 -37.26 
L 239.291638 -37.26 
L 240.385807 -37.26 
L 241.479977 -37.26 
L 242.574146 -37.26 
L 243.668316 -37.26 
L 244.762485 -37.26 
L 245.856655 -37.26 
L 246.950824 -37.26 
L 248.044994 -37.26 
L 249.139163 -37.26 
L 250.233333 -37.26 
L 251.327502 -37.26 
L 252.421672 -37.26 
L 253.515841 -37.26 
L 254.61001 -37.26 
L 255.70418 -37.26 
L 256.798349 -37.26 
L 257.892519 -37.26 
L 258.986688 -37.26 
L 260.080858 -37.26 
L 261.175027 -37.26 
L 262.269197 -37.26 
L 263.363366 -37.26 
L 264.457536 -37.26 
L 265.551705 -37.26 
L 266.645875 -37.26 
L 267.740044 -37.26 
L 268.834214 -37.26 
L 269.928383 -37.26 
L 271.022553 -37.26 
L 272.116722 -37.26 
L 273.210892 -37.26 
L 274.305061 -37.26 
L 275.399231 -37.26 
L 276.4934 -37.26 
L 277.587569 -37.26 
L 278.681739 -37.26 
L 279.775908 -37.26 
L 280.870078 -37.26 
L 281.964247 -37.26 
L 283.058417 -37.26 
L 284.152586 -37.26 
L 285.246756 -37.26 
L 286.340925 -37.26 
L 287.435095 -37.26 
L 288.529264 -37.26 
L 289.623434 -37.26 
L 290.717603 -37.26 
L 291.811773 -37.26 
L 292.905942 -37.26 
L 294.000112 -37.26 
L 295.094281 -37.26 
L 296.188451 -37.26 
L 297.28262 -37.26 
L 298.37679 -37.26 
L 299.470959 -37.26 
L 300.565128 -37.26 
L 301.659298 -37.26 
L 302.753467 -37.26 
L 303.847637 -37.26 
L 303.847637 -37.706086 
L 303.847637 -37.706086 
L 302.753467 -37.776917 
L 301.659298 -37.857533 
L 300.565128 -37.949033 
L 299.470959 -38.052606 
L 298.37679 -38.169523 
L 297.28262 -38.301139 
L 296.188451 -38.448896 
L 295.094281 -38.614313 
L 294.000112 -38.798987 
L 292.905942 -39.004585 
L 291.811773 -39.232838 
L 290.717603 -39.485529 
L 289.623434 -39.764486 
L 288.529264 -40.071567 
L 287.435095 -40.408644 
L 286.340925 -40.77759 
L 285.246756 -41.180259 
L 284.152586 -41.618462 
L 283.058417 -42.093954 
L 281.964247 -42.608401 
L 280.870078 -43.163365 
L 279.775908 -43.760272 
L 278.681739 -44.40039 
L 277.587569 -45.084802 
L 276.4934 -45.814383 
L 275.399231 -46.58977 
L 274.305061 -47.411347 
L 273.210892 -48.279214 
L 272.116722 -49.193177 
L 271.022553 -50.152724 
L 269.928383 -51.15702 
L 268.834214 -52.20489 
L 267.740044 -53.294824 
L 266.645875 -54.424972 
L 265.551705 -55.593154 
L 264.457536 -56.79687 
L 263.363366 -58.033319 
L 262.269197 -59.299427 
L 261.175027 -60.591875 
L 260.080858 -61.907138 
L 258.986688 -63.241526 
L 257.892519 -64.591236 
L 256.798349 -65.952406 
L 255.70418 -67.321171 
L 254.61001 -68.693731 
L 253.515841 -70.066409 
L 252.421672 -71.435725 
L 251.327502 -72.79846 
L 250.233333 -74.151727 
L 249.139163 -75.493032 
L 248.044994 -76.82034 
L 246.950824 -78.132131 
L 245.856655 -79.427452 
L 244.762485 -80.705962 
L 243.668316 -81.967967 
L 242.574146 -83.214446 
L 241.479977 -84.447064 
L 240.385807 -85.668178 
L 239.291638 -86.880824 
L 238.197468 -88.088695 
L 237.103299 -89.296106 
L 236.009129 -90.50794 
L 234.91496 -91.729586 
L 233.82079 -92.966864 
L 232.726621 -94.225932 
L 231.632451 -95.513188 
L 230.538282 -96.835162 
L 229.444113 -98.19839 
L 228.349943 -99.609298 
L 227.255774 -101.074062 
L 226.161604 -102.598485 
L 225.067435 -104.187856 
L 223.973265 -105.846825 
L 222.879096 -107.579272 
L 221.784926 -109.38819 
L 220.690757 -111.275577 
L 219.596587 -113.242334 
L 218.502418 -115.288183 
L 217.408248 -117.411596 
L 216.314079 -119.60975 
L 215.219909 -121.878487 
L 214.12574 -124.21231 
L 213.03157 -126.604386 
L 211.937401 -129.046584 
L 210.843231 -131.529519 
L 209.749062 -134.042632 
L 208.654892 -136.574283 
L 207.560723 -139.111861 
L 206.466554 -141.641916 
L 205.372384 -144.150307 
L 204.278215 -146.62236 
L 203.184045 -149.043039 
L 202.089876 -151.397126 
L 200.995706 -153.669405 
L 199.901537 -155.844846 
L 198.807367 -157.908796 
L 197.713198 -159.847154 
L 196.619028 -161.64655 
L 195.524859 -163.294505 
L 194.430689 -164.779586 
L 193.33652 -166.091539 
L 192.24235 -167.221407 
L 191.148181 -168.16163 
L 190.054011 -168.906121 
L 188.959842 -169.450318 
L 187.865672 -169.791221 
L 186.771503 -169.927399 
L 185.677333 -169.858975 
L 184.583164 -169.587591 
L 183.488995 -169.116349 
L 182.394825 -168.449736 
L 181.300656 -167.59353 
L 180.206486 -166.554687 
L 179.112317 -165.341218 
L 178.018147 -163.962056 
L 176.923978 -162.426913 
L 175.829808 -160.746134 
L 174.735639 -158.930544 
L 173.641469 -156.991302 
L 172.5473 -154.939755 
L 171.45313 -152.787296 
L 170.358961 -150.545234 
L 169.264791 -148.224668 
L 168.170622 -145.836384 
L 167.076452 -143.39075 
L 165.982283 -140.897639 
L 164.888113 -138.366356 
L 163.793944 -135.805591 
L 162.699774 -133.223378 
L 161.605605 -130.627076 
L 160.511436 -128.023359 
L 159.417266 -125.418222 
L 158.323097 -122.817001 
L 157.228927 -120.224401 
L 156.134758 -117.644535 
L 155.040588 -115.08097 
L 153.946419 -112.536779 
L 152.852249 -110.014599 
L 151.75808 -107.51669 
L 150.66391 -105.044993 
L 149.569741 -102.601193 
L 148.475571 -100.186773 
L 147.381402 -97.803068 
L 146.287232 -95.451317 
L 145.193063 -93.132706 
L 144.098893 -90.848402 
L 143.004724 -88.599588 
L 141.910554 -86.387487 
L 140.816385 -84.213376 
L 139.722215 -82.078601 
L 138.628046 -79.984575 
L 137.533877 -77.932781 
L 136.439707 -75.924758 
L 135.345538 -73.962095 
L 134.251368 -72.046406 
L 133.157199 -70.179317 
L 132.063029 -68.362438 
L 130.96886 -66.597339 
L 129.87469 -64.885526 
L 128.780521 -63.228416 
L 127.686351 -61.627308 
L 126.592182 -60.083368 
L 125.498012 -58.597597 
L 124.403843 -57.17082 
L 123.309673 -55.80367 
L 122.215504 -54.496569 
L 121.121334 -53.249726 
L 120.027165 -52.063125 
L 118.932995 -50.936527 
L 117.838826 -49.869469 
L 116.744656 -48.86127 
L 115.650487 -47.911034 
L 114.556318 -47.017667 
L 113.462148 -46.179882 
L 112.367979 -45.396221 
L 111.273809 -44.665067 
L 110.17964 -43.98466 
L 109.08547 -43.353123 
L 107.991301 -42.768473 
L 106.897131 -42.228648 
L 105.802962 -41.731521 
L 104.708792 -41.274921 
L 103.614623 -40.856653 
L 102.520453 -40.474515 
L 101.426284 -40.126311 
L 100.332114 -39.80987 
L 99.237945 -39.523061 
L 98.143775 -39.2638 
L 97.049606 -39.030064 
L 95.955436 -38.819902 
L 94.861267 -38.63144 
L 93.767097 -38.462886 
L 92.672928 -38.312539 
L 91.578759 -38.178789 
L 90.484589 -38.06012 
L 89.39042 -37.955111 
L 88.29625 -37.862436 
L 87.202081 -37.780864 
L 86.107911 -37.709255 
z
"/>
    </defs>
    <g clip-path="url(#p01a67ab0d2)">
     <use xlink:href="#m7325ea99ea" x="0" y="377.1" style="fill: #e77e63; fill-opacity: 0.3"/>
    </g>
   </g>
   <g id="PolyCollection_3">
    <defs>
     <path id="m62e377ec44" d="M 82.856247 -37.434158 
L 82.856247 -37.26 
L 84.044463 -37.26 
L 85.232678 -37.26 
L 86.420893 -37.26 
L 87.609109 -37.26 
L 88.797324 -37.26 
L 89.985539 -37.26 
L 91.173755 -37.26 
L 92.36197 -37.26 
L 93.550185 -37.26 
L 94.738401 -37.26 
L 95.926616 -37.26 
L 97.114831 -37.26 
L 98.303047 -37.26 
L 99.491262 -37.26 
L 100.679477 -37.26 
L 101.867693 -37.26 
L 103.055908 -37.26 
L 104.244123 -37.26 
L 105.432339 -37.26 
L 106.620554 -37.26 
L 107.808769 -37.26 
L 108.996985 -37.26 
L 110.1852 -37.26 
L 111.373415 -37.26 
L 112.56163 -37.26 
L 113.749846 -37.26 
L 114.938061 -37.26 
L 116.126276 -37.26 
L 117.314492 -37.26 
L 118.502707 -37.26 
L 119.690922 -37.26 
L 120.879138 -37.26 
L 122.067353 -37.26 
L 123.255568 -37.26 
L 124.443784 -37.26 
L 125.631999 -37.26 
L 126.820214 -37.26 
L 128.00843 -37.26 
L 129.196645 -37.26 
L 130.38486 -37.26 
L 131.573076 -37.26 
L 132.761291 -37.26 
L 133.949506 -37.26 
L 135.137722 -37.26 
L 136.325937 -37.26 
L 137.514152 -37.26 
L 138.702368 -37.26 
L 139.890583 -37.26 
L 141.078798 -37.26 
L 142.267014 -37.26 
L 143.455229 -37.26 
L 144.643444 -37.26 
L 145.831659 -37.26 
L 147.019875 -37.26 
L 148.20809 -37.26 
L 149.396305 -37.26 
L 150.584521 -37.26 
L 151.772736 -37.26 
L 152.960951 -37.26 
L 154.149167 -37.26 
L 155.337382 -37.26 
L 156.525597 -37.26 
L 157.713813 -37.26 
L 158.902028 -37.26 
L 160.090243 -37.26 
L 161.278459 -37.26 
L 162.466674 -37.26 
L 163.654889 -37.26 
L 164.843105 -37.26 
L 166.03132 -37.26 
L 167.219535 -37.26 
L 168.407751 -37.26 
L 169.595966 -37.26 
L 170.784181 -37.26 
L 171.972397 -37.26 
L 173.160612 -37.26 
L 174.348827 -37.26 
L 175.537042 -37.26 
L 176.725258 -37.26 
L 177.913473 -37.26 
L 179.101688 -37.26 
L 180.289904 -37.26 
L 181.478119 -37.26 
L 182.666334 -37.26 
L 183.85455 -37.26 
L 185.042765 -37.26 
L 186.23098 -37.26 
L 187.419196 -37.26 
L 188.607411 -37.26 
L 189.795626 -37.26 
L 190.983842 -37.26 
L 192.172057 -37.26 
L 193.360272 -37.26 
L 194.548488 -37.26 
L 195.736703 -37.26 
L 196.924918 -37.26 
L 198.113134 -37.26 
L 199.301349 -37.26 
L 200.489564 -37.26 
L 201.67778 -37.26 
L 202.865995 -37.26 
L 204.05421 -37.26 
L 205.242426 -37.26 
L 206.430641 -37.26 
L 207.618856 -37.26 
L 208.807071 -37.26 
L 209.995287 -37.26 
L 211.183502 -37.26 
L 212.371717 -37.26 
L 213.559933 -37.26 
L 214.748148 -37.26 
L 215.936363 -37.26 
L 217.124579 -37.26 
L 218.312794 -37.26 
L 219.501009 -37.26 
L 220.689225 -37.26 
L 221.87744 -37.26 
L 223.065655 -37.26 
L 224.253871 -37.26 
L 225.442086 -37.26 
L 226.630301 -37.26 
L 227.818517 -37.26 
L 229.006732 -37.26 
L 230.194947 -37.26 
L 231.383163 -37.26 
L 232.571378 -37.26 
L 233.759593 -37.26 
L 234.947809 -37.26 
L 236.136024 -37.26 
L 237.324239 -37.26 
L 238.512455 -37.26 
L 239.70067 -37.26 
L 240.888885 -37.26 
L 242.0771 -37.26 
L 243.265316 -37.26 
L 244.453531 -37.26 
L 245.641746 -37.26 
L 246.829962 -37.26 
L 248.018177 -37.26 
L 249.206392 -37.26 
L 250.394608 -37.26 
L 251.582823 -37.26 
L 252.771038 -37.26 
L 253.959254 -37.26 
L 255.147469 -37.26 
L 256.335684 -37.26 
L 257.5239 -37.26 
L 258.712115 -37.26 
L 259.90033 -37.26 
L 261.088546 -37.26 
L 262.276761 -37.26 
L 263.464976 -37.26 
L 264.653192 -37.26 
L 265.841407 -37.26 
L 267.029622 -37.26 
L 268.217838 -37.26 
L 269.406053 -37.26 
L 270.594268 -37.26 
L 271.782484 -37.26 
L 272.970699 -37.26 
L 274.158914 -37.26 
L 275.347129 -37.26 
L 276.535345 -37.26 
L 277.72356 -37.26 
L 278.911775 -37.26 
L 280.099991 -37.26 
L 281.288206 -37.26 
L 282.476421 -37.26 
L 283.664637 -37.26 
L 284.852852 -37.26 
L 286.041067 -37.26 
L 287.229283 -37.26 
L 288.417498 -37.26 
L 289.605713 -37.26 
L 290.793929 -37.26 
L 291.982144 -37.26 
L 293.170359 -37.26 
L 294.358575 -37.26 
L 295.54679 -37.26 
L 296.735005 -37.26 
L 297.923221 -37.26 
L 299.111436 -37.26 
L 300.299651 -37.26 
L 301.487867 -37.26 
L 302.676082 -37.26 
L 303.864297 -37.26 
L 305.052513 -37.26 
L 306.240728 -37.26 
L 307.428943 -37.26 
L 308.617158 -37.26 
L 309.805374 -37.26 
L 310.993589 -37.26 
L 312.181804 -37.26 
L 313.37002 -37.26 
L 314.558235 -37.26 
L 315.74645 -37.26 
L 316.934666 -37.26 
L 318.122881 -37.26 
L 319.311096 -37.26 
L 319.311096 -37.410977 
L 319.311096 -37.410977 
L 318.122881 -37.445131 
L 316.934666 -37.485962 
L 315.74645 -37.534527 
L 314.558235 -37.591992 
L 313.37002 -37.659638 
L 312.181804 -37.738856 
L 310.993589 -37.831145 
L 309.805374 -37.9381 
L 308.617158 -38.061403 
L 307.428943 -38.202807 
L 306.240728 -38.364113 
L 305.052513 -38.547149 
L 303.864297 -38.753738 
L 302.676082 -38.985665 
L 301.487867 -39.244643 
L 300.299651 -39.532271 
L 299.111436 -39.849992 
L 297.923221 -40.199051 
L 296.735005 -40.580451 
L 295.54679 -40.99491 
L 294.358575 -41.442827 
L 293.170359 -41.924241 
L 291.982144 -42.438809 
L 290.793929 -42.985783 
L 289.605713 -43.563999 
L 288.417498 -44.171879 
L 287.229283 -44.80744 
L 286.041067 -45.468323 
L 284.852852 -46.151823 
L 283.664637 -46.854946 
L 282.476421 -47.574468 
L 281.288206 -48.307009 
L 280.099991 -49.049115 
L 278.911775 -49.797353 
L 277.72356 -50.548402 
L 276.535345 -51.299155 
L 275.347129 -52.046817 
L 274.158914 -52.788997 
L 272.970699 -53.523792 
L 271.782484 -54.24987 
L 270.594268 -54.966526 
L 269.406053 -55.673728 
L 268.217838 -56.372151 
L 267.029622 -57.063174 
L 265.841407 -57.748877 
L 264.653192 -58.431996 
L 263.464976 -59.115874 
L 262.276761 -59.804383 
L 261.088546 -60.501828 
L 259.90033 -61.212843 
L 258.712115 -61.942267 
L 257.5239 -62.695015 
L 256.335684 -63.475946 
L 255.147469 -64.289728 
L 253.959254 -65.140709 
L 252.771038 -66.032794 
L 251.582823 -66.969331 
L 250.394608 -67.953019 
L 249.206392 -68.985824 
L 248.018177 -70.068921 
L 246.829962 -71.202656 
L 245.641746 -72.386526 
L 244.453531 -73.61918 
L 243.265316 -74.898453 
L 242.0771 -76.221397 
L 240.888885 -77.584353 
L 239.70067 -78.983026 
L 238.512455 -80.412569 
L 237.324239 -81.867691 
L 236.136024 -83.342757 
L 234.947809 -84.831905 
L 233.759593 -86.329151 
L 232.571378 -87.828507 
L 231.383163 -89.324082 
L 230.194947 -90.810187 
L 229.006732 -92.281429 
L 227.818517 -93.732796 
L 226.630301 -95.159737 
L 225.442086 -96.558226 
L 224.253871 -97.924824 
L 223.065655 -99.256726 
L 221.87744 -100.551801 
L 220.689225 -101.80862 
L 219.501009 -103.026481 
L 218.312794 -104.205421 
L 217.124579 -105.346219 
L 215.936363 -106.450393 
L 214.748148 -107.520187 
L 213.559933 -108.558547 
L 212.371717 -109.569092 
L 211.183502 -110.556069 
L 209.995287 -111.524299 
L 208.807071 -112.47911 
L 207.618856 -113.426261 
L 206.430641 -114.371847 
L 205.242426 -115.322199 
L 204.05421 -116.283763 
L 202.865995 -117.262973 
L 201.67778 -118.266114 
L 200.489564 -119.299173 
L 199.301349 -120.367691 
L 198.113134 -121.476605 
L 196.924918 -122.630097 
L 195.736703 -123.831448 
L 194.548488 -125.082898 
L 193.360272 -126.385523 
L 192.172057 -127.739132 
L 190.983842 -129.142181 
L 189.795626 -130.591715 
L 188.607411 -132.083344 
L 187.419196 -133.611241 
L 186.23098 -135.168178 
L 185.042765 -136.745591 
L 183.85455 -138.333682 
L 182.666334 -139.921537 
L 181.478119 -141.497288 
L 180.289904 -143.048279 
L 179.101688 -144.56126 
L 177.913473 -146.022591 
L 176.725258 -147.418446 
L 175.537042 -148.735023 
L 174.348827 -149.95874 
L 173.160612 -151.076429 
L 171.972397 -152.075504 
L 170.784181 -152.944117 
L 169.595966 -153.671279 
L 168.407751 -154.24697 
L 167.219535 -154.662216 
L 166.03132 -154.909138 
L 164.843105 -154.980984 
L 163.654889 -154.872143 
L 162.466674 -154.578131 
L 161.278459 -154.095577 
L 160.090243 -153.422191 
L 158.902028 -152.556737 
L 157.713813 -151.498995 
L 156.525597 -150.249735 
L 155.337382 -148.810694 
L 154.149167 -147.184557 
L 152.960951 -145.374954 
L 151.772736 -143.386457 
L 150.584521 -141.224591 
L 149.396305 -138.895842 
L 148.20809 -136.407675 
L 147.019875 -133.768542 
L 145.831659 -130.987889 
L 144.643444 -128.076157 
L 143.455229 -125.044756 
L 142.267014 -121.906039 
L 141.078798 -118.673247 
L 139.890583 -115.36043 
L 138.702368 -111.982357 
L 137.514152 -108.554392 
L 136.325937 -105.092355 
L 135.137722 -101.612368 
L 133.949506 -98.130674 
L 132.761291 -94.663461 
L 131.573076 -91.22666 
L 130.38486 -87.83576 
L 129.196645 -84.505611 
L 128.00843 -81.250245 
L 126.820214 -78.082709 
L 125.631999 -75.014909 
L 124.443784 -72.057487 
L 123.255568 -69.219715 
L 122.067353 -66.509416 
L 120.879138 -63.932918 
L 119.690922 -61.495036 
L 118.502707 -59.199075 
L 117.314492 -57.046873 
L 116.126276 -55.038857 
L 114.938061 -53.174125 
L 113.749846 -51.450554 
L 112.56163 -49.864909 
L 111.373415 -48.412975 
L 110.1852 -47.089696 
L 108.996985 -45.88931 
L 107.808769 -44.805495 
L 106.620554 -43.831502 
L 105.432339 -42.96029 
L 104.244123 -42.18465 
L 103.055908 -41.497319 
L 101.867693 -40.891081 
L 100.679477 -40.35886 
L 99.491262 -39.893793 
L 98.303047 -39.489298 
L 97.114831 -39.13912 
L 95.926616 -38.837373 
L 94.738401 -38.578567 
L 93.550185 -38.357618 
L 92.36197 -38.169865 
L 91.173755 -38.011058 
L 89.985539 -37.877357 
L 88.797324 -37.765313 
L 87.609109 -37.671852 
L 86.420893 -37.594252 
L 85.232678 -37.530119 
L 84.044463 -37.47736 
L 82.856247 -37.434158 
z
"/>
    </defs>
    <g clip-path="url(#p01a67ab0d2)">
     <use xlink:href="#m62e377ec44" x="0" y="377.1" style="fill: #d64f5f; fill-opacity: 0.3"/>
    </g>
   </g>
   <g id="PolyCollection_4">
    <defs>
     <path id="m477512eaf8" d="M 52.74003 -37.403114 
L 52.74003 -37.26 
L 54.154109 -37.26 
L 55.568189 -37.26 
L 56.982268 -37.26 
L 58.396347 -37.26 
L 59.810426 -37.26 
L 61.224506 -37.26 
L 62.638585 -37.26 
L 64.052664 -37.26 
L 65.466743 -37.26 
L 66.880823 -37.26 
L 68.294902 -37.26 
L 69.708981 -37.26 
L 71.12306 -37.26 
L 72.53714 -37.26 
L 73.951219 -37.26 
L 75.365298 -37.26 
L 76.779377 -37.26 
L 78.193457 -37.26 
L 79.607536 -37.26 
L 81.021615 -37.26 
L 82.435694 -37.26 
L 83.849774 -37.26 
L 85.263853 -37.26 
L 86.677932 -37.26 
L 88.092011 -37.26 
L 89.506091 -37.26 
L 90.92017 -37.26 
L 92.334249 -37.26 
L 93.748328 -37.26 
L 95.162408 -37.26 
L 96.576487 -37.26 
L 97.990566 -37.26 
L 99.404645 -37.26 
L 100.818725 -37.26 
L 102.232804 -37.26 
L 103.646883 -37.26 
L 105.060962 -37.26 
L 106.475042 -37.26 
L 107.889121 -37.26 
L 109.3032 -37.26 
L 110.717279 -37.26 
L 112.131359 -37.26 
L 113.545438 -37.26 
L 114.959517 -37.26 
L 116.373596 -37.26 
L 117.787676 -37.26 
L 119.201755 -37.26 
L 120.615834 -37.26 
L 122.029913 -37.26 
L 123.443993 -37.26 
L 124.858072 -37.26 
L 126.272151 -37.26 
L 127.68623 -37.26 
L 129.10031 -37.26 
L 130.514389 -37.26 
L 131.928468 -37.26 
L 133.342547 -37.26 
L 134.756627 -37.26 
L 136.170706 -37.26 
L 137.584785 -37.26 
L 138.998864 -37.26 
L 140.412944 -37.26 
L 141.827023 -37.26 
L 143.241102 -37.26 
L 144.655181 -37.26 
L 146.069261 -37.26 
L 147.48334 -37.26 
L 148.897419 -37.26 
L 150.311498 -37.26 
L 151.725578 -37.26 
L 153.139657 -37.26 
L 154.553736 -37.26 
L 155.967815 -37.26 
L 157.381895 -37.26 
L 158.795974 -37.26 
L 160.210053 -37.26 
L 161.624132 -37.26 
L 163.038212 -37.26 
L 164.452291 -37.26 
L 165.86637 -37.26 
L 167.280449 -37.26 
L 168.694529 -37.26 
L 170.108608 -37.26 
L 171.522687 -37.26 
L 172.936766 -37.26 
L 174.350846 -37.26 
L 175.764925 -37.26 
L 177.179004 -37.26 
L 178.593083 -37.26 
L 180.007163 -37.26 
L 181.421242 -37.26 
L 182.835321 -37.26 
L 184.2494 -37.26 
L 185.66348 -37.26 
L 187.077559 -37.26 
L 188.491638 -37.26 
L 189.905717 -37.26 
L 191.319797 -37.26 
L 192.733876 -37.26 
L 194.147955 -37.26 
L 195.562034 -37.26 
L 196.976114 -37.26 
L 198.390193 -37.26 
L 199.804272 -37.26 
L 201.218351 -37.26 
L 202.632431 -37.26 
L 204.04651 -37.26 
L 205.460589 -37.26 
L 206.874668 -37.26 
L 208.288747 -37.26 
L 209.702827 -37.26 
L 211.116906 -37.26 
L 212.530985 -37.26 
L 213.945064 -37.26 
L 215.359144 -37.26 
L 216.773223 -37.26 
L 218.187302 -37.26 
L 219.601381 -37.26 
L 221.015461 -37.26 
L 222.42954 -37.26 
L 223.843619 -37.26 
L 225.257698 -37.26 
L 226.671778 -37.26 
L 228.085857 -37.26 
L 229.499936 -37.26 
L 230.914015 -37.26 
L 232.328095 -37.26 
L 233.742174 -37.26 
L 235.156253 -37.26 
L 236.570332 -37.26 
L 237.984412 -37.26 
L 239.398491 -37.26 
L 240.81257 -37.26 
L 242.226649 -37.26 
L 243.640729 -37.26 
L 245.054808 -37.26 
L 246.468887 -37.26 
L 247.882966 -37.26 
L 249.297046 -37.26 
L 250.711125 -37.26 
L 252.125204 -37.26 
L 253.539283 -37.26 
L 254.953363 -37.26 
L 256.367442 -37.26 
L 257.781521 -37.26 
L 259.1956 -37.26 
L 260.60968 -37.26 
L 262.023759 -37.26 
L 263.437838 -37.26 
L 264.851917 -37.26 
L 266.265997 -37.26 
L 267.680076 -37.26 
L 269.094155 -37.26 
L 270.508234 -37.26 
L 271.922314 -37.26 
L 273.336393 -37.26 
L 274.750472 -37.26 
L 276.164551 -37.26 
L 277.578631 -37.26 
L 278.99271 -37.26 
L 280.406789 -37.26 
L 281.820868 -37.26 
L 283.234948 -37.26 
L 284.649027 -37.26 
L 286.063106 -37.26 
L 287.477185 -37.26 
L 288.891265 -37.26 
L 290.305344 -37.26 
L 291.719423 -37.26 
L 293.133502 -37.26 
L 294.547582 -37.26 
L 295.961661 -37.26 
L 297.37574 -37.26 
L 298.789819 -37.26 
L 300.203899 -37.26 
L 301.617978 -37.26 
L 303.032057 -37.26 
L 304.446136 -37.26 
L 305.860216 -37.26 
L 307.274295 -37.26 
L 308.688374 -37.26 
L 310.102453 -37.26 
L 311.516533 -37.26 
L 312.930612 -37.26 
L 314.344691 -37.26 
L 315.75877 -37.26 
L 317.17285 -37.26 
L 318.586929 -37.26 
L 320.001008 -37.26 
L 321.415087 -37.26 
L 322.829167 -37.26 
L 324.243246 -37.26 
L 325.657325 -37.26 
L 327.071404 -37.26 
L 328.485484 -37.26 
L 329.899563 -37.26 
L 331.313642 -37.26 
L 332.727721 -37.26 
L 334.141801 -37.26 
L 334.141801 -37.32992 
L 334.141801 -37.32992 
L 332.727721 -37.347448 
L 331.313642 -37.368777 
L 329.899563 -37.394576 
L 328.485484 -37.425597 
L 327.071404 -37.462674 
L 325.657325 -37.506727 
L 324.243246 -37.558756 
L 322.829167 -37.61984 
L 321.415087 -37.69113 
L 320.001008 -37.773837 
L 318.586929 -37.869223 
L 317.17285 -37.978581 
L 315.75877 -38.10322 
L 314.344691 -38.244444 
L 312.930612 -38.403523 
L 311.516533 -38.581675 
L 310.102453 -38.780033 
L 308.688374 -38.99962 
L 307.274295 -39.241326 
L 305.860216 -39.505873 
L 304.446136 -39.793799 
L 303.032057 -40.105436 
L 301.617978 -40.44089 
L 300.203899 -40.800029 
L 298.789819 -41.182477 
L 297.37574 -41.587608 
L 295.961661 -42.014551 
L 294.547582 -42.462193 
L 293.133502 -42.929194 
L 291.719423 -43.413998 
L 290.305344 -43.914856 
L 288.891265 -44.42984 
L 287.477185 -44.95687 
L 286.063106 -45.493732 
L 284.649027 -46.038099 
L 283.234948 -46.587555 
L 281.820868 -47.139611 
L 280.406789 -47.691722 
L 278.99271 -48.241306 
L 277.578631 -48.785758 
L 276.164551 -49.322471 
L 274.750472 -49.848845 
L 273.336393 -50.362316 
L 271.922314 -50.860373 
L 270.508234 -51.340588 
L 269.094155 -51.800646 
L 267.680076 -52.238385 
L 266.265997 -52.651832 
L 264.851917 -53.039254 
L 263.437838 -53.399204 
L 262.023759 -53.730572 
L 260.60968 -54.032633 
L 259.1956 -54.305094 
L 257.781521 -54.548137 
L 256.367442 -54.762447 
L 254.953363 -54.94924 
L 253.539283 -55.110275 
L 252.125204 -55.247845 
L 250.711125 -55.36477 
L 249.297046 -55.464362 
L 247.882966 -55.550387 
L 246.468887 -55.627008 
L 245.054808 -55.698723 
L 243.640729 -55.770302 
L 242.226649 -55.846708 
L 240.81257 -55.933029 
L 239.398491 -56.034412 
L 237.984412 -56.155998 
L 236.570332 -56.30287 
L 235.156253 -56.48001 
L 233.742174 -56.692264 
L 232.328095 -56.944322 
L 230.914015 -57.240706 
L 229.499936 -57.585759 
L 228.085857 -57.983651 
L 226.671778 -58.438378 
L 225.257698 -58.953762 
L 223.843619 -59.53345 
L 222.42954 -60.180899 
L 221.015461 -60.899363 
L 219.601381 -61.691856 
L 218.187302 -62.561115 
L 216.773223 -63.509551 
L 215.359144 -64.539185 
L 213.945064 -65.651589 
L 212.530985 -66.84782 
L 211.116906 -68.128357 
L 209.702827 -69.493049 
L 208.288747 -70.941075 
L 206.874668 -72.470922 
L 205.460589 -74.080388 
L 204.04651 -75.766606 
L 202.632431 -77.526102 
L 201.218351 -79.354874 
L 199.804272 -81.248507 
L 198.390193 -83.202301 
L 196.976114 -85.211434 
L 195.562034 -87.271127 
L 194.147955 -89.376818 
L 192.733876 -91.524346 
L 191.319797 -93.710108 
L 189.905717 -95.931214 
L 188.491638 -98.1856 
L 187.077559 -100.472115 
L 185.66348 -102.790555 
L 184.2494 -105.141659 
L 182.835321 -107.527033 
L 181.421242 -109.949037 
L 180.007163 -112.410599 
L 178.593083 -114.914977 
L 177.179004 -117.465479 
L 175.764925 -120.065124 
L 174.350846 -122.71628 
L 172.936766 -125.420274 
L 171.522687 -128.176988 
L 170.108608 -130.984461 
L 168.694529 -133.838513 
L 167.280449 -136.732399 
L 165.86637 -139.656519 
L 164.452291 -142.598191 
L 163.038212 -145.541513 
L 161.624132 -148.467305 
L 160.210053 -151.353176 
L 158.795974 -154.173684 
L 157.381895 -156.90062 
L 155.967815 -159.503404 
L 154.553736 -161.949594 
L 153.139657 -164.205489 
L 151.725578 -166.236824 
L 150.311498 -168.009529 
L 148.897419 -169.490537 
L 147.48334 -170.648617 
L 146.069261 -171.455199 
L 144.655181 -171.885163 
L 143.241102 -171.917578 
L 141.827023 -171.536347 
L 140.412944 -170.730738 
L 138.998864 -169.495793 
L 137.584785 -167.832578 
L 136.170706 -165.748278 
L 134.756627 -163.256129 
L 133.342547 -160.375188 
L 131.928468 -157.129937 
L 130.514389 -153.549759 
L 129.10031 -149.668281 
L 127.68623 -145.522619 
L 126.272151 -141.15255 
L 124.858072 -136.59964 
L 123.443993 -131.906355 
L 122.029913 -127.115188 
L 120.615834 -122.26783 
L 119.201755 -117.404403 
L 117.787676 -112.562785 
L 116.373596 -107.778038 
L 114.959517 -103.081948 
L 113.545438 -98.502692 
L 112.131359 -94.06462 
L 110.717279 -89.788159 
L 109.3032 -85.689828 
L 107.889121 -81.782346 
L 106.475042 -78.074828 
L 105.060962 -74.573048 
L 103.646883 -71.279748 
L 102.232804 -68.194989 
L 100.818725 -65.316513 
L 99.404645 -62.640109 
L 97.990566 -60.159975 
L 96.576487 -57.869052 
L 95.162408 -55.759338 
L 93.748328 -53.822163 
L 92.334249 -52.048431 
L 90.92017 -50.428826 
L 89.506091 -48.953975 
L 88.092011 -47.614586 
L 86.677932 -46.401547 
L 85.263853 -45.306002 
L 83.849774 -44.319406 
L 82.435694 -43.433556 
L 81.021615 -42.640612 
L 79.607536 -41.933108 
L 78.193457 -41.303954 
L 76.779377 -40.746433 
L 75.365298 -40.254195 
L 73.951219 -39.821253 
L 72.53714 -39.441977 
L 71.12306 -39.111084 
L 69.708981 -38.823635 
L 68.294902 -38.575029 
L 66.880823 -38.360994 
L 65.466743 -38.177584 
L 64.052664 -38.02117 
L 62.638585 -37.888434 
L 61.224506 -37.776354 
L 59.810426 -37.682197 
L 58.396347 -37.603508 
L 56.982268 -37.538091 
L 55.568189 -37.483997 
L 54.154109 -37.439507 
L 52.74003 -37.403114 
z
"/>
    </defs>
    <g clip-path="url(#p01a67ab0d2)">
     <use xlink:href="#m477512eaf8" x="0" y="377.1" style="fill: #aa3a6e; fill-opacity: 0.3"/>
    </g>
   </g>
   <g id="PolyCollection_5">
    <defs>
     <path id="m6826301c2f" d="M 62.916289 -37.305665 
L 62.916289 -37.26 
L 63.918343 -37.26 
L 64.920397 -37.26 
L 65.922451 -37.26 
L 66.924505 -37.26 
L 67.926559 -37.26 
L 68.928613 -37.26 
L 69.930667 -37.26 
L 70.932722 -37.26 
L 71.934776 -37.26 
L 72.93683 -37.26 
L 73.938884 -37.26 
L 74.940938 -37.26 
L 75.942992 -37.26 
L 76.945046 -37.26 
L 77.9471 -37.26 
L 78.949154 -37.26 
L 79.951208 -37.26 
L 80.953262 -37.26 
L 81.955316 -37.26 
L 82.95737 -37.26 
L 83.959424 -37.26 
L 84.961479 -37.26 
L 85.963533 -37.26 
L 86.965587 -37.26 
L 87.967641 -37.26 
L 88.969695 -37.26 
L 89.971749 -37.26 
L 90.973803 -37.26 
L 91.975857 -37.26 
L 92.977911 -37.26 
L 93.979965 -37.26 
L 94.982019 -37.26 
L 95.984073 -37.26 
L 96.986127 -37.26 
L 97.988181 -37.26 
L 98.990235 -37.26 
L 99.99229 -37.26 
L 100.994344 -37.26 
L 101.996398 -37.26 
L 102.998452 -37.26 
L 104.000506 -37.26 
L 105.00256 -37.26 
L 106.004614 -37.26 
L 107.006668 -37.26 
L 108.008722 -37.26 
L 109.010776 -37.26 
L 110.01283 -37.26 
L 111.014884 -37.26 
L 112.016938 -37.26 
L 113.018992 -37.26 
L 114.021047 -37.26 
L 115.023101 -37.26 
L 116.025155 -37.26 
L 117.027209 -37.26 
L 118.029263 -37.26 
L 119.031317 -37.26 
L 120.033371 -37.26 
L 121.035425 -37.26 
L 122.037479 -37.26 
L 123.039533 -37.26 
L 124.041587 -37.26 
L 125.043641 -37.26 
L 126.045695 -37.26 
L 127.047749 -37.26 
L 128.049804 -37.26 
L 129.051858 -37.26 
L 130.053912 -37.26 
L 131.055966 -37.26 
L 132.05802 -37.26 
L 133.060074 -37.26 
L 134.062128 -37.26 
L 135.064182 -37.26 
L 136.066236 -37.26 
L 137.06829 -37.26 
L 138.070344 -37.26 
L 139.072398 -37.26 
L 140.074452 -37.26 
L 141.076506 -37.26 
L 142.078561 -37.26 
L 143.080615 -37.26 
L 144.082669 -37.26 
L 145.084723 -37.26 
L 146.086777 -37.26 
L 147.088831 -37.26 
L 148.090885 -37.26 
L 149.092939 -37.26 
L 150.094993 -37.26 
L 151.097047 -37.26 
L 152.099101 -37.26 
L 153.101155 -37.26 
L 154.103209 -37.26 
L 155.105263 -37.26 
L 156.107318 -37.26 
L 157.109372 -37.26 
L 158.111426 -37.26 
L 159.11348 -37.26 
L 160.115534 -37.26 
L 161.117588 -37.26 
L 162.119642 -37.26 
L 163.121696 -37.26 
L 164.12375 -37.26 
L 165.125804 -37.26 
L 166.127858 -37.26 
L 167.129912 -37.26 
L 168.131966 -37.26 
L 169.13402 -37.26 
L 170.136075 -37.26 
L 171.138129 -37.26 
L 172.140183 -37.26 
L 173.142237 -37.26 
L 174.144291 -37.26 
L 175.146345 -37.26 
L 176.148399 -37.26 
L 177.150453 -37.26 
L 178.152507 -37.26 
L 179.154561 -37.26 
L 180.156615 -37.26 
L 181.158669 -37.26 
L 182.160723 -37.26 
L 183.162777 -37.26 
L 184.164832 -37.26 
L 185.166886 -37.26 
L 186.16894 -37.26 
L 187.170994 -37.26 
L 188.173048 -37.26 
L 189.175102 -37.26 
L 190.177156 -37.26 
L 191.17921 -37.26 
L 192.181264 -37.26 
L 193.183318 -37.26 
L 194.185372 -37.26 
L 195.187426 -37.26 
L 196.18948 -37.26 
L 197.191534 -37.26 
L 198.193589 -37.26 
L 199.195643 -37.26 
L 200.197697 -37.26 
L 201.199751 -37.26 
L 202.201805 -37.26 
L 203.203859 -37.26 
L 204.205913 -37.26 
L 205.207967 -37.26 
L 206.210021 -37.26 
L 207.212075 -37.26 
L 208.214129 -37.26 
L 209.216183 -37.26 
L 210.218237 -37.26 
L 211.220291 -37.26 
L 212.222346 -37.26 
L 213.2244 -37.26 
L 214.226454 -37.26 
L 215.228508 -37.26 
L 216.230562 -37.26 
L 217.232616 -37.26 
L 218.23467 -37.26 
L 219.236724 -37.26 
L 220.238778 -37.26 
L 221.240832 -37.26 
L 222.242886 -37.26 
L 223.24494 -37.26 
L 224.246994 -37.26 
L 225.249048 -37.26 
L 226.251103 -37.26 
L 227.253157 -37.26 
L 228.255211 -37.26 
L 229.257265 -37.26 
L 230.259319 -37.26 
L 231.261373 -37.26 
L 232.263427 -37.26 
L 233.265481 -37.26 
L 234.267535 -37.26 
L 235.269589 -37.26 
L 236.271643 -37.26 
L 237.273697 -37.26 
L 238.275751 -37.26 
L 239.277805 -37.26 
L 240.279859 -37.26 
L 241.281914 -37.26 
L 242.283968 -37.26 
L 243.286022 -37.26 
L 244.288076 -37.26 
L 245.29013 -37.26 
L 246.292184 -37.26 
L 247.294238 -37.26 
L 248.296292 -37.26 
L 249.298346 -37.26 
L 250.3004 -37.26 
L 251.302454 -37.26 
L 252.304508 -37.26 
L 253.306562 -37.26 
L 254.308616 -37.26 
L 255.310671 -37.26 
L 256.312725 -37.26 
L 257.314779 -37.26 
L 258.316833 -37.26 
L 259.318887 -37.26 
L 260.320941 -37.26 
L 261.322995 -37.26 
L 262.325049 -37.26 
L 262.325049 -37.294537 
L 262.325049 -37.294537 
L 261.322995 -37.307695 
L 260.320941 -37.325078 
L 259.318887 -37.347737 
L 258.316833 -37.376873 
L 257.314779 -37.413826 
L 256.312725 -37.460048 
L 255.310671 -37.517053 
L 254.308616 -37.586361 
L 253.306562 -37.669413 
L 252.304508 -37.767474 
L 251.302454 -37.881521 
L 250.3004 -38.012128 
L 249.298346 -38.159338 
L 248.296292 -38.322564 
L 247.294238 -38.500489 
L 246.292184 -38.691019 
L 245.29013 -38.891257 
L 244.288076 -39.09755 
L 243.286022 -39.305576 
L 242.283968 -39.5105 
L 241.281914 -39.707184 
L 240.279859 -39.890445 
L 239.277805 -40.05535 
L 238.275751 -40.197531 
L 237.273697 -40.313492 
L 236.271643 -40.400905 
L 235.269589 -40.458853 
L 234.267535 -40.488019 
L 233.265481 -40.490795 
L 232.263427 -40.471305 
L 231.261373 -40.435348 
L 230.259319 -40.390247 
L 229.257265 -40.344623 
L 228.255211 -40.308102 
L 227.253157 -40.290973 
L 226.251103 -40.303804 
L 225.249048 -40.357045 
L 224.246994 -40.460624 
L 223.24494 -40.623542 
L 222.242886 -40.853502 
L 221.240832 -41.15655 
L 220.238778 -41.536765 
L 219.236724 -41.995989 
L 218.23467 -42.53361 
L 217.232616 -43.146411 
L 216.230562 -43.828507 
L 215.228508 -44.571357 
L 214.226454 -45.3639 
L 213.2244 -46.192794 
L 212.222346 -47.042795 
L 211.220291 -47.897252 
L 210.218237 -48.73874 
L 209.216183 -49.549784 
L 208.214129 -50.313671 
L 207.212075 -51.015297 
L 206.210021 -51.642012 
L 205.207967 -52.184393 
L 204.205913 -52.636902 
L 203.203859 -52.99837 
L 202.201805 -53.27226 
L 201.199751 -53.466674 
L 200.197697 -53.594091 
L 199.195643 -53.670846 
L 198.193589 -53.716357 
L 197.191534 -53.752177 
L 196.18948 -53.8009 
L 195.187426 -53.885022 
L 194.185372 -54.025828 
L 193.183318 -54.242386 
L 192.181264 -54.550713 
L 191.17921 -54.963186 
L 190.177156 -55.488214 
L 189.175102 -56.130212 
L 188.173048 -56.88984 
L 187.170994 -57.764499 
L 186.16894 -58.749028 
L 185.166886 -59.836532 
L 184.164832 -61.01928 
L 183.162777 -62.289589 
L 182.160723 -63.640631 
L 181.158669 -65.067089 
L 180.156615 -66.565638 
L 179.154561 -68.13519 
L 178.152507 -69.77692 
L 177.150453 -71.494061 
L 176.148399 -73.291506 
L 175.146345 -75.175246 
L 174.144291 -77.151713 
L 173.142237 -79.227066 
L 172.140183 -81.4065 
L 171.138129 -83.693622 
L 170.136075 -86.089955 
L 169.13402 -88.594604 
L 168.131966 -91.204117 
L 167.129912 -93.912542 
L 166.127858 -96.71169 
L 165.125804 -99.591572 
L 164.12375 -102.540982 
L 163.121696 -105.548195 
L 162.119642 -108.601702 
L 161.117588 -111.690962 
L 160.115534 -114.807093 
L 159.11348 -117.943455 
L 158.111426 -121.096093 
L 157.109372 -124.263996 
L 156.107318 -127.449145 
L 155.105263 -130.656356 
L 154.103209 -133.892916 
L 153.101155 -137.16803 
L 152.099101 -140.49212 
L 151.097047 -143.876024 
L 150.094993 -147.330141 
L 149.092939 -150.863594 
L 148.090885 -154.483463 
L 147.088831 -158.194138 
L 146.086777 -161.99685 
L 145.084723 -165.889384 
L 144.082669 -169.866003 
L 143.080615 -173.917554 
L 142.078561 -178.031734 
L 141.076506 -182.193455 
L 140.074452 -186.385265 
L 139.072398 -190.587739 
L 138.070344 -194.779795 
L 137.06829 -198.938891 
L 136.066236 -203.041051 
L 135.064182 -207.060745 
L 134.062128 -210.970629 
L 133.060074 -214.741197 
L 132.05802 -218.340415 
L 131.055966 -221.733421 
L 130.053912 -224.882372 
L 129.051858 -227.746523 
L 128.049804 -230.282592 
L 127.047749 -232.44545 
L 126.045695 -234.189126 
L 125.043641 -235.468112 
L 124.041587 -236.23888 
L 123.039533 -236.461532 
L 122.037479 -236.101471 
L 121.035425 -235.130976 
L 120.033371 -233.530566 
L 119.031317 -231.290076 
L 118.029263 -228.409354 
L 117.027209 -224.89857 
L 116.025155 -220.778105 
L 115.023101 -216.078062 
L 114.021047 -210.837436 
L 113.018992 -205.103021 
L 112.016938 -198.928108 
L 111.014884 -192.371076 
L 110.01283 -185.493921 
L 109.010776 -178.360802 
L 108.008722 -171.036653 
L 107.006668 -163.58589 
L 106.004614 -156.071252 
L 105.00256 -148.552785 
L 104.000506 -141.086987 
L 102.998452 -133.726116 
L 101.996398 -126.517657 
L 100.994344 -119.503947 
L 99.99229 -112.721961 
L 98.990235 -106.20322 
L 97.988181 -99.973838 
L 96.986127 -94.054662 
L 95.984073 -88.461503 
L 94.982019 -83.205433 
L 93.979965 -78.293111 
L 92.977911 -73.727155 
L 91.975857 -69.506505 
L 90.973803 -65.626794 
L 89.971749 -62.080712 
L 88.969695 -58.858358 
L 87.967641 -55.947579 
L 86.965587 -53.334304 
L 85.963533 -51.002872 
L 84.961479 -48.936352 
L 83.959424 -47.116859 
L 82.95737 -45.52587 
L 81.955316 -44.144529 
L 80.953262 -42.953934 
L 79.951208 -41.935419 
L 78.949154 -41.070802 
L 77.9471 -40.342607 
L 76.945046 -39.734259 
L 75.942992 -39.230229 
L 74.940938 -38.816158 
L 73.938884 -38.478926 
L 72.93683 -38.206696 
L 71.934776 -37.988915 
L 70.932722 -37.81629 
L 69.930667 -37.680737 
L 68.928613 -37.575307 
L 67.926559 -37.494099 
L 66.924505 -37.432164 
L 65.922451 -37.385399 
L 64.920397 -37.350447 
L 63.918343 -37.324592 
L 62.916289 -37.305665 
z
"/>
    </defs>
    <g clip-path="url(#p01a67ab0d2)">
     <use xlink:href="#m6826301c2f" x="0" y="377.1" style="fill: #7a2e70; fill-opacity: 0.3"/>
    </g>
   </g>
   <g id="PolyCollection_6">
    <defs>
     <path id="m1fa02e7003" d="M 50.782557 -38.560534 
L 50.782557 -37.26 
L 51.214418 -37.26 
L 51.64628 -37.26 
L 52.078142 -37.26 
L 52.510003 -37.26 
L 52.941865 -37.26 
L 53.373726 -37.26 
L 53.805588 -37.26 
L 54.23745 -37.26 
L 54.669311 -37.26 
L 55.101173 -37.26 
L 55.533035 -37.26 
L 55.964896 -37.26 
L 56.396758 -37.26 
L 56.828619 -37.26 
L 57.260481 -37.26 
L 57.692343 -37.26 
L 58.124204 -37.26 
L 58.556066 -37.26 
L 58.987927 -37.26 
L 59.419789 -37.26 
L 59.851651 -37.26 
L 60.283512 -37.26 
L 60.715374 -37.26 
L 61.147235 -37.26 
L 61.579097 -37.26 
L 62.010959 -37.26 
L 62.44282 -37.26 
L 62.874682 -37.26 
L 63.306543 -37.26 
L 63.738405 -37.26 
L 64.170267 -37.26 
L 64.602128 -37.26 
L 65.03399 -37.26 
L 65.465852 -37.26 
L 65.897713 -37.26 
L 66.329575 -37.26 
L 66.761436 -37.26 
L 67.193298 -37.26 
L 67.62516 -37.26 
L 68.057021 -37.26 
L 68.488883 -37.26 
L 68.920744 -37.26 
L 69.352606 -37.26 
L 69.784468 -37.26 
L 70.216329 -37.26 
L 70.648191 -37.26 
L 71.080052 -37.26 
L 71.511914 -37.26 
L 71.943776 -37.26 
L 72.375637 -37.26 
L 72.807499 -37.26 
L 73.23936 -37.26 
L 73.671222 -37.26 
L 74.103084 -37.26 
L 74.534945 -37.26 
L 74.966807 -37.26 
L 75.398669 -37.26 
L 75.83053 -37.26 
L 76.262392 -37.26 
L 76.694253 -37.26 
L 77.126115 -37.26 
L 77.557977 -37.26 
L 77.989838 -37.26 
L 78.4217 -37.26 
L 78.853561 -37.26 
L 79.285423 -37.26 
L 79.717285 -37.26 
L 80.149146 -37.26 
L 80.581008 -37.26 
L 81.012869 -37.26 
L 81.444731 -37.26 
L 81.876593 -37.26 
L 82.308454 -37.26 
L 82.740316 -37.26 
L 83.172177 -37.26 
L 83.604039 -37.26 
L 84.035901 -37.26 
L 84.467762 -37.26 
L 84.899624 -37.26 
L 85.331486 -37.26 
L 85.763347 -37.26 
L 86.195209 -37.26 
L 86.62707 -37.26 
L 87.058932 -37.26 
L 87.490794 -37.26 
L 87.922655 -37.26 
L 88.354517 -37.26 
L 88.786378 -37.26 
L 89.21824 -37.26 
L 89.650102 -37.26 
L 90.081963 -37.26 
L 90.513825 -37.26 
L 90.945686 -37.26 
L 91.377548 -37.26 
L 91.80941 -37.26 
L 92.241271 -37.26 
L 92.673133 -37.26 
L 93.104994 -37.26 
L 93.536856 -37.26 
L 93.968718 -37.26 
L 94.400579 -37.26 
L 94.832441 -37.26 
L 95.264303 -37.26 
L 95.696164 -37.26 
L 96.128026 -37.26 
L 96.559887 -37.26 
L 96.991749 -37.26 
L 97.423611 -37.26 
L 97.855472 -37.26 
L 98.287334 -37.26 
L 98.719195 -37.26 
L 99.151057 -37.26 
L 99.582919 -37.26 
L 100.01478 -37.26 
L 100.446642 -37.26 
L 100.878503 -37.26 
L 101.310365 -37.26 
L 101.742227 -37.26 
L 102.174088 -37.26 
L 102.60595 -37.26 
L 103.037811 -37.26 
L 103.469673 -37.26 
L 103.901535 -37.26 
L 104.333396 -37.26 
L 104.765258 -37.26 
L 105.19712 -37.26 
L 105.628981 -37.26 
L 106.060843 -37.26 
L 106.492704 -37.26 
L 106.924566 -37.26 
L 107.356428 -37.26 
L 107.788289 -37.26 
L 108.220151 -37.26 
L 108.652012 -37.26 
L 109.083874 -37.26 
L 109.515736 -37.26 
L 109.947597 -37.26 
L 110.379459 -37.26 
L 110.81132 -37.26 
L 111.243182 -37.26 
L 111.675044 -37.26 
L 112.106905 -37.26 
L 112.538767 -37.26 
L 112.970628 -37.26 
L 113.40249 -37.26 
L 113.834352 -37.26 
L 114.266213 -37.26 
L 114.698075 -37.26 
L 115.129937 -37.26 
L 115.561798 -37.26 
L 115.99366 -37.26 
L 116.425521 -37.26 
L 116.857383 -37.26 
L 117.289245 -37.26 
L 117.721106 -37.26 
L 118.152968 -37.26 
L 118.584829 -37.26 
L 119.016691 -37.26 
L 119.448553 -37.26 
L 119.880414 -37.26 
L 120.312276 -37.26 
L 120.744137 -37.26 
L 121.175999 -37.26 
L 121.607861 -37.26 
L 122.039722 -37.26 
L 122.471584 -37.26 
L 122.903446 -37.26 
L 123.335307 -37.26 
L 123.767169 -37.26 
L 124.19903 -37.26 
L 124.630892 -37.26 
L 125.062754 -37.26 
L 125.494615 -37.26 
L 125.926477 -37.26 
L 126.358338 -37.26 
L 126.7902 -37.26 
L 127.222062 -37.26 
L 127.653923 -37.26 
L 128.085785 -37.26 
L 128.517646 -37.26 
L 128.949508 -37.26 
L 129.38137 -37.26 
L 129.813231 -37.26 
L 130.245093 -37.26 
L 130.676954 -37.26 
L 131.108816 -37.26 
L 131.540678 -37.26 
L 131.972539 -37.26 
L 132.404401 -37.26 
L 132.836263 -37.26 
L 133.268124 -37.26 
L 133.699986 -37.26 
L 134.131847 -37.26 
L 134.563709 -37.26 
L 134.995571 -37.26 
L 135.427432 -37.26 
L 135.859294 -37.26 
L 136.291155 -37.26 
L 136.723017 -37.26 
L 136.723017 -38.722376 
L 136.723017 -38.722376 
L 136.291155 -38.94096 
L 135.859294 -39.188426 
L 135.427432 -39.467989 
L 134.995571 -39.783138 
L 134.563709 -40.137641 
L 134.131847 -40.535559 
L 133.699986 -40.981253 
L 133.268124 -41.479387 
L 132.836263 -42.034939 
L 132.404401 -42.653197 
L 131.972539 -43.339763 
L 131.540678 -44.100546 
L 131.108816 -44.941757 
L 130.676954 -45.869897 
L 130.245093 -46.891747 
L 129.813231 -48.014342 
L 129.38137 -49.244957 
L 128.949508 -50.591073 
L 128.517646 -52.060348 
L 128.085785 -53.660582 
L 127.653923 -55.399668 
L 127.222062 -57.285556 
L 126.7902 -59.326191 
L 126.358338 -61.529463 
L 125.926477 -63.903146 
L 125.494615 -66.454828 
L 125.062754 -69.191845 
L 124.630892 -72.121209 
L 124.19903 -75.24953 
L 123.767169 -78.582937 
L 123.335307 -82.126997 
L 122.903446 -85.886636 
L 122.471584 -89.866054 
L 122.039722 -94.068643 
L 121.607861 -98.496908 
L 121.175999 -103.152385 
L 120.744137 -108.035569 
L 120.312276 -113.145839 
L 119.880414 -118.481393 
L 119.448553 -124.039189 
L 119.016691 -129.814885 
L 118.584829 -135.802799 
L 118.152968 -141.995869 
L 117.721106 -148.385626 
L 117.289245 -154.962172 
L 116.857383 -161.714179 
L 116.425521 -168.62889 
L 115.99366 -175.692137 
L 115.561798 -182.888365 
L 115.129937 -190.200682 
L 114.698075 -197.610903 
L 114.266213 -205.099622 
L 113.834352 -212.646292 
L 113.40249 -220.229308 
L 112.970628 -227.826121 
L 112.538767 -235.413342 
L 112.106905 -242.966871 
L 111.675044 -250.462032 
L 111.243182 -257.873712 
L 110.81132 -265.176516 
L 110.379459 -272.344922 
L 109.947597 -279.353445 
L 109.515736 -286.176803 
L 109.083874 -292.790088 
L 108.652012 -299.168938 
L 108.220151 -305.289707 
L 107.788289 -311.129633 
L 107.356428 -316.66701 
L 106.924566 -321.881346 
L 106.492704 -326.75352 
L 106.060843 -331.265928 
L 105.628981 -335.40263 
L 105.19712 -339.149468 
L 104.765258 -342.494193 
L 104.333396 -345.426561 
L 103.901535 -347.938429 
L 103.469673 -350.023824 
L 103.037811 -351.679004 
L 102.60595 -352.902497 
L 102.174088 -353.695123 
L 101.742227 -354.06 
L 101.310365 -354.002526 
L 100.878503 -353.530347 
L 100.446642 -352.653302 
L 100.01478 -351.383351 
L 99.582919 -349.734484 
L 99.151057 -347.722607 
L 98.719195 -345.365421 
L 98.287334 -342.682272 
L 97.855472 -339.693995 
L 97.423611 -336.422737 
L 96.991749 -332.891773 
L 96.559887 -329.125306 
L 96.128026 -325.148263 
L 95.696164 -320.986076 
L 95.264303 -316.664469 
L 94.832441 -312.209232 
L 94.400579 -307.646001 
L 93.968718 -303.000035 
L 93.536856 -298.296006 
L 93.104994 -293.557783 
L 92.673133 -288.808236 
L 92.241271 -284.069049 
L 91.80941 -279.360544 
L 91.377548 -274.70152 
L 90.945686 -270.109116 
L 90.513825 -265.598688 
L 90.081963 -261.183707 
L 89.650102 -256.875683 
L 89.21824 -252.684107 
L 88.786378 -248.616418 
L 88.354517 -244.678001 
L 87.922655 -240.872194 
L 87.490794 -237.200336 
L 87.058932 -233.661824 
L 86.62707 -230.2542 
L 86.195209 -226.973256 
L 85.763347 -223.813156 
L 85.331486 -220.766582 
L 84.899624 -217.824887 
L 84.467762 -214.978269 
L 84.035901 -212.215946 
L 83.604039 -209.526352 
L 83.172177 -206.897321 
L 82.740316 -204.316293 
L 82.308454 -201.770506 
L 81.876593 -199.247186 
L 81.444731 -196.733741 
L 81.012869 -194.217938 
L 80.581008 -191.688071 
L 80.149146 -189.133123 
L 79.717285 -186.542904 
L 79.285423 -183.908184 
L 78.853561 -181.220796 
L 78.4217 -178.473735 
L 77.989838 -175.661226 
L 77.557977 -172.778778 
L 77.126115 -169.823219 
L 76.694253 -166.79271 
L 76.262392 -163.686738 
L 75.83053 -160.506096 
L 75.398669 -157.252839 
L 74.966807 -153.93023 
L 74.534945 -150.542671 
L 74.103084 -147.095613 
L 73.671222 -143.595465 
L 73.23936 -140.049491 
L 72.807499 -136.465692 
L 72.375637 -132.852694 
L 71.943776 -129.219623 
L 71.511914 -125.575983 
L 71.080052 -121.931534 
L 70.648191 -118.296172 
L 70.216329 -114.679806 
L 69.784468 -111.092255 
L 69.352606 -107.543133 
L 68.920744 -104.041756 
L 68.488883 -100.597051 
L 68.057021 -97.217474 
L 67.62516 -93.910941 
L 67.193298 -90.684768 
L 66.761436 -87.545621 
L 66.329575 -84.499476 
L 65.897713 -81.551592 
L 65.465852 -78.706492 
L 65.03399 -75.967953 
L 64.602128 -73.339011 
L 64.170267 -70.821966 
L 63.738405 -68.418403 
L 63.306543 -66.129213 
L 62.874682 -63.954628 
L 62.44282 -61.894252 
L 62.010959 -59.947107 
L 61.579097 -58.111675 
L 61.147235 -56.385943 
L 60.715374 -54.767455 
L 60.283512 -53.253364 
L 59.851651 -51.840476 
L 59.419789 -50.525306 
L 58.987927 -49.304124 
L 58.556066 -48.173007 
L 58.124204 -47.127878 
L 57.692343 -46.164556 
L 57.260481 -45.278794 
L 56.828619 -44.466315 
L 56.396758 -43.722851 
L 55.964896 -43.044169 
L 55.533035 -42.426104 
L 55.101173 -41.86458 
L 54.669311 -41.355634 
L 54.23745 -40.895432 
L 53.805588 -40.480284 
L 53.373726 -40.106657 
L 52.941865 -39.771184 
L 52.510003 -39.470671 
L 52.078142 -39.2021 
L 51.64628 -38.96263 
L 51.214418 -38.749603 
L 50.782557 -38.560534 
z
"/>
    </defs>
    <g clip-path="url(#p01a67ab0d2)">
     <use xlink:href="#m1fa02e7003" x="0" y="377.1" style="fill: #4b2362; fill-opacity: 0.3"/>
    </g>
   </g>
   <g id="matplotlib.axis_1">
    <g id="xtick_1">
     <g id="line2d_1">
      <path d="M 66.463162 339.84 
L 66.463162 7.2 
" clip-path="url(#p01a67ab0d2)" style="fill: none; stroke-dasharray: 1.48,0.64; stroke-dashoffset: 0; stroke: #838383; stroke-opacity: 0.25; stroke-width: 0.4"/>
     </g>
     <g id="line2d_2"/>
     <g id="text_1">
      <!-- 0 -->
      <g style="fill: #838383" transform="translate(62.863162 352.22) scale(0.12 -0.12)">
       <defs>
        <path id="IBMPlexSans-Regular-30" d="M 1920 -77 
Q 1120 -77 752 531 
Q 384 1139 384 2234 
Q 384 3328 752 3936 
Q 1120 4544 1920 4544 
Q 2720 4544 3088 3936 
Q 3456 3328 3456 2234 
Q 3456 1139 3088 531 
Q 2720 -77 1920 -77 
z
M 1920 390 
Q 2182 390 2368 499 
Q 2554 608 2669 806 
Q 2784 1005 2838 1273 
Q 2893 1542 2893 1869 
L 2893 2598 
Q 2893 2925 2838 3193 
Q 2784 3462 2669 3660 
Q 2554 3859 2368 3968 
Q 2182 4077 1920 4077 
Q 1658 4077 1472 3968 
Q 1286 3859 1171 3660 
Q 1056 3462 1001 3193 
Q 947 2925 947 2598 
L 947 1869 
Q 947 1542 1001 1273 
Q 1056 1005 1171 806 
Q 1286 608 1472 499 
Q 1658 390 1920 390 
z
" transform="scale(0.015625)"/>
       </defs>
       <use xlink:href="#IBMPlexSans-Regular-30"/>
      </g>
     </g>
    </g>
    <g id="xtick_2">
     <g id="line2d_3">
      <path d="M 107.999882 339.84 
L 107.999882 7.2 
" clip-path="url(#p01a67ab0d2)" style="fill: none; stroke-dasharray: 1.48,0.64; stroke-dashoffset: 0; stroke: #838383; stroke-opacity: 0.25; stroke-width: 0.4"/>
     </g>
     <g id="line2d_4"/>
     <g id="text_2">
      <!-- 10 -->
      <g style="fill: #838383" transform="translate(100.799882 352.22) scale(0.12 -0.12)">
       <defs>
        <path id="IBMPlexSans-Regular-31" d="M 563 0 
L 563 474 
L 1811 474 
L 1811 4070 
L 1766 4070 
L 640 3021 
L 326 3360 
L 1510 4467 
L 2349 4467 
L 2349 474 
L 3501 474 
L 3501 0 
L 563 0 
z
" transform="scale(0.015625)"/>
       </defs>
       <use xlink:href="#IBMPlexSans-Regular-31"/>
       <use xlink:href="#IBMPlexSans-Regular-30" x="59.999985"/>
      </g>
     </g>
    </g>
    <g id="xtick_3">
     <g id="line2d_5">
      <path d="M 149.536602 339.84 
L 149.536602 7.2 
" clip-path="url(#p01a67ab0d2)" style="fill: none; stroke-dasharray: 1.48,0.64; stroke-dashoffset: 0; stroke: #838383; stroke-opacity: 0.25; stroke-width: 0.4"/>
     </g>
     <g id="line2d_6"/>
     <g id="text_3">
      <!-- 20 -->
      <g style="fill: #838383" transform="translate(142.336602 352.22) scale(0.12 -0.12)">
       <defs>
        <path id="IBMPlexSans-Regular-32" d="M 3411 0 
L 480 0 
L 480 550 
L 1939 1894 
Q 2253 2182 2464 2505 
Q 2675 2829 2675 3155 
L 2675 3232 
Q 2675 3603 2470 3833 
Q 2266 4064 1850 4064 
Q 1645 4064 1491 4006 
Q 1338 3949 1226 3846 
Q 1114 3744 1040 3606 
Q 966 3469 922 3309 
L 442 3494 
Q 506 3693 618 3881 
Q 730 4070 899 4217 
Q 1069 4365 1309 4454 
Q 1549 4544 1875 4544 
Q 2202 4544 2458 4448 
Q 2714 4352 2886 4179 
Q 3059 4006 3152 3769 
Q 3245 3533 3245 3245 
Q 3245 2982 3171 2758 
Q 3098 2534 2970 2332 
Q 2842 2131 2659 1939 
Q 2477 1747 2266 1555 
L 1062 474 
L 3411 474 
L 3411 0 
z
" transform="scale(0.015625)"/>
       </defs>
       <use xlink:href="#IBMPlexSans-Regular-32"/>
       <use xlink:href="#IBMPlexSans-Regular-30" x="59.999985"/>
      </g>
     </g>
    </g>
    <g id="xtick_4">
     <g id="line2d_7">
      <path d="M 191.073322 339.84 
L 191.073322 7.2 
" clip-path="url(#p01a67ab0d2)" style="fill: none; stroke-dasharray: 1.48,0.64; stroke-dashoffset: 0; stroke: #838383; stroke-opacity: 0.25; stroke-width: 0.4"/>
     </g>
     <g id="line2d_8"/>
     <g id="text_4">
      <!-- 30 -->
      <g style="fill: #838383" transform="translate(183.873322 352.22) scale(0.12 -0.12)">
       <defs>
        <path id="IBMPlexSans-Regular-33" d="M 1670 2573 
Q 2125 2573 2352 2781 
Q 2579 2989 2579 3315 
L 2579 3360 
Q 2579 3712 2358 3888 
Q 2138 4064 1779 4064 
Q 1434 4064 1216 3913 
Q 998 3763 858 3507 
L 461 3814 
Q 544 3949 662 4080 
Q 781 4211 941 4313 
Q 1101 4416 1312 4480 
Q 1523 4544 1792 4544 
Q 2074 4544 2323 4470 
Q 2573 4397 2755 4253 
Q 2938 4109 3043 3897 
Q 3149 3686 3149 3418 
Q 3149 3200 3081 3027 
Q 3014 2854 2899 2726 
Q 2784 2598 2627 2508 
Q 2470 2419 2291 2374 
L 2291 2349 
Q 2470 2310 2640 2224 
Q 2810 2138 2941 2000 
Q 3072 1862 3152 1667 
Q 3232 1472 3232 1222 
Q 3232 934 3123 694 
Q 3014 454 2816 284 
Q 2618 115 2336 19 
Q 2054 -77 1715 -77 
Q 1427 -77 1203 -13 
Q 979 51 806 160 
Q 634 269 502 403 
Q 371 538 269 685 
L 672 992 
Q 755 858 854 749 
Q 954 640 1075 563 
Q 1197 486 1350 444 
Q 1504 403 1709 403 
Q 2182 403 2425 617 
Q 2669 832 2669 1229 
L 2669 1280 
Q 2669 1677 2425 1891 
Q 2182 2106 1709 2106 
L 1184 2106 
L 1184 2573 
L 1670 2573 
z
" transform="scale(0.015625)"/>
       </defs>
       <use xlink:href="#IBMPlexSans-Regular-33"/>
       <use xlink:href="#IBMPlexSans-Regular-30" x="59.999985"/>
      </g>
     </g>
    </g>
    <g id="xtick_5">
     <g id="line2d_9">
      <path d="M 232.610043 339.84 
L 232.610043 7.2 
" clip-path="url(#p01a67ab0d2)" style="fill: none; stroke-dasharray: 1.48,0.64; stroke-dashoffset: 0; stroke: #838383; stroke-opacity: 0.25; stroke-width: 0.4"/>
     </g>
     <g id="line2d_10"/>
     <g id="text_5">
      <!-- 40 -->
      <g style="fill: #838383" transform="translate(225.410043 352.22) scale(0.12 -0.12)">
       <defs>
        <path id="IBMPlexSans-Regular-34" d="M 2400 0 
L 2400 877 
L 243 877 
L 243 1350 
L 2112 4467 
L 2912 4467 
L 2912 1325 
L 3558 1325 
L 3558 877 
L 2912 877 
L 2912 0 
L 2400 0 
z
M 749 1325 
L 2400 1325 
L 2400 4051 
L 2368 4051 
L 749 1325 
z
" transform="scale(0.015625)"/>
       </defs>
       <use xlink:href="#IBMPlexSans-Regular-34"/>
       <use xlink:href="#IBMPlexSans-Regular-30" x="59.999985"/>
      </g>
     </g>
    </g>
    <g id="xtick_6">
     <g id="line2d_11">
      <path d="M 274.146763 339.84 
L 274.146763 7.2 
" clip-path="url(#p01a67ab0d2)" style="fill: none; stroke-dasharray: 1.48,0.64; stroke-dashoffset: 0; stroke: #838383; stroke-opacity: 0.25; stroke-width: 0.4"/>
     </g>
     <g id="line2d_12"/>
     <g id="text_6">
      <!-- 50 -->
      <g style="fill: #838383" transform="translate(266.946763 352.22) scale(0.12 -0.12)">
       <defs>
        <path id="IBMPlexSans-Regular-35" d="M 3187 3994 
L 1229 3994 
L 1101 2291 
L 1146 2291 
Q 1306 2515 1507 2649 
Q 1709 2784 2061 2784 
Q 2349 2784 2592 2688 
Q 2835 2592 3014 2416 
Q 3194 2240 3293 1984 
Q 3392 1728 3392 1402 
Q 3392 1075 3289 803 
Q 3187 531 2992 336 
Q 2797 141 2518 32 
Q 2240 -77 1888 -77 
Q 1606 -77 1392 -13 
Q 1178 51 1011 160 
Q 845 269 720 403 
Q 595 538 493 685 
L 896 992 
Q 979 858 1072 749 
Q 1165 640 1277 563 
Q 1389 486 1536 444 
Q 1683 403 1888 403 
Q 2349 403 2585 646 
Q 2822 890 2822 1331 
L 2822 1395 
Q 2822 1837 2585 2080 
Q 2349 2323 1888 2323 
Q 1581 2323 1405 2211 
Q 1229 2099 1088 1946 
L 634 2010 
L 794 4467 
L 3187 4467 
L 3187 3994 
z
" transform="scale(0.015625)"/>
       </defs>
       <use xlink:href="#IBMPlexSans-Regular-35"/>
       <use xlink:href="#IBMPlexSans-Regular-30" x="59.999985"/>
      </g>
     </g>
    </g>
    <g id="xtick_7">
     <g id="line2d_13">
      <path d="M 315.683483 339.84 
L 315.683483 7.2 
" clip-path="url(#p01a67ab0d2)" style="fill: none; stroke-dasharray: 1.48,0.64; stroke-dashoffset: 0; stroke: #838383; stroke-opacity: 0.25; stroke-width: 0.4"/>
     </g>
     <g id="line2d_14"/>
     <g id="text_7">
      <!-- 60 -->
      <g style="fill: #838383" transform="translate(308.483483 352.22) scale(0.12 -0.12)">
       <defs>
        <path id="IBMPlexSans-Regular-36" d="M 1926 -77 
Q 1581 -77 1302 41 
Q 1024 160 829 381 
Q 634 602 531 922 
Q 429 1242 429 1638 
Q 429 2138 576 2576 
Q 723 3014 956 3376 
Q 1190 3738 1472 4016 
Q 1754 4294 2022 4467 
L 2714 4467 
Q 2355 4205 2073 3955 
Q 1792 3706 1581 3434 
Q 1370 3162 1222 2851 
Q 1075 2541 986 2150 
L 1018 2138 
Q 1178 2413 1430 2595 
Q 1683 2778 2093 2778 
Q 2381 2778 2624 2682 
Q 2867 2586 3040 2406 
Q 3213 2227 3312 1971 
Q 3411 1715 3411 1402 
Q 3411 1075 3305 803 
Q 3200 531 3005 336 
Q 2810 141 2534 32 
Q 2259 -77 1926 -77 
z
M 1920 390 
Q 2362 390 2608 633 
Q 2854 877 2854 1331 
L 2854 1382 
Q 2854 1837 2608 2080 
Q 2362 2323 1920 2323 
Q 1478 2323 1232 2080 
Q 986 1837 986 1382 
L 986 1331 
Q 986 877 1232 633 
Q 1478 390 1920 390 
z
" transform="scale(0.015625)"/>
       </defs>
       <use xlink:href="#IBMPlexSans-Regular-36"/>
       <use xlink:href="#IBMPlexSans-Regular-30" x="59.999985"/>
      </g>
     </g>
    </g>
    <g id="xtick_8">
     <g id="line2d_15">
      <path d="M 357.220203 339.84 
L 357.220203 7.2 
" clip-path="url(#p01a67ab0d2)" style="fill: none; stroke-dasharray: 1.48,0.64; stroke-dashoffset: 0; stroke: #838383; stroke-opacity: 0.25; stroke-width: 0.4"/>
     </g>
     <g id="line2d_16"/>
     <g id="text_8">
      <!-- 70 -->
      <g style="fill: #838383" transform="translate(350.020203 352.22) scale(0.12 -0.12)">
       <defs>
        <path id="IBMPlexSans-Regular-37" d="M 1120 0 
L 2829 4006 
L 922 4006 
L 922 3174 
L 442 3174 
L 442 4467 
L 3373 4467 
L 3373 3994 
L 1696 0 
L 1120 0 
z
" transform="scale(0.015625)"/>
       </defs>
       <use xlink:href="#IBMPlexSans-Regular-37"/>
       <use xlink:href="#IBMPlexSans-Regular-30" x="59.999985"/>
      </g>
     </g>
    </g>
    <g id="text_9">
     <!-- total_bill -->
     <g style="fill: #838383" transform="translate(178.922188 367.5) scale(0.12 -0.12)">
      <defs>
       <path id="IBMPlexSans-Regular-74" d="M 1274 0 
Q 1005 0 867 150 
Q 730 301 730 544 
L 730 2854 
L 186 2854 
L 186 3302 
L 493 3302 
Q 659 3302 720 3369 
Q 781 3437 781 3603 
L 781 4218 
L 1242 4218 
L 1242 3302 
L 1965 3302 
L 1965 2854 
L 1242 2854 
L 1242 448 
L 1914 448 
L 1914 0 
L 1274 0 
z
" transform="scale(0.015625)"/>
       <path id="IBMPlexSans-Regular-6f" d="M 1792 -77 
Q 1459 -77 1184 44 
Q 909 166 713 393 
Q 518 621 409 937 
Q 301 1254 301 1651 
Q 301 2042 409 2362 
Q 518 2682 713 2909 
Q 909 3136 1184 3257 
Q 1459 3379 1792 3379 
Q 2125 3379 2397 3257 
Q 2669 3136 2867 2909 
Q 3066 2682 3174 2362 
Q 3283 2042 3283 1651 
Q 3283 1254 3174 937 
Q 3066 621 2867 393 
Q 2669 166 2397 44 
Q 2125 -77 1792 -77 
z
M 1792 378 
Q 2208 378 2470 634 
Q 2733 890 2733 1414 
L 2733 1888 
Q 2733 2413 2470 2669 
Q 2208 2925 1792 2925 
Q 1376 2925 1113 2669 
Q 851 2413 851 1888 
L 851 1414 
Q 851 890 1113 634 
Q 1376 378 1792 378 
z
" transform="scale(0.015625)"/>
       <path id="IBMPlexSans-Regular-61" d="M 2944 0 
Q 2656 0 2531 153 
Q 2406 307 2374 538 
L 2342 538 
Q 2234 230 1984 76 
Q 1734 -77 1389 -77 
Q 864 -77 573 192 
Q 282 461 282 922 
Q 282 1389 624 1638 
Q 966 1888 1690 1888 
L 2342 1888 
L 2342 2214 
Q 2342 2566 2150 2752 
Q 1958 2938 1562 2938 
Q 1261 2938 1059 2803 
Q 858 2669 723 2445 
L 416 2733 
Q 550 3002 844 3190 
Q 1139 3379 1587 3379 
Q 2189 3379 2521 3084 
Q 2854 2790 2854 2266 
L 2854 448 
L 3232 448 
L 3232 0 
L 2944 0 
z
M 1472 358 
Q 1664 358 1824 403 
Q 1984 448 2099 531 
Q 2214 614 2278 723 
Q 2342 832 2342 960 
L 2342 1504 
L 1664 1504 
Q 1222 1504 1020 1376 
Q 819 1248 819 1005 
L 819 870 
Q 819 627 995 492 
Q 1171 358 1472 358 
z
" transform="scale(0.015625)"/>
       <path id="IBMPlexSans-Regular-6c" d="M 1088 0 
Q 819 0 681 150 
Q 544 301 544 531 
L 544 4736 
L 1056 4736 
L 1056 448 
L 1542 448 
L 1542 0 
L 1088 0 
z
" transform="scale(0.015625)"/>
       <path id="IBMPlexSans-Regular-5f" d="M 192 -1056 
L 192 -608 
L 3424 -608 
L 3424 -1056 
L 192 -1056 
z
" transform="scale(0.015625)"/>
       <path id="IBMPlexSans-Regular-62" d="M 544 4736 
L 1056 4736 
L 1056 2765 
L 1082 2765 
Q 1210 3078 1456 3228 
Q 1702 3379 2048 3379 
Q 2355 3379 2604 3257 
Q 2854 3136 3030 2912 
Q 3206 2688 3299 2368 
Q 3392 2048 3392 1651 
Q 3392 1254 3299 934 
Q 3206 614 3030 390 
Q 2854 166 2604 44 
Q 2355 -77 2048 -77 
Q 1376 -77 1082 538 
L 1056 538 
L 1056 0 
L 544 0 
L 544 4736 
z
M 1907 384 
Q 2342 384 2592 656 
Q 2842 928 2842 1370 
L 2842 1933 
Q 2842 2374 2592 2646 
Q 2342 2918 1907 2918 
Q 1734 2918 1577 2870 
Q 1421 2822 1305 2739 
Q 1190 2656 1123 2537 
Q 1056 2419 1056 2285 
L 1056 1056 
Q 1056 896 1123 771 
Q 1190 646 1305 560 
Q 1421 474 1577 429 
Q 1734 384 1907 384 
z
" transform="scale(0.015625)"/>
       <path id="IBMPlexSans-Regular-69" d="M 800 4077 
Q 634 4077 560 4157 
Q 486 4237 486 4365 
L 486 4448 
Q 486 4576 560 4656 
Q 634 4736 800 4736 
Q 966 4736 1040 4656 
Q 1114 4576 1114 4448 
L 1114 4365 
Q 1114 4237 1040 4157 
Q 966 4077 800 4077 
z
M 544 3302 
L 1056 3302 
L 1056 0 
L 544 0 
L 544 3302 
z
" transform="scale(0.015625)"/>
      </defs>
      <use xlink:href="#IBMPlexSans-Regular-74"/>
      <use xlink:href="#IBMPlexSans-Regular-6f" x="35.099991"/>
      <use xlink:href="#IBMPlexSans-Regular-74" x="91.099976"/>
      <use xlink:href="#IBMPlexSans-Regular-61" x="126.199966"/>
      <use xlink:href="#IBMPlexSans-Regular-6c" x="179.59996"/>
      <use xlink:href="#IBMPlexSans-Regular-5f" x="206.799957"/>
      <use xlink:href="#IBMPlexSans-Regular-62" x="263.299942"/>
      <use xlink:href="#IBMPlexSans-Regular-69" x="321.299927"/>
      <use xlink:href="#IBMPlexSans-Regular-6c" x="346.299911"/>
      <use xlink:href="#IBMPlexSans-Regular-6c" x="373.499908"/>
     </g>
    </g>
   </g>
   <g id="matplotlib.axis_2">
    <g id="ytick_1">
     <g id="line2d_17">
      <path d="M 35.564375 339.84 
L 370.364375 339.84 
" clip-path="url(#p01a67ab0d2)" style="fill: none; stroke-dasharray: 1.48,0.64; stroke-dashoffset: 0; stroke: #838383; stroke-opacity: 0.25; stroke-width: 0.4"/>
     </g>
     <g id="line2d_18"/>
     <g id="text_10">
      <!-- 0.00 -->
      <g style="fill: #838383" transform="translate(7.2 344.28) scale(0.12 -0.12)">
       <defs>
        <path id="IBMPlexSans-Regular-2e" d="M 870 -77 
Q 666 -77 573 25 
Q 480 128 480 294 
L 480 378 
Q 480 544 573 646 
Q 666 749 870 749 
Q 1075 749 1168 646 
Q 1261 544 1261 378 
L 1261 294 
Q 1261 128 1168 25 
Q 1075 -77 870 -77 
z
" transform="scale(0.015625)"/>
       </defs>
       <use xlink:href="#IBMPlexSans-Regular-30"/>
       <use xlink:href="#IBMPlexSans-Regular-2e" x="59.999985"/>
       <use xlink:href="#IBMPlexSans-Regular-30" x="87.199982"/>
       <use xlink:href="#IBMPlexSans-Regular-30" x="147.199966"/>
      </g>
     </g>
    </g>
    <g id="ytick_2">
     <g id="line2d_19">
      <path d="M 35.564375 286.317473 
L 370.364375 286.317473 
" clip-path="url(#p01a67ab0d2)" style="fill: none; stroke-dasharray: 1.48,0.64; stroke-dashoffset: 0; stroke: #838383; stroke-opacity: 0.25; stroke-width: 0.4"/>
     </g>
     <g id="line2d_20"/>
     <g id="text_11">
      <!-- 0.02 -->
      <g style="fill: #838383" transform="translate(7.2 290.757473) scale(0.12 -0.12)">
       <use xlink:href="#IBMPlexSans-Regular-30"/>
       <use xlink:href="#IBMPlexSans-Regular-2e" x="59.999985"/>
       <use xlink:href="#IBMPlexSans-Regular-30" x="87.199982"/>
       <use xlink:href="#IBMPlexSans-Regular-32" x="147.199966"/>
      </g>
     </g>
    </g>
    <g id="ytick_3">
     <g id="line2d_21">
      <path d="M 35.564375 232.794946 
L 370.364375 232.794946 
" clip-path="url(#p01a67ab0d2)" style="fill: none; stroke-dasharray: 1.48,0.64; stroke-dashoffset: 0; stroke: #838383; stroke-opacity: 0.25; stroke-width: 0.4"/>
     </g>
     <g id="line2d_22"/>
     <g id="text_12">
      <!-- 0.04 -->
      <g style="fill: #838383" transform="translate(7.2 237.234946) scale(0.12 -0.12)">
       <use xlink:href="#IBMPlexSans-Regular-30"/>
       <use xlink:href="#IBMPlexSans-Regular-2e" x="59.999985"/>
       <use xlink:href="#IBMPlexSans-Regular-30" x="87.199982"/>
       <use xlink:href="#IBMPlexSans-Regular-34" x="147.199966"/>
      </g>
     </g>
    </g>
    <g id="ytick_4">
     <g id="line2d_23">
      <path d="M 35.564375 179.27242 
L 370.364375 179.27242 
" clip-path="url(#p01a67ab0d2)" style="fill: none; stroke-dasharray: 1.48,0.64; stroke-dashoffset: 0; stroke: #838383; stroke-opacity: 0.25; stroke-width: 0.4"/>
     </g>
     <g id="line2d_24"/>
     <g id="text_13">
      <!-- 0.06 -->
      <g style="fill: #838383" transform="translate(7.2 183.71242) scale(0.12 -0.12)">
       <use xlink:href="#IBMPlexSans-Regular-30"/>
       <use xlink:href="#IBMPlexSans-Regular-2e" x="59.999985"/>
       <use xlink:href="#IBMPlexSans-Regular-30" x="87.199982"/>
       <use xlink:href="#IBMPlexSans-Regular-36" x="147.199966"/>
      </g>
     </g>
    </g>
    <g id="ytick_5">
     <g id="line2d_25">
      <path d="M 35.564375 125.749893 
L 370.364375 125.749893 
" clip-path="url(#p01a67ab0d2)" style="fill: none; stroke-dasharray: 1.48,0.64; stroke-dashoffset: 0; stroke: #838383; stroke-opacity: 0.25; stroke-width: 0.4"/>
     </g>
     <g id="line2d_26"/>
     <g id="text_14">
      <!-- 0.08 -->
      <g style="fill: #838383" transform="translate(7.2 130.189893) scale(0.12 -0.12)">
       <defs>
        <path id="IBMPlexSans-Regular-38" d="M 1920 -77 
Q 1536 -77 1248 22 
Q 960 122 765 294 
Q 570 467 470 704 
Q 371 941 371 1216 
Q 371 1677 620 1945 
Q 870 2214 1274 2323 
L 1274 2374 
Q 922 2496 714 2768 
Q 506 3040 506 3424 
Q 506 3936 877 4240 
Q 1248 4544 1920 4544 
Q 2592 4544 2963 4240 
Q 3334 3936 3334 3424 
Q 3334 3040 3126 2768 
Q 2918 2496 2566 2374 
L 2566 2323 
Q 2970 2214 3219 1945 
Q 3469 1677 3469 1216 
Q 3469 941 3369 704 
Q 3270 467 3075 294 
Q 2880 122 2592 22 
Q 2304 -77 1920 -77 
z
M 1920 390 
Q 2387 390 2643 598 
Q 2899 806 2899 1190 
L 2899 1325 
Q 2899 1709 2643 1917 
Q 2387 2125 1920 2125 
Q 1453 2125 1197 1917 
Q 941 1709 941 1325 
L 941 1190 
Q 941 806 1197 598 
Q 1453 390 1920 390 
z
M 1920 2573 
Q 2342 2573 2560 2752 
Q 2778 2931 2778 3277 
L 2778 3373 
Q 2778 3718 2560 3897 
Q 2342 4077 1920 4077 
Q 1498 4077 1280 3897 
Q 1062 3718 1062 3373 
L 1062 3277 
Q 1062 2931 1280 2752 
Q 1498 2573 1920 2573 
z
" transform="scale(0.015625)"/>
       </defs>
       <use xlink:href="#IBMPlexSans-Regular-30"/>
       <use xlink:href="#IBMPlexSans-Regular-2e" x="59.999985"/>
       <use xlink:href="#IBMPlexSans-Regular-30" x="87.199982"/>
       <use xlink:href="#IBMPlexSans-Regular-38" x="147.199966"/>
      </g>
     </g>
    </g>
    <g id="ytick_6">
     <g id="line2d_27">
      <path d="M 35.564375 72.227366 
L 370.364375 72.227366 
" clip-path="url(#p01a67ab0d2)" style="fill: none; stroke-dasharray: 1.48,0.64; stroke-dashoffset: 0; stroke: #838383; stroke-opacity: 0.25; stroke-width: 0.4"/>
     </g>
     <g id="line2d_28"/>
     <g id="text_15">
      <!-- 0.10 -->
      <g style="fill: #838383" transform="translate(7.2 76.667366) scale(0.12 -0.12)">
       <use xlink:href="#IBMPlexSans-Regular-30"/>
       <use xlink:href="#IBMPlexSans-Regular-2e" x="59.999985"/>
       <use xlink:href="#IBMPlexSans-Regular-31" x="87.199982"/>
       <use xlink:href="#IBMPlexSans-Regular-30" x="147.199966"/>
      </g>
     </g>
    </g>
    <g id="ytick_7">
     <g id="line2d_29">
      <path d="M 35.564375 18.704839 
L 370.364375 18.704839 
" clip-path="url(#p01a67ab0d2)" style="fill: none; stroke-dasharray: 1.48,0.64; stroke-dashoffset: 0; stroke: #838383; stroke-opacity: 0.25; stroke-width: 0.4"/>
     </g>
     <g id="line2d_30"/>
     <g id="text_16">
      <!-- 0.12 -->
      <g style="fill: #838383" transform="translate(7.2 23.144839) scale(0.12 -0.12)">
       <use xlink:href="#IBMPlexSans-Regular-30"/>
       <use xlink:href="#IBMPlexSans-Regular-2e" x="59.999985"/>
       <use xlink:href="#IBMPlexSans-Regular-31" x="87.199982"/>
       <use xlink:href="#IBMPlexSans-Regular-32" x="147.199966"/>
      </g>
     </g>
    </g>
   </g>
   <g id="patch_3">
    <path d="M 35.564375 339.84 
L 35.564375 7.2 
" style="fill: none"/>
   </g>
   <g id="patch_4">
    <path d="M 370.364375 339.84 
L 370.364375 7.2 
" style="fill: none"/>
   </g>
   <g id="patch_5">
    <path d="M 35.564375 339.84 
L 370.364375 339.84 
" style="fill: none"/>
   </g>
   <g id="patch_6">
    <path d="M 35.564375 7.2 
L 370.364375 7.2 
" style="fill: none"/>
   </g>
   <g id="legend_1">
    <g id="text_17">
     <!-- size -->
     <g style="fill: #838383" transform="translate(328.663437 26.88) scale(0.12 -0.12)">
      <defs>
       <path id="IBMPlexSans-Regular-73" d="M 1536 -77 
Q 1075 -77 764 99 
Q 454 275 230 570 
L 595 864 
Q 787 621 1024 489 
Q 1261 358 1574 358 
Q 1901 358 2083 499 
Q 2266 640 2266 896 
Q 2266 1088 2141 1225 
Q 2016 1363 1690 1414 
L 1427 1453 
Q 1197 1485 1005 1552 
Q 813 1619 669 1731 
Q 525 1843 445 2009 
Q 365 2176 365 2406 
Q 365 2650 454 2832 
Q 544 3014 701 3136 
Q 858 3258 1075 3318 
Q 1293 3379 1542 3379 
Q 1946 3379 2218 3238 
Q 2490 3098 2694 2848 
L 2355 2541 
Q 2246 2694 2035 2819 
Q 1824 2944 1504 2944 
Q 1184 2944 1021 2806 
Q 858 2669 858 2432 
Q 858 2189 1021 2080 
Q 1184 1971 1491 1920 
L 1747 1882 
Q 2298 1798 2528 1564 
Q 2758 1331 2758 954 
Q 2758 474 2432 198 
Q 2106 -77 1536 -77 
z
" transform="scale(0.015625)"/>
       <path id="IBMPlexSans-Regular-7a" d="M 211 0 
L 211 429 
L 2086 2854 
L 269 2854 
L 269 3302 
L 2707 3302 
L 2707 2918 
L 794 448 
L 2758 448 
L 2758 0 
L 211 0 
z
" transform="scale(0.015625)"/>
       <path id="IBMPlexSans-Regular-65" d="M 1786 -77 
Q 1446 -77 1174 44 
Q 902 166 707 393 
Q 512 621 406 937 
Q 301 1254 301 1651 
Q 301 2042 406 2362 
Q 512 2682 707 2909 
Q 902 3136 1174 3257 
Q 1446 3379 1786 3379 
Q 2118 3379 2380 3257 
Q 2643 3136 2828 2921 
Q 3014 2707 3113 2412 
Q 3213 2118 3213 1766 
L 3213 1523 
L 838 1523 
L 838 1370 
Q 838 1158 905 976 
Q 973 794 1097 659 
Q 1222 525 1404 448 
Q 1587 371 1818 371 
Q 2131 371 2364 518 
Q 2598 666 2726 941 
L 3091 678 
Q 2931 339 2592 131 
Q 2253 -77 1786 -77 
z
M 1786 2950 
Q 1574 2950 1401 2876 
Q 1229 2803 1104 2668 
Q 979 2534 908 2352 
Q 838 2170 838 1952 
L 838 1907 
L 2662 1907 
L 2662 1978 
Q 2662 2419 2422 2684 
Q 2182 2950 1786 2950 
z
" transform="scale(0.015625)"/>
      </defs>
      <use xlink:href="#IBMPlexSans-Regular-73"/>
      <use xlink:href="#IBMPlexSans-Regular-69" x="48.699997"/>
      <use xlink:href="#IBMPlexSans-Regular-7a" x="73.699982"/>
      <use xlink:href="#IBMPlexSans-Regular-65" x="120.099976"/>
     </g>
    </g>
    <g id="patch_7">
     <path d="M 318.764375 44.16 
L 342.764375 44.16 
L 342.764375 35.76 
L 318.764375 35.76 
z
" style="fill: #4b2362; fill-opacity: 0.3"/>
    </g>
    <g id="text_18">
     <!-- 1 -->
     <g style="fill: #838383" transform="translate(352.364375 44.16) scale(0.12 -0.12)">
      <use xlink:href="#IBMPlexSans-Regular-31"/>
     </g>
    </g>
    <g id="patch_8">
     <path d="M 318.764375 61.44 
L 342.764375 61.44 
L 342.764375 53.04 
L 318.764375 53.04 
z
" style="fill: #7a2e70; fill-opacity: 0.3"/>
    </g>
    <g id="text_19">
     <!-- 2 -->
     <g style="fill: #838383" transform="translate(352.364375 61.44) scale(0.12 -0.12)">
      <use xlink:href="#IBMPlexSans-Regular-32"/>
     </g>
    </g>
    <g id="patch_9">
     <path d="M 318.764375 78.72 
L 342.764375 78.72 
L 342.764375 70.32 
L 318.764375 70.32 
z
" style="fill: #aa3a6e; fill-opacity: 0.3"/>
    </g>
    <g id="text_20">
     <!-- 3 -->
     <g style="fill: #838383" transform="translate(352.364375 78.72) scale(0.12 -0.12)">
      <use xlink:href="#IBMPlexSans-Regular-33"/>
     </g>
    </g>
    <g id="patch_10">
     <path d="M 318.764375 96 
L 342.764375 96 
L 342.764375 87.6 
L 318.764375 87.6 
z
" style="fill: #d64f5f; fill-opacity: 0.3"/>
    </g>
    <g id="text_21">
     <!-- 4 -->
     <g style="fill: #838383" transform="translate(352.364375 96) scale(0.12 -0.12)">
      <use xlink:href="#IBMPlexSans-Regular-34"/>
     </g>
    </g>
    <g id="patch_11">
     <path d="M 318.764375 113.28 
L 342.764375 113.28 
L 342.764375 104.88 
L 318.764375 104.88 
z
" style="fill: #e77e63; fill-opacity: 0.3"/>
    </g>
    <g id="text_22">
     <!-- 5 -->
     <g style="fill: #838383" transform="translate(352.364375 113.28) scale(0.12 -0.12)">
      <use xlink:href="#IBMPlexSans-Regular-35"/>
     </g>
    </g>
    <g id="patch_12">
     <path d="M 318.764375 130.56 
L 342.764375 130.56 
L 342.764375 122.16 
L 318.764375 122.16 
z
" style="fill: #edb081; fill-opacity: 0.3"/>
    </g>
    <g id="text_23">
     <!-- 6 -->
     <g style="fill: #838383" transform="translate(352.364375 130.56) scale(0.12 -0.12)">
      <use xlink:href="#IBMPlexSans-Regular-36"/>
     </g>
    </g>
   </g>
  </g>
 </g>
 <defs>
  <clipPath id="p01a67ab0d2">
   <rect x="35.564375" y="7.2" width="334.8" height="332.64"/>
  </clipPath>
 </defs>
</svg>
