<?xml version="1.0" encoding="utf-8" standalone="no"?>
<!DOCTYPE svg PUBLIC "-//W3C//DTD SVG 1.1//EN"
  "http://www.w3.org/Graphics/SVG/1.1/DTD/svg11.dtd">
<svg xmlns:xlink="http://www.w3.org/1999/xlink" width="754.62pt" height="576.684pt" viewBox="0 0 754.62 576.684" xmlns="http://www.w3.org/2000/svg" version="1.1">
 <metadata>
  <rdf:RDF xmlns:dc="http://purl.org/dc/elements/1.1/" xmlns:cc="http://creativecommons.org/ns#" xmlns:rdf="http://www.w3.org/1999/02/22-rdf-syntax-ns#">
   <cc:Work>
    <dc:type rdf:resource="http://purl.org/dc/dcmitype/StillImage"/>
    <dc:date>2023-12-29T00:17:47.779820</dc:date>
    <dc:format>image/svg+xml</dc:format>
    <dc:creator>
     <cc:Agent>
      <dc:title>Matplotlib v3.8.1, https://matplotlib.org/</dc:title>
     </cc:Agent>
    </dc:creator>
   </cc:Work>
  </rdf:RDF>
 </metadata>
 <defs>
  <style type="text/css">*{stroke-linejoin: round; stroke-linecap: butt}</style>
 </defs>
 <g id="figure_1">
  <g id="patch_1">
   <path d="M 0 576.684 
L 754.62 576.684 
L 754.62 0 
L 0 0 
L 0 576.684 
z
" style="fill: none"/>
  </g>
  <g id="axes_1">
   <g id="patch_2">
    <path d="M 33.18 539.424 
L 747.42 539.424 
L 747.42 7.2 
L 33.18 7.2 
L 33.18 539.424 
z
" style="fill: none"/>
   </g>
   <g id="PatchCollection_1">
    <path d="M 71.868 503.161148 
L 83.772 503.161148 
L 83.772 498.886054 
L 71.868 498.886054 
z
" clip-path="url(#pd8d86aa7c6)" style="fill: #afafec; stroke: #4c4c4c; stroke-width: 0.75"/>
    <path d="M 65.916 498.886054 
L 89.724 498.886054 
L 89.724 492.0962 
L 65.916 492.0962 
z
" clip-path="url(#pd8d86aa7c6)" style="fill: #9e9eeb; stroke: #4c4c4c; stroke-width: 0.75"/>
    <path d="M 59.964 492.0962 
L 95.676 492.0962 
L 95.676 483.04306 
L 59.964 483.04306 
z
" clip-path="url(#pd8d86aa7c6)" style="fill: #8888e9; stroke: #4c4c4c; stroke-width: 0.75"/>
    <path d="M 54.012 483.04306 
L 101.628 483.04306 
L 101.628 464.936782 
L 54.012 464.936782 
z
" clip-path="url(#pd8d86aa7c6)" style="fill: #6d6de6; stroke: #4c4c4c; stroke-width: 0.75"/>
    <path d="M 48.06 464.936782 
L 107.58 464.936782 
L 107.58 438.783268 
L 48.06 438.783268 
z
" clip-path="url(#pd8d86aa7c6)" style="fill: #4a4ae3; stroke: #4c4c4c; stroke-width: 0.75"/>
    <path d="M 42.108 438.783268 
L 113.532 438.783268 
L 113.532 383.458528 
L 42.108 383.458528 
z
" clip-path="url(#pd8d86aa7c6)" style="fill: #2020df; stroke: #4c4c4c; stroke-width: 0.75"/>
    <path d="M 48.06 383.458528 
L 107.58 383.458528 
L 107.58 333.16331 
L 48.06 333.16331 
z
" clip-path="url(#pd8d86aa7c6)" style="fill: #4a4ae3; stroke: #4c4c4c; stroke-width: 0.75"/>
    <path d="M 54.012 333.16331 
L 101.628 333.16331 
L 101.628 307.009796 
L 54.012 307.009796 
z
" clip-path="url(#pd8d86aa7c6)" style="fill: #6d6de6; stroke: #4c4c4c; stroke-width: 0.75"/>
    <path d="M 59.964 307.009796 
L 95.676 307.009796 
L 95.676 236.470753 
L 59.964 236.470753 
z
" clip-path="url(#pd8d86aa7c6)" style="fill: #8888e9; stroke: #4c4c4c; stroke-width: 0.75"/>
    <path d="M 65.916 236.470753 
L 89.724 236.470753 
L 89.724 217.672915 
L 65.916 217.672915 
z
" clip-path="url(#pd8d86aa7c6)" style="fill: #9e9eeb; stroke: #4c4c4c; stroke-width: 0.75"/>
    <path d="M 71.868 217.672915 
L 83.772 217.672915 
L 83.772 158.921813 
L 71.868 158.921813 
z
" clip-path="url(#pd8d86aa7c6)" style="fill: #afafec; stroke: #4c4c4c; stroke-width: 0.75"/>
   </g>
   <g id="PathCollection_1">
    <defs>
     <path id="C0_0_17b00505df" d="M 0 2.5 
C 0.663008 2.5 1.29895 2.236584 1.767767 1.767767 
C 2.236584 1.29895 2.5 0.663008 2.5 -0 
C 2.5 -0.663008 2.236584 -1.29895 1.767767 -1.767767 
C 1.29895 -2.236584 0.663008 -2.5 0 -2.5 
C -0.663008 -2.5 -1.29895 -2.236584 -1.767767 -1.767767 
C -2.236584 -1.29895 -2.5 -0.663008 -2.5 0 
C -2.5 0.663008 -2.236584 1.29895 -1.767767 1.767767 
C -1.29895 2.236584 -0.663008 2.5 0 2.5 
z
"/>
    </defs>
    <g clip-path="url(#pd8d86aa7c6)">
     <use xlink:href="#C0_0_17b00505df" x="77.82" y="131.982437" style="fill: none; stroke: #737373"/>
    </g>
    <g clip-path="url(#pd8d86aa7c6)">
     <use xlink:href="#C0_0_17b00505df" x="77.82" y="131.982437" style="fill: none; stroke: #737373"/>
    </g>
    <g clip-path="url(#pd8d86aa7c6)">
     <use xlink:href="#C0_0_17b00505df" x="77.82" y="132.988341" style="fill: none; stroke: #737373"/>
    </g>
    <g clip-path="url(#pd8d86aa7c6)">
     <use xlink:href="#C0_0_17b00505df" x="77.82" y="119.911584" style="fill: none; stroke: #737373"/>
    </g>
    <g clip-path="url(#pd8d86aa7c6)">
     <use xlink:href="#C0_0_17b00505df" x="77.82" y="31.392" style="fill: none; stroke: #737373"/>
    </g>
    <g clip-path="url(#pd8d86aa7c6)">
     <use xlink:href="#C0_0_17b00505df" x="77.82" y="82.693123" style="fill: none; stroke: #737373"/>
    </g>
    <g clip-path="url(#pd8d86aa7c6)">
     <use xlink:href="#C0_0_17b00505df" x="77.82" y="505.172956" style="fill: none; stroke: #737373"/>
    </g>
    <g clip-path="url(#pd8d86aa7c6)">
     <use xlink:href="#C0_0_17b00505df" x="77.82" y="504.167052" style="fill: none; stroke: #737373"/>
    </g>
   </g>
   <g id="PatchCollection_2">
    <path d="M 163.5288 510.202478 
L 170.6712 510.202478 
L 170.6712 506.224048 
L 163.5288 506.224048 
z
" clip-path="url(#pd8d86aa7c6)" style="fill: #d6d6f0; stroke: #4c4c4c; stroke-width: 0.75"/>
    <path d="M 159.9576 506.224048 
L 174.2424 506.224048 
L 174.2424 505.172956 
L 159.9576 505.172956 
z
" clip-path="url(#pd8d86aa7c6)" style="fill: #d0d0f0; stroke: #4c4c4c; stroke-width: 0.75"/>
    <path d="M 156.3864 505.172956 
L 177.8136 505.172956 
L 177.8136 505.172956 
L 156.3864 505.172956 
z
" clip-path="url(#pd8d86aa7c6)" style="fill: #c8c8ef; stroke: #4c4c4c; stroke-width: 0.75"/>
    <path d="M 152.8152 505.172956 
L 181.3848 505.172956 
L 181.3848 505.172956 
L 152.8152 505.172956 
z
" clip-path="url(#pd8d86aa7c6)" style="fill: #bcbcee; stroke: #4c4c4c; stroke-width: 0.75"/>
    <path d="M 149.244 505.172956 
L 184.956 505.172956 
L 184.956 504.167052 
L 149.244 504.167052 
z
" clip-path="url(#pd8d86aa7c6)" style="fill: #afafec; stroke: #4c4c4c; stroke-width: 0.75"/>
    <path d="M 145.6728 504.167052 
L 188.5272 504.167052 
L 188.5272 503.161148 
L 145.6728 503.161148 
z
" clip-path="url(#pd8d86aa7c6)" style="fill: #9e9eeb; stroke: #4c4c4c; stroke-width: 0.75"/>
    <path d="M 142.1016 503.161148 
L 192.0984 503.161148 
L 192.0984 497.125721 
L 142.1016 497.125721 
z
" clip-path="url(#pd8d86aa7c6)" style="fill: #8888e9; stroke: #4c4c4c; stroke-width: 0.75"/>
    <path d="M 138.5304 497.125721 
L 195.6696 497.125721 
L 195.6696 485.054869 
L 138.5304 485.054869 
z
" clip-path="url(#pd8d86aa7c6)" style="fill: #6d6de6; stroke: #4c4c4c; stroke-width: 0.75"/>
    <path d="M 134.9592 485.054869 
L 199.2408 485.054869 
L 199.2408 462.924973 
L 134.9592 462.924973 
z
" clip-path="url(#pd8d86aa7c6)" style="fill: #4a4ae3; stroke: #4c4c4c; stroke-width: 0.75"/>
    <path d="M 131.388 462.924973 
L 202.812 462.924973 
L 202.812 408.606137 
L 131.388 408.606137 
z
" clip-path="url(#pd8d86aa7c6)" style="fill: #2020df; stroke: #4c4c4c; stroke-width: 0.75"/>
    <path d="M 134.9592 408.606137 
L 199.2408 408.606137 
L 199.2408 358.310919 
L 134.9592 358.310919 
z
" clip-path="url(#pd8d86aa7c6)" style="fill: #4a4ae3; stroke: #4c4c4c; stroke-width: 0.75"/>
    <path d="M 138.5304 358.310919 
L 195.6696 358.310919 
L 195.6696 329.139692 
L 138.5304 329.139692 
z
" clip-path="url(#pd8d86aa7c6)" style="fill: #6d6de6; stroke: #4c4c4c; stroke-width: 0.75"/>
    <path d="M 142.1016 329.139692 
L 192.0984 329.139692 
L 192.0984 315.057031 
L 142.1016 315.057031 
z
" clip-path="url(#pd8d86aa7c6)" style="fill: #8888e9; stroke: #4c4c4c; stroke-width: 0.75"/>
    <path d="M 145.6728 315.057031 
L 188.5272 315.057031 
L 188.5272 301.980274 
L 145.6728 301.980274 
z
" clip-path="url(#pd8d86aa7c6)" style="fill: #9e9eeb; stroke: #4c4c4c; stroke-width: 0.75"/>
    <path d="M 149.244 301.980274 
L 184.956 301.980274 
L 184.956 282.868091 
L 149.244 282.868091 
z
" clip-path="url(#pd8d86aa7c6)" style="fill: #afafec; stroke: #4c4c4c; stroke-width: 0.75"/>
    <path d="M 152.8152 282.868091 
L 181.3848 282.868091 
L 181.3848 275.646012 
L 152.8152 275.646012 
z
" clip-path="url(#pd8d86aa7c6)" style="fill: #bcbcee; stroke: #4c4c4c; stroke-width: 0.75"/>
    <path d="M 156.3864 275.646012 
L 177.8136 275.646012 
L 177.8136 259.687104 
L 156.3864 259.687104 
z
" clip-path="url(#pd8d86aa7c6)" style="fill: #c8c8ef; stroke: #4c4c4c; stroke-width: 0.75"/>
    <path d="M 159.9576 259.687104 
L 174.2424 259.687104 
L 174.2424 232.572873 
L 159.9576 232.572873 
z
" clip-path="url(#pd8d86aa7c6)" style="fill: #d0d0f0; stroke: #4c4c4c; stroke-width: 0.75"/>
    <path d="M 163.5288 232.572873 
L 170.6712 232.572873 
L 170.6712 232.572873 
L 163.5288 232.572873 
z
" clip-path="url(#pd8d86aa7c6)" style="fill: #d6d6f0; stroke: #4c4c4c; stroke-width: 0.75"/>
   </g>
   <g id="PathCollection_2">
    <defs>
     <path id="C1_0_c2045a6676" d="M 0 2.5 
C 0.663008 2.5 1.29895 2.236584 1.767767 1.767767 
C 2.236584 1.29895 2.5 0.663008 2.5 -0 
C 2.5 -0.663008 2.236584 -1.29895 1.767767 -1.767767 
C 1.29895 -2.236584 0.663008 -2.5 0 -2.5 
C -0.663008 -2.5 -1.29895 -2.236584 -1.767767 -1.767767 
C -2.236584 -1.29895 -2.5 -0.663008 -2.5 0 
C -2.5 0.663008 -2.236584 1.29895 -1.767767 1.767767 
C -1.29895 2.236584 -0.663008 2.5 0 2.5 
z
"/>
    </defs>
    <g clip-path="url(#pd8d86aa7c6)">
     <use xlink:href="#C1_0_c2045a6676" x="167.1" y="512.214287" style="fill: none; stroke: #737373"/>
    </g>
    <g clip-path="url(#pd8d86aa7c6)">
     <use xlink:href="#C1_0_c2045a6676" x="167.1" y="515.232" style="fill: none; stroke: #737373"/>
    </g>
    <g clip-path="url(#pd8d86aa7c6)">
     <use xlink:href="#C1_0_c2045a6676" x="167.1" y="229.55516" style="fill: none; stroke: #737373"/>
    </g>
    <g clip-path="url(#pd8d86aa7c6)">
     <use xlink:href="#C1_0_c2045a6676" x="167.1" y="229.55516" style="fill: none; stroke: #737373"/>
    </g>
    <g clip-path="url(#pd8d86aa7c6)">
     <use xlink:href="#C1_0_c2045a6676" x="167.1" y="512.214287" style="fill: none; stroke: #737373"/>
    </g>
    <g clip-path="url(#pd8d86aa7c6)">
     <use xlink:href="#C1_0_c2045a6676" x="167.1" y="514.226096" style="fill: none; stroke: #737373"/>
    </g>
   </g>
   <g id="PatchCollection_3">
    <path d="M 252.8088 511.208383 
L 259.9512 511.208383 
L 259.9512 510.202478 
L 252.8088 510.202478 
z
" clip-path="url(#pd8d86aa7c6)" style="fill: #d6d6f0; stroke: #4c4c4c; stroke-width: 0.75"/>
    <path d="M 249.2376 510.202478 
L 263.5224 510.202478 
L 263.5224 509.196574 
L 249.2376 509.196574 
z
" clip-path="url(#pd8d86aa7c6)" style="fill: #d0d0f0; stroke: #4c4c4c; stroke-width: 0.75"/>
    <path d="M 245.6664 509.196574 
L 267.0936 509.196574 
L 267.0936 506.178861 
L 245.6664 506.178861 
z
" clip-path="url(#pd8d86aa7c6)" style="fill: #c8c8ef; stroke: #4c4c4c; stroke-width: 0.75"/>
    <path d="M 242.0952 506.178861 
L 270.6648 506.178861 
L 270.6648 505.172956 
L 242.0952 505.172956 
z
" clip-path="url(#pd8d86aa7c6)" style="fill: #bcbcee; stroke: #4c4c4c; stroke-width: 0.75"/>
    <path d="M 238.524 505.172956 
L 274.236 505.172956 
L 274.236 505.172956 
L 238.524 505.172956 
z
" clip-path="url(#pd8d86aa7c6)" style="fill: #afafec; stroke: #4c4c4c; stroke-width: 0.75"/>
    <path d="M 234.9528 505.172956 
L 277.8072 505.172956 
L 277.8072 505.172956 
L 234.9528 505.172956 
z
" clip-path="url(#pd8d86aa7c6)" style="fill: #9e9eeb; stroke: #4c4c4c; stroke-width: 0.75"/>
    <path d="M 231.3816 505.172956 
L 281.3784 505.172956 
L 281.3784 504.167052 
L 231.3816 504.167052 
z
" clip-path="url(#pd8d86aa7c6)" style="fill: #8888e9; stroke: #4c4c4c; stroke-width: 0.75"/>
    <path d="M 227.8104 504.167052 
L 284.9496 504.167052 
L 284.9496 500.143435 
L 227.8104 500.143435 
z
" clip-path="url(#pd8d86aa7c6)" style="fill: #6d6de6; stroke: #4c4c4c; stroke-width: 0.75"/>
    <path d="M 224.2392 500.143435 
L 288.5208 500.143435 
L 288.5208 485.054869 
L 224.2392 485.054869 
z
" clip-path="url(#pd8d86aa7c6)" style="fill: #4a4ae3; stroke: #4c4c4c; stroke-width: 0.75"/>
    <path d="M 220.668 485.054869 
L 292.092 485.054869 
L 292.092 428.724225 
L 220.668 428.724225 
z
" clip-path="url(#pd8d86aa7c6)" style="fill: #2020df; stroke: #4c4c4c; stroke-width: 0.75"/>
    <path d="M 224.2392 428.724225 
L 288.5208 428.724225 
L 288.5208 384.464432 
L 224.2392 384.464432 
z
" clip-path="url(#pd8d86aa7c6)" style="fill: #4a4ae3; stroke: #4c4c4c; stroke-width: 0.75"/>
    <path d="M 227.8104 384.464432 
L 284.9496 384.464432 
L 284.9496 373.399484 
L 227.8104 373.399484 
z
" clip-path="url(#pd8d86aa7c6)" style="fill: #6d6de6; stroke: #4c4c4c; stroke-width: 0.75"/>
    <path d="M 231.3816 373.399484 
L 281.3784 373.399484 
L 281.3784 333.16331 
L 231.3816 333.16331 
z
" clip-path="url(#pd8d86aa7c6)" style="fill: #8888e9; stroke: #4c4c4c; stroke-width: 0.75"/>
    <path d="M 234.9528 333.16331 
L 277.8072 333.16331 
L 277.8072 329.139692 
L 234.9528 329.139692 
z
" clip-path="url(#pd8d86aa7c6)" style="fill: #9e9eeb; stroke: #4c4c4c; stroke-width: 0.75"/>
    <path d="M 238.524 329.139692 
L 274.236 329.139692 
L 274.236 318.074744 
L 238.524 318.074744 
z
" clip-path="url(#pd8d86aa7c6)" style="fill: #afafec; stroke: #4c4c4c; stroke-width: 0.75"/>
    <path d="M 242.0952 318.074744 
L 270.6648 318.074744 
L 270.6648 307.009796 
L 242.0952 307.009796 
z
" clip-path="url(#pd8d86aa7c6)" style="fill: #bcbcee; stroke: #4c4c4c; stroke-width: 0.75"/>
    <path d="M 245.6664 307.009796 
L 267.0936 307.009796 
L 267.0936 297.988091 
L 245.6664 297.988091 
z
" clip-path="url(#pd8d86aa7c6)" style="fill: #c8c8ef; stroke: #4c4c4c; stroke-width: 0.75"/>
    <path d="M 249.2376 297.988091 
L 263.5224 297.988091 
L 263.5224 285.885805 
L 249.2376 285.885805 
z
" clip-path="url(#pd8d86aa7c6)" style="fill: #d0d0f0; stroke: #4c4c4c; stroke-width: 0.75"/>
    <path d="M 252.8088 285.885805 
L 259.9512 285.885805 
L 259.9512 282.243331 
L 252.8088 282.243331 
z
" clip-path="url(#pd8d86aa7c6)" style="fill: #d6d6f0; stroke: #4c4c4c; stroke-width: 0.75"/>
   </g>
   <g id="PathCollection_3">
    <defs>
     <path id="C2_0_4b00a295de" d="M 0 2.5 
C 0.663008 2.5 1.29895 2.236584 1.767767 1.767767 
C 2.236584 1.29895 2.5 0.663008 2.5 -0 
C 2.5 -0.663008 2.236584 -1.29895 1.767767 -1.767767 
C 1.29895 -2.236584 0.663008 -2.5 0 -2.5 
C -0.663008 -2.5 -1.29895 -2.236584 -1.767767 -1.767767 
C -2.236584 -1.29895 -2.5 -0.663008 -2.5 0 
C -2.5 0.663008 -2.236584 1.29895 -1.767767 1.767767 
C -1.29895 2.236584 -0.663008 2.5 0 2.5 
z
"/>
    </defs>
    <g clip-path="url(#pd8d86aa7c6)">
     <use xlink:href="#C2_0_4b00a295de" x="256.38" y="514.226096" style="fill: none; stroke: #737373"/>
    </g>
    <g clip-path="url(#pd8d86aa7c6)">
     <use xlink:href="#C2_0_4b00a295de" x="256.38" y="513.220191" style="fill: none; stroke: #737373"/>
    </g>
    <g clip-path="url(#pd8d86aa7c6)">
     <use xlink:href="#C2_0_4b00a295de" x="256.38" y="280.856283" style="fill: none; stroke: #737373"/>
    </g>
    <g clip-path="url(#pd8d86aa7c6)">
     <use xlink:href="#C2_0_4b00a295de" x="256.38" y="277.83857" style="fill: none; stroke: #737373"/>
    </g>
    <g clip-path="url(#pd8d86aa7c6)">
     <use xlink:href="#C2_0_4b00a295de" x="256.38" y="281.862187" style="fill: none; stroke: #737373"/>
    </g>
    <g clip-path="url(#pd8d86aa7c6)">
     <use xlink:href="#C2_0_4b00a295de" x="256.38" y="277.83857" style="fill: none; stroke: #737373"/>
    </g>
    <g clip-path="url(#pd8d86aa7c6)">
     <use xlink:href="#C2_0_4b00a295de" x="256.38" y="281.862187" style="fill: none; stroke: #737373"/>
    </g>
    <g clip-path="url(#pd8d86aa7c6)">
     <use xlink:href="#C2_0_4b00a295de" x="256.38" y="280.856283" style="fill: none; stroke: #737373"/>
    </g>
    <g clip-path="url(#pd8d86aa7c6)">
     <use xlink:href="#C2_0_4b00a295de" x="256.38" y="276.832665" style="fill: none; stroke: #737373"/>
    </g>
    <g clip-path="url(#pd8d86aa7c6)">
     <use xlink:href="#C2_0_4b00a295de" x="256.38" y="512.214287" style="fill: none; stroke: #737373"/>
    </g>
    <g clip-path="url(#pd8d86aa7c6)">
     <use xlink:href="#C2_0_4b00a295de" x="256.38" y="512.214287" style="fill: none; stroke: #737373"/>
    </g>
    <g clip-path="url(#pd8d86aa7c6)">
     <use xlink:href="#C2_0_4b00a295de" x="256.38" y="513.220191" style="fill: none; stroke: #737373"/>
    </g>
    <g clip-path="url(#pd8d86aa7c6)">
     <use xlink:href="#C2_0_4b00a295de" x="256.38" y="512.214287" style="fill: none; stroke: #737373"/>
    </g>
   </g>
   <g id="PatchCollection_4">
    <path d="M 342.0888 515.232 
L 349.2312 515.232 
L 349.2312 514.226096 
L 342.0888 514.226096 
z
" clip-path="url(#pd8d86aa7c6)" style="fill: #d6d6f0; stroke: #4c4c4c; stroke-width: 0.75"/>
    <path d="M 338.5176 514.226096 
L 352.8024 514.226096 
L 352.8024 512.214287 
L 338.5176 512.214287 
z
" clip-path="url(#pd8d86aa7c6)" style="fill: #d0d0f0; stroke: #4c4c4c; stroke-width: 0.75"/>
    <path d="M 334.9464 512.214287 
L 356.3736 512.214287 
L 356.3736 512.214287 
L 334.9464 512.214287 
z
" clip-path="url(#pd8d86aa7c6)" style="fill: #c8c8ef; stroke: #4c4c4c; stroke-width: 0.75"/>
    <path d="M 331.3752 512.214287 
L 359.9448 512.214287 
L 359.9448 510.202478 
L 331.3752 510.202478 
z
" clip-path="url(#pd8d86aa7c6)" style="fill: #bcbcee; stroke: #4c4c4c; stroke-width: 0.75"/>
    <path d="M 327.804 510.202478 
L 363.516 510.202478 
L 363.516 506.178861 
L 327.804 506.178861 
z
" clip-path="url(#pd8d86aa7c6)" style="fill: #afafec; stroke: #4c4c4c; stroke-width: 0.75"/>
    <path d="M 324.2328 506.178861 
L 367.0872 506.178861 
L 367.0872 505.172956 
L 324.2328 505.172956 
z
" clip-path="url(#pd8d86aa7c6)" style="fill: #9e9eeb; stroke: #4c4c4c; stroke-width: 0.75"/>
    <path d="M 320.6616 505.172956 
L 370.6584 505.172956 
L 370.6584 505.172956 
L 320.6616 505.172956 
z
" clip-path="url(#pd8d86aa7c6)" style="fill: #8888e9; stroke: #4c4c4c; stroke-width: 0.75"/>
    <path d="M 317.0904 505.172956 
L 374.2296 505.172956 
L 374.2296 503.161148 
L 317.0904 503.161148 
z
" clip-path="url(#pd8d86aa7c6)" style="fill: #6d6de6; stroke: #4c4c4c; stroke-width: 0.75"/>
    <path d="M 313.5192 503.161148 
L 377.8008 503.161148 
L 377.8008 497.125721 
L 313.5192 497.125721 
z
" clip-path="url(#pd8d86aa7c6)" style="fill: #4a4ae3; stroke: #4c4c4c; stroke-width: 0.75"/>
    <path d="M 309.948 497.125721 
L 381.372 497.125721 
L 381.372 432.747842 
L 309.948 432.747842 
z
" clip-path="url(#pd8d86aa7c6)" style="fill: #2020df; stroke: #4c4c4c; stroke-width: 0.75"/>
    <path d="M 313.5192 432.747842 
L 377.8008 432.747842 
L 377.8008 404.58252 
L 313.5192 404.58252 
z
" clip-path="url(#pd8d86aa7c6)" style="fill: #4a4ae3; stroke: #4c4c4c; stroke-width: 0.75"/>
    <path d="M 317.0904 404.58252 
L 374.2296 404.58252 
L 374.2296 380.440815 
L 317.0904 380.440815 
z
" clip-path="url(#pd8d86aa7c6)" style="fill: #6d6de6; stroke: #4c4c4c; stroke-width: 0.75"/>
    <path d="M 320.6616 380.440815 
L 370.6584 380.440815 
L 370.6584 363.340441 
L 320.6616 363.340441 
z
" clip-path="url(#pd8d86aa7c6)" style="fill: #8888e9; stroke: #4c4c4c; stroke-width: 0.75"/>
    <path d="M 324.2328 363.340441 
L 367.0872 363.340441 
L 367.0872 333.16331 
L 324.2328 333.16331 
z
" clip-path="url(#pd8d86aa7c6)" style="fill: #9e9eeb; stroke: #4c4c4c; stroke-width: 0.75"/>
    <path d="M 327.804 333.16331 
L 363.516 333.16331 
L 363.516 326.121979 
L 327.804 326.121979 
z
" clip-path="url(#pd8d86aa7c6)" style="fill: #afafec; stroke: #4c4c4c; stroke-width: 0.75"/>
    <path d="M 331.3752 326.121979 
L 359.9448 326.121979 
L 359.9448 314.051127 
L 331.3752 314.051127 
z
" clip-path="url(#pd8d86aa7c6)" style="fill: #bcbcee; stroke: #4c4c4c; stroke-width: 0.75"/>
    <path d="M 334.9464 314.051127 
L 356.3736 314.051127 
L 356.3736 300.97437 
L 334.9464 300.97437 
z
" clip-path="url(#pd8d86aa7c6)" style="fill: #c8c8ef; stroke: #4c4c4c; stroke-width: 0.75"/>
    <path d="M 338.5176 300.97437 
L 352.8024 300.97437 
L 352.8024 294.847587 
L 338.5176 294.847587 
z
" clip-path="url(#pd8d86aa7c6)" style="fill: #d0d0f0; stroke: #4c4c4c; stroke-width: 0.75"/>
    <path d="M 342.0888 294.847587 
L 349.2312 294.847587 
L 349.2312 289.894196 
L 342.0888 289.894196 
z
" clip-path="url(#pd8d86aa7c6)" style="fill: #d6d6f0; stroke: #4c4c4c; stroke-width: 0.75"/>
   </g>
   <g id="PathCollection_4">
    <defs>
     <path id="C3_0_018d13290d" d="M 0 2.5 
C 0.663008 2.5 1.29895 2.236584 1.767767 1.767767 
C 2.236584 1.29895 2.5 0.663008 2.5 -0 
C 2.5 -0.663008 2.236584 -1.29895 1.767767 -1.767767 
C 1.29895 -2.236584 0.663008 -2.5 0 -2.5 
C -0.663008 -2.5 -1.29895 -2.236584 -1.767767 -1.767767 
C -2.236584 -1.29895 -2.5 -0.663008 -2.5 0 
C -2.5 0.663008 -2.236584 1.29895 -1.767767 1.767767 
C -1.29895 2.236584 -0.663008 2.5 0 2.5 
z
"/>
    </defs>
    <g clip-path="url(#pd8d86aa7c6)">
     <use xlink:href="#C3_0_018d13290d" x="345.66" y="285.885805" style="fill: none; stroke: #737373"/>
    </g>
    <g clip-path="url(#pd8d86aa7c6)">
     <use xlink:href="#C3_0_018d13290d" x="345.66" y="283.873996" style="fill: none; stroke: #737373"/>
    </g>
    <g clip-path="url(#pd8d86aa7c6)">
     <use xlink:href="#C3_0_018d13290d" x="345.66" y="282.868091" style="fill: none; stroke: #737373"/>
    </g>
    <g clip-path="url(#pd8d86aa7c6)">
     <use xlink:href="#C3_0_018d13290d" x="345.66" y="288.903518" style="fill: none; stroke: #737373"/>
    </g>
    <g clip-path="url(#pd8d86aa7c6)">
     <use xlink:href="#C3_0_018d13290d" x="345.66" y="283.873996" style="fill: none; stroke: #737373"/>
    </g>
    <g clip-path="url(#pd8d86aa7c6)">
     <use xlink:href="#C3_0_018d13290d" x="345.66" y="182.277655" style="fill: none; stroke: #737373"/>
    </g>
   </g>
   <g id="PatchCollection_5">
    <path d="M 430.972 512.214287 
L 438.908 512.214287 
L 438.908 512.214287 
L 430.972 512.214287 
z
" clip-path="url(#pd8d86aa7c6)" style="fill: #d0d0f0; stroke: #4c4c4c; stroke-width: 0.75"/>
    <path d="M 427.004 512.214287 
L 442.876 512.214287 
L 442.876 512.214287 
L 427.004 512.214287 
z
" clip-path="url(#pd8d86aa7c6)" style="fill: #c8c8ef; stroke: #4c4c4c; stroke-width: 0.75"/>
    <path d="M 423.036 512.214287 
L 446.844 512.214287 
L 446.844 511.208383 
L 423.036 511.208383 
z
" clip-path="url(#pd8d86aa7c6)" style="fill: #bcbcee; stroke: #4c4c4c; stroke-width: 0.75"/>
    <path d="M 419.068 511.208383 
L 450.812 511.208383 
L 450.812 509.196574 
L 419.068 509.196574 
z
" clip-path="url(#pd8d86aa7c6)" style="fill: #afafec; stroke: #4c4c4c; stroke-width: 0.75"/>
    <path d="M 415.1 509.196574 
L 454.78 509.196574 
L 454.78 507.184765 
L 415.1 507.184765 
z
" clip-path="url(#pd8d86aa7c6)" style="fill: #9e9eeb; stroke: #4c4c4c; stroke-width: 0.75"/>
    <path d="M 411.132 507.184765 
L 458.748 507.184765 
L 458.748 505.172956 
L 411.132 505.172956 
z
" clip-path="url(#pd8d86aa7c6)" style="fill: #8888e9; stroke: #4c4c4c; stroke-width: 0.75"/>
    <path d="M 407.164 505.172956 
L 462.716 505.172956 
L 462.716 504.167052 
L 407.164 504.167052 
z
" clip-path="url(#pd8d86aa7c6)" style="fill: #6d6de6; stroke: #4c4c4c; stroke-width: 0.75"/>
    <path d="M 403.196 504.167052 
L 466.684 504.167052 
L 466.684 497.125721 
L 403.196 497.125721 
z
" clip-path="url(#pd8d86aa7c6)" style="fill: #4a4ae3; stroke: #4c4c4c; stroke-width: 0.75"/>
    <path d="M 399.228 497.125721 
L 470.652 497.125721 
L 470.652 433.753746 
L 399.228 433.753746 
z
" clip-path="url(#pd8d86aa7c6)" style="fill: #2020df; stroke: #4c4c4c; stroke-width: 0.75"/>
    <path d="M 403.196 433.753746 
L 466.684 433.753746 
L 466.684 409.612042 
L 403.196 409.612042 
z
" clip-path="url(#pd8d86aa7c6)" style="fill: #4a4ae3; stroke: #4c4c4c; stroke-width: 0.75"/>
    <path d="M 407.164 409.612042 
L 462.716 409.612042 
L 462.716 383.458528 
L 407.164 383.458528 
z
" clip-path="url(#pd8d86aa7c6)" style="fill: #6d6de6; stroke: #4c4c4c; stroke-width: 0.75"/>
    <path d="M 411.132 383.458528 
L 458.748 383.458528 
L 458.748 371.387676 
L 411.132 371.387676 
z
" clip-path="url(#pd8d86aa7c6)" style="fill: #8888e9; stroke: #4c4c4c; stroke-width: 0.75"/>
    <path d="M 415.1 371.387676 
L 454.78 371.387676 
L 454.78 355.293206 
L 415.1 355.293206 
z
" clip-path="url(#pd8d86aa7c6)" style="fill: #9e9eeb; stroke: #4c4c4c; stroke-width: 0.75"/>
    <path d="M 419.068 355.293206 
L 450.812 355.293206 
L 450.812 333.16331 
L 419.068 333.16331 
z
" clip-path="url(#pd8d86aa7c6)" style="fill: #afafec; stroke: #4c4c4c; stroke-width: 0.75"/>
    <path d="M 423.036 333.16331 
L 446.844 333.16331 
L 446.844 325.116075 
L 423.036 325.116075 
z
" clip-path="url(#pd8d86aa7c6)" style="fill: #bcbcee; stroke: #4c4c4c; stroke-width: 0.75"/>
    <path d="M 427.004 325.116075 
L 442.876 325.116075 
L 442.876 307.009796 
L 427.004 307.009796 
z
" clip-path="url(#pd8d86aa7c6)" style="fill: #c8c8ef; stroke: #4c4c4c; stroke-width: 0.75"/>
    <path d="M 430.972 307.009796 
L 438.908 307.009796 
L 438.908 297.913435 
L 430.972 297.913435 
z
" clip-path="url(#pd8d86aa7c6)" style="fill: #d0d0f0; stroke: #4c4c4c; stroke-width: 0.75"/>
   </g>
   <g id="PathCollection_5">
    <defs>
     <path id="C4_0_bd1b52c87c" d="M 0 2.5 
C 0.663008 2.5 1.29895 2.236584 1.767767 1.767767 
C 2.236584 1.29895 2.5 0.663008 2.5 -0 
C 2.5 -0.663008 2.236584 -1.29895 1.767767 -1.767767 
C 1.29895 -2.236584 0.663008 -2.5 0 -2.5 
C -0.663008 -2.5 -1.29895 -2.236584 -1.767767 -1.767767 
C -2.236584 -1.29895 -2.5 -0.663008 -2.5 0 
C -2.5 0.663008 -2.236584 1.29895 -1.767767 1.767767 
C -1.29895 2.236584 -0.663008 2.5 0 2.5 
z
"/>
    </defs>
    <g clip-path="url(#pd8d86aa7c6)">
     <use xlink:href="#C4_0_bd1b52c87c" x="434.94" y="292.927135" style="fill: none; stroke: #737373"/>
    </g>
    <g clip-path="url(#pd8d86aa7c6)">
     <use xlink:href="#C4_0_bd1b52c87c" x="434.94" y="274.820857" style="fill: none; stroke: #737373"/>
    </g>
    <g clip-path="url(#pd8d86aa7c6)">
     <use xlink:href="#C4_0_bd1b52c87c" x="434.94" y="291.921231" style="fill: none; stroke: #737373"/>
    </g>
    <g clip-path="url(#pd8d86aa7c6)">
     <use xlink:href="#C4_0_bd1b52c87c" x="434.94" y="294.938944" style="fill: none; stroke: #737373"/>
    </g>
    <g clip-path="url(#pd8d86aa7c6)">
     <use xlink:href="#C4_0_bd1b52c87c" x="434.94" y="294.938944" style="fill: none; stroke: #737373"/>
    </g>
    <g clip-path="url(#pd8d86aa7c6)">
     <use xlink:href="#C4_0_bd1b52c87c" x="434.94" y="294.938944" style="fill: none; stroke: #737373"/>
    </g>
    <g clip-path="url(#pd8d86aa7c6)">
     <use xlink:href="#C4_0_bd1b52c87c" x="434.94" y="295.944848" style="fill: none; stroke: #737373"/>
    </g>
    <g clip-path="url(#pd8d86aa7c6)">
     <use xlink:href="#C4_0_bd1b52c87c" x="434.94" y="278.844474" style="fill: none; stroke: #737373"/>
    </g>
   </g>
   <g id="PatchCollection_6">
    <path d="M 520.252 512.214287 
L 528.188 512.214287 
L 528.188 512.214287 
L 520.252 512.214287 
z
" clip-path="url(#pd8d86aa7c6)" style="fill: #d0d0f0; stroke: #4c4c4c; stroke-width: 0.75"/>
    <path d="M 516.284 512.214287 
L 532.156 512.214287 
L 532.156 512.214287 
L 516.284 512.214287 
z
" clip-path="url(#pd8d86aa7c6)" style="fill: #c8c8ef; stroke: #4c4c4c; stroke-width: 0.75"/>
    <path d="M 512.316 512.214287 
L 536.124 512.214287 
L 536.124 512.214287 
L 512.316 512.214287 
z
" clip-path="url(#pd8d86aa7c6)" style="fill: #bcbcee; stroke: #4c4c4c; stroke-width: 0.75"/>
    <path d="M 508.348 512.214287 
L 540.092 512.214287 
L 540.092 512.214287 
L 508.348 512.214287 
z
" clip-path="url(#pd8d86aa7c6)" style="fill: #afafec; stroke: #4c4c4c; stroke-width: 0.75"/>
    <path d="M 504.38 512.214287 
L 544.06 512.214287 
L 544.06 511.208383 
L 504.38 511.208383 
z
" clip-path="url(#pd8d86aa7c6)" style="fill: #9e9eeb; stroke: #4c4c4c; stroke-width: 0.75"/>
    <path d="M 500.412 511.208383 
L 548.028 511.208383 
L 548.028 509.196574 
L 500.412 509.196574 
z
" clip-path="url(#pd8d86aa7c6)" style="fill: #8888e9; stroke: #4c4c4c; stroke-width: 0.75"/>
    <path d="M 496.444 509.196574 
L 551.996 509.196574 
L 551.996 505.172956 
L 496.444 505.172956 
z
" clip-path="url(#pd8d86aa7c6)" style="fill: #6d6de6; stroke: #4c4c4c; stroke-width: 0.75"/>
    <path d="M 492.476 505.172956 
L 555.964 505.172956 
L 555.964 503.161148 
L 492.476 503.161148 
z
" clip-path="url(#pd8d86aa7c6)" style="fill: #4a4ae3; stroke: #4c4c4c; stroke-width: 0.75"/>
    <path d="M 488.508 503.161148 
L 559.932 503.161148 
L 559.932 461.919069 
L 488.508 461.919069 
z
" clip-path="url(#pd8d86aa7c6)" style="fill: #2020df; stroke: #4c4c4c; stroke-width: 0.75"/>
    <path d="M 492.476 461.919069 
L 555.964 461.919069 
L 555.964 427.71832 
L 492.476 427.71832 
z
" clip-path="url(#pd8d86aa7c6)" style="fill: #4a4ae3; stroke: #4c4c4c; stroke-width: 0.75"/>
    <path d="M 496.444 427.71832 
L 551.996 427.71832 
L 551.996 410.617946 
L 496.444 410.617946 
z
" clip-path="url(#pd8d86aa7c6)" style="fill: #6d6de6; stroke: #4c4c4c; stroke-width: 0.75"/>
    <path d="M 500.412 410.617946 
L 548.028 410.617946 
L 548.028 383.458528 
L 500.412 383.458528 
z
" clip-path="url(#pd8d86aa7c6)" style="fill: #8888e9; stroke: #4c4c4c; stroke-width: 0.75"/>
    <path d="M 504.38 383.458528 
L 544.06 383.458528 
L 544.06 380.440815 
L 504.38 380.440815 
z
" clip-path="url(#pd8d86aa7c6)" style="fill: #9e9eeb; stroke: #4c4c4c; stroke-width: 0.75"/>
    <path d="M 508.348 380.440815 
L 540.092 380.440815 
L 540.092 365.352249 
L 508.348 365.352249 
z
" clip-path="url(#pd8d86aa7c6)" style="fill: #afafec; stroke: #4c4c4c; stroke-width: 0.75"/>
    <path d="M 512.316 365.352249 
L 536.124 365.352249 
L 536.124 362.334536 
L 512.316 362.334536 
z
" clip-path="url(#pd8d86aa7c6)" style="fill: #bcbcee; stroke: #4c4c4c; stroke-width: 0.75"/>
    <path d="M 516.284 362.334536 
L 532.156 362.334536 
L 532.156 349.25778 
L 516.284 349.25778 
z
" clip-path="url(#pd8d86aa7c6)" style="fill: #c8c8ef; stroke: #4c4c4c; stroke-width: 0.75"/>
    <path d="M 520.252 349.25778 
L 528.188 349.25778 
L 528.188 333.055254 
L 520.252 333.055254 
z
" clip-path="url(#pd8d86aa7c6)" style="fill: #d0d0f0; stroke: #4c4c4c; stroke-width: 0.75"/>
   </g>
   <g id="PathCollection_6">
    <defs>
     <path id="C5_0_52847bfb07" d="M 0 2.5 
C 0.663008 2.5 1.29895 2.236584 1.767767 1.767767 
C 2.236584 1.29895 2.5 0.663008 2.5 -0 
C 2.5 -0.663008 2.236584 -1.29895 1.767767 -1.767767 
C 1.29895 -2.236584 0.663008 -2.5 0 -2.5 
C -0.663008 -2.5 -1.29895 -2.236584 -1.767767 -1.767767 
C -2.236584 -1.29895 -2.5 -0.663008 -2.5 0 
C -2.5 0.663008 -2.236584 1.29895 -1.767767 1.767767 
C -1.29895 2.236584 -0.663008 2.5 0 2.5 
z
"/>
    </defs>
    <g clip-path="url(#pd8d86aa7c6)">
     <use xlink:href="#C5_0_52847bfb07" x="524.22" y="331.151501" style="fill: none; stroke: #737373"/>
    </g>
    <g clip-path="url(#pd8d86aa7c6)">
     <use xlink:href="#C5_0_52847bfb07" x="524.22" y="331.151501" style="fill: none; stroke: #737373"/>
    </g>
    <g clip-path="url(#pd8d86aa7c6)">
     <use xlink:href="#C5_0_52847bfb07" x="524.22" y="327.127884" style="fill: none; stroke: #737373"/>
    </g>
    <g clip-path="url(#pd8d86aa7c6)">
     <use xlink:href="#C5_0_52847bfb07" x="524.22" y="327.127884" style="fill: none; stroke: #737373"/>
    </g>
    <g clip-path="url(#pd8d86aa7c6)">
     <use xlink:href="#C5_0_52847bfb07" x="524.22" y="329.139692" style="fill: none; stroke: #737373"/>
    </g>
   </g>
   <g id="PatchCollection_7">
    <path d="M 609.036 512.214287 
L 617.964 512.214287 
L 617.964 512.214287 
L 609.036 512.214287 
z
" clip-path="url(#pd8d86aa7c6)" style="fill: #c8c8ef; stroke: #4c4c4c; stroke-width: 0.75"/>
    <path d="M 604.572 512.214287 
L 622.428 512.214287 
L 622.428 512.214287 
L 604.572 512.214287 
z
" clip-path="url(#pd8d86aa7c6)" style="fill: #bcbcee; stroke: #4c4c4c; stroke-width: 0.75"/>
    <path d="M 600.108 512.214287 
L 626.892 512.214287 
L 626.892 512.214287 
L 600.108 512.214287 
z
" clip-path="url(#pd8d86aa7c6)" style="fill: #afafec; stroke: #4c4c4c; stroke-width: 0.75"/>
    <path d="M 595.644 512.214287 
L 631.356 512.214287 
L 631.356 511.208383 
L 595.644 511.208383 
z
" clip-path="url(#pd8d86aa7c6)" style="fill: #9e9eeb; stroke: #4c4c4c; stroke-width: 0.75"/>
    <path d="M 591.18 511.208383 
L 635.82 511.208383 
L 635.82 509.196574 
L 591.18 509.196574 
z
" clip-path="url(#pd8d86aa7c6)" style="fill: #8888e9; stroke: #4c4c4c; stroke-width: 0.75"/>
    <path d="M 586.716 509.196574 
L 640.284 509.196574 
L 640.284 505.172956 
L 586.716 505.172956 
z
" clip-path="url(#pd8d86aa7c6)" style="fill: #6d6de6; stroke: #4c4c4c; stroke-width: 0.75"/>
    <path d="M 582.252 505.172956 
L 644.748 505.172956 
L 644.748 504.167052 
L 582.252 504.167052 
z
" clip-path="url(#pd8d86aa7c6)" style="fill: #4a4ae3; stroke: #4c4c4c; stroke-width: 0.75"/>
    <path d="M 577.788 504.167052 
L 649.212 504.167052 
L 649.212 479.019443 
L 577.788 479.019443 
z
" clip-path="url(#pd8d86aa7c6)" style="fill: #2020df; stroke: #4c4c4c; stroke-width: 0.75"/>
    <path d="M 582.252 479.019443 
L 644.748 479.019443 
L 644.748 444.818694 
L 582.252 444.818694 
z
" clip-path="url(#pd8d86aa7c6)" style="fill: #4a4ae3; stroke: #4c4c4c; stroke-width: 0.75"/>
    <path d="M 586.716 444.818694 
L 640.284 444.818694 
L 640.284 420.67699 
L 586.716 420.67699 
z
" clip-path="url(#pd8d86aa7c6)" style="fill: #6d6de6; stroke: #4c4c4c; stroke-width: 0.75"/>
    <path d="M 591.18 420.67699 
L 635.82 420.67699 
L 635.82 408.606137 
L 591.18 408.606137 
z
" clip-path="url(#pd8d86aa7c6)" style="fill: #8888e9; stroke: #4c4c4c; stroke-width: 0.75"/>
    <path d="M 595.644 408.606137 
L 631.356 408.606137 
L 631.356 384.464432 
L 595.644 384.464432 
z
" clip-path="url(#pd8d86aa7c6)" style="fill: #9e9eeb; stroke: #4c4c4c; stroke-width: 0.75"/>
    <path d="M 600.108 384.464432 
L 626.892 384.464432 
L 626.892 381.446719 
L 600.108 381.446719 
z
" clip-path="url(#pd8d86aa7c6)" style="fill: #afafec; stroke: #4c4c4c; stroke-width: 0.75"/>
    <path d="M 604.572 381.446719 
L 622.428 381.446719 
L 622.428 374.405389 
L 604.572 374.405389 
z
" clip-path="url(#pd8d86aa7c6)" style="fill: #bcbcee; stroke: #4c4c4c; stroke-width: 0.75"/>
    <path d="M 609.036 374.405389 
L 617.964 374.405389 
L 617.964 364.346345 
L 609.036 364.346345 
z
" clip-path="url(#pd8d86aa7c6)" style="fill: #c8c8ef; stroke: #4c4c4c; stroke-width: 0.75"/>
   </g>
   <g id="PathCollection_7">
    <defs>
     <path id="C6_0_48187e21b6" d="M 0 2.5 
C 0.663008 2.5 1.29895 2.236584 1.767767 1.767767 
C 2.236584 1.29895 2.5 0.663008 2.5 -0 
C 2.5 -0.663008 2.236584 -1.29895 1.767767 -1.767767 
C 1.29895 -2.236584 0.663008 -2.5 0 -2.5 
C -0.663008 -2.5 -1.29895 -2.236584 -1.767767 -1.767767 
C -2.236584 -1.29895 -2.5 -0.663008 -2.5 0 
C -2.5 0.663008 -2.236584 1.29895 -1.767767 1.767767 
C -1.29895 2.236584 -0.663008 2.5 0 2.5 
z
"/>
    </defs>
    <g clip-path="url(#pd8d86aa7c6)">
     <use xlink:href="#C6_0_48187e21b6" x="613.5" y="326.121979" style="fill: none; stroke: #737373"/>
    </g>
    <g clip-path="url(#pd8d86aa7c6)">
     <use xlink:href="#C6_0_48187e21b6" x="613.5" y="333.16331" style="fill: none; stroke: #737373"/>
    </g>
    <g clip-path="url(#pd8d86aa7c6)">
     <use xlink:href="#C6_0_48187e21b6" x="613.5" y="302.986179" style="fill: none; stroke: #737373"/>
    </g>
    <g clip-path="url(#pd8d86aa7c6)">
     <use xlink:href="#C6_0_48187e21b6" x="613.5" y="324.11017" style="fill: none; stroke: #737373"/>
    </g>
    <g clip-path="url(#pd8d86aa7c6)">
     <use xlink:href="#C6_0_48187e21b6" x="613.5" y="318.074744" style="fill: none; stroke: #737373"/>
    </g>
   </g>
   <g id="PatchCollection_8">
    <path d="M 697.678286 511.22017 
L 707.881714 511.22017 
L 707.881714 511.208383 
L 697.678286 511.208383 
z
" clip-path="url(#pd8d86aa7c6)" style="fill: #bcbcee; stroke: #4c4c4c; stroke-width: 0.75"/>
    <path d="M 692.576571 511.208383 
L 712.983429 511.208383 
L 712.983429 510.202478 
L 692.576571 510.202478 
z
" clip-path="url(#pd8d86aa7c6)" style="fill: #afafec; stroke: #4c4c4c; stroke-width: 0.75"/>
    <path d="M 687.474857 510.202478 
L 718.085143 510.202478 
L 718.085143 508.190669 
L 687.474857 508.190669 
z
" clip-path="url(#pd8d86aa7c6)" style="fill: #9e9eeb; stroke: #4c4c4c; stroke-width: 0.75"/>
    <path d="M 682.373143 508.190669 
L 723.186857 508.190669 
L 723.186857 505.172956 
L 682.373143 505.172956 
z
" clip-path="url(#pd8d86aa7c6)" style="fill: #8888e9; stroke: #4c4c4c; stroke-width: 0.75"/>
    <path d="M 677.271429 505.172956 
L 728.288571 505.172956 
L 728.288571 505.172956 
L 677.271429 505.172956 
z
" clip-path="url(#pd8d86aa7c6)" style="fill: #6d6de6; stroke: #4c4c4c; stroke-width: 0.75"/>
    <path d="M 672.169714 505.172956 
L 733.390286 505.172956 
L 733.390286 504.167052 
L 672.169714 504.167052 
z
" clip-path="url(#pd8d86aa7c6)" style="fill: #4a4ae3; stroke: #4c4c4c; stroke-width: 0.75"/>
    <path d="M 667.068 504.167052 
L 738.492 504.167052 
L 738.492 480.025347 
L 667.068 480.025347 
z
" clip-path="url(#pd8d86aa7c6)" style="fill: #2020df; stroke: #4c4c4c; stroke-width: 0.75"/>
    <path d="M 672.169714 480.025347 
L 733.390286 480.025347 
L 733.390286 433.753746 
L 672.169714 433.753746 
z
" clip-path="url(#pd8d86aa7c6)" style="fill: #4a4ae3; stroke: #4c4c4c; stroke-width: 0.75"/>
    <path d="M 677.271429 433.753746 
L 728.288571 433.753746 
L 728.288571 421.682894 
L 677.271429 421.682894 
z
" clip-path="url(#pd8d86aa7c6)" style="fill: #6d6de6; stroke: #4c4c4c; stroke-width: 0.75"/>
    <path d="M 682.373143 421.682894 
L 723.186857 421.682894 
L 723.186857 406.405721 
L 682.373143 406.405721 
z
" clip-path="url(#pd8d86aa7c6)" style="fill: #8888e9; stroke: #4c4c4c; stroke-width: 0.75"/>
    <path d="M 687.474857 406.405721 
L 718.085143 406.405721 
L 718.085143 383.458528 
L 687.474857 383.458528 
z
" clip-path="url(#pd8d86aa7c6)" style="fill: #9e9eeb; stroke: #4c4c4c; stroke-width: 0.75"/>
    <path d="M 692.576571 383.458528 
L 712.983429 383.458528 
L 712.983429 379.434911 
L 692.576571 379.434911 
z
" clip-path="url(#pd8d86aa7c6)" style="fill: #afafec; stroke: #4c4c4c; stroke-width: 0.75"/>
    <path d="M 697.678286 379.434911 
L 707.881714 379.434911 
L 707.881714 369.375867 
L 697.678286 369.375867 
z
" clip-path="url(#pd8d86aa7c6)" style="fill: #bcbcee; stroke: #4c4c4c; stroke-width: 0.75"/>
   </g>
   <g id="PathCollection_8">
    <defs>
     <path id="C7_0_e3c8e3d03a" d="M 0 2.5 
C 0.663008 2.5 1.29895 2.236584 1.767767 1.767767 
C 2.236584 1.29895 2.5 0.663008 2.5 -0 
C 2.5 -0.663008 2.236584 -1.29895 1.767767 -1.767767 
C 1.29895 -2.236584 0.663008 -2.5 0 -2.5 
C -0.663008 -2.5 -1.29895 -2.236584 -1.767767 -1.767767 
C -2.236584 -1.29895 -2.5 -0.663008 -2.5 0 
C -2.5 0.663008 -2.236584 1.29895 -1.767767 1.767767 
C -1.29895 2.236584 -0.663008 2.5 0 2.5 
z
"/>
    </defs>
    <g clip-path="url(#pd8d86aa7c6)">
     <use xlink:href="#C7_0_e3c8e3d03a" x="702.78" y="368.369963" style="fill: none; stroke: #737373"/>
    </g>
    <g clip-path="url(#pd8d86aa7c6)">
     <use xlink:href="#C7_0_e3c8e3d03a" x="702.78" y="368.369963" style="fill: none; stroke: #737373"/>
    </g>
    <g clip-path="url(#pd8d86aa7c6)">
     <use xlink:href="#C7_0_e3c8e3d03a" x="702.78" y="330.145597" style="fill: none; stroke: #737373"/>
    </g>
    <g clip-path="url(#pd8d86aa7c6)">
     <use xlink:href="#C7_0_e3c8e3d03a" x="702.78" y="326.121979" style="fill: none; stroke: #737373"/>
    </g>
    <g clip-path="url(#pd8d86aa7c6)">
     <use xlink:href="#C7_0_e3c8e3d03a" x="702.78" y="304.997988" style="fill: none; stroke: #737373"/>
    </g>
    <g clip-path="url(#pd8d86aa7c6)">
     <use xlink:href="#C7_0_e3c8e3d03a" x="702.78" y="304.997988" style="fill: none; stroke: #737373"/>
    </g>
    <g clip-path="url(#pd8d86aa7c6)">
     <use xlink:href="#C7_0_e3c8e3d03a" x="702.78" y="512.214287" style="fill: none; stroke: #737373"/>
    </g>
    <g clip-path="url(#pd8d86aa7c6)">
     <use xlink:href="#C7_0_e3c8e3d03a" x="702.78" y="512.214287" style="fill: none; stroke: #737373"/>
    </g>
    <g clip-path="url(#pd8d86aa7c6)">
     <use xlink:href="#C7_0_e3c8e3d03a" x="702.78" y="512.214287" style="fill: none; stroke: #737373"/>
    </g>
    <g clip-path="url(#pd8d86aa7c6)">
     <use xlink:href="#C7_0_e3c8e3d03a" x="702.78" y="512.214287" style="fill: none; stroke: #737373"/>
    </g>
    <g clip-path="url(#pd8d86aa7c6)">
     <use xlink:href="#C7_0_e3c8e3d03a" x="702.78" y="512.214287" style="fill: none; stroke: #737373"/>
    </g>
    <g clip-path="url(#pd8d86aa7c6)">
     <use xlink:href="#C7_0_e3c8e3d03a" x="702.78" y="512.214287" style="fill: none; stroke: #737373"/>
    </g>
    <g clip-path="url(#pd8d86aa7c6)">
     <use xlink:href="#C7_0_e3c8e3d03a" x="702.78" y="512.214287" style="fill: none; stroke: #737373"/>
    </g>
   </g>
   <g id="matplotlib.axis_1">
    <g id="xtick_1">
     <g id="line2d_1"/>
     <g id="text_1">
      <!-- I1 -->
      <g style="fill: #838383" transform="translate(71.82 551.804) scale(0.12 -0.12)">
       <defs>
        <path id="IBMPlexSans-Regular-49" d="M 384 0 
L 384 448 
L 1011 448 
L 1011 4019 
L 384 4019 
L 384 4467 
L 2176 4467 
L 2176 4019 
L 1549 4019 
L 1549 448 
L 2176 448 
L 2176 0 
L 384 0 
z
" transform="scale(0.015625)"/>
        <path id="IBMPlexSans-Regular-31" d="M 563 0 
L 563 474 
L 1811 474 
L 1811 4070 
L 1766 4070 
L 640 3021 
L 326 3360 
L 1510 4467 
L 2349 4467 
L 2349 474 
L 3501 474 
L 3501 0 
L 563 0 
z
" transform="scale(0.015625)"/>
       </defs>
       <use xlink:href="#IBMPlexSans-Regular-49"/>
       <use xlink:href="#IBMPlexSans-Regular-31" x="39.999985"/>
      </g>
     </g>
    </g>
    <g id="xtick_2">
     <g id="line2d_2"/>
     <g id="text_2">
      <!-- SI2 -->
      <g style="fill: #838383" transform="translate(157.614375 551.804) scale(0.12 -0.12)">
       <defs>
        <path id="IBMPlexSans-Regular-53" d="M 1850 -77 
Q 1306 -77 922 131 
Q 538 339 269 704 
L 666 1037 
Q 902 723 1190 560 
Q 1478 397 1869 397 
Q 2349 397 2601 627 
Q 2854 858 2854 1242 
Q 2854 1562 2662 1734 
Q 2470 1907 2029 2010 
L 1664 2093 
Q 1050 2234 726 2518 
Q 403 2803 403 3322 
Q 403 3616 512 3846 
Q 621 4077 816 4230 
Q 1011 4384 1283 4464 
Q 1555 4544 1882 4544 
Q 2387 4544 2748 4358 
Q 3110 4173 3360 3814 
L 2957 3520 
Q 2771 3776 2508 3923 
Q 2246 4070 1856 4070 
Q 1427 4070 1180 3888 
Q 934 3706 934 3341 
Q 934 3021 1142 2857 
Q 1350 2694 1773 2598 
L 2138 2515 
Q 2797 2368 3091 2067 
Q 3386 1766 3386 1267 
Q 3386 960 3280 710 
Q 3174 461 2976 288 
Q 2778 115 2493 19 
Q 2208 -77 1850 -77 
z
" transform="scale(0.015625)"/>
        <path id="IBMPlexSans-Regular-32" d="M 3411 0 
L 480 0 
L 480 550 
L 1939 1894 
Q 2253 2182 2464 2505 
Q 2675 2829 2675 3155 
L 2675 3232 
Q 2675 3603 2470 3833 
Q 2266 4064 1850 4064 
Q 1645 4064 1491 4006 
Q 1338 3949 1226 3846 
Q 1114 3744 1040 3606 
Q 966 3469 922 3309 
L 442 3494 
Q 506 3693 618 3881 
Q 730 4070 899 4217 
Q 1069 4365 1309 4454 
Q 1549 4544 1875 4544 
Q 2202 4544 2458 4448 
Q 2714 4352 2886 4179 
Q 3059 4006 3152 3769 
Q 3245 3533 3245 3245 
Q 3245 2982 3171 2758 
Q 3098 2534 2970 2332 
Q 2842 2131 2659 1939 
Q 2477 1747 2266 1555 
L 1062 474 
L 3411 474 
L 3411 0 
z
" transform="scale(0.015625)"/>
       </defs>
       <use xlink:href="#IBMPlexSans-Regular-53"/>
       <use xlink:href="#IBMPlexSans-Regular-49" x="58.099991"/>
       <use xlink:href="#IBMPlexSans-Regular-32" x="98.099976"/>
      </g>
     </g>
    </g>
    <g id="xtick_3">
     <g id="line2d_3"/>
     <g id="text_3">
      <!-- SI1 -->
      <g style="fill: #838383" transform="translate(246.894375 551.804) scale(0.12 -0.12)">
       <use xlink:href="#IBMPlexSans-Regular-53"/>
       <use xlink:href="#IBMPlexSans-Regular-49" x="58.099991"/>
       <use xlink:href="#IBMPlexSans-Regular-31" x="98.099976"/>
      </g>
     </g>
    </g>
    <g id="xtick_4">
     <g id="line2d_4"/>
     <g id="text_4">
      <!-- VS2 -->
      <g style="fill: #838383" transform="translate(334.92 551.804) scale(0.12 -0.12)">
       <defs>
        <path id="IBMPlexSans-Regular-56" d="M 1613 0 
L 128 4467 
L 704 4467 
L 1440 2214 
L 1933 538 
L 1965 538 
L 2470 2214 
L 3213 4467 
L 3770 4467 
L 2266 0 
L 1613 0 
z
" transform="scale(0.015625)"/>
       </defs>
       <use xlink:href="#IBMPlexSans-Regular-56"/>
       <use xlink:href="#IBMPlexSans-Regular-53" x="60.899994"/>
       <use xlink:href="#IBMPlexSans-Regular-32" x="118.999985"/>
      </g>
     </g>
    </g>
    <g id="xtick_5">
     <g id="line2d_5"/>
     <g id="text_5">
      <!-- VS1 -->
      <g style="fill: #838383" transform="translate(424.2 551.804) scale(0.12 -0.12)">
       <use xlink:href="#IBMPlexSans-Regular-56"/>
       <use xlink:href="#IBMPlexSans-Regular-53" x="60.899994"/>
       <use xlink:href="#IBMPlexSans-Regular-31" x="118.999985"/>
      </g>
     </g>
    </g>
    <g id="xtick_6">
     <g id="line2d_6"/>
     <g id="text_6">
      <!-- VVS2 -->
      <g style="fill: #838383" transform="translate(509.825625 551.804) scale(0.12 -0.12)">
       <use xlink:href="#IBMPlexSans-Regular-56"/>
       <use xlink:href="#IBMPlexSans-Regular-56" x="60.899994"/>
       <use xlink:href="#IBMPlexSans-Regular-53" x="121.799988"/>
       <use xlink:href="#IBMPlexSans-Regular-32" x="179.899979"/>
      </g>
     </g>
    </g>
    <g id="xtick_7">
     <g id="line2d_7"/>
     <g id="text_7">
      <!-- VVS1 -->
      <g style="fill: #838383" transform="translate(599.105625 551.804) scale(0.12 -0.12)">
       <use xlink:href="#IBMPlexSans-Regular-56"/>
       <use xlink:href="#IBMPlexSans-Regular-56" x="60.899994"/>
       <use xlink:href="#IBMPlexSans-Regular-53" x="121.799988"/>
       <use xlink:href="#IBMPlexSans-Regular-31" x="179.899979"/>
      </g>
     </g>
    </g>
    <g id="xtick_8">
     <g id="line2d_8"/>
     <g id="text_8">
      <!-- IF -->
      <g style="fill: #838383" transform="translate(697.025625 551.804) scale(0.12 -0.12)">
       <defs>
        <path id="IBMPlexSans-Regular-46" d="M 595 0 
L 595 4467 
L 3258 4467 
L 3258 3994 
L 1133 3994 
L 1133 2496 
L 3072 2496 
L 3072 2022 
L 1133 2022 
L 1133 0 
L 595 0 
z
" transform="scale(0.015625)"/>
       </defs>
       <use xlink:href="#IBMPlexSans-Regular-49"/>
       <use xlink:href="#IBMPlexSans-Regular-46" x="39.999985"/>
      </g>
     </g>
    </g>
    <g id="text_9">
     <!-- clarity -->
     <g style="fill: #838383" transform="translate(373.643438 567.084) scale(0.12 -0.12)">
      <defs>
       <path id="IBMPlexSans-Regular-63" d="M 1773 -77 
Q 1427 -77 1152 44 
Q 877 166 688 390 
Q 499 614 400 934 
Q 301 1254 301 1651 
Q 301 2048 400 2368 
Q 499 2688 688 2912 
Q 877 3136 1152 3257 
Q 1427 3379 1773 3379 
Q 2266 3379 2563 3164 
Q 2861 2950 3008 2605 
L 2579 2387 
Q 2490 2643 2285 2784 
Q 2080 2925 1773 2925 
Q 1542 2925 1369 2851 
Q 1197 2778 1081 2646 
Q 966 2515 908 2332 
Q 851 2150 851 1933 
L 851 1370 
Q 851 934 1084 656 
Q 1318 378 1773 378 
Q 2394 378 2669 954 
L 3040 704 
Q 2880 346 2563 134 
Q 2246 -77 1773 -77 
z
" transform="scale(0.015625)"/>
       <path id="IBMPlexSans-Regular-6c" d="M 1088 0 
Q 819 0 681 150 
Q 544 301 544 531 
L 544 4736 
L 1056 4736 
L 1056 448 
L 1542 448 
L 1542 0 
L 1088 0 
z
" transform="scale(0.015625)"/>
       <path id="IBMPlexSans-Regular-61" d="M 2944 0 
Q 2656 0 2531 153 
Q 2406 307 2374 538 
L 2342 538 
Q 2234 230 1984 76 
Q 1734 -77 1389 -77 
Q 864 -77 573 192 
Q 282 461 282 922 
Q 282 1389 624 1638 
Q 966 1888 1690 1888 
L 2342 1888 
L 2342 2214 
Q 2342 2566 2150 2752 
Q 1958 2938 1562 2938 
Q 1261 2938 1059 2803 
Q 858 2669 723 2445 
L 416 2733 
Q 550 3002 844 3190 
Q 1139 3379 1587 3379 
Q 2189 3379 2521 3084 
Q 2854 2790 2854 2266 
L 2854 448 
L 3232 448 
L 3232 0 
L 2944 0 
z
M 1472 358 
Q 1664 358 1824 403 
Q 1984 448 2099 531 
Q 2214 614 2278 723 
Q 2342 832 2342 960 
L 2342 1504 
L 1664 1504 
Q 1222 1504 1020 1376 
Q 819 1248 819 1005 
L 819 870 
Q 819 627 995 492 
Q 1171 358 1472 358 
z
" transform="scale(0.015625)"/>
       <path id="IBMPlexSans-Regular-72" d="M 544 0 
L 544 3302 
L 1056 3302 
L 1056 2694 
L 1088 2694 
Q 1178 2931 1408 3116 
Q 1638 3302 2042 3302 
L 2240 3302 
L 2240 2790 
L 1939 2790 
Q 1523 2790 1289 2633 
Q 1056 2477 1056 2240 
L 1056 0 
L 544 0 
z
" transform="scale(0.015625)"/>
       <path id="IBMPlexSans-Regular-69" d="M 800 4077 
Q 634 4077 560 4157 
Q 486 4237 486 4365 
L 486 4448 
Q 486 4576 560 4656 
Q 634 4736 800 4736 
Q 966 4736 1040 4656 
Q 1114 4576 1114 4448 
L 1114 4365 
Q 1114 4237 1040 4157 
Q 966 4077 800 4077 
z
M 544 3302 
L 1056 3302 
L 1056 0 
L 544 0 
L 544 3302 
z
" transform="scale(0.015625)"/>
       <path id="IBMPlexSans-Regular-74" d="M 1274 0 
Q 1005 0 867 150 
Q 730 301 730 544 
L 730 2854 
L 186 2854 
L 186 3302 
L 493 3302 
Q 659 3302 720 3369 
Q 781 3437 781 3603 
L 781 4218 
L 1242 4218 
L 1242 3302 
L 1965 3302 
L 1965 2854 
L 1242 2854 
L 1242 448 
L 1914 448 
L 1914 0 
L 1274 0 
z
" transform="scale(0.015625)"/>
       <path id="IBMPlexSans-Regular-79" d="M 2579 3302 
L 3085 3302 
L 1606 -768 
Q 1549 -915 1491 -1014 
Q 1434 -1114 1350 -1171 
Q 1267 -1229 1142 -1254 
Q 1018 -1280 838 -1280 
L 576 -1280 
L 576 -832 
L 1094 -832 
L 1344 -128 
L 109 3302 
L 621 3302 
L 1414 1056 
L 1568 518 
L 1600 518 
L 1779 1056 
L 2579 3302 
z
" transform="scale(0.015625)"/>
      </defs>
      <use xlink:href="#IBMPlexSans-Regular-63"/>
      <use xlink:href="#IBMPlexSans-Regular-6c" x="50.299988"/>
      <use xlink:href="#IBMPlexSans-Regular-61" x="77.499985"/>
      <use xlink:href="#IBMPlexSans-Regular-72" x="130.899979"/>
      <use xlink:href="#IBMPlexSans-Regular-69" x="167.599976"/>
      <use xlink:href="#IBMPlexSans-Regular-74" x="192.59996"/>
      <use xlink:href="#IBMPlexSans-Regular-79" x="227.699951"/>
     </g>
    </g>
   </g>
   <g id="matplotlib.axis_2">
    <g id="ytick_1">
     <g id="line2d_9"/>
     <g id="text_10">
      <!-- 0 -->
      <g style="fill: #838383" transform="translate(22.48 539.790087) scale(0.12 -0.12)">
       <defs>
        <path id="IBMPlexSans-Regular-30" d="M 1920 -77 
Q 1120 -77 752 531 
Q 384 1139 384 2234 
Q 384 3328 752 3936 
Q 1120 4544 1920 4544 
Q 2720 4544 3088 3936 
Q 3456 3328 3456 2234 
Q 3456 1139 3088 531 
Q 2720 -77 1920 -77 
z
M 1920 390 
Q 2182 390 2368 499 
Q 2554 608 2669 806 
Q 2784 1005 2838 1273 
Q 2893 1542 2893 1869 
L 2893 2598 
Q 2893 2925 2838 3193 
Q 2784 3462 2669 3660 
Q 2554 3859 2368 3968 
Q 2182 4077 1920 4077 
Q 1658 4077 1472 3968 
Q 1286 3859 1171 3660 
Q 1056 3462 1001 3193 
Q 947 2925 947 2598 
L 947 1869 
Q 947 1542 1001 1273 
Q 1056 1005 1171 806 
Q 1286 608 1472 499 
Q 1658 390 1920 390 
z
" transform="scale(0.015625)"/>
       </defs>
       <use xlink:href="#IBMPlexSans-Regular-30"/>
      </g>
     </g>
    </g>
    <g id="ytick_2">
     <g id="line2d_10"/>
     <g id="text_11">
      <!-- 1 -->
      <g style="fill: #838383" transform="translate(22.48 439.199651) scale(0.12 -0.12)">
       <use xlink:href="#IBMPlexSans-Regular-31"/>
      </g>
     </g>
    </g>
    <g id="ytick_3">
     <g id="line2d_11"/>
     <g id="text_12">
      <!-- 2 -->
      <g style="fill: #838383" transform="translate(22.48 338.609214) scale(0.12 -0.12)">
       <use xlink:href="#IBMPlexSans-Regular-32"/>
      </g>
     </g>
    </g>
    <g id="ytick_4">
     <g id="line2d_12"/>
     <g id="text_13">
      <!-- 3 -->
      <g style="fill: #838383" transform="translate(22.48 238.018778) scale(0.12 -0.12)">
       <defs>
        <path id="IBMPlexSans-Regular-33" d="M 1670 2573 
Q 2125 2573 2352 2781 
Q 2579 2989 2579 3315 
L 2579 3360 
Q 2579 3712 2358 3888 
Q 2138 4064 1779 4064 
Q 1434 4064 1216 3913 
Q 998 3763 858 3507 
L 461 3814 
Q 544 3949 662 4080 
Q 781 4211 941 4313 
Q 1101 4416 1312 4480 
Q 1523 4544 1792 4544 
Q 2074 4544 2323 4470 
Q 2573 4397 2755 4253 
Q 2938 4109 3043 3897 
Q 3149 3686 3149 3418 
Q 3149 3200 3081 3027 
Q 3014 2854 2899 2726 
Q 2784 2598 2627 2508 
Q 2470 2419 2291 2374 
L 2291 2349 
Q 2470 2310 2640 2224 
Q 2810 2138 2941 2000 
Q 3072 1862 3152 1667 
Q 3232 1472 3232 1222 
Q 3232 934 3123 694 
Q 3014 454 2816 284 
Q 2618 115 2336 19 
Q 2054 -77 1715 -77 
Q 1427 -77 1203 -13 
Q 979 51 806 160 
Q 634 269 502 403 
Q 371 538 269 685 
L 672 992 
Q 755 858 854 749 
Q 954 640 1075 563 
Q 1197 486 1350 444 
Q 1504 403 1709 403 
Q 2182 403 2425 617 
Q 2669 832 2669 1229 
L 2669 1280 
Q 2669 1677 2425 1891 
Q 2182 2106 1709 2106 
L 1184 2106 
L 1184 2573 
L 1670 2573 
z
" transform="scale(0.015625)"/>
       </defs>
       <use xlink:href="#IBMPlexSans-Regular-33"/>
      </g>
     </g>
    </g>
    <g id="ytick_5">
     <g id="line2d_13"/>
     <g id="text_14">
      <!-- 4 -->
      <g style="fill: #838383" transform="translate(22.48 137.428341) scale(0.12 -0.12)">
       <defs>
        <path id="IBMPlexSans-Regular-34" d="M 2400 0 
L 2400 877 
L 243 877 
L 243 1350 
L 2112 4467 
L 2912 4467 
L 2912 1325 
L 3558 1325 
L 3558 877 
L 2912 877 
L 2912 0 
L 2400 0 
z
M 749 1325 
L 2400 1325 
L 2400 4051 
L 2368 4051 
L 749 1325 
z
" transform="scale(0.015625)"/>
       </defs>
       <use xlink:href="#IBMPlexSans-Regular-34"/>
      </g>
     </g>
    </g>
    <g id="ytick_6">
     <g id="line2d_14"/>
     <g id="text_15">
      <!-- 5 -->
      <g style="fill: #838383" transform="translate(22.48 36.837904) scale(0.12 -0.12)">
       <defs>
        <path id="IBMPlexSans-Regular-35" d="M 3187 3994 
L 1229 3994 
L 1101 2291 
L 1146 2291 
Q 1306 2515 1507 2649 
Q 1709 2784 2061 2784 
Q 2349 2784 2592 2688 
Q 2835 2592 3014 2416 
Q 3194 2240 3293 1984 
Q 3392 1728 3392 1402 
Q 3392 1075 3289 803 
Q 3187 531 2992 336 
Q 2797 141 2518 32 
Q 2240 -77 1888 -77 
Q 1606 -77 1392 -13 
Q 1178 51 1011 160 
Q 845 269 720 403 
Q 595 538 493 685 
L 896 992 
Q 979 858 1072 749 
Q 1165 640 1277 563 
Q 1389 486 1536 444 
Q 1683 403 1888 403 
Q 2349 403 2585 646 
Q 2822 890 2822 1331 
L 2822 1395 
Q 2822 1837 2585 2080 
Q 2349 2323 1888 2323 
Q 1581 2323 1405 2211 
Q 1229 2099 1088 1946 
L 634 2010 
L 794 4467 
L 3187 4467 
L 3187 3994 
z
" transform="scale(0.015625)"/>
       </defs>
       <use xlink:href="#IBMPlexSans-Regular-35"/>
      </g>
     </g>
    </g>
    <g id="text_16">
     <!-- carat -->
     <g style="fill: #838383" transform="translate(16.08 287.046375) rotate(-90) scale(0.12 -0.12)">
      <use xlink:href="#IBMPlexSans-Regular-63"/>
      <use xlink:href="#IBMPlexSans-Regular-61" x="50.299988"/>
      <use xlink:href="#IBMPlexSans-Regular-72" x="103.699982"/>
      <use xlink:href="#IBMPlexSans-Regular-61" x="140.399979"/>
      <use xlink:href="#IBMPlexSans-Regular-74" x="193.799973"/>
     </g>
    </g>
   </g>
   <g id="line2d_15">
    <path d="M 42.108 422.688798 
L 113.532 422.688798 
" clip-path="url(#pd8d86aa7c6)" style="fill: none; stroke: #4c4c4c; stroke-width: 0.9375"/>
   </g>
   <g id="line2d_16">
    <path d="M 131.388 433.753746 
L 202.812 433.753746 
" clip-path="url(#pd8d86aa7c6)" style="fill: none; stroke: #4c4c4c; stroke-width: 0.9375"/>
   </g>
   <g id="line2d_17">
    <path d="M 220.668 458.901356 
L 292.092 458.901356 
" clip-path="url(#pd8d86aa7c6)" style="fill: none; stroke: #4c4c4c; stroke-width: 0.9375"/>
   </g>
   <g id="line2d_18">
    <path d="M 309.948 471.978112 
L 381.372 471.978112 
" clip-path="url(#pd8d86aa7c6)" style="fill: none; stroke: #4c4c4c; stroke-width: 0.9375"/>
   </g>
   <g id="line2d_19">
    <path d="M 399.228 478.013538 
L 470.652 478.013538 
" clip-path="url(#pd8d86aa7c6)" style="fill: none; stroke: #4c4c4c; stroke-width: 0.9375"/>
   </g>
   <g id="line2d_20">
    <path d="M 488.508 491.090295 
L 559.932 491.090295 
" clip-path="url(#pd8d86aa7c6)" style="fill: none; stroke: #4c4c4c; stroke-width: 0.9375"/>
   </g>
   <g id="line2d_21">
    <path d="M 577.788 496.119817 
L 649.212 496.119817 
" clip-path="url(#pd8d86aa7c6)" style="fill: none; stroke: #4c4c4c; stroke-width: 0.9375"/>
   </g>
   <g id="line2d_22">
    <path d="M 667.068 500.143435 
L 738.492 500.143435 
" clip-path="url(#pd8d86aa7c6)" style="fill: none; stroke: #4c4c4c; stroke-width: 0.9375"/>
   </g>
   <g id="patch_3">
    <path d="M 33.18 539.424 
L 33.18 7.2 
" style="fill: none"/>
   </g>
   <g id="patch_4">
    <path d="M 747.42 539.424 
L 747.42 7.2 
" style="fill: none"/>
   </g>
   <g id="patch_5">
    <path d="M 33.18 539.424 
L 747.42 539.424 
" style="fill: none"/>
   </g>
   <g id="patch_6">
    <path d="M 33.18 7.2 
L 747.42 7.2 
" style="fill: none"/>
   </g>
  </g>
 </g>
 <defs>
  <clipPath id="pd8d86aa7c6">
   <rect x="33.18" y="7.2" width="714.24" height="532.224"/>
  </clipPath>
 </defs>
</svg>
