<?xml version="1.0" encoding="utf-8" standalone="no"?>
<!DOCTYPE svg PUBLIC "-//W3C//DTD SVG 1.1//EN"
  "http://www.w3.org/Graphics/SVG/1.1/DTD/svg11.dtd">
<svg xmlns:xlink="http://www.w3.org/1999/xlink" width="909.819375pt" height="679.116pt" viewBox="0 0 909.819375 679.116" xmlns="http://www.w3.org/2000/svg" version="1.1">
 <metadata>
  <rdf:RDF xmlns:dc="http://purl.org/dc/elements/1.1/" xmlns:cc="http://creativecommons.org/ns#" xmlns:rdf="http://www.w3.org/1999/02/22-rdf-syntax-ns#">
   <cc:Work>
    <dc:type rdf:resource="http://purl.org/dc/dcmitype/StillImage"/>
    <dc:date>2023-12-29T00:20:59.025977</dc:date>
    <dc:format>image/svg+xml</dc:format>
    <dc:creator>
     <cc:Agent>
      <dc:title>Matplotlib v3.8.1, https://matplotlib.org/</dc:title>
     </cc:Agent>
    </dc:creator>
   </cc:Work>
  </rdf:RDF>
 </metadata>
 <defs>
  <style type="text/css">*{stroke-linejoin: round; stroke-linecap: butt}</style>
 </defs>
 <g id="figure_1">
  <g id="patch_1">
   <path d="M 0 679.116 
L 909.819375 679.116 
L 909.819375 0 
L 0 0 
L 0 679.116 
z
" style="fill: none"/>
  </g>
  <g id="axes_1">
   <g id="patch_2">
    <path d="M 35.564375 318.016 
L 446.3775 318.016 
L 446.3775 23.856 
L 35.564375 23.856 
L 35.564375 318.016 
z
" style="fill: none"/>
   </g>
   <g id="patch_3">
    <path d="M 54.237699 318.016 
L 64.400052 318.016 
L 64.400052 316.220151 
L 54.237699 316.220151 
z
" clip-path="url(#p251b549164)" style="fill: #333333"/>
   </g>
   <g id="patch_4">
    <path d="M 92.346523 318.016 
L 102.508876 318.016 
L 102.508876 296.465817 
L 92.346523 296.465817 
z
" clip-path="url(#p251b549164)" style="fill: #333333"/>
   </g>
   <g id="patch_5">
    <path d="M 130.455347 318.016 
L 140.6177 318.016 
L 140.6177 264.140542 
L 130.455347 264.140542 
z
" clip-path="url(#p251b549164)" style="fill: #333333"/>
   </g>
   <g id="patch_6">
    <path d="M 168.564171 318.016 
L 178.726525 318.016 
L 178.726525 124.962276 
L 168.564171 124.962276 
z
" clip-path="url(#p251b549164)" style="fill: #333333"/>
   </g>
   <g id="patch_7">
    <path d="M 206.672996 318.016 
L 216.835349 318.016 
L 216.835349 37.863619 
L 206.672996 37.863619 
z
" clip-path="url(#p251b549164)" style="fill: #333333"/>
   </g>
   <g id="patch_8">
    <path d="M 244.78182 318.016 
L 254.944173 318.016 
L 254.944173 118.676806 
L 244.78182 118.676806 
z
" clip-path="url(#p251b549164)" style="fill: #333333"/>
   </g>
   <g id="patch_9">
    <path d="M 282.890644 318.016 
L 293.052997 318.016 
L 293.052997 204.877538 
L 282.890644 204.877538 
z
" clip-path="url(#p251b549164)" style="fill: #333333"/>
   </g>
   <g id="patch_10">
    <path d="M 320.999468 318.016 
L 331.161821 318.016 
L 331.161821 289.282422 
L 320.999468 289.282422 
z
" clip-path="url(#p251b549164)" style="fill: #333333"/>
   </g>
   <g id="patch_11">
    <path d="M 359.108293 318.016 
L 369.270646 318.016 
L 369.270646 311.73053 
L 359.108293 311.73053 
z
" clip-path="url(#p251b549164)" style="fill: #333333"/>
   </g>
   <g id="patch_12">
    <path d="M 397.217117 318.016 
L 407.37947 318.016 
L 407.37947 318.016 
L 397.217117 318.016 
z
" clip-path="url(#p251b549164)" style="fill: #333333"/>
   </g>
   <g id="patch_13">
    <path d="M 64.400052 318.016 
L 74.562405 318.016 
L 74.562405 315.322227 
L 64.400052 315.322227 
z
" clip-path="url(#p251b549164)" style="fill: #666666"/>
   </g>
   <g id="patch_14">
    <path d="M 102.508876 318.016 
L 112.671229 318.016 
L 112.671229 299.15959 
L 102.508876 299.15959 
z
" clip-path="url(#p251b549164)" style="fill: #666666"/>
   </g>
   <g id="patch_15">
    <path d="M 140.6177 318.016 
L 150.780054 318.016 
L 150.780054 242.590359 
L 140.6177 242.590359 
z
" clip-path="url(#p251b549164)" style="fill: #666666"/>
   </g>
   <g id="patch_16">
    <path d="M 178.726525 318.016 
L 188.888878 318.016 
L 188.888878 158.185475 
L 178.726525 158.185475 
z
" clip-path="url(#p251b549164)" style="fill: #666666"/>
   </g>
   <g id="patch_17">
    <path d="M 216.835349 318.016 
L 226.997702 318.016 
L 226.997702 55.822105 
L 216.835349 55.822105 
z
" clip-path="url(#p251b549164)" style="fill: #666666"/>
   </g>
   <g id="patch_18">
    <path d="M 254.944173 318.016 
L 265.106526 318.016 
L 265.106526 85.453607 
L 254.944173 85.453607 
z
" clip-path="url(#p251b549164)" style="fill: #666666"/>
   </g>
   <g id="patch_19">
    <path d="M 293.052997 318.016 
L 303.21535 318.016 
L 303.21535 203.979614 
L 293.052997 203.979614 
z
" clip-path="url(#p251b549164)" style="fill: #666666"/>
   </g>
   <g id="patch_20">
    <path d="M 331.161821 318.016 
L 341.324175 318.016 
L 341.324175 290.180347 
L 331.161821 290.180347 
z
" clip-path="url(#p251b549164)" style="fill: #666666"/>
   </g>
   <g id="patch_21">
    <path d="M 369.270646 318.016 
L 379.432999 318.016 
L 379.432999 315.322227 
L 369.270646 315.322227 
z
" clip-path="url(#p251b549164)" style="fill: #666666"/>
   </g>
   <g id="patch_22">
    <path d="M 407.37947 318.016 
L 417.541823 318.016 
L 417.541823 316.220151 
L 407.37947 316.220151 
z
" clip-path="url(#p251b549164)" style="fill: #666666"/>
   </g>
   <g id="patch_23">
    <path d="M 74.562405 318.016 
L 84.724758 318.016 
L 84.724758 318.016 
L 74.562405 318.016 
z
" clip-path="url(#p251b549164)" style="fill: #999999"/>
   </g>
   <g id="patch_24">
    <path d="M 112.671229 318.016 
L 122.833582 318.016 
L 122.833582 296.465817 
L 112.671229 296.465817 
z
" clip-path="url(#p251b549164)" style="fill: #999999"/>
   </g>
   <g id="patch_25">
    <path d="M 150.780054 318.016 
L 160.942407 318.016 
L 160.942407 240.79451 
L 150.780054 240.79451 
z
" clip-path="url(#p251b549164)" style="fill: #999999"/>
   </g>
   <g id="patch_26">
    <path d="M 188.888878 318.016 
L 199.051231 318.016 
L 199.051231 135.737368 
L 188.888878 135.737368 
z
" clip-path="url(#p251b549164)" style="fill: #999999"/>
   </g>
   <g id="patch_27">
    <path d="M 226.997702 318.016 
L 237.160055 318.016 
L 237.160055 58.515878 
L 226.997702 58.515878 
z
" clip-path="url(#p251b549164)" style="fill: #999999"/>
   </g>
   <g id="patch_28">
    <path d="M 265.106526 318.016 
L 275.268879 318.016 
L 275.268879 107.901714 
L 265.106526 107.901714 
z
" clip-path="url(#p251b549164)" style="fill: #999999"/>
   </g>
   <g id="patch_29">
    <path d="M 303.21535 318.016 
L 313.377704 318.016 
L 313.377704 212.060933 
L 303.21535 212.060933 
z
" clip-path="url(#p251b549164)" style="fill: #999999"/>
   </g>
   <g id="patch_30">
    <path d="M 341.324175 318.016 
L 351.486528 318.016 
L 351.486528 285.690725 
L 341.324175 285.690725 
z
" clip-path="url(#p251b549164)" style="fill: #999999"/>
   </g>
   <g id="patch_31">
    <path d="M 379.432999 318.016 
L 389.595352 318.016 
L 389.595352 309.934681 
L 379.432999 309.934681 
z
" clip-path="url(#p251b549164)" style="fill: #999999"/>
   </g>
   <g id="patch_32">
    <path d="M 417.541823 318.016 
L 427.704176 318.016 
L 427.704176 317.118076 
L 417.541823 317.118076 
z
" clip-path="url(#p251b549164)" style="fill: #999999"/>
   </g>
   <g id="matplotlib.axis_1">
    <g id="xtick_1">
     <g id="line2d_1">
      <path d="M 76.295842 318.016 
L 76.295842 23.856 
" clip-path="url(#p251b549164)" style="fill: none; stroke-dasharray: 1.48,0.64; stroke-dashoffset: 0; stroke: #838383; stroke-opacity: 0.25; stroke-width: 0.4"/>
     </g>
     <g id="line2d_2"/>
     <g id="text_1">
      <!-- −3 -->
      <g style="fill: #838383" transform="translate(69.095842 330.396) scale(0.12 -0.12)">
       <defs>
        <path id="IBMPlexSans-Regular-2212" d="M 429 1734 
L 429 2170 
L 3411 2170 
L 3411 1734 
L 429 1734 
z
" transform="scale(0.015625)"/>
        <path id="IBMPlexSans-Regular-33" d="M 1670 2573 
Q 2125 2573 2352 2781 
Q 2579 2989 2579 3315 
L 2579 3360 
Q 2579 3712 2358 3888 
Q 2138 4064 1779 4064 
Q 1434 4064 1216 3913 
Q 998 3763 858 3507 
L 461 3814 
Q 544 3949 662 4080 
Q 781 4211 941 4313 
Q 1101 4416 1312 4480 
Q 1523 4544 1792 4544 
Q 2074 4544 2323 4470 
Q 2573 4397 2755 4253 
Q 2938 4109 3043 3897 
Q 3149 3686 3149 3418 
Q 3149 3200 3081 3027 
Q 3014 2854 2899 2726 
Q 2784 2598 2627 2508 
Q 2470 2419 2291 2374 
L 2291 2349 
Q 2470 2310 2640 2224 
Q 2810 2138 2941 2000 
Q 3072 1862 3152 1667 
Q 3232 1472 3232 1222 
Q 3232 934 3123 694 
Q 3014 454 2816 284 
Q 2618 115 2336 19 
Q 2054 -77 1715 -77 
Q 1427 -77 1203 -13 
Q 979 51 806 160 
Q 634 269 502 403 
Q 371 538 269 685 
L 672 992 
Q 755 858 854 749 
Q 954 640 1075 563 
Q 1197 486 1350 444 
Q 1504 403 1709 403 
Q 2182 403 2425 617 
Q 2669 832 2669 1229 
L 2669 1280 
Q 2669 1677 2425 1891 
Q 2182 2106 1709 2106 
L 1184 2106 
L 1184 2573 
L 1670 2573 
z
" transform="scale(0.015625)"/>
       </defs>
       <use xlink:href="#IBMPlexSans-Regular-2212"/>
       <use xlink:href="#IBMPlexSans-Regular-33" x="59.999985"/>
      </g>
     </g>
    </g>
    <g id="xtick_2">
     <g id="line2d_3">
      <path d="M 126.97133 318.016 
L 126.97133 23.856 
" clip-path="url(#p251b549164)" style="fill: none; stroke-dasharray: 1.48,0.64; stroke-dashoffset: 0; stroke: #838383; stroke-opacity: 0.25; stroke-width: 0.4"/>
     </g>
     <g id="line2d_4"/>
     <g id="text_2">
      <!-- −2 -->
      <g style="fill: #838383" transform="translate(119.77133 330.396) scale(0.12 -0.12)">
       <defs>
        <path id="IBMPlexSans-Regular-32" d="M 3411 0 
L 480 0 
L 480 550 
L 1939 1894 
Q 2253 2182 2464 2505 
Q 2675 2829 2675 3155 
L 2675 3232 
Q 2675 3603 2470 3833 
Q 2266 4064 1850 4064 
Q 1645 4064 1491 4006 
Q 1338 3949 1226 3846 
Q 1114 3744 1040 3606 
Q 966 3469 922 3309 
L 442 3494 
Q 506 3693 618 3881 
Q 730 4070 899 4217 
Q 1069 4365 1309 4454 
Q 1549 4544 1875 4544 
Q 2202 4544 2458 4448 
Q 2714 4352 2886 4179 
Q 3059 4006 3152 3769 
Q 3245 3533 3245 3245 
Q 3245 2982 3171 2758 
Q 3098 2534 2970 2332 
Q 2842 2131 2659 1939 
Q 2477 1747 2266 1555 
L 1062 474 
L 3411 474 
L 3411 0 
z
" transform="scale(0.015625)"/>
       </defs>
       <use xlink:href="#IBMPlexSans-Regular-2212"/>
       <use xlink:href="#IBMPlexSans-Regular-32" x="59.999985"/>
      </g>
     </g>
    </g>
    <g id="xtick_3">
     <g id="line2d_5">
      <path d="M 177.646818 318.016 
L 177.646818 23.856 
" clip-path="url(#p251b549164)" style="fill: none; stroke-dasharray: 1.48,0.64; stroke-dashoffset: 0; stroke: #838383; stroke-opacity: 0.25; stroke-width: 0.4"/>
     </g>
     <g id="line2d_6"/>
     <g id="text_3">
      <!-- −1 -->
      <g style="fill: #838383" transform="translate(170.446818 330.396) scale(0.12 -0.12)">
       <defs>
        <path id="IBMPlexSans-Regular-31" d="M 563 0 
L 563 474 
L 1811 474 
L 1811 4070 
L 1766 4070 
L 640 3021 
L 326 3360 
L 1510 4467 
L 2349 4467 
L 2349 474 
L 3501 474 
L 3501 0 
L 563 0 
z
" transform="scale(0.015625)"/>
       </defs>
       <use xlink:href="#IBMPlexSans-Regular-2212"/>
       <use xlink:href="#IBMPlexSans-Regular-31" x="59.999985"/>
      </g>
     </g>
    </g>
    <g id="xtick_4">
     <g id="line2d_7">
      <path d="M 228.322306 318.016 
L 228.322306 23.856 
" clip-path="url(#p251b549164)" style="fill: none; stroke-dasharray: 1.48,0.64; stroke-dashoffset: 0; stroke: #838383; stroke-opacity: 0.25; stroke-width: 0.4"/>
     </g>
     <g id="line2d_8"/>
     <g id="text_4">
      <!-- 0 -->
      <g style="fill: #838383" transform="translate(224.722306 330.396) scale(0.12 -0.12)">
       <defs>
        <path id="IBMPlexSans-Regular-30" d="M 1920 -77 
Q 1120 -77 752 531 
Q 384 1139 384 2234 
Q 384 3328 752 3936 
Q 1120 4544 1920 4544 
Q 2720 4544 3088 3936 
Q 3456 3328 3456 2234 
Q 3456 1139 3088 531 
Q 2720 -77 1920 -77 
z
M 1920 390 
Q 2182 390 2368 499 
Q 2554 608 2669 806 
Q 2784 1005 2838 1273 
Q 2893 1542 2893 1869 
L 2893 2598 
Q 2893 2925 2838 3193 
Q 2784 3462 2669 3660 
Q 2554 3859 2368 3968 
Q 2182 4077 1920 4077 
Q 1658 4077 1472 3968 
Q 1286 3859 1171 3660 
Q 1056 3462 1001 3193 
Q 947 2925 947 2598 
L 947 1869 
Q 947 1542 1001 1273 
Q 1056 1005 1171 806 
Q 1286 608 1472 499 
Q 1658 390 1920 390 
z
" transform="scale(0.015625)"/>
       </defs>
       <use xlink:href="#IBMPlexSans-Regular-30"/>
      </g>
     </g>
    </g>
    <g id="xtick_5">
     <g id="line2d_9">
      <path d="M 278.997794 318.016 
L 278.997794 23.856 
" clip-path="url(#p251b549164)" style="fill: none; stroke-dasharray: 1.48,0.64; stroke-dashoffset: 0; stroke: #838383; stroke-opacity: 0.25; stroke-width: 0.4"/>
     </g>
     <g id="line2d_10"/>
     <g id="text_5">
      <!-- 1 -->
      <g style="fill: #838383" transform="translate(275.397794 330.396) scale(0.12 -0.12)">
       <use xlink:href="#IBMPlexSans-Regular-31"/>
      </g>
     </g>
    </g>
    <g id="xtick_6">
     <g id="line2d_11">
      <path d="M 329.673282 318.016 
L 329.673282 23.856 
" clip-path="url(#p251b549164)" style="fill: none; stroke-dasharray: 1.48,0.64; stroke-dashoffset: 0; stroke: #838383; stroke-opacity: 0.25; stroke-width: 0.4"/>
     </g>
     <g id="line2d_12"/>
     <g id="text_6">
      <!-- 2 -->
      <g style="fill: #838383" transform="translate(326.073282 330.396) scale(0.12 -0.12)">
       <use xlink:href="#IBMPlexSans-Regular-32"/>
      </g>
     </g>
    </g>
    <g id="xtick_7">
     <g id="line2d_13">
      <path d="M 380.34877 318.016 
L 380.34877 23.856 
" clip-path="url(#p251b549164)" style="fill: none; stroke-dasharray: 1.48,0.64; stroke-dashoffset: 0; stroke: #838383; stroke-opacity: 0.25; stroke-width: 0.4"/>
     </g>
     <g id="line2d_14"/>
     <g id="text_7">
      <!-- 3 -->
      <g style="fill: #838383" transform="translate(376.74877 330.396) scale(0.12 -0.12)">
       <use xlink:href="#IBMPlexSans-Regular-33"/>
      </g>
     </g>
    </g>
    <g id="xtick_8">
     <g id="line2d_15">
      <path d="M 431.024258 318.016 
L 431.024258 23.856 
" clip-path="url(#p251b549164)" style="fill: none; stroke-dasharray: 1.48,0.64; stroke-dashoffset: 0; stroke: #838383; stroke-opacity: 0.25; stroke-width: 0.4"/>
     </g>
     <g id="line2d_16"/>
     <g id="text_8">
      <!-- 4 -->
      <g style="fill: #838383" transform="translate(427.424258 330.396) scale(0.12 -0.12)">
       <defs>
        <path id="IBMPlexSans-Regular-34" d="M 2400 0 
L 2400 877 
L 243 877 
L 243 1350 
L 2112 4467 
L 2912 4467 
L 2912 1325 
L 3558 1325 
L 3558 877 
L 2912 877 
L 2912 0 
L 2400 0 
z
M 749 1325 
L 2400 1325 
L 2400 4051 
L 2368 4051 
L 749 1325 
z
" transform="scale(0.015625)"/>
       </defs>
       <use xlink:href="#IBMPlexSans-Regular-34"/>
      </g>
     </g>
    </g>
   </g>
   <g id="matplotlib.axis_2">
    <g id="ytick_1">
     <g id="line2d_17">
      <path d="M 35.564375 318.016 
L 446.3775 318.016 
" clip-path="url(#p251b549164)" style="fill: none; stroke-dasharray: 1.48,0.64; stroke-dashoffset: 0; stroke: #838383; stroke-opacity: 0.25; stroke-width: 0.4"/>
     </g>
     <g id="line2d_18"/>
     <g id="text_9">
      <!-- 0.00 -->
      <g style="fill: #838383" transform="translate(7.2 322.456) scale(0.12 -0.12)">
       <defs>
        <path id="IBMPlexSans-Regular-2e" d="M 870 -77 
Q 666 -77 573 25 
Q 480 128 480 294 
L 480 378 
Q 480 544 573 646 
Q 666 749 870 749 
Q 1075 749 1168 646 
Q 1261 544 1261 378 
L 1261 294 
Q 1261 128 1168 25 
Q 1075 -77 870 -77 
z
" transform="scale(0.015625)"/>
       </defs>
       <use xlink:href="#IBMPlexSans-Regular-30"/>
       <use xlink:href="#IBMPlexSans-Regular-2e" x="59.999985"/>
       <use xlink:href="#IBMPlexSans-Regular-30" x="87.199982"/>
       <use xlink:href="#IBMPlexSans-Regular-30" x="147.199966"/>
      </g>
     </g>
    </g>
    <g id="ytick_2">
     <g id="line2d_19">
      <path d="M 35.564375 284.253287 
L 446.3775 284.253287 
" clip-path="url(#p251b549164)" style="fill: none; stroke-dasharray: 1.48,0.64; stroke-dashoffset: 0; stroke: #838383; stroke-opacity: 0.25; stroke-width: 0.4"/>
     </g>
     <g id="line2d_20"/>
     <g id="text_10">
      <!-- 0.05 -->
      <g style="fill: #838383" transform="translate(7.2 288.693287) scale(0.12 -0.12)">
       <defs>
        <path id="IBMPlexSans-Regular-35" d="M 3187 3994 
L 1229 3994 
L 1101 2291 
L 1146 2291 
Q 1306 2515 1507 2649 
Q 1709 2784 2061 2784 
Q 2349 2784 2592 2688 
Q 2835 2592 3014 2416 
Q 3194 2240 3293 1984 
Q 3392 1728 3392 1402 
Q 3392 1075 3289 803 
Q 3187 531 2992 336 
Q 2797 141 2518 32 
Q 2240 -77 1888 -77 
Q 1606 -77 1392 -13 
Q 1178 51 1011 160 
Q 845 269 720 403 
Q 595 538 493 685 
L 896 992 
Q 979 858 1072 749 
Q 1165 640 1277 563 
Q 1389 486 1536 444 
Q 1683 403 1888 403 
Q 2349 403 2585 646 
Q 2822 890 2822 1331 
L 2822 1395 
Q 2822 1837 2585 2080 
Q 2349 2323 1888 2323 
Q 1581 2323 1405 2211 
Q 1229 2099 1088 1946 
L 634 2010 
L 794 4467 
L 3187 4467 
L 3187 3994 
z
" transform="scale(0.015625)"/>
       </defs>
       <use xlink:href="#IBMPlexSans-Regular-30"/>
       <use xlink:href="#IBMPlexSans-Regular-2e" x="59.999985"/>
       <use xlink:href="#IBMPlexSans-Regular-30" x="87.199982"/>
       <use xlink:href="#IBMPlexSans-Regular-35" x="147.199966"/>
      </g>
     </g>
    </g>
    <g id="ytick_3">
     <g id="line2d_21">
      <path d="M 35.564375 250.490574 
L 446.3775 250.490574 
" clip-path="url(#p251b549164)" style="fill: none; stroke-dasharray: 1.48,0.64; stroke-dashoffset: 0; stroke: #838383; stroke-opacity: 0.25; stroke-width: 0.4"/>
     </g>
     <g id="line2d_22"/>
     <g id="text_11">
      <!-- 0.10 -->
      <g style="fill: #838383" transform="translate(7.2 254.930574) scale(0.12 -0.12)">
       <use xlink:href="#IBMPlexSans-Regular-30"/>
       <use xlink:href="#IBMPlexSans-Regular-2e" x="59.999985"/>
       <use xlink:href="#IBMPlexSans-Regular-31" x="87.199982"/>
       <use xlink:href="#IBMPlexSans-Regular-30" x="147.199966"/>
      </g>
     </g>
    </g>
    <g id="ytick_4">
     <g id="line2d_23">
      <path d="M 35.564375 216.727861 
L 446.3775 216.727861 
" clip-path="url(#p251b549164)" style="fill: none; stroke-dasharray: 1.48,0.64; stroke-dashoffset: 0; stroke: #838383; stroke-opacity: 0.25; stroke-width: 0.4"/>
     </g>
     <g id="line2d_24"/>
     <g id="text_12">
      <!-- 0.15 -->
      <g style="fill: #838383" transform="translate(7.2 221.167861) scale(0.12 -0.12)">
       <use xlink:href="#IBMPlexSans-Regular-30"/>
       <use xlink:href="#IBMPlexSans-Regular-2e" x="59.999985"/>
       <use xlink:href="#IBMPlexSans-Regular-31" x="87.199982"/>
       <use xlink:href="#IBMPlexSans-Regular-35" x="147.199966"/>
      </g>
     </g>
    </g>
    <g id="ytick_5">
     <g id="line2d_25">
      <path d="M 35.564375 182.965148 
L 446.3775 182.965148 
" clip-path="url(#p251b549164)" style="fill: none; stroke-dasharray: 1.48,0.64; stroke-dashoffset: 0; stroke: #838383; stroke-opacity: 0.25; stroke-width: 0.4"/>
     </g>
     <g id="line2d_26"/>
     <g id="text_13">
      <!-- 0.20 -->
      <g style="fill: #838383" transform="translate(7.2 187.405148) scale(0.12 -0.12)">
       <use xlink:href="#IBMPlexSans-Regular-30"/>
       <use xlink:href="#IBMPlexSans-Regular-2e" x="59.999985"/>
       <use xlink:href="#IBMPlexSans-Regular-32" x="87.199982"/>
       <use xlink:href="#IBMPlexSans-Regular-30" x="147.199966"/>
      </g>
     </g>
    </g>
    <g id="ytick_6">
     <g id="line2d_27">
      <path d="M 35.564375 149.202435 
L 446.3775 149.202435 
" clip-path="url(#p251b549164)" style="fill: none; stroke-dasharray: 1.48,0.64; stroke-dashoffset: 0; stroke: #838383; stroke-opacity: 0.25; stroke-width: 0.4"/>
     </g>
     <g id="line2d_28"/>
     <g id="text_14">
      <!-- 0.25 -->
      <g style="fill: #838383" transform="translate(7.2 153.642435) scale(0.12 -0.12)">
       <use xlink:href="#IBMPlexSans-Regular-30"/>
       <use xlink:href="#IBMPlexSans-Regular-2e" x="59.999985"/>
       <use xlink:href="#IBMPlexSans-Regular-32" x="87.199982"/>
       <use xlink:href="#IBMPlexSans-Regular-35" x="147.199966"/>
      </g>
     </g>
    </g>
    <g id="ytick_7">
     <g id="line2d_29">
      <path d="M 35.564375 115.439722 
L 446.3775 115.439722 
" clip-path="url(#p251b549164)" style="fill: none; stroke-dasharray: 1.48,0.64; stroke-dashoffset: 0; stroke: #838383; stroke-opacity: 0.25; stroke-width: 0.4"/>
     </g>
     <g id="line2d_30"/>
     <g id="text_15">
      <!-- 0.30 -->
      <g style="fill: #838383" transform="translate(7.2 119.879722) scale(0.12 -0.12)">
       <use xlink:href="#IBMPlexSans-Regular-30"/>
       <use xlink:href="#IBMPlexSans-Regular-2e" x="59.999985"/>
       <use xlink:href="#IBMPlexSans-Regular-33" x="87.199982"/>
       <use xlink:href="#IBMPlexSans-Regular-30" x="147.199966"/>
      </g>
     </g>
    </g>
    <g id="ytick_8">
     <g id="line2d_31">
      <path d="M 35.564375 81.677008 
L 446.3775 81.677008 
" clip-path="url(#p251b549164)" style="fill: none; stroke-dasharray: 1.48,0.64; stroke-dashoffset: 0; stroke: #838383; stroke-opacity: 0.25; stroke-width: 0.4"/>
     </g>
     <g id="line2d_32"/>
     <g id="text_16">
      <!-- 0.35 -->
      <g style="fill: #838383" transform="translate(7.2 86.117008) scale(0.12 -0.12)">
       <use xlink:href="#IBMPlexSans-Regular-30"/>
       <use xlink:href="#IBMPlexSans-Regular-2e" x="59.999985"/>
       <use xlink:href="#IBMPlexSans-Regular-33" x="87.199982"/>
       <use xlink:href="#IBMPlexSans-Regular-35" x="147.199966"/>
      </g>
     </g>
    </g>
    <g id="ytick_9">
     <g id="line2d_33">
      <path d="M 35.564375 47.914295 
L 446.3775 47.914295 
" clip-path="url(#p251b549164)" style="fill: none; stroke-dasharray: 1.48,0.64; stroke-dashoffset: 0; stroke: #838383; stroke-opacity: 0.25; stroke-width: 0.4"/>
     </g>
     <g id="line2d_34"/>
     <g id="text_17">
      <!-- 0.40 -->
      <g style="fill: #838383" transform="translate(7.2 52.354295) scale(0.12 -0.12)">
       <use xlink:href="#IBMPlexSans-Regular-30"/>
       <use xlink:href="#IBMPlexSans-Regular-2e" x="59.999985"/>
       <use xlink:href="#IBMPlexSans-Regular-34" x="87.199982"/>
       <use xlink:href="#IBMPlexSans-Regular-30" x="147.199966"/>
      </g>
     </g>
    </g>
   </g>
   <g id="patch_33">
    <path d="M 35.564375 318.016 
L 35.564375 23.856 
" style="fill: none"/>
   </g>
   <g id="patch_34">
    <path d="M 446.3775 318.016 
L 446.3775 23.856 
" style="fill: none"/>
   </g>
   <g id="patch_35">
    <path d="M 35.564375 318.016 
L 446.3775 318.016 
" style="fill: none"/>
   </g>
   <g id="patch_36">
    <path d="M 35.564375 23.856 
L 446.3775 23.856 
" style="fill: none"/>
   </g>
   <g id="text_18">
    <!-- bars with legend -->
    <g style="fill: #838383" transform="translate(187.525562 17.856) scale(0.144 -0.144)">
     <defs>
      <path id="IBMPlexSans-Regular-62" d="M 544 4736 
L 1056 4736 
L 1056 2765 
L 1082 2765 
Q 1210 3078 1456 3228 
Q 1702 3379 2048 3379 
Q 2355 3379 2604 3257 
Q 2854 3136 3030 2912 
Q 3206 2688 3299 2368 
Q 3392 2048 3392 1651 
Q 3392 1254 3299 934 
Q 3206 614 3030 390 
Q 2854 166 2604 44 
Q 2355 -77 2048 -77 
Q 1376 -77 1082 538 
L 1056 538 
L 1056 0 
L 544 0 
L 544 4736 
z
M 1907 384 
Q 2342 384 2592 656 
Q 2842 928 2842 1370 
L 2842 1933 
Q 2842 2374 2592 2646 
Q 2342 2918 1907 2918 
Q 1734 2918 1577 2870 
Q 1421 2822 1305 2739 
Q 1190 2656 1123 2537 
Q 1056 2419 1056 2285 
L 1056 1056 
Q 1056 896 1123 771 
Q 1190 646 1305 560 
Q 1421 474 1577 429 
Q 1734 384 1907 384 
z
" transform="scale(0.015625)"/>
      <path id="IBMPlexSans-Regular-61" d="M 2944 0 
Q 2656 0 2531 153 
Q 2406 307 2374 538 
L 2342 538 
Q 2234 230 1984 76 
Q 1734 -77 1389 -77 
Q 864 -77 573 192 
Q 282 461 282 922 
Q 282 1389 624 1638 
Q 966 1888 1690 1888 
L 2342 1888 
L 2342 2214 
Q 2342 2566 2150 2752 
Q 1958 2938 1562 2938 
Q 1261 2938 1059 2803 
Q 858 2669 723 2445 
L 416 2733 
Q 550 3002 844 3190 
Q 1139 3379 1587 3379 
Q 2189 3379 2521 3084 
Q 2854 2790 2854 2266 
L 2854 448 
L 3232 448 
L 3232 0 
L 2944 0 
z
M 1472 358 
Q 1664 358 1824 403 
Q 1984 448 2099 531 
Q 2214 614 2278 723 
Q 2342 832 2342 960 
L 2342 1504 
L 1664 1504 
Q 1222 1504 1020 1376 
Q 819 1248 819 1005 
L 819 870 
Q 819 627 995 492 
Q 1171 358 1472 358 
z
" transform="scale(0.015625)"/>
      <path id="IBMPlexSans-Regular-72" d="M 544 0 
L 544 3302 
L 1056 3302 
L 1056 2694 
L 1088 2694 
Q 1178 2931 1408 3116 
Q 1638 3302 2042 3302 
L 2240 3302 
L 2240 2790 
L 1939 2790 
Q 1523 2790 1289 2633 
Q 1056 2477 1056 2240 
L 1056 0 
L 544 0 
z
" transform="scale(0.015625)"/>
      <path id="IBMPlexSans-Regular-73" d="M 1536 -77 
Q 1075 -77 764 99 
Q 454 275 230 570 
L 595 864 
Q 787 621 1024 489 
Q 1261 358 1574 358 
Q 1901 358 2083 499 
Q 2266 640 2266 896 
Q 2266 1088 2141 1225 
Q 2016 1363 1690 1414 
L 1427 1453 
Q 1197 1485 1005 1552 
Q 813 1619 669 1731 
Q 525 1843 445 2009 
Q 365 2176 365 2406 
Q 365 2650 454 2832 
Q 544 3014 701 3136 
Q 858 3258 1075 3318 
Q 1293 3379 1542 3379 
Q 1946 3379 2218 3238 
Q 2490 3098 2694 2848 
L 2355 2541 
Q 2246 2694 2035 2819 
Q 1824 2944 1504 2944 
Q 1184 2944 1021 2806 
Q 858 2669 858 2432 
Q 858 2189 1021 2080 
Q 1184 1971 1491 1920 
L 1747 1882 
Q 2298 1798 2528 1564 
Q 2758 1331 2758 954 
Q 2758 474 2432 198 
Q 2106 -77 1536 -77 
z
" transform="scale(0.015625)"/>
      <path id="IBMPlexSans-Regular-20" transform="scale(0.015625)"/>
      <path id="IBMPlexSans-Regular-77" d="M 198 3302 
L 698 3302 
L 1050 1875 
L 1402 429 
L 1414 429 
L 1818 1875 
L 2234 3302 
L 2688 3302 
L 3117 1875 
L 3526 429 
L 3539 429 
L 3878 1875 
L 4237 3302 
L 4717 3302 
L 3840 0 
L 3206 0 
L 2746 1587 
L 2458 2592 
L 2445 2592 
L 2163 1587 
L 1702 0 
L 1082 0 
L 198 3302 
z
" transform="scale(0.015625)"/>
      <path id="IBMPlexSans-Regular-69" d="M 800 4077 
Q 634 4077 560 4157 
Q 486 4237 486 4365 
L 486 4448 
Q 486 4576 560 4656 
Q 634 4736 800 4736 
Q 966 4736 1040 4656 
Q 1114 4576 1114 4448 
L 1114 4365 
Q 1114 4237 1040 4157 
Q 966 4077 800 4077 
z
M 544 3302 
L 1056 3302 
L 1056 0 
L 544 0 
L 544 3302 
z
" transform="scale(0.015625)"/>
      <path id="IBMPlexSans-Regular-74" d="M 1274 0 
Q 1005 0 867 150 
Q 730 301 730 544 
L 730 2854 
L 186 2854 
L 186 3302 
L 493 3302 
Q 659 3302 720 3369 
Q 781 3437 781 3603 
L 781 4218 
L 1242 4218 
L 1242 3302 
L 1965 3302 
L 1965 2854 
L 1242 2854 
L 1242 448 
L 1914 448 
L 1914 0 
L 1274 0 
z
" transform="scale(0.015625)"/>
      <path id="IBMPlexSans-Regular-68" d="M 544 4736 
L 1056 4736 
L 1056 2765 
L 1082 2765 
Q 1203 3046 1424 3212 
Q 1645 3379 2016 3379 
Q 2528 3379 2825 3049 
Q 3123 2720 3123 2118 
L 3123 0 
L 2611 0 
L 2611 2029 
Q 2611 2918 1862 2918 
Q 1709 2918 1565 2880 
Q 1421 2842 1305 2765 
Q 1190 2688 1123 2569 
Q 1056 2451 1056 2291 
L 1056 0 
L 544 0 
L 544 4736 
z
" transform="scale(0.015625)"/>
      <path id="IBMPlexSans-Regular-6c" d="M 1088 0 
Q 819 0 681 150 
Q 544 301 544 531 
L 544 4736 
L 1056 4736 
L 1056 448 
L 1542 448 
L 1542 0 
L 1088 0 
z
" transform="scale(0.015625)"/>
      <path id="IBMPlexSans-Regular-65" d="M 1786 -77 
Q 1446 -77 1174 44 
Q 902 166 707 393 
Q 512 621 406 937 
Q 301 1254 301 1651 
Q 301 2042 406 2362 
Q 512 2682 707 2909 
Q 902 3136 1174 3257 
Q 1446 3379 1786 3379 
Q 2118 3379 2380 3257 
Q 2643 3136 2828 2921 
Q 3014 2707 3113 2412 
Q 3213 2118 3213 1766 
L 3213 1523 
L 838 1523 
L 838 1370 
Q 838 1158 905 976 
Q 973 794 1097 659 
Q 1222 525 1404 448 
Q 1587 371 1818 371 
Q 2131 371 2364 518 
Q 2598 666 2726 941 
L 3091 678 
Q 2931 339 2592 131 
Q 2253 -77 1786 -77 
z
M 1786 2950 
Q 1574 2950 1401 2876 
Q 1229 2803 1104 2668 
Q 979 2534 908 2352 
Q 838 2170 838 1952 
L 838 1907 
L 2662 1907 
L 2662 1978 
Q 2662 2419 2422 2684 
Q 2182 2950 1786 2950 
z
" transform="scale(0.015625)"/>
      <path id="IBMPlexSans-Regular-67" d="M 3328 -365 
Q 3328 -877 2928 -1117 
Q 2528 -1357 1728 -1357 
Q 954 -1357 614 -1145 
Q 275 -934 275 -544 
Q 275 -275 416 -124 
Q 557 26 800 96 
L 800 166 
Q 506 307 506 627 
Q 506 877 666 1008 
Q 826 1139 1075 1203 
L 1075 1229 
Q 781 1370 617 1632 
Q 454 1894 454 2240 
Q 454 2490 544 2701 
Q 634 2912 797 3062 
Q 960 3213 1187 3296 
Q 1414 3379 1696 3379 
Q 2048 3379 2323 3251 
L 2323 3309 
Q 2323 3501 2412 3625 
Q 2502 3750 2707 3750 
L 3200 3750 
L 3200 3302 
L 2573 3302 
L 2573 3091 
Q 2752 2938 2851 2723 
Q 2950 2509 2950 2240 
Q 2950 1990 2860 1779 
Q 2771 1568 2608 1417 
Q 2445 1267 2214 1184 
Q 1984 1101 1702 1101 
Q 1542 1101 1382 1133 
Q 1216 1088 1081 1001 
Q 947 915 947 762 
Q 947 614 1088 563 
Q 1229 512 1453 512 
L 2157 512 
Q 2771 512 3049 278 
Q 3328 45 3328 -365 
z
M 2848 -403 
Q 2848 -205 2697 -86 
Q 2547 32 2163 32 
L 1062 32 
Q 755 -109 755 -416 
Q 755 -634 918 -787 
Q 1082 -941 1472 -941 
L 1946 -941 
Q 2374 -941 2611 -806 
Q 2848 -672 2848 -403 
z
M 1702 1510 
Q 2029 1510 2221 1667 
Q 2413 1824 2413 2150 
L 2413 2330 
Q 2413 2656 2221 2813 
Q 2029 2970 1702 2970 
Q 1376 2970 1184 2813 
Q 992 2656 992 2330 
L 992 2150 
Q 992 1824 1184 1667 
Q 1376 1510 1702 1510 
z
" transform="scale(0.015625)"/>
      <path id="IBMPlexSans-Regular-6e" d="M 544 0 
L 544 3302 
L 1056 3302 
L 1056 2765 
L 1082 2765 
Q 1203 3046 1424 3212 
Q 1645 3379 2016 3379 
Q 2528 3379 2825 3049 
Q 3123 2720 3123 2118 
L 3123 0 
L 2611 0 
L 2611 2029 
Q 2611 2918 1862 2918 
Q 1709 2918 1565 2880 
Q 1421 2842 1305 2765 
Q 1190 2688 1123 2569 
Q 1056 2451 1056 2291 
L 1056 0 
L 544 0 
z
" transform="scale(0.015625)"/>
      <path id="IBMPlexSans-Regular-64" d="M 2656 538 
L 2630 538 
Q 2330 -77 1664 -77 
Q 1357 -77 1107 44 
Q 858 166 682 390 
Q 506 614 413 934 
Q 320 1254 320 1651 
Q 320 2048 413 2368 
Q 506 2688 682 2912 
Q 858 3136 1107 3257 
Q 1357 3379 1664 3379 
Q 2010 3379 2256 3228 
Q 2502 3078 2630 2765 
L 2656 2765 
L 2656 4736 
L 3168 4736 
L 3168 0 
L 2656 0 
L 2656 538 
z
M 1805 384 
Q 1978 384 2134 429 
Q 2291 474 2406 560 
Q 2522 646 2589 771 
Q 2656 896 2656 1056 
L 2656 2285 
Q 2656 2419 2589 2537 
Q 2522 2656 2406 2739 
Q 2291 2822 2134 2870 
Q 1978 2918 1805 2918 
Q 1370 2918 1120 2646 
Q 870 2374 870 1933 
L 870 1370 
Q 870 928 1120 656 
Q 1370 384 1805 384 
z
" transform="scale(0.015625)"/>
     </defs>
     <use xlink:href="#IBMPlexSans-Regular-62"/>
     <use xlink:href="#IBMPlexSans-Regular-61" x="57.999985"/>
     <use xlink:href="#IBMPlexSans-Regular-72" x="111.399979"/>
     <use xlink:href="#IBMPlexSans-Regular-73" x="148.099976"/>
     <use xlink:href="#IBMPlexSans-Regular-20" x="196.799973"/>
     <use xlink:href="#IBMPlexSans-Regular-77" x="220.399963"/>
     <use xlink:href="#IBMPlexSans-Regular-69" x="297.199951"/>
     <use xlink:href="#IBMPlexSans-Regular-74" x="322.199936"/>
     <use xlink:href="#IBMPlexSans-Regular-68" x="357.299927"/>
     <use xlink:href="#IBMPlexSans-Regular-20" x="414.099915"/>
     <use xlink:href="#IBMPlexSans-Regular-6c" x="437.699905"/>
     <use xlink:href="#IBMPlexSans-Regular-65" x="464.899902"/>
     <use xlink:href="#IBMPlexSans-Regular-67" x="519.799896"/>
     <use xlink:href="#IBMPlexSans-Regular-65" x="572.599884"/>
     <use xlink:href="#IBMPlexSans-Regular-6e" x="627.499878"/>
     <use xlink:href="#IBMPlexSans-Regular-64" x="684.299866"/>
    </g>
   </g>
   <g id="legend_1">
    <g id="patch_37">
     <path d="M 350.221875 43.536 
L 374.221875 43.536 
L 374.221875 35.136 
L 350.221875 35.136 
z
" style="fill: #333333"/>
    </g>
    <g id="text_19">
     <!-- #333333 -->
     <g style="fill: #838383" transform="translate(383.821875 43.536) scale(0.12 -0.12)">
      <defs>
       <path id="IBMPlexSans-Regular-23" d="M 2598 1312 
L 1613 1312 
L 1382 0 
L 973 0 
L 1203 1312 
L 384 1312 
L 384 1696 
L 1267 1696 
L 1446 2771 
L 634 2771 
L 634 3155 
L 1517 3155 
L 1741 4467 
L 2150 4467 
L 1926 3155 
L 2912 3155 
L 3136 4467 
L 3546 4467 
L 3322 3155 
L 4141 3155 
L 4141 2771 
L 3251 2771 
L 3072 1696 
L 3891 1696 
L 3891 1312 
L 3008 1312 
L 2778 0 
L 2368 0 
L 2598 1312 
z
M 2662 1696 
L 2842 2771 
L 1856 2771 
L 1677 1696 
L 2662 1696 
z
" transform="scale(0.015625)"/>
      </defs>
      <use xlink:href="#IBMPlexSans-Regular-23"/>
      <use xlink:href="#IBMPlexSans-Regular-33" x="71.299988"/>
      <use xlink:href="#IBMPlexSans-Regular-33" x="131.299973"/>
      <use xlink:href="#IBMPlexSans-Regular-33" x="191.299957"/>
      <use xlink:href="#IBMPlexSans-Regular-33" x="251.299942"/>
      <use xlink:href="#IBMPlexSans-Regular-33" x="311.299927"/>
      <use xlink:href="#IBMPlexSans-Regular-33" x="371.299911"/>
     </g>
    </g>
    <g id="patch_38">
     <path d="M 350.221875 60.816 
L 374.221875 60.816 
L 374.221875 52.416 
L 350.221875 52.416 
z
" style="fill: #666666"/>
    </g>
    <g id="text_20">
     <!-- #666666 -->
     <g style="fill: #838383" transform="translate(383.821875 60.816) scale(0.12 -0.12)">
      <defs>
       <path id="IBMPlexSans-Regular-36" d="M 1926 -77 
Q 1581 -77 1302 41 
Q 1024 160 829 381 
Q 634 602 531 922 
Q 429 1242 429 1638 
Q 429 2138 576 2576 
Q 723 3014 956 3376 
Q 1190 3738 1472 4016 
Q 1754 4294 2022 4467 
L 2714 4467 
Q 2355 4205 2073 3955 
Q 1792 3706 1581 3434 
Q 1370 3162 1222 2851 
Q 1075 2541 986 2150 
L 1018 2138 
Q 1178 2413 1430 2595 
Q 1683 2778 2093 2778 
Q 2381 2778 2624 2682 
Q 2867 2586 3040 2406 
Q 3213 2227 3312 1971 
Q 3411 1715 3411 1402 
Q 3411 1075 3305 803 
Q 3200 531 3005 336 
Q 2810 141 2534 32 
Q 2259 -77 1926 -77 
z
M 1920 390 
Q 2362 390 2608 633 
Q 2854 877 2854 1331 
L 2854 1382 
Q 2854 1837 2608 2080 
Q 2362 2323 1920 2323 
Q 1478 2323 1232 2080 
Q 986 1837 986 1382 
L 986 1331 
Q 986 877 1232 633 
Q 1478 390 1920 390 
z
" transform="scale(0.015625)"/>
      </defs>
      <use xlink:href="#IBMPlexSans-Regular-23"/>
      <use xlink:href="#IBMPlexSans-Regular-36" x="71.299988"/>
      <use xlink:href="#IBMPlexSans-Regular-36" x="131.299973"/>
      <use xlink:href="#IBMPlexSans-Regular-36" x="191.299957"/>
      <use xlink:href="#IBMPlexSans-Regular-36" x="251.299942"/>
      <use xlink:href="#IBMPlexSans-Regular-36" x="311.299927"/>
      <use xlink:href="#IBMPlexSans-Regular-36" x="371.299911"/>
     </g>
    </g>
    <g id="patch_39">
     <path d="M 350.221875 78.096 
L 374.221875 78.096 
L 374.221875 69.696 
L 350.221875 69.696 
z
" style="fill: #999999"/>
    </g>
    <g id="text_21">
     <!-- #999999 -->
     <g style="fill: #838383" transform="translate(383.821875 78.096) scale(0.12 -0.12)">
      <defs>
       <path id="IBMPlexSans-Regular-39" d="M 3411 2829 
Q 3411 2330 3264 1891 
Q 3117 1453 2883 1091 
Q 2650 730 2368 451 
Q 2086 173 1818 0 
L 1126 0 
Q 1485 262 1766 512 
Q 2048 762 2259 1034 
Q 2470 1306 2617 1616 
Q 2765 1926 2854 2317 
L 2822 2330 
Q 2662 2054 2409 1872 
Q 2157 1690 1747 1690 
Q 1459 1690 1216 1786 
Q 973 1882 800 2061 
Q 627 2240 528 2493 
Q 429 2746 429 3066 
Q 429 3392 534 3664 
Q 640 3936 835 4131 
Q 1030 4326 1302 4435 
Q 1574 4544 1914 4544 
Q 2259 4544 2537 4425 
Q 2816 4307 3011 4086 
Q 3206 3866 3308 3546 
Q 3411 3226 3411 2829 
z
M 1920 2144 
Q 2362 2144 2608 2387 
Q 2854 2630 2854 3085 
L 2854 3136 
Q 2854 3590 2608 3833 
Q 2362 4077 1920 4077 
Q 1478 4077 1232 3833 
Q 986 3590 986 3136 
L 986 3085 
Q 986 2630 1232 2387 
Q 1478 2144 1920 2144 
z
" transform="scale(0.015625)"/>
      </defs>
      <use xlink:href="#IBMPlexSans-Regular-23"/>
      <use xlink:href="#IBMPlexSans-Regular-39" x="71.299988"/>
      <use xlink:href="#IBMPlexSans-Regular-39" x="131.299973"/>
      <use xlink:href="#IBMPlexSans-Regular-39" x="191.299957"/>
      <use xlink:href="#IBMPlexSans-Regular-39" x="251.299942"/>
      <use xlink:href="#IBMPlexSans-Regular-39" x="311.299927"/>
      <use xlink:href="#IBMPlexSans-Regular-39" x="371.299911"/>
     </g>
    </g>
   </g>
  </g>
  <g id="axes_2">
   <g id="patch_40">
    <path d="M 491.80625 318.016 
L 902.619375 318.016 
L 902.619375 23.856 
L 491.80625 23.856 
L 491.80625 318.016 
z
" style="fill: none"/>
   </g>
   <g id="patch_41">
    <path d="M 510.479574 318.016 
L 547.826222 318.016 
L 547.826222 317.388559 
L 510.479574 317.388559 
z
" clip-path="url(#p2322710a0d)" style="fill: #2196f3; opacity: 0.4"/>
   </g>
   <g id="patch_42">
    <path d="M 547.826222 318.016 
L 585.172869 318.016 
L 585.172869 310.486709 
L 547.826222 310.486709 
z
" clip-path="url(#p2322710a0d)" style="fill: #2196f3; opacity: 0.4"/>
   </g>
   <g id="patch_43">
    <path d="M 585.172869 318.016 
L 622.519517 318.016 
L 622.519517 299.192772 
L 585.172869 299.192772 
z
" clip-path="url(#p2322710a0d)" style="fill: #2196f3; opacity: 0.4"/>
   </g>
   <g id="patch_44">
    <path d="M 622.519517 318.016 
L 659.866165 318.016 
L 659.866165 250.566099 
L 622.519517 250.566099 
z
" clip-path="url(#p2322710a0d)" style="fill: #2196f3; opacity: 0.4"/>
   </g>
   <g id="patch_45">
    <path d="M 659.866165 318.016 
L 697.212812 318.016 
L 697.212812 220.135213 
L 659.866165 220.135213 
z
" clip-path="url(#p2322710a0d)" style="fill: #2196f3; opacity: 0.4"/>
   </g>
   <g id="patch_46">
    <path d="M 697.212812 318.016 
L 734.55946 318.016 
L 734.55946 248.370055 
L 697.212812 248.370055 
z
" clip-path="url(#p2322710a0d)" style="fill: #2196f3; opacity: 0.4"/>
   </g>
   <g id="patch_47">
    <path d="M 734.55946 318.016 
L 771.906108 318.016 
L 771.906108 278.487221 
L 734.55946 278.487221 
z
" clip-path="url(#p2322710a0d)" style="fill: #2196f3; opacity: 0.4"/>
   </g>
   <g id="patch_48">
    <path d="M 771.906108 318.016 
L 809.252756 318.016 
L 809.252756 307.976945 
L 771.906108 307.976945 
z
" clip-path="url(#p2322710a0d)" style="fill: #2196f3; opacity: 0.4"/>
   </g>
   <g id="patch_49">
    <path d="M 809.252756 318.016 
L 846.599403 318.016 
L 846.599403 315.819957 
L 809.252756 315.819957 
z
" clip-path="url(#p2322710a0d)" style="fill: #2196f3; opacity: 0.4"/>
   </g>
   <g id="patch_50">
    <path d="M 846.599403 318.016 
L 883.946051 318.016 
L 883.946051 318.016 
L 846.599403 318.016 
z
" clip-path="url(#p2322710a0d)" style="fill: #2196f3; opacity: 0.4"/>
   </g>
   <g id="patch_51">
    <path d="M 510.479574 317.388559 
L 547.826222 317.388559 
L 547.826222 316.447398 
L 510.479574 316.447398 
z
" clip-path="url(#p2322710a0d)" style="fill: #ef5350; opacity: 0.4"/>
   </g>
   <g id="patch_52">
    <path d="M 547.826222 310.486709 
L 585.172869 310.486709 
L 585.172869 303.898579 
L 547.826222 303.898579 
z
" clip-path="url(#p2322710a0d)" style="fill: #ef5350; opacity: 0.4"/>
   </g>
   <g id="patch_53">
    <path d="M 585.172869 299.192772 
L 622.519517 299.192772 
L 622.519517 272.840252 
L 585.172869 272.840252 
z
" clip-path="url(#p2322710a0d)" style="fill: #ef5350; opacity: 0.4"/>
   </g>
   <g id="patch_54">
    <path d="M 622.519517 250.566099 
L 659.866165 250.566099 
L 659.866165 194.723855 
L 622.519517 194.723855 
z
" clip-path="url(#p2322710a0d)" style="fill: #ef5350; opacity: 0.4"/>
   </g>
   <g id="patch_55">
    <path d="M 659.866165 220.135213 
L 697.212812 220.135213 
L 697.212812 128.528835 
L 659.866165 128.528835 
z
" clip-path="url(#p2322710a0d)" style="fill: #ef5350; opacity: 0.4"/>
   </g>
   <g id="patch_56">
    <path d="M 697.212812 248.370055 
L 734.55946 248.370055 
L 734.55946 167.116453 
L 697.212812 167.116453 
z
" clip-path="url(#p2322710a0d)" style="fill: #ef5350; opacity: 0.4"/>
   </g>
   <g id="patch_57">
    <path d="M 734.55946 278.487221 
L 771.906108 278.487221 
L 771.906108 238.644721 
L 734.55946 238.644721 
z
" clip-path="url(#p2322710a0d)" style="fill: #ef5350; opacity: 0.4"/>
   </g>
   <g id="patch_58">
    <path d="M 771.906108 307.976945 
L 809.252756 307.976945 
L 809.252756 298.25161 
L 771.906108 298.25161 
z
" clip-path="url(#p2322710a0d)" style="fill: #ef5350; opacity: 0.4"/>
   </g>
   <g id="patch_59">
    <path d="M 809.252756 315.819957 
L 846.599403 315.819957 
L 846.599403 314.878795 
L 809.252756 314.878795 
z
" clip-path="url(#p2322710a0d)" style="fill: #ef5350; opacity: 0.4"/>
   </g>
   <g id="patch_60">
    <path d="M 846.599403 318.016 
L 883.946051 318.016 
L 883.946051 317.388559 
L 846.599403 317.388559 
z
" clip-path="url(#p2322710a0d)" style="fill: #ef5350; opacity: 0.4"/>
   </g>
   <g id="patch_61">
    <path d="M 510.479574 316.447398 
L 547.826222 316.447398 
L 547.826222 316.447398 
L 510.479574 316.447398 
z
" clip-path="url(#p2322710a0d)" style="fill: #4caf50; opacity: 0.4"/>
   </g>
   <g id="patch_62">
    <path d="M 547.826222 303.898579 
L 585.172869 303.898579 
L 585.172869 296.369287 
L 547.826222 296.369287 
z
" clip-path="url(#p2322710a0d)" style="fill: #4caf50; opacity: 0.4"/>
   </g>
   <g id="patch_63">
    <path d="M 585.172869 272.840252 
L 622.519517 272.840252 
L 622.519517 245.860292 
L 585.172869 245.860292 
z
" clip-path="url(#p2322710a0d)" style="fill: #4caf50; opacity: 0.4"/>
   </g>
   <g id="patch_64">
    <path d="M 622.519517 194.723855 
L 659.866165 194.723855 
L 659.866165 131.038599 
L 622.519517 131.038599 
z
" clip-path="url(#p2322710a0d)" style="fill: #4caf50; opacity: 0.4"/>
   </g>
   <g id="patch_65">
    <path d="M 659.866165 128.528835 
L 697.212812 128.528835 
L 697.212812 37.863619 
L 659.866165 37.863619 
z
" clip-path="url(#p2322710a0d)" style="fill: #4caf50; opacity: 0.4"/>
   </g>
   <g id="patch_66">
    <path d="M 697.212812 167.116453 
L 734.55946 167.116453 
L 734.55946 93.705863 
L 697.212812 93.705863 
z
" clip-path="url(#p2322710a0d)" style="fill: #4caf50; opacity: 0.4"/>
   </g>
   <g id="patch_67">
    <path d="M 734.55946 238.644721 
L 771.906108 238.644721 
L 771.906108 201.625705 
L 734.55946 201.625705 
z
" clip-path="url(#p2322710a0d)" style="fill: #4caf50; opacity: 0.4"/>
   </g>
   <g id="patch_68">
    <path d="M 771.906108 298.25161 
L 809.252756 298.25161 
L 809.252756 286.957673 
L 771.906108 286.957673 
z
" clip-path="url(#p2322710a0d)" style="fill: #4caf50; opacity: 0.4"/>
   </g>
   <g id="patch_69">
    <path d="M 809.252756 314.878795 
L 846.599403 314.878795 
L 846.599403 312.055311 
L 809.252756 312.055311 
z
" clip-path="url(#p2322710a0d)" style="fill: #4caf50; opacity: 0.4"/>
   </g>
   <g id="patch_70">
    <path d="M 846.599403 317.388559 
L 883.946051 317.388559 
L 883.946051 317.074839 
L 846.599403 317.074839 
z
" clip-path="url(#p2322710a0d)" style="fill: #4caf50; opacity: 0.4"/>
   </g>
   <g id="matplotlib.axis_3">
    <g id="xtick_9">
     <g id="line2d_35">
      <path d="M 535.831219 318.016 
L 535.831219 23.856 
" clip-path="url(#p2322710a0d)" style="fill: none; stroke-dasharray: 1.48,0.64; stroke-dashoffset: 0; stroke: #838383; stroke-opacity: 0.25; stroke-width: 0.4"/>
     </g>
     <g id="line2d_36"/>
     <g id="text_22">
      <!-- −3 -->
      <g style="fill: #838383" transform="translate(528.631219 330.396) scale(0.12 -0.12)">
       <use xlink:href="#IBMPlexSans-Regular-2212"/>
       <use xlink:href="#IBMPlexSans-Regular-33" x="59.999985"/>
      </g>
     </g>
    </g>
    <g id="xtick_10">
     <g id="line2d_37">
      <path d="M 585.493197 318.016 
L 585.493197 23.856 
" clip-path="url(#p2322710a0d)" style="fill: none; stroke-dasharray: 1.48,0.64; stroke-dashoffset: 0; stroke: #838383; stroke-opacity: 0.25; stroke-width: 0.4"/>
     </g>
     <g id="line2d_38"/>
     <g id="text_23">
      <!-- −2 -->
      <g style="fill: #838383" transform="translate(578.293197 330.396) scale(0.12 -0.12)">
       <use xlink:href="#IBMPlexSans-Regular-2212"/>
       <use xlink:href="#IBMPlexSans-Regular-32" x="59.999985"/>
      </g>
     </g>
    </g>
    <g id="xtick_11">
     <g id="line2d_39">
      <path d="M 635.155175 318.016 
L 635.155175 23.856 
" clip-path="url(#p2322710a0d)" style="fill: none; stroke-dasharray: 1.48,0.64; stroke-dashoffset: 0; stroke: #838383; stroke-opacity: 0.25; stroke-width: 0.4"/>
     </g>
     <g id="line2d_40"/>
     <g id="text_24">
      <!-- −1 -->
      <g style="fill: #838383" transform="translate(627.955175 330.396) scale(0.12 -0.12)">
       <use xlink:href="#IBMPlexSans-Regular-2212"/>
       <use xlink:href="#IBMPlexSans-Regular-31" x="59.999985"/>
      </g>
     </g>
    </g>
    <g id="xtick_12">
     <g id="line2d_41">
      <path d="M 684.817153 318.016 
L 684.817153 23.856 
" clip-path="url(#p2322710a0d)" style="fill: none; stroke-dasharray: 1.48,0.64; stroke-dashoffset: 0; stroke: #838383; stroke-opacity: 0.25; stroke-width: 0.4"/>
     </g>
     <g id="line2d_42"/>
     <g id="text_25">
      <!-- 0 -->
      <g style="fill: #838383" transform="translate(681.217153 330.396) scale(0.12 -0.12)">
       <use xlink:href="#IBMPlexSans-Regular-30"/>
      </g>
     </g>
    </g>
    <g id="xtick_13">
     <g id="line2d_43">
      <path d="M 734.479132 318.016 
L 734.479132 23.856 
" clip-path="url(#p2322710a0d)" style="fill: none; stroke-dasharray: 1.48,0.64; stroke-dashoffset: 0; stroke: #838383; stroke-opacity: 0.25; stroke-width: 0.4"/>
     </g>
     <g id="line2d_44"/>
     <g id="text_26">
      <!-- 1 -->
      <g style="fill: #838383" transform="translate(730.879132 330.396) scale(0.12 -0.12)">
       <use xlink:href="#IBMPlexSans-Regular-31"/>
      </g>
     </g>
    </g>
    <g id="xtick_14">
     <g id="line2d_45">
      <path d="M 784.14111 318.016 
L 784.14111 23.856 
" clip-path="url(#p2322710a0d)" style="fill: none; stroke-dasharray: 1.48,0.64; stroke-dashoffset: 0; stroke: #838383; stroke-opacity: 0.25; stroke-width: 0.4"/>
     </g>
     <g id="line2d_46"/>
     <g id="text_27">
      <!-- 2 -->
      <g style="fill: #838383" transform="translate(780.54111 330.396) scale(0.12 -0.12)">
       <use xlink:href="#IBMPlexSans-Regular-32"/>
      </g>
     </g>
    </g>
    <g id="xtick_15">
     <g id="line2d_47">
      <path d="M 833.803088 318.016 
L 833.803088 23.856 
" clip-path="url(#p2322710a0d)" style="fill: none; stroke-dasharray: 1.48,0.64; stroke-dashoffset: 0; stroke: #838383; stroke-opacity: 0.25; stroke-width: 0.4"/>
     </g>
     <g id="line2d_48"/>
     <g id="text_28">
      <!-- 3 -->
      <g style="fill: #838383" transform="translate(830.203088 330.396) scale(0.12 -0.12)">
       <use xlink:href="#IBMPlexSans-Regular-33"/>
      </g>
     </g>
    </g>
    <g id="xtick_16">
     <g id="line2d_49">
      <path d="M 883.465066 318.016 
L 883.465066 23.856 
" clip-path="url(#p2322710a0d)" style="fill: none; stroke-dasharray: 1.48,0.64; stroke-dashoffset: 0; stroke: #838383; stroke-opacity: 0.25; stroke-width: 0.4"/>
     </g>
     <g id="line2d_50"/>
     <g id="text_29">
      <!-- 4 -->
      <g style="fill: #838383" transform="translate(879.865066 330.396) scale(0.12 -0.12)">
       <use xlink:href="#IBMPlexSans-Regular-34"/>
      </g>
     </g>
    </g>
   </g>
   <g id="matplotlib.axis_4">
    <g id="ytick_10">
     <g id="line2d_51">
      <path d="M 491.80625 318.016 
L 902.619375 318.016 
" clip-path="url(#p2322710a0d)" style="fill: none; stroke-dasharray: 1.48,0.64; stroke-dashoffset: 0; stroke: #838383; stroke-opacity: 0.25; stroke-width: 0.4"/>
     </g>
     <g id="line2d_52"/>
     <g id="text_30">
      <!-- 0.00 -->
      <g style="fill: #838383" transform="translate(463.441875 322.456) scale(0.12 -0.12)">
       <use xlink:href="#IBMPlexSans-Regular-30"/>
       <use xlink:href="#IBMPlexSans-Regular-2e" x="59.999985"/>
       <use xlink:href="#IBMPlexSans-Regular-30" x="87.199982"/>
       <use xlink:href="#IBMPlexSans-Regular-30" x="147.199966"/>
      </g>
     </g>
    </g>
    <g id="ytick_11">
     <g id="line2d_53">
      <path d="M 491.80625 282.627535 
L 902.619375 282.627535 
" clip-path="url(#p2322710a0d)" style="fill: none; stroke-dasharray: 1.48,0.64; stroke-dashoffset: 0; stroke: #838383; stroke-opacity: 0.25; stroke-width: 0.4"/>
     </g>
     <g id="line2d_54"/>
     <g id="text_31">
      <!-- 0.05 -->
      <g style="fill: #838383" transform="translate(463.441875 287.067535) scale(0.12 -0.12)">
       <use xlink:href="#IBMPlexSans-Regular-30"/>
       <use xlink:href="#IBMPlexSans-Regular-2e" x="59.999985"/>
       <use xlink:href="#IBMPlexSans-Regular-30" x="87.199982"/>
       <use xlink:href="#IBMPlexSans-Regular-35" x="147.199966"/>
      </g>
     </g>
    </g>
    <g id="ytick_12">
     <g id="line2d_55">
      <path d="M 491.80625 247.23907 
L 902.619375 247.23907 
" clip-path="url(#p2322710a0d)" style="fill: none; stroke-dasharray: 1.48,0.64; stroke-dashoffset: 0; stroke: #838383; stroke-opacity: 0.25; stroke-width: 0.4"/>
     </g>
     <g id="line2d_56"/>
     <g id="text_32">
      <!-- 0.10 -->
      <g style="fill: #838383" transform="translate(463.441875 251.67907) scale(0.12 -0.12)">
       <use xlink:href="#IBMPlexSans-Regular-30"/>
       <use xlink:href="#IBMPlexSans-Regular-2e" x="59.999985"/>
       <use xlink:href="#IBMPlexSans-Regular-31" x="87.199982"/>
       <use xlink:href="#IBMPlexSans-Regular-30" x="147.199966"/>
      </g>
     </g>
    </g>
    <g id="ytick_13">
     <g id="line2d_57">
      <path d="M 491.80625 211.850604 
L 902.619375 211.850604 
" clip-path="url(#p2322710a0d)" style="fill: none; stroke-dasharray: 1.48,0.64; stroke-dashoffset: 0; stroke: #838383; stroke-opacity: 0.25; stroke-width: 0.4"/>
     </g>
     <g id="line2d_58"/>
     <g id="text_33">
      <!-- 0.15 -->
      <g style="fill: #838383" transform="translate(463.441875 216.290604) scale(0.12 -0.12)">
       <use xlink:href="#IBMPlexSans-Regular-30"/>
       <use xlink:href="#IBMPlexSans-Regular-2e" x="59.999985"/>
       <use xlink:href="#IBMPlexSans-Regular-31" x="87.199982"/>
       <use xlink:href="#IBMPlexSans-Regular-35" x="147.199966"/>
      </g>
     </g>
    </g>
    <g id="ytick_14">
     <g id="line2d_59">
      <path d="M 491.80625 176.462139 
L 902.619375 176.462139 
" clip-path="url(#p2322710a0d)" style="fill: none; stroke-dasharray: 1.48,0.64; stroke-dashoffset: 0; stroke: #838383; stroke-opacity: 0.25; stroke-width: 0.4"/>
     </g>
     <g id="line2d_60"/>
     <g id="text_34">
      <!-- 0.20 -->
      <g style="fill: #838383" transform="translate(463.441875 180.902139) scale(0.12 -0.12)">
       <use xlink:href="#IBMPlexSans-Regular-30"/>
       <use xlink:href="#IBMPlexSans-Regular-2e" x="59.999985"/>
       <use xlink:href="#IBMPlexSans-Regular-32" x="87.199982"/>
       <use xlink:href="#IBMPlexSans-Regular-30" x="147.199966"/>
      </g>
     </g>
    </g>
    <g id="ytick_15">
     <g id="line2d_61">
      <path d="M 491.80625 141.073674 
L 902.619375 141.073674 
" clip-path="url(#p2322710a0d)" style="fill: none; stroke-dasharray: 1.48,0.64; stroke-dashoffset: 0; stroke: #838383; stroke-opacity: 0.25; stroke-width: 0.4"/>
     </g>
     <g id="line2d_62"/>
     <g id="text_35">
      <!-- 0.25 -->
      <g style="fill: #838383" transform="translate(463.441875 145.513674) scale(0.12 -0.12)">
       <use xlink:href="#IBMPlexSans-Regular-30"/>
       <use xlink:href="#IBMPlexSans-Regular-2e" x="59.999985"/>
       <use xlink:href="#IBMPlexSans-Regular-32" x="87.199982"/>
       <use xlink:href="#IBMPlexSans-Regular-35" x="147.199966"/>
      </g>
     </g>
    </g>
    <g id="ytick_16">
     <g id="line2d_63">
      <path d="M 491.80625 105.685209 
L 902.619375 105.685209 
" clip-path="url(#p2322710a0d)" style="fill: none; stroke-dasharray: 1.48,0.64; stroke-dashoffset: 0; stroke: #838383; stroke-opacity: 0.25; stroke-width: 0.4"/>
     </g>
     <g id="line2d_64"/>
     <g id="text_36">
      <!-- 0.30 -->
      <g style="fill: #838383" transform="translate(463.441875 110.125209) scale(0.12 -0.12)">
       <use xlink:href="#IBMPlexSans-Regular-30"/>
       <use xlink:href="#IBMPlexSans-Regular-2e" x="59.999985"/>
       <use xlink:href="#IBMPlexSans-Regular-33" x="87.199982"/>
       <use xlink:href="#IBMPlexSans-Regular-30" x="147.199966"/>
      </g>
     </g>
    </g>
    <g id="ytick_17">
     <g id="line2d_65">
      <path d="M 491.80625 70.296743 
L 902.619375 70.296743 
" clip-path="url(#p2322710a0d)" style="fill: none; stroke-dasharray: 1.48,0.64; stroke-dashoffset: 0; stroke: #838383; stroke-opacity: 0.25; stroke-width: 0.4"/>
     </g>
     <g id="line2d_66"/>
     <g id="text_37">
      <!-- 0.35 -->
      <g style="fill: #838383" transform="translate(463.441875 74.736743) scale(0.12 -0.12)">
       <use xlink:href="#IBMPlexSans-Regular-30"/>
       <use xlink:href="#IBMPlexSans-Regular-2e" x="59.999985"/>
       <use xlink:href="#IBMPlexSans-Regular-33" x="87.199982"/>
       <use xlink:href="#IBMPlexSans-Regular-35" x="147.199966"/>
      </g>
     </g>
    </g>
    <g id="ytick_18">
     <g id="line2d_67">
      <path d="M 491.80625 34.908278 
L 902.619375 34.908278 
" clip-path="url(#p2322710a0d)" style="fill: none; stroke-dasharray: 1.48,0.64; stroke-dashoffset: 0; stroke: #838383; stroke-opacity: 0.25; stroke-width: 0.4"/>
     </g>
     <g id="line2d_68"/>
     <g id="text_38">
      <!-- 0.40 -->
      <g style="fill: #838383" transform="translate(463.441875 39.348278) scale(0.12 -0.12)">
       <use xlink:href="#IBMPlexSans-Regular-30"/>
       <use xlink:href="#IBMPlexSans-Regular-2e" x="59.999985"/>
       <use xlink:href="#IBMPlexSans-Regular-34" x="87.199982"/>
       <use xlink:href="#IBMPlexSans-Regular-30" x="147.199966"/>
      </g>
     </g>
    </g>
   </g>
   <g id="patch_71">
    <path d="M 491.80625 318.016 
L 491.80625 23.856 
" style="fill: none"/>
   </g>
   <g id="patch_72">
    <path d="M 902.619375 318.016 
L 902.619375 23.856 
" style="fill: none"/>
   </g>
   <g id="patch_73">
    <path d="M 491.80625 318.016 
L 902.619375 318.016 
" style="fill: none"/>
   </g>
   <g id="patch_74">
    <path d="M 491.80625 23.856 
L 902.619375 23.856 
" style="fill: none"/>
   </g>
   <g id="text_39">
    <!-- stacked bar -->
    <g style="fill: #838383" transform="translate(659.426312 17.856) scale(0.144 -0.144)">
     <defs>
      <path id="IBMPlexSans-Regular-63" d="M 1773 -77 
Q 1427 -77 1152 44 
Q 877 166 688 390 
Q 499 614 400 934 
Q 301 1254 301 1651 
Q 301 2048 400 2368 
Q 499 2688 688 2912 
Q 877 3136 1152 3257 
Q 1427 3379 1773 3379 
Q 2266 3379 2563 3164 
Q 2861 2950 3008 2605 
L 2579 2387 
Q 2490 2643 2285 2784 
Q 2080 2925 1773 2925 
Q 1542 2925 1369 2851 
Q 1197 2778 1081 2646 
Q 966 2515 908 2332 
Q 851 2150 851 1933 
L 851 1370 
Q 851 934 1084 656 
Q 1318 378 1773 378 
Q 2394 378 2669 954 
L 3040 704 
Q 2880 346 2563 134 
Q 2246 -77 1773 -77 
z
" transform="scale(0.015625)"/>
      <path id="IBMPlexSans-Regular-6b" d="M 544 4736 
L 1056 4736 
L 1056 1734 
L 1082 1734 
L 1587 2298 
L 2522 3302 
L 3142 3302 
L 1920 1997 
L 3264 0 
L 2643 0 
L 1549 1683 
L 1056 1178 
L 1056 0 
L 544 0 
L 544 4736 
z
" transform="scale(0.015625)"/>
     </defs>
     <use xlink:href="#IBMPlexSans-Regular-73"/>
     <use xlink:href="#IBMPlexSans-Regular-74" x="48.699997"/>
     <use xlink:href="#IBMPlexSans-Regular-61" x="83.799988"/>
     <use xlink:href="#IBMPlexSans-Regular-63" x="137.199982"/>
     <use xlink:href="#IBMPlexSans-Regular-6b" x="187.499969"/>
     <use xlink:href="#IBMPlexSans-Regular-65" x="240.199966"/>
     <use xlink:href="#IBMPlexSans-Regular-64" x="295.09996"/>
     <use xlink:href="#IBMPlexSans-Regular-20" x="353.099945"/>
     <use xlink:href="#IBMPlexSans-Regular-62" x="376.699936"/>
     <use xlink:href="#IBMPlexSans-Regular-61" x="434.699921"/>
     <use xlink:href="#IBMPlexSans-Regular-72" x="488.099915"/>
    </g>
   </g>
  </g>
  <g id="axes_3">
   <g id="patch_75">
    <path d="M 35.564375 657.136 
L 446.3775 657.136 
L 446.3775 362.976 
L 35.564375 362.976 
L 35.564375 657.136 
z
" style="fill: none"/>
   </g>
   <g id="matplotlib.axis_5">
    <g id="xtick_17">
     <g id="line2d_69">
      <path d="M 79.589344 657.136 
L 79.589344 362.976 
" clip-path="url(#p8979d34a79)" style="fill: none; stroke-dasharray: 1.48,0.64; stroke-dashoffset: 0; stroke: #838383; stroke-opacity: 0.25; stroke-width: 0.4"/>
     </g>
     <g id="line2d_70"/>
     <g id="text_40">
      <!-- −3 -->
      <g style="fill: #838383" transform="translate(72.389344 669.516) scale(0.12 -0.12)">
       <use xlink:href="#IBMPlexSans-Regular-2212"/>
       <use xlink:href="#IBMPlexSans-Regular-33" x="59.999985"/>
      </g>
     </g>
    </g>
    <g id="xtick_18">
     <g id="line2d_71">
      <path d="M 129.251322 657.136 
L 129.251322 362.976 
" clip-path="url(#p8979d34a79)" style="fill: none; stroke-dasharray: 1.48,0.64; stroke-dashoffset: 0; stroke: #838383; stroke-opacity: 0.25; stroke-width: 0.4"/>
     </g>
     <g id="line2d_72"/>
     <g id="text_41">
      <!-- −2 -->
      <g style="fill: #838383" transform="translate(122.051322 669.516) scale(0.12 -0.12)">
       <use xlink:href="#IBMPlexSans-Regular-2212"/>
       <use xlink:href="#IBMPlexSans-Regular-32" x="59.999985"/>
      </g>
     </g>
    </g>
    <g id="xtick_19">
     <g id="line2d_73">
      <path d="M 178.9133 657.136 
L 178.9133 362.976 
" clip-path="url(#p8979d34a79)" style="fill: none; stroke-dasharray: 1.48,0.64; stroke-dashoffset: 0; stroke: #838383; stroke-opacity: 0.25; stroke-width: 0.4"/>
     </g>
     <g id="line2d_74"/>
     <g id="text_42">
      <!-- −1 -->
      <g style="fill: #838383" transform="translate(171.7133 669.516) scale(0.12 -0.12)">
       <use xlink:href="#IBMPlexSans-Regular-2212"/>
       <use xlink:href="#IBMPlexSans-Regular-31" x="59.999985"/>
      </g>
     </g>
    </g>
    <g id="xtick_20">
     <g id="line2d_75">
      <path d="M 228.575278 657.136 
L 228.575278 362.976 
" clip-path="url(#p8979d34a79)" style="fill: none; stroke-dasharray: 1.48,0.64; stroke-dashoffset: 0; stroke: #838383; stroke-opacity: 0.25; stroke-width: 0.4"/>
     </g>
     <g id="line2d_76"/>
     <g id="text_43">
      <!-- 0 -->
      <g style="fill: #838383" transform="translate(224.975278 669.516) scale(0.12 -0.12)">
       <use xlink:href="#IBMPlexSans-Regular-30"/>
      </g>
     </g>
    </g>
    <g id="xtick_21">
     <g id="line2d_77">
      <path d="M 278.237257 657.136 
L 278.237257 362.976 
" clip-path="url(#p8979d34a79)" style="fill: none; stroke-dasharray: 1.48,0.64; stroke-dashoffset: 0; stroke: #838383; stroke-opacity: 0.25; stroke-width: 0.4"/>
     </g>
     <g id="line2d_78"/>
     <g id="text_44">
      <!-- 1 -->
      <g style="fill: #838383" transform="translate(274.637257 669.516) scale(0.12 -0.12)">
       <use xlink:href="#IBMPlexSans-Regular-31"/>
      </g>
     </g>
    </g>
    <g id="xtick_22">
     <g id="line2d_79">
      <path d="M 327.899235 657.136 
L 327.899235 362.976 
" clip-path="url(#p8979d34a79)" style="fill: none; stroke-dasharray: 1.48,0.64; stroke-dashoffset: 0; stroke: #838383; stroke-opacity: 0.25; stroke-width: 0.4"/>
     </g>
     <g id="line2d_80"/>
     <g id="text_45">
      <!-- 2 -->
      <g style="fill: #838383" transform="translate(324.299235 669.516) scale(0.12 -0.12)">
       <use xlink:href="#IBMPlexSans-Regular-32"/>
      </g>
     </g>
    </g>
    <g id="xtick_23">
     <g id="line2d_81">
      <path d="M 377.561213 657.136 
L 377.561213 362.976 
" clip-path="url(#p8979d34a79)" style="fill: none; stroke-dasharray: 1.48,0.64; stroke-dashoffset: 0; stroke: #838383; stroke-opacity: 0.25; stroke-width: 0.4"/>
     </g>
     <g id="line2d_82"/>
     <g id="text_46">
      <!-- 3 -->
      <g style="fill: #838383" transform="translate(373.961213 669.516) scale(0.12 -0.12)">
       <use xlink:href="#IBMPlexSans-Regular-33"/>
      </g>
     </g>
    </g>
    <g id="xtick_24">
     <g id="line2d_83">
      <path d="M 427.223191 657.136 
L 427.223191 362.976 
" clip-path="url(#p8979d34a79)" style="fill: none; stroke-dasharray: 1.48,0.64; stroke-dashoffset: 0; stroke: #838383; stroke-opacity: 0.25; stroke-width: 0.4"/>
     </g>
     <g id="line2d_84"/>
     <g id="text_47">
      <!-- 4 -->
      <g style="fill: #838383" transform="translate(423.623191 669.516) scale(0.12 -0.12)">
       <use xlink:href="#IBMPlexSans-Regular-34"/>
      </g>
     </g>
    </g>
   </g>
   <g id="matplotlib.axis_6">
    <g id="ytick_19">
     <g id="line2d_85">
      <path d="M 35.564375 657.136 
L 446.3775 657.136 
" clip-path="url(#p8979d34a79)" style="fill: none; stroke-dasharray: 1.48,0.64; stroke-dashoffset: 0; stroke: #838383; stroke-opacity: 0.25; stroke-width: 0.4"/>
     </g>
     <g id="line2d_86"/>
     <g id="text_48">
      <!-- 0 -->
      <g style="fill: #838383" transform="translate(24.864375 661.576) scale(0.12 -0.12)">
       <use xlink:href="#IBMPlexSans-Regular-30"/>
      </g>
     </g>
    </g>
    <g id="ytick_20">
     <g id="line2d_87">
      <path d="M 35.564375 594.391906 
L 446.3775 594.391906 
" clip-path="url(#p8979d34a79)" style="fill: none; stroke-dasharray: 1.48,0.64; stroke-dashoffset: 0; stroke: #838383; stroke-opacity: 0.25; stroke-width: 0.4"/>
     </g>
     <g id="line2d_88"/>
     <g id="text_49">
      <!-- 200 -->
      <g style="fill: #838383" transform="translate(10.464375 598.831906) scale(0.12 -0.12)">
       <use xlink:href="#IBMPlexSans-Regular-32"/>
       <use xlink:href="#IBMPlexSans-Regular-30" x="59.999985"/>
       <use xlink:href="#IBMPlexSans-Regular-30" x="119.999969"/>
      </g>
     </g>
    </g>
    <g id="ytick_21">
     <g id="line2d_89">
      <path d="M 35.564375 531.647811 
L 446.3775 531.647811 
" clip-path="url(#p8979d34a79)" style="fill: none; stroke-dasharray: 1.48,0.64; stroke-dashoffset: 0; stroke: #838383; stroke-opacity: 0.25; stroke-width: 0.4"/>
     </g>
     <g id="line2d_90"/>
     <g id="text_50">
      <!-- 400 -->
      <g style="fill: #838383" transform="translate(10.464375 536.087811) scale(0.12 -0.12)">
       <use xlink:href="#IBMPlexSans-Regular-34"/>
       <use xlink:href="#IBMPlexSans-Regular-30" x="59.999985"/>
       <use xlink:href="#IBMPlexSans-Regular-30" x="119.999969"/>
      </g>
     </g>
    </g>
    <g id="ytick_22">
     <g id="line2d_91">
      <path d="M 35.564375 468.903717 
L 446.3775 468.903717 
" clip-path="url(#p8979d34a79)" style="fill: none; stroke-dasharray: 1.48,0.64; stroke-dashoffset: 0; stroke: #838383; stroke-opacity: 0.25; stroke-width: 0.4"/>
     </g>
     <g id="line2d_92"/>
     <g id="text_51">
      <!-- 600 -->
      <g style="fill: #838383" transform="translate(10.464375 473.343717) scale(0.12 -0.12)">
       <use xlink:href="#IBMPlexSans-Regular-36"/>
       <use xlink:href="#IBMPlexSans-Regular-30" x="59.999985"/>
       <use xlink:href="#IBMPlexSans-Regular-30" x="119.999969"/>
      </g>
     </g>
    </g>
    <g id="ytick_23">
     <g id="line2d_93">
      <path d="M 35.564375 406.159623 
L 446.3775 406.159623 
" clip-path="url(#p8979d34a79)" style="fill: none; stroke-dasharray: 1.48,0.64; stroke-dashoffset: 0; stroke: #838383; stroke-opacity: 0.25; stroke-width: 0.4"/>
     </g>
     <g id="line2d_94"/>
     <g id="text_52">
      <!-- 800 -->
      <g style="fill: #838383" transform="translate(10.464375 410.599623) scale(0.12 -0.12)">
       <defs>
        <path id="IBMPlexSans-Regular-38" d="M 1920 -77 
Q 1536 -77 1248 22 
Q 960 122 765 294 
Q 570 467 470 704 
Q 371 941 371 1216 
Q 371 1677 620 1945 
Q 870 2214 1274 2323 
L 1274 2374 
Q 922 2496 714 2768 
Q 506 3040 506 3424 
Q 506 3936 877 4240 
Q 1248 4544 1920 4544 
Q 2592 4544 2963 4240 
Q 3334 3936 3334 3424 
Q 3334 3040 3126 2768 
Q 2918 2496 2566 2374 
L 2566 2323 
Q 2970 2214 3219 1945 
Q 3469 1677 3469 1216 
Q 3469 941 3369 704 
Q 3270 467 3075 294 
Q 2880 122 2592 22 
Q 2304 -77 1920 -77 
z
M 1920 390 
Q 2387 390 2643 598 
Q 2899 806 2899 1190 
L 2899 1325 
Q 2899 1709 2643 1917 
Q 2387 2125 1920 2125 
Q 1453 2125 1197 1917 
Q 941 1709 941 1325 
L 941 1190 
Q 941 806 1197 598 
Q 1453 390 1920 390 
z
M 1920 2573 
Q 2342 2573 2560 2752 
Q 2778 2931 2778 3277 
L 2778 3373 
Q 2778 3718 2560 3897 
Q 2342 4077 1920 4077 
Q 1498 4077 1280 3897 
Q 1062 3718 1062 3373 
L 1062 3277 
Q 1062 2931 1280 2752 
Q 1498 2573 1920 2573 
z
" transform="scale(0.015625)"/>
       </defs>
       <use xlink:href="#IBMPlexSans-Regular-38"/>
       <use xlink:href="#IBMPlexSans-Regular-30" x="59.999985"/>
       <use xlink:href="#IBMPlexSans-Regular-30" x="119.999969"/>
      </g>
     </g>
    </g>
   </g>
   <g id="patch_76">
    <path d="M 54.237699 655.567398 
L 54.237699 655.567398 
L 91.584347 655.567398 
L 91.584347 635.489287 
L 128.930994 635.489287 
L 128.930994 584.980292 
L 166.277642 584.980292 
L 166.277642 470.158599 
L 203.62429 470.158599 
L 203.62429 376.983619 
L 240.970938 376.983619 
L 240.970938 432.825863 
L 278.317585 432.825863 
L 278.317585 540.745705 
L 315.664233 540.745705 
L 315.664233 626.077673 
L 353.010881 626.077673 
L 353.010881 651.175311 
L 390.357528 651.175311 
L 390.357528 656.194839 
L 427.704176 656.194839 
L 427.704176 656.508559 
" clip-path="url(#p8979d34a79)" style="fill: none; stroke: #4caf50; stroke-linejoin: miter"/>
   </g>
   <g id="patch_77">
    <path d="M 54.237699 656.508559 
L 54.237699 655.567398 
L 91.584347 655.567398 
L 91.584347 643.018579 
L 128.930994 643.018579 
L 128.930994 611.960252 
L 166.277642 611.960252 
L 166.277642 533.843855 
L 203.62429 533.843855 
L 203.62429 467.648835 
L 240.970938 467.648835 
L 240.970938 506.236453 
L 278.317585 506.236453 
L 278.317585 577.764721 
L 315.664233 577.764721 
L 315.664233 637.37161 
L 353.010881 637.37161 
L 353.010881 653.998795 
L 390.357528 653.998795 
L 390.357528 656.508559 
L 427.704176 656.508559 
L 427.704176 657.136 
" clip-path="url(#p8979d34a79)" style="fill: none; stroke: #ef5350; stroke-linejoin: miter"/>
   </g>
   <g id="patch_78">
    <path d="M 54.237699 657.136 
L 54.237699 656.508559 
L 91.584347 656.508559 
L 91.584347 649.606709 
L 128.930994 649.606709 
L 128.930994 638.312772 
L 166.277642 638.312772 
L 166.277642 589.686099 
L 203.62429 589.686099 
L 203.62429 559.255213 
L 240.970938 559.255213 
L 240.970938 587.490055 
L 278.317585 587.490055 
L 278.317585 617.607221 
L 315.664233 617.607221 
L 315.664233 647.096945 
L 353.010881 647.096945 
L 353.010881 654.939957 
L 390.357528 654.939957 
L 390.357528 657.136 
L 427.704176 657.136 
L 427.704176 657.136 
" clip-path="url(#p8979d34a79)" style="fill: none; stroke: #2196f3; stroke-linejoin: miter"/>
   </g>
   <g id="patch_79">
    <path d="M 35.564375 657.136 
L 35.564375 362.976 
" style="fill: none"/>
   </g>
   <g id="patch_80">
    <path d="M 446.3775 657.136 
L 446.3775 362.976 
" style="fill: none"/>
   </g>
   <g id="patch_81">
    <path d="M 35.564375 657.136 
L 446.3775 657.136 
" style="fill: none"/>
   </g>
   <g id="patch_82">
    <path d="M 35.564375 362.976 
L 446.3775 362.976 
" style="fill: none"/>
   </g>
   <g id="text_53">
    <!-- stack step (unfilled) -->
    <g style="fill: #838383" transform="translate(176.933687 356.976) scale(0.144 -0.144)">
     <defs>
      <path id="IBMPlexSans-Regular-70" d="M 544 3302 
L 1056 3302 
L 1056 2765 
L 1082 2765 
Q 1210 3078 1456 3228 
Q 1702 3379 2048 3379 
Q 2355 3379 2604 3257 
Q 2854 3136 3030 2912 
Q 3206 2688 3299 2368 
Q 3392 2048 3392 1651 
Q 3392 1254 3299 934 
Q 3206 614 3030 390 
Q 2854 166 2604 44 
Q 2355 -77 2048 -77 
Q 1376 -77 1082 538 
L 1056 538 
L 1056 -1280 
L 544 -1280 
L 544 3302 
z
M 1907 384 
Q 2342 384 2592 656 
Q 2842 928 2842 1370 
L 2842 1933 
Q 2842 2374 2592 2646 
Q 2342 2918 1907 2918 
Q 1734 2918 1577 2870 
Q 1421 2822 1305 2739 
Q 1190 2656 1123 2537 
Q 1056 2419 1056 2285 
L 1056 1056 
Q 1056 896 1123 771 
Q 1190 646 1305 560 
Q 1421 474 1577 429 
Q 1734 384 1907 384 
z
" transform="scale(0.015625)"/>
      <path id="IBMPlexSans-Regular-28" d="M 531 1997 
Q 531 2458 620 2886 
Q 710 3315 867 3683 
Q 1024 4051 1235 4352 
Q 1446 4653 1690 4864 
L 2176 4864 
Q 1907 4621 1692 4313 
Q 1478 4006 1328 3660 
Q 1178 3315 1094 2956 
Q 1011 2598 1011 2266 
L 1011 1715 
Q 1011 1376 1094 1017 
Q 1178 659 1331 313 
Q 1485 -32 1699 -339 
Q 1914 -646 2176 -877 
L 1690 -877 
Q 1453 -678 1241 -377 
Q 1030 -77 873 294 
Q 717 666 624 1098 
Q 531 1530 531 1997 
z
" transform="scale(0.015625)"/>
      <path id="IBMPlexSans-Regular-75" d="M 2579 538 
L 2554 538 
Q 2502 422 2428 310 
Q 2355 198 2246 112 
Q 2138 26 1984 -25 
Q 1830 -77 1626 -77 
Q 1114 -77 813 252 
Q 512 582 512 1184 
L 512 3302 
L 1024 3302 
L 1024 1274 
Q 1024 384 1779 384 
Q 1933 384 2077 422 
Q 2221 461 2333 537 
Q 2445 614 2512 732 
Q 2579 851 2579 1018 
L 2579 3302 
L 3091 3302 
L 3091 0 
L 2579 0 
L 2579 538 
z
" transform="scale(0.015625)"/>
      <path id="IBMPlexSans-Regular-66" d="M 723 2854 
L 186 2854 
L 186 3302 
L 723 3302 
L 723 3968 
Q 723 4314 902 4525 
Q 1082 4736 1446 4736 
L 1946 4736 
L 1946 4288 
L 1235 4288 
L 1235 3302 
L 1946 3302 
L 1946 2854 
L 1235 2854 
L 1235 0 
L 723 0 
L 723 2854 
z
" transform="scale(0.015625)"/>
      <path id="IBMPlexSans-Regular-29" d="M 1613 1997 
Q 1613 1530 1520 1098 
Q 1427 666 1270 294 
Q 1114 -77 902 -377 
Q 691 -678 454 -877 
L -32 -877 
Q 230 -646 444 -339 
Q 659 -32 812 313 
Q 966 659 1049 1017 
Q 1133 1376 1133 1715 
L 1133 2266 
Q 1133 2598 1049 2956 
Q 966 3315 816 3660 
Q 666 4006 451 4313 
Q 237 4621 -32 4864 
L 454 4864 
Q 698 4653 909 4352 
Q 1120 4051 1277 3683 
Q 1434 3315 1523 2886 
Q 1613 2458 1613 1997 
z
" transform="scale(0.015625)"/>
     </defs>
     <use xlink:href="#IBMPlexSans-Regular-73"/>
     <use xlink:href="#IBMPlexSans-Regular-74" x="48.699997"/>
     <use xlink:href="#IBMPlexSans-Regular-61" x="83.799988"/>
     <use xlink:href="#IBMPlexSans-Regular-63" x="137.199982"/>
     <use xlink:href="#IBMPlexSans-Regular-6b" x="187.499969"/>
     <use xlink:href="#IBMPlexSans-Regular-20" x="240.199966"/>
     <use xlink:href="#IBMPlexSans-Regular-73" x="263.799957"/>
     <use xlink:href="#IBMPlexSans-Regular-74" x="312.499954"/>
     <use xlink:href="#IBMPlexSans-Regular-65" x="347.599945"/>
     <use xlink:href="#IBMPlexSans-Regular-70" x="402.499939"/>
     <use xlink:href="#IBMPlexSans-Regular-20" x="460.499924"/>
     <use xlink:href="#IBMPlexSans-Regular-28" x="484.099915"/>
     <use xlink:href="#IBMPlexSans-Regular-75" x="517.599899"/>
     <use xlink:href="#IBMPlexSans-Regular-6e" x="574.399887"/>
     <use xlink:href="#IBMPlexSans-Regular-66" x="631.199875"/>
     <use xlink:href="#IBMPlexSans-Regular-69" x="663.599869"/>
     <use xlink:href="#IBMPlexSans-Regular-6c" x="688.599854"/>
     <use xlink:href="#IBMPlexSans-Regular-6c" x="715.79985"/>
     <use xlink:href="#IBMPlexSans-Regular-65" x="742.999847"/>
     <use xlink:href="#IBMPlexSans-Regular-64" x="797.899841"/>
     <use xlink:href="#IBMPlexSans-Regular-29" x="855.899826"/>
    </g>
   </g>
  </g>
  <g id="axes_4">
   <g id="patch_83">
    <path d="M 491.80625 657.136 
L 902.619375 657.136 
L 902.619375 362.976 
L 491.80625 362.976 
L 491.80625 657.136 
z
" style="fill: none"/>
   </g>
   <g id="patch_84">
    <path d="M 510.479574 657.136 
L 520.641927 657.136 
L 520.641927 656.669856 
L 510.479574 656.669856 
z
" clip-path="url(#pf480c2a363)" style="fill: #2196f3"/>
   </g>
   <g id="patch_85">
    <path d="M 548.588398 657.136 
L 558.750751 657.136 
L 558.750751 653.593308 
L 548.588398 653.593308 
z
" clip-path="url(#pf480c2a363)" style="fill: #2196f3"/>
   </g>
   <g id="patch_86">
    <path d="M 586.697222 657.136 
L 596.859575 657.136 
L 596.859575 621.522619 
L 586.697222 621.522619 
z
" clip-path="url(#pf480c2a363)" style="fill: #2196f3"/>
   </g>
   <g id="patch_87">
    <path d="M 624.806046 657.136 
L 634.9684 657.136 
L 634.9684 512.631444 
L 624.806046 512.631444 
z
" clip-path="url(#pf480c2a363)" style="fill: #2196f3"/>
   </g>
   <g id="patch_88">
    <path d="M 662.914871 657.136 
L 673.077224 657.136 
L 673.077224 379.500795 
L 662.914871 379.500795 
z
" clip-path="url(#pf480c2a363)" style="fill: #2196f3"/>
   </g>
   <g id="patch_89">
    <path d="M 701.023695 657.136 
L 711.186048 657.136 
L 711.186048 376.983619 
L 701.023695 376.983619 
z
" clip-path="url(#pf480c2a363)" style="fill: #2196f3"/>
   </g>
   <g id="patch_90">
    <path d="M 739.132519 657.136 
L 749.294872 657.136 
L 749.294872 510.580412 
L 739.132519 510.580412 
z
" clip-path="url(#pf480c2a363)" style="fill: #2196f3"/>
   </g>
   <g id="patch_91">
    <path d="M 777.241343 657.136 
L 787.403696 657.136 
L 787.403696 618.073156 
L 777.241343 618.073156 
z
" clip-path="url(#pf480c2a363)" style="fill: #2196f3"/>
   </g>
   <g id="patch_92">
    <path d="M 815.350168 657.136 
L 825.512521 657.136 
L 825.512521 652.754249 
L 815.350168 652.754249 
z
" clip-path="url(#pf480c2a363)" style="fill: #2196f3"/>
   </g>
   <g id="patch_93">
    <path d="M 853.458992 657.136 
L 863.621345 657.136 
L 863.621345 656.763085 
L 853.458992 656.763085 
z
" clip-path="url(#pf480c2a363)" style="fill: #2196f3"/>
   </g>
   <g id="patch_94">
    <path d="M 520.641927 657.136 
L 530.80428 657.136 
L 530.80428 656.949543 
L 520.641927 656.949543 
z
" clip-path="url(#pf480c2a363)" style="fill: #ef5350"/>
   </g>
   <g id="patch_95">
    <path d="M 558.750751 657.136 
L 568.913104 657.136 
L 568.913104 654.432366 
L 558.750751 654.432366 
z
" clip-path="url(#pf480c2a363)" style="fill: #ef5350"/>
   </g>
   <g id="patch_96">
    <path d="M 596.859575 657.136 
L 607.021929 657.136 
L 607.021929 640.07514 
L 596.859575 640.07514 
z
" clip-path="url(#pf480c2a363)" style="fill: #ef5350"/>
   </g>
   <g id="patch_97">
    <path d="M 634.9684 657.136 
L 645.130753 657.136 
L 645.130753 585.909238 
L 634.9684 585.909238 
z
" clip-path="url(#pf480c2a363)" style="fill: #ef5350"/>
   </g>
   <g id="patch_98">
    <path d="M 673.077224 657.136 
L 683.239577 657.136 
L 683.239577 517.199653 
L 673.077224 517.199653 
z
" clip-path="url(#pf480c2a363)" style="fill: #ef5350"/>
   </g>
   <g id="patch_99">
    <path d="M 711.186048 657.136 
L 721.348401 657.136 
L 721.348401 515.614764 
L 711.186048 515.614764 
z
" clip-path="url(#pf480c2a363)" style="fill: #ef5350"/>
   </g>
   <g id="patch_100">
    <path d="M 749.294872 657.136 
L 759.457225 657.136 
L 759.457225 583.764977 
L 749.294872 583.764977 
z
" clip-path="url(#pf480c2a363)" style="fill: #ef5350"/>
   </g>
   <g id="patch_101">
    <path d="M 787.403696 657.136 
L 797.56605 657.136 
L 797.56605 638.769937 
L 787.403696 638.769937 
z
" clip-path="url(#pf480c2a363)" style="fill: #ef5350"/>
   </g>
   <g id="patch_102">
    <path d="M 825.512521 657.136 
L 835.674874 657.136 
L 835.674874 655.457883 
L 825.512521 655.457883 
z
" clip-path="url(#pf480c2a363)" style="fill: #ef5350"/>
   </g>
   <g id="patch_103">
    <path d="M 863.621345 657.136 
L 873.783698 657.136 
L 873.783698 657.042771 
L 863.621345 657.042771 
z
" clip-path="url(#pf480c2a363)" style="fill: #ef5350"/>
   </g>
   <g id="patch_104">
    <path d="M 530.80428 657.136 
L 540.966633 657.136 
L 540.966633 657.136 
L 530.80428 657.136 
z
" clip-path="url(#pf480c2a363)" style="fill: #4caf50"/>
   </g>
   <g id="patch_105">
    <path d="M 568.913104 657.136 
L 579.075457 657.136 
L 579.075457 656.110484 
L 568.913104 656.110484 
z
" clip-path="url(#pf480c2a363)" style="fill: #4caf50"/>
   </g>
   <g id="patch_106">
    <path d="M 607.021929 657.136 
L 617.184282 657.136 
L 617.184282 650.703217 
L 607.021929 650.703217 
z
" clip-path="url(#pf480c2a363)" style="fill: #4caf50"/>
   </g>
   <g id="patch_107">
    <path d="M 645.130753 657.136 
L 655.293106 657.136 
L 655.293106 626.090828 
L 645.130753 626.090828 
z
" clip-path="url(#pf480c2a363)" style="fill: #4caf50"/>
   </g>
   <g id="patch_108">
    <path d="M 683.239577 657.136 
L 693.40193 657.136 
L 693.40193 605.11436 
L 683.239577 605.11436 
z
" clip-path="url(#pf480c2a363)" style="fill: #4caf50"/>
   </g>
   <g id="patch_109">
    <path d="M 721.348401 657.136 
L 731.510754 657.136 
L 731.510754 601.198753 
L 721.348401 601.198753 
z
" clip-path="url(#pf480c2a363)" style="fill: #4caf50"/>
   </g>
   <g id="patch_110">
    <path d="M 759.457225 657.136 
L 769.619579 657.136 
L 769.619579 625.531455 
L 759.457225 625.531455 
z
" clip-path="url(#pf480c2a363)" style="fill: #4caf50"/>
   </g>
   <g id="patch_111">
    <path d="M 797.56605 657.136 
L 807.728403 657.136 
L 807.728403 649.491243 
L 797.56605 649.491243 
z
" clip-path="url(#pf480c2a363)" style="fill: #4caf50"/>
   </g>
   <g id="patch_112">
    <path d="M 835.674874 657.136 
L 845.837227 657.136 
L 845.837227 656.483399 
L 835.674874 656.483399 
z
" clip-path="url(#pf480c2a363)" style="fill: #4caf50"/>
   </g>
   <g id="patch_113">
    <path d="M 873.783698 657.136 
L 883.946051 657.136 
L 883.946051 657.042771 
L 873.783698 657.042771 
z
" clip-path="url(#pf480c2a363)" style="fill: #4caf50"/>
   </g>
   <g id="matplotlib.axis_7">
    <g id="xtick_25">
     <g id="line2d_95">
      <path d="M 519.052113 657.136 
L 519.052113 362.976 
" clip-path="url(#pf480c2a363)" style="fill: none; stroke-dasharray: 1.48,0.64; stroke-dashoffset: 0; stroke: #838383; stroke-opacity: 0.25; stroke-width: 0.4"/>
     </g>
     <g id="line2d_96"/>
     <g id="text_54">
      <!-- −4 -->
      <g style="fill: #838383" transform="translate(511.852113 669.516) scale(0.12 -0.12)">
       <use xlink:href="#IBMPlexSans-Regular-2212"/>
       <use xlink:href="#IBMPlexSans-Regular-34" x="59.999985"/>
      </g>
     </g>
    </g>
    <g id="xtick_26">
     <g id="line2d_97">
      <path d="M 608.664641 657.136 
L 608.664641 362.976 
" clip-path="url(#pf480c2a363)" style="fill: none; stroke-dasharray: 1.48,0.64; stroke-dashoffset: 0; stroke: #838383; stroke-opacity: 0.25; stroke-width: 0.4"/>
     </g>
     <g id="line2d_98"/>
     <g id="text_55">
      <!-- −2 -->
      <g style="fill: #838383" transform="translate(601.464641 669.516) scale(0.12 -0.12)">
       <use xlink:href="#IBMPlexSans-Regular-2212"/>
       <use xlink:href="#IBMPlexSans-Regular-32" x="59.999985"/>
      </g>
     </g>
    </g>
    <g id="xtick_27">
     <g id="line2d_99">
      <path d="M 698.277169 657.136 
L 698.277169 362.976 
" clip-path="url(#pf480c2a363)" style="fill: none; stroke-dasharray: 1.48,0.64; stroke-dashoffset: 0; stroke: #838383; stroke-opacity: 0.25; stroke-width: 0.4"/>
     </g>
     <g id="line2d_100"/>
     <g id="text_56">
      <!-- 0 -->
      <g style="fill: #838383" transform="translate(694.677169 669.516) scale(0.12 -0.12)">
       <use xlink:href="#IBMPlexSans-Regular-30"/>
      </g>
     </g>
    </g>
    <g id="xtick_28">
     <g id="line2d_101">
      <path d="M 787.889697 657.136 
L 787.889697 362.976 
" clip-path="url(#pf480c2a363)" style="fill: none; stroke-dasharray: 1.48,0.64; stroke-dashoffset: 0; stroke: #838383; stroke-opacity: 0.25; stroke-width: 0.4"/>
     </g>
     <g id="line2d_102"/>
     <g id="text_57">
      <!-- 2 -->
      <g style="fill: #838383" transform="translate(784.289697 669.516) scale(0.12 -0.12)">
       <use xlink:href="#IBMPlexSans-Regular-32"/>
      </g>
     </g>
    </g>
    <g id="xtick_29">
     <g id="line2d_103">
      <path d="M 877.502225 657.136 
L 877.502225 362.976 
" clip-path="url(#pf480c2a363)" style="fill: none; stroke-dasharray: 1.48,0.64; stroke-dashoffset: 0; stroke: #838383; stroke-opacity: 0.25; stroke-width: 0.4"/>
     </g>
     <g id="line2d_104"/>
     <g id="text_58">
      <!-- 4 -->
      <g style="fill: #838383" transform="translate(873.902225 669.516) scale(0.12 -0.12)">
       <use xlink:href="#IBMPlexSans-Regular-34"/>
      </g>
     </g>
    </g>
   </g>
   <g id="matplotlib.axis_8">
    <g id="ytick_24">
     <g id="line2d_105">
      <path d="M 491.80625 657.136 
L 902.619375 657.136 
" clip-path="url(#pf480c2a363)" style="fill: none; stroke-dasharray: 1.48,0.64; stroke-dashoffset: 0; stroke: #838383; stroke-opacity: 0.25; stroke-width: 0.4"/>
     </g>
     <g id="line2d_106"/>
     <g id="text_59">
      <!-- 0 -->
      <g style="fill: #838383" transform="translate(481.10625 661.576) scale(0.12 -0.12)">
       <use xlink:href="#IBMPlexSans-Regular-30"/>
      </g>
     </g>
    </g>
    <g id="ytick_25">
     <g id="line2d_107">
      <path d="M 491.80625 610.521627 
L 902.619375 610.521627 
" clip-path="url(#pf480c2a363)" style="fill: none; stroke-dasharray: 1.48,0.64; stroke-dashoffset: 0; stroke: #838383; stroke-opacity: 0.25; stroke-width: 0.4"/>
     </g>
     <g id="line2d_108"/>
     <g id="text_60">
      <!-- 500 -->
      <g style="fill: #838383" transform="translate(466.70625 614.961627) scale(0.12 -0.12)">
       <use xlink:href="#IBMPlexSans-Regular-35"/>
       <use xlink:href="#IBMPlexSans-Regular-30" x="59.999985"/>
       <use xlink:href="#IBMPlexSans-Regular-30" x="119.999969"/>
      </g>
     </g>
    </g>
    <g id="ytick_26">
     <g id="line2d_109">
      <path d="M 491.80625 563.907254 
L 902.619375 563.907254 
" clip-path="url(#pf480c2a363)" style="fill: none; stroke-dasharray: 1.48,0.64; stroke-dashoffset: 0; stroke: #838383; stroke-opacity: 0.25; stroke-width: 0.4"/>
     </g>
     <g id="line2d_110"/>
     <g id="text_61">
      <!-- 1000 -->
      <g style="fill: #838383" transform="translate(459.50625 568.347254) scale(0.12 -0.12)">
       <use xlink:href="#IBMPlexSans-Regular-31"/>
       <use xlink:href="#IBMPlexSans-Regular-30" x="59.999985"/>
       <use xlink:href="#IBMPlexSans-Regular-30" x="119.999969"/>
       <use xlink:href="#IBMPlexSans-Regular-30" x="179.999954"/>
      </g>
     </g>
    </g>
    <g id="ytick_27">
     <g id="line2d_111">
      <path d="M 491.80625 517.292881 
L 902.619375 517.292881 
" clip-path="url(#pf480c2a363)" style="fill: none; stroke-dasharray: 1.48,0.64; stroke-dashoffset: 0; stroke: #838383; stroke-opacity: 0.25; stroke-width: 0.4"/>
     </g>
     <g id="line2d_112"/>
     <g id="text_62">
      <!-- 1500 -->
      <g style="fill: #838383" transform="translate(459.50625 521.732881) scale(0.12 -0.12)">
       <use xlink:href="#IBMPlexSans-Regular-31"/>
       <use xlink:href="#IBMPlexSans-Regular-35" x="59.999985"/>
       <use xlink:href="#IBMPlexSans-Regular-30" x="119.999969"/>
       <use xlink:href="#IBMPlexSans-Regular-30" x="179.999954"/>
      </g>
     </g>
    </g>
    <g id="ytick_28">
     <g id="line2d_113">
      <path d="M 491.80625 470.678509 
L 902.619375 470.678509 
" clip-path="url(#pf480c2a363)" style="fill: none; stroke-dasharray: 1.48,0.64; stroke-dashoffset: 0; stroke: #838383; stroke-opacity: 0.25; stroke-width: 0.4"/>
     </g>
     <g id="line2d_114"/>
     <g id="text_63">
      <!-- 2000 -->
      <g style="fill: #838383" transform="translate(459.50625 475.118509) scale(0.12 -0.12)">
       <use xlink:href="#IBMPlexSans-Regular-32"/>
       <use xlink:href="#IBMPlexSans-Regular-30" x="59.999985"/>
       <use xlink:href="#IBMPlexSans-Regular-30" x="119.999969"/>
       <use xlink:href="#IBMPlexSans-Regular-30" x="179.999954"/>
      </g>
     </g>
    </g>
    <g id="ytick_29">
     <g id="line2d_115">
      <path d="M 491.80625 424.064136 
L 902.619375 424.064136 
" clip-path="url(#pf480c2a363)" style="fill: none; stroke-dasharray: 1.48,0.64; stroke-dashoffset: 0; stroke: #838383; stroke-opacity: 0.25; stroke-width: 0.4"/>
     </g>
     <g id="line2d_116"/>
     <g id="text_64">
      <!-- 2500 -->
      <g style="fill: #838383" transform="translate(459.50625 428.504136) scale(0.12 -0.12)">
       <use xlink:href="#IBMPlexSans-Regular-32"/>
       <use xlink:href="#IBMPlexSans-Regular-35" x="59.999985"/>
       <use xlink:href="#IBMPlexSans-Regular-30" x="119.999969"/>
       <use xlink:href="#IBMPlexSans-Regular-30" x="179.999954"/>
      </g>
     </g>
    </g>
    <g id="ytick_30">
     <g id="line2d_117">
      <path d="M 491.80625 377.449763 
L 902.619375 377.449763 
" clip-path="url(#pf480c2a363)" style="fill: none; stroke-dasharray: 1.48,0.64; stroke-dashoffset: 0; stroke: #838383; stroke-opacity: 0.25; stroke-width: 0.4"/>
     </g>
     <g id="line2d_118"/>
     <g id="text_65">
      <!-- 3000 -->
      <g style="fill: #838383" transform="translate(459.50625 381.889763) scale(0.12 -0.12)">
       <use xlink:href="#IBMPlexSans-Regular-33"/>
       <use xlink:href="#IBMPlexSans-Regular-30" x="59.999985"/>
       <use xlink:href="#IBMPlexSans-Regular-30" x="119.999969"/>
       <use xlink:href="#IBMPlexSans-Regular-30" x="179.999954"/>
      </g>
     </g>
    </g>
   </g>
   <g id="patch_114">
    <path d="M 491.80625 657.136 
L 491.80625 362.976 
" style="fill: none"/>
   </g>
   <g id="patch_115">
    <path d="M 902.619375 657.136 
L 902.619375 362.976 
" style="fill: none"/>
   </g>
   <g id="patch_116">
    <path d="M 491.80625 657.136 
L 902.619375 657.136 
" style="fill: none"/>
   </g>
   <g id="patch_117">
    <path d="M 491.80625 362.976 
L 902.619375 362.976 
" style="fill: none"/>
   </g>
   <g id="text_66">
    <!-- different sample sizes -->
    <g style="fill: #838383" transform="translate(626.174687 356.976) scale(0.144 -0.144)">
     <defs>
      <path id="IBMPlexSans-Regular-6d" d="M 544 0 
L 544 3302 
L 1056 3302 
L 1056 2765 
L 1082 2765 
Q 1139 2893 1212 3005 
Q 1286 3117 1392 3200 
Q 1498 3283 1638 3331 
Q 1779 3379 1971 3379 
Q 2298 3379 2573 3222 
Q 2848 3066 2982 2707 
L 2995 2707 
Q 3085 2976 3331 3177 
Q 3578 3379 4000 3379 
Q 4506 3379 4790 3049 
Q 5075 2720 5075 2118 
L 5075 0 
L 4563 0 
L 4563 2029 
Q 4563 2470 4390 2694 
Q 4218 2918 3840 2918 
Q 3686 2918 3548 2880 
Q 3411 2842 3302 2765 
Q 3194 2688 3130 2569 
Q 3066 2451 3066 2291 
L 3066 0 
L 2554 0 
L 2554 2029 
Q 2554 2470 2381 2694 
Q 2208 2918 1843 2918 
Q 1690 2918 1549 2880 
Q 1408 2842 1299 2765 
Q 1190 2688 1123 2569 
Q 1056 2451 1056 2291 
L 1056 0 
L 544 0 
z
" transform="scale(0.015625)"/>
      <path id="IBMPlexSans-Regular-7a" d="M 211 0 
L 211 429 
L 2086 2854 
L 269 2854 
L 269 3302 
L 2707 3302 
L 2707 2918 
L 794 448 
L 2758 448 
L 2758 0 
L 211 0 
z
" transform="scale(0.015625)"/>
     </defs>
     <use xlink:href="#IBMPlexSans-Regular-64"/>
     <use xlink:href="#IBMPlexSans-Regular-69" x="57.999985"/>
     <use xlink:href="#IBMPlexSans-Regular-66" x="82.999969"/>
     <use xlink:href="#IBMPlexSans-Regular-66" x="115.399963"/>
     <use xlink:href="#IBMPlexSans-Regular-65" x="147.799957"/>
     <use xlink:href="#IBMPlexSans-Regular-72" x="202.699951"/>
     <use xlink:href="#IBMPlexSans-Regular-65" x="239.399948"/>
     <use xlink:href="#IBMPlexSans-Regular-6e" x="294.299942"/>
     <use xlink:href="#IBMPlexSans-Regular-74" x="351.09993"/>
     <use xlink:href="#IBMPlexSans-Regular-20" x="386.199921"/>
     <use xlink:href="#IBMPlexSans-Regular-73" x="409.799911"/>
     <use xlink:href="#IBMPlexSans-Regular-61" x="458.499908"/>
     <use xlink:href="#IBMPlexSans-Regular-6d" x="511.899902"/>
     <use xlink:href="#IBMPlexSans-Regular-70" x="599.19989"/>
     <use xlink:href="#IBMPlexSans-Regular-6c" x="657.199875"/>
     <use xlink:href="#IBMPlexSans-Regular-65" x="684.399872"/>
     <use xlink:href="#IBMPlexSans-Regular-20" x="739.299866"/>
     <use xlink:href="#IBMPlexSans-Regular-73" x="762.899857"/>
     <use xlink:href="#IBMPlexSans-Regular-69" x="811.599854"/>
     <use xlink:href="#IBMPlexSans-Regular-7a" x="836.599838"/>
     <use xlink:href="#IBMPlexSans-Regular-65" x="882.999832"/>
     <use xlink:href="#IBMPlexSans-Regular-73" x="937.899826"/>
    </g>
   </g>
  </g>
 </g>
 <defs>
  <clipPath id="p251b549164">
   <rect x="35.564375" y="23.856" width="410.813125" height="294.16"/>
  </clipPath>
  <clipPath id="p2322710a0d">
   <rect x="491.80625" y="23.856" width="410.813125" height="294.16"/>
  </clipPath>
  <clipPath id="p8979d34a79">
   <rect x="35.564375" y="362.976" width="410.813125" height="294.16"/>
  </clipPath>
  <clipPath id="pf480c2a363">
   <rect x="491.80625" y="362.976" width="410.813125" height="294.16"/>
  </clipPath>
 </defs>
</svg>
