<?xml version="1.0" encoding="utf-8" standalone="no"?>
<!DOCTYPE svg PUBLIC "-//W3C//DTD SVG 1.1//EN"
  "http://www.w3.org/Graphics/SVG/1.1/DTD/svg11.dtd">
<svg xmlns:xlink="http://www.w3.org/1999/xlink" width="910.11pt" height="679.7355pt" viewBox="0 0 910.11 679.7355" xmlns="http://www.w3.org/2000/svg" version="1.1">
 <metadata>
  <rdf:RDF xmlns:dc="http://purl.org/dc/elements/1.1/" xmlns:cc="http://creativecommons.org/ns#" xmlns:rdf="http://www.w3.org/1999/02/22-rdf-syntax-ns#">
   <cc:Work>
    <dc:type rdf:resource="http://purl.org/dc/dcmitype/StillImage"/>
    <dc:date>2024-05-13T20:19:30.497984</dc:date>
    <dc:format>image/svg+xml</dc:format>
    <dc:creator>
     <cc:Agent>
      <dc:title>Matplotlib v3.8.4, https://matplotlib.org/</dc:title>
     </cc:Agent>
    </dc:creator>
   </cc:Work>
  </rdf:RDF>
 </metadata>
 <defs>
  <style type="text/css">*{stroke-linejoin: round; stroke-linecap: butt}</style>
 </defs>
 <g id="figure_1">
  <g id="patch_1">
   <path d="M 0 679.7355 
L 910.11 679.7355 
L 910.11 0 
L 0 0 
L 0 679.7355 
z
" style="fill: none"/>
  </g>
  <g id="axes_1">
   <g id="patch_2">
    <path d="M 33.605 318.30175 
L 444.793125 318.30175 
L 444.793125 24.14175 
L 33.605 24.14175 
L 33.605 318.30175 
z
" style="fill: none"/>
   </g>
   <g id="patch_3">
    <path d="M 52.295369 318.30175 
L 62.466999 318.30175 
L 62.466999 315.471928 
L 52.295369 315.471928 
z
" clip-path="url(#p0e48f8fd48)" style="fill: #333333"/>
   </g>
   <g id="patch_4">
    <path d="M 90.43898 318.30175 
L 100.61061 318.30175 
L 100.61061 297.549722 
L 90.43898 297.549722 
z
" clip-path="url(#p0e48f8fd48)" style="fill: #333333"/>
   </g>
   <g id="patch_5">
    <path d="M 128.582591 318.30175 
L 138.754221 318.30175 
L 138.754221 235.293637 
L 128.582591 235.293637 
z
" clip-path="url(#p0e48f8fd48)" style="fill: #333333"/>
   </g>
   <g id="patch_6">
    <path d="M 166.726202 318.30175 
L 176.897831 318.30175 
L 176.897831 158.888442 
L 166.726202 158.888442 
z
" clip-path="url(#p0e48f8fd48)" style="fill: #333333"/>
   </g>
   <g id="patch_7">
    <path d="M 204.869813 318.30175 
L 215.041442 318.30175 
L 215.041442 62.674493 
L 204.869813 62.674493 
z
" clip-path="url(#p0e48f8fd48)" style="fill: #333333"/>
   </g>
   <g id="patch_8">
    <path d="M 243.013424 318.30175 
L 253.185053 318.30175 
L 253.185053 95.689084 
L 243.013424 95.689084 
z
" clip-path="url(#p0e48f8fd48)" style="fill: #333333"/>
   </g>
   <g id="patch_9">
    <path d="M 281.157034 318.30175 
L 291.328664 318.30175 
L 291.328664 186.243389 
L 281.157034 186.243389 
z
" clip-path="url(#p0e48f8fd48)" style="fill: #333333"/>
   </g>
   <g id="patch_10">
    <path d="M 319.300645 318.30175 
L 329.472275 318.30175 
L 329.472275 265.478405 
L 319.300645 265.478405 
z
" clip-path="url(#p0e48f8fd48)" style="fill: #333333"/>
   </g>
   <g id="patch_11">
    <path d="M 357.444256 318.30175 
L 367.615886 318.30175 
L 367.615886 306.982462 
L 357.444256 306.982462 
z
" clip-path="url(#p0e48f8fd48)" style="fill: #333333"/>
   </g>
   <g id="patch_12">
    <path d="M 395.587867 318.30175 
L 405.759497 318.30175 
L 405.759497 315.471928 
L 395.587867 315.471928 
z
" clip-path="url(#p0e48f8fd48)" style="fill: #333333"/>
   </g>
   <g id="patch_13">
    <path d="M 62.466999 318.30175 
L 72.638628 318.30175 
L 72.638628 315.471928 
L 62.466999 315.471928 
z
" clip-path="url(#p0e48f8fd48)" style="fill: #666666"/>
   </g>
   <g id="patch_14">
    <path d="M 100.61061 318.30175 
L 110.782239 318.30175 
L 110.782239 295.663174 
L 100.61061 295.663174 
z
" clip-path="url(#p0e48f8fd48)" style="fill: #666666"/>
   </g>
   <g id="patch_15">
    <path d="M 138.754221 318.30175 
L 148.92585 318.30175 
L 148.92585 235.293637 
L 138.754221 235.293637 
z
" clip-path="url(#p0e48f8fd48)" style="fill: #666666"/>
   </g>
   <g id="patch_16">
    <path d="M 176.897831 318.30175 
L 187.069461 318.30175 
L 187.069461 148.512428 
L 176.897831 148.512428 
z
" clip-path="url(#p0e48f8fd48)" style="fill: #666666"/>
   </g>
   <g id="patch_17">
    <path d="M 215.041442 318.30175 
L 225.213072 318.30175 
L 225.213072 54.185027 
L 215.041442 54.185027 
z
" clip-path="url(#p0e48f8fd48)" style="fill: #666666"/>
   </g>
   <g id="patch_18">
    <path d="M 253.185053 318.30175 
L 263.356683 318.30175 
L 263.356683 107.008372 
L 253.185053 107.008372 
z
" clip-path="url(#p0e48f8fd48)" style="fill: #666666"/>
   </g>
   <g id="patch_19">
    <path d="M 291.328664 318.30175 
L 301.500294 318.30175 
L 301.500294 177.753923 
L 291.328664 177.753923 
z
" clip-path="url(#p0e48f8fd48)" style="fill: #666666"/>
   </g>
   <g id="patch_20">
    <path d="M 329.472275 318.30175 
L 339.643904 318.30175 
L 339.643904 278.684242 
L 329.472275 278.684242 
z
" clip-path="url(#p0e48f8fd48)" style="fill: #666666"/>
   </g>
   <g id="patch_21">
    <path d="M 367.615886 318.30175 
L 377.787515 318.30175 
L 377.787515 311.698832 
L 367.615886 311.698832 
z
" clip-path="url(#p0e48f8fd48)" style="fill: #666666"/>
   </g>
   <g id="patch_22">
    <path d="M 405.759497 318.30175 
L 415.931126 318.30175 
L 415.931126 315.471928 
L 405.759497 315.471928 
z
" clip-path="url(#p0e48f8fd48)" style="fill: #666666"/>
   </g>
   <g id="patch_23">
    <path d="M 72.638628 318.30175 
L 82.810258 318.30175 
L 82.810258 315.471928 
L 72.638628 315.471928 
z
" clip-path="url(#p0e48f8fd48)" style="fill: #999999"/>
   </g>
   <g id="patch_24">
    <path d="M 110.782239 318.30175 
L 120.953869 318.30175 
L 120.953869 293.776626 
L 110.782239 293.776626 
z
" clip-path="url(#p0e48f8fd48)" style="fill: #999999"/>
   </g>
   <g id="patch_25">
    <path d="M 148.92585 318.30175 
L 159.09748 318.30175 
L 159.09748 230.577267 
L 148.92585 230.577267 
z
" clip-path="url(#p0e48f8fd48)" style="fill: #999999"/>
   </g>
   <g id="patch_26">
    <path d="M 187.069461 318.30175 
L 197.241091 318.30175 
L 197.241091 167.377908 
L 187.069461 167.377908 
z
" clip-path="url(#p0e48f8fd48)" style="fill: #999999"/>
   </g>
   <g id="patch_27">
    <path d="M 225.213072 318.30175 
L 235.384701 318.30175 
L 235.384701 38.149369 
L 225.213072 38.149369 
z
" clip-path="url(#p0e48f8fd48)" style="fill: #999999"/>
   </g>
   <g id="patch_28">
    <path d="M 263.356683 318.30175 
L 273.528312 318.30175 
L 273.528312 111.724742 
L 263.356683 111.724742 
z
" clip-path="url(#p0e48f8fd48)" style="fill: #999999"/>
   </g>
   <g id="patch_29">
    <path d="M 301.500294 318.30175 
L 311.671923 318.30175 
L 311.671923 186.243389 
L 301.500294 186.243389 
z
" clip-path="url(#p0e48f8fd48)" style="fill: #999999"/>
   </g>
   <g id="patch_30">
    <path d="M 339.643904 318.30175 
L 349.815534 318.30175 
L 349.815534 267.364953 
L 339.643904 267.364953 
z
" clip-path="url(#p0e48f8fd48)" style="fill: #999999"/>
   </g>
   <g id="patch_31">
    <path d="M 377.787515 318.30175 
L 387.959145 318.30175 
L 387.959145 312.642106 
L 377.787515 312.642106 
z
" clip-path="url(#p0e48f8fd48)" style="fill: #999999"/>
   </g>
   <g id="patch_32">
    <path d="M 415.931126 318.30175 
L 426.102756 318.30175 
L 426.102756 316.415202 
L 415.931126 316.415202 
z
" clip-path="url(#p0e48f8fd48)" style="fill: #999999"/>
   </g>
   <g id="matplotlib.axis_1">
    <g id="xtick_1">
     <g id="line2d_1">
      <path d="M 64.498154 318.30175 
L 64.498154 24.14175 
" clip-path="url(#p0e48f8fd48)" style="fill: none; stroke-dasharray: 1.48,0.64; stroke-dashoffset: 0; stroke: #838383; stroke-opacity: 0.25; stroke-width: 0.4"/>
     </g>
     <g id="line2d_2"/>
     <g id="text_1">
      <!-- −3 -->
      <g style="fill: #838383" transform="translate(55.652841 330.919875) scale(0.12 -0.12)">
       <defs>
        <path id="DejaVuSans-2212" d="M 678 2272 
L 4684 2272 
L 4684 1741 
L 678 1741 
L 678 2272 
z
" transform="scale(0.015625)"/>
        <path id="DejaVuSans-33" d="M 2597 2516 
Q 3050 2419 3304 2112 
Q 3559 1806 3559 1356 
Q 3559 666 3084 287 
Q 2609 -91 1734 -91 
Q 1441 -91 1130 -33 
Q 819 25 488 141 
L 488 750 
Q 750 597 1062 519 
Q 1375 441 1716 441 
Q 2309 441 2620 675 
Q 2931 909 2931 1356 
Q 2931 1769 2642 2001 
Q 2353 2234 1838 2234 
L 1294 2234 
L 1294 2753 
L 1863 2753 
Q 2328 2753 2575 2939 
Q 2822 3125 2822 3475 
Q 2822 3834 2567 4026 
Q 2313 4219 1838 4219 
Q 1578 4219 1281 4162 
Q 984 4106 628 3988 
L 628 4550 
Q 988 4650 1302 4700 
Q 1616 4750 1894 4750 
Q 2613 4750 3031 4423 
Q 3450 4097 3450 3541 
Q 3450 3153 3228 2886 
Q 3006 2619 2597 2516 
z
" transform="scale(0.015625)"/>
       </defs>
       <use xlink:href="#DejaVuSans-2212"/>
       <use xlink:href="#DejaVuSans-33" x="83.789062"/>
      </g>
     </g>
    </g>
    <g id="xtick_2">
     <g id="line2d_3">
      <path d="M 119.81956 318.30175 
L 119.81956 24.14175 
" clip-path="url(#p0e48f8fd48)" style="fill: none; stroke-dasharray: 1.48,0.64; stroke-dashoffset: 0; stroke: #838383; stroke-opacity: 0.25; stroke-width: 0.4"/>
     </g>
     <g id="line2d_4"/>
     <g id="text_2">
      <!-- −2 -->
      <g style="fill: #838383" transform="translate(110.974247 330.919875) scale(0.12 -0.12)">
       <defs>
        <path id="DejaVuSans-32" d="M 1228 531 
L 3431 531 
L 3431 0 
L 469 0 
L 469 531 
Q 828 903 1448 1529 
Q 2069 2156 2228 2338 
Q 2531 2678 2651 2914 
Q 2772 3150 2772 3378 
Q 2772 3750 2511 3984 
Q 2250 4219 1831 4219 
Q 1534 4219 1204 4116 
Q 875 4013 500 3803 
L 500 4441 
Q 881 4594 1212 4672 
Q 1544 4750 1819 4750 
Q 2544 4750 2975 4387 
Q 3406 4025 3406 3419 
Q 3406 3131 3298 2873 
Q 3191 2616 2906 2266 
Q 2828 2175 2409 1742 
Q 1991 1309 1228 531 
z
" transform="scale(0.015625)"/>
       </defs>
       <use xlink:href="#DejaVuSans-2212"/>
       <use xlink:href="#DejaVuSans-32" x="83.789062"/>
      </g>
     </g>
    </g>
    <g id="xtick_3">
     <g id="line2d_5">
      <path d="M 175.140966 318.30175 
L 175.140966 24.14175 
" clip-path="url(#p0e48f8fd48)" style="fill: none; stroke-dasharray: 1.48,0.64; stroke-dashoffset: 0; stroke: #838383; stroke-opacity: 0.25; stroke-width: 0.4"/>
     </g>
     <g id="line2d_6"/>
     <g id="text_3">
      <!-- −1 -->
      <g style="fill: #838383" transform="translate(166.295653 330.919875) scale(0.12 -0.12)">
       <defs>
        <path id="DejaVuSans-31" d="M 794 531 
L 1825 531 
L 1825 4091 
L 703 3866 
L 703 4441 
L 1819 4666 
L 2450 4666 
L 2450 531 
L 3481 531 
L 3481 0 
L 794 0 
L 794 531 
z
" transform="scale(0.015625)"/>
       </defs>
       <use xlink:href="#DejaVuSans-2212"/>
       <use xlink:href="#DejaVuSans-31" x="83.789062"/>
      </g>
     </g>
    </g>
    <g id="xtick_4">
     <g id="line2d_7">
      <path d="M 230.462372 318.30175 
L 230.462372 24.14175 
" clip-path="url(#p0e48f8fd48)" style="fill: none; stroke-dasharray: 1.48,0.64; stroke-dashoffset: 0; stroke: #838383; stroke-opacity: 0.25; stroke-width: 0.4"/>
     </g>
     <g id="line2d_8"/>
     <g id="text_4">
      <!-- 0 -->
      <g style="fill: #838383" transform="translate(226.644872 330.919875) scale(0.12 -0.12)">
       <defs>
        <path id="DejaVuSans-30" d="M 2034 4250 
Q 1547 4250 1301 3770 
Q 1056 3291 1056 2328 
Q 1056 1369 1301 889 
Q 1547 409 2034 409 
Q 2525 409 2770 889 
Q 3016 1369 3016 2328 
Q 3016 3291 2770 3770 
Q 2525 4250 2034 4250 
z
M 2034 4750 
Q 2819 4750 3233 4129 
Q 3647 3509 3647 2328 
Q 3647 1150 3233 529 
Q 2819 -91 2034 -91 
Q 1250 -91 836 529 
Q 422 1150 422 2328 
Q 422 3509 836 4129 
Q 1250 4750 2034 4750 
z
" transform="scale(0.015625)"/>
       </defs>
       <use xlink:href="#DejaVuSans-30"/>
      </g>
     </g>
    </g>
    <g id="xtick_5">
     <g id="line2d_9">
      <path d="M 285.783778 318.30175 
L 285.783778 24.14175 
" clip-path="url(#p0e48f8fd48)" style="fill: none; stroke-dasharray: 1.48,0.64; stroke-dashoffset: 0; stroke: #838383; stroke-opacity: 0.25; stroke-width: 0.4"/>
     </g>
     <g id="line2d_10"/>
     <g id="text_5">
      <!-- 1 -->
      <g style="fill: #838383" transform="translate(281.966278 330.919875) scale(0.12 -0.12)">
       <use xlink:href="#DejaVuSans-31"/>
      </g>
     </g>
    </g>
    <g id="xtick_6">
     <g id="line2d_11">
      <path d="M 341.105184 318.30175 
L 341.105184 24.14175 
" clip-path="url(#p0e48f8fd48)" style="fill: none; stroke-dasharray: 1.48,0.64; stroke-dashoffset: 0; stroke: #838383; stroke-opacity: 0.25; stroke-width: 0.4"/>
     </g>
     <g id="line2d_12"/>
     <g id="text_6">
      <!-- 2 -->
      <g style="fill: #838383" transform="translate(337.287684 330.919875) scale(0.12 -0.12)">
       <use xlink:href="#DejaVuSans-32"/>
      </g>
     </g>
    </g>
    <g id="xtick_7">
     <g id="line2d_13">
      <path d="M 396.42659 318.30175 
L 396.42659 24.14175 
" clip-path="url(#p0e48f8fd48)" style="fill: none; stroke-dasharray: 1.48,0.64; stroke-dashoffset: 0; stroke: #838383; stroke-opacity: 0.25; stroke-width: 0.4"/>
     </g>
     <g id="line2d_14"/>
     <g id="text_7">
      <!-- 3 -->
      <g style="fill: #838383" transform="translate(392.60909 330.919875) scale(0.12 -0.12)">
       <use xlink:href="#DejaVuSans-33"/>
      </g>
     </g>
    </g>
   </g>
   <g id="matplotlib.axis_2">
    <g id="ytick_1">
     <g id="line2d_15">
      <path d="M 33.605 318.30175 
L 444.793125 318.30175 
" clip-path="url(#p0e48f8fd48)" style="fill: none; stroke-dasharray: 1.48,0.64; stroke-dashoffset: 0; stroke: #838383; stroke-opacity: 0.25; stroke-width: 0.4"/>
     </g>
     <g id="line2d_16"/>
     <g id="text_8">
      <!-- 0.0 -->
      <g style="fill: #838383" transform="translate(11.02125 322.860812) scale(0.12 -0.12)">
       <defs>
        <path id="DejaVuSans-2e" d="M 684 794 
L 1344 794 
L 1344 0 
L 684 0 
L 684 794 
z
" transform="scale(0.015625)"/>
       </defs>
       <use xlink:href="#DejaVuSans-30"/>
       <use xlink:href="#DejaVuSans-2e" x="63.623047"/>
       <use xlink:href="#DejaVuSans-30" x="95.410156"/>
      </g>
     </g>
    </g>
    <g id="ytick_2">
     <g id="line2d_17">
      <path d="M 33.605 253.263857 
L 444.793125 253.263857 
" clip-path="url(#p0e48f8fd48)" style="fill: none; stroke-dasharray: 1.48,0.64; stroke-dashoffset: 0; stroke: #838383; stroke-opacity: 0.25; stroke-width: 0.4"/>
     </g>
     <g id="line2d_18"/>
     <g id="text_9">
      <!-- 0.1 -->
      <g style="fill: #838383" transform="translate(11.02125 257.82292) scale(0.12 -0.12)">
       <use xlink:href="#DejaVuSans-30"/>
       <use xlink:href="#DejaVuSans-2e" x="63.623047"/>
       <use xlink:href="#DejaVuSans-31" x="95.410156"/>
      </g>
     </g>
    </g>
    <g id="ytick_3">
     <g id="line2d_19">
      <path d="M 33.605 188.225964 
L 444.793125 188.225964 
" clip-path="url(#p0e48f8fd48)" style="fill: none; stroke-dasharray: 1.48,0.64; stroke-dashoffset: 0; stroke: #838383; stroke-opacity: 0.25; stroke-width: 0.4"/>
     </g>
     <g id="line2d_20"/>
     <g id="text_10">
      <!-- 0.2 -->
      <g style="fill: #838383" transform="translate(11.02125 192.785027) scale(0.12 -0.12)">
       <use xlink:href="#DejaVuSans-30"/>
       <use xlink:href="#DejaVuSans-2e" x="63.623047"/>
       <use xlink:href="#DejaVuSans-32" x="95.410156"/>
      </g>
     </g>
    </g>
    <g id="ytick_4">
     <g id="line2d_21">
      <path d="M 33.605 123.188071 
L 444.793125 123.188071 
" clip-path="url(#p0e48f8fd48)" style="fill: none; stroke-dasharray: 1.48,0.64; stroke-dashoffset: 0; stroke: #838383; stroke-opacity: 0.25; stroke-width: 0.4"/>
     </g>
     <g id="line2d_22"/>
     <g id="text_11">
      <!-- 0.3 -->
      <g style="fill: #838383" transform="translate(11.02125 127.747134) scale(0.12 -0.12)">
       <use xlink:href="#DejaVuSans-30"/>
       <use xlink:href="#DejaVuSans-2e" x="63.623047"/>
       <use xlink:href="#DejaVuSans-33" x="95.410156"/>
      </g>
     </g>
    </g>
    <g id="ytick_5">
     <g id="line2d_23">
      <path d="M 33.605 58.150179 
L 444.793125 58.150179 
" clip-path="url(#p0e48f8fd48)" style="fill: none; stroke-dasharray: 1.48,0.64; stroke-dashoffset: 0; stroke: #838383; stroke-opacity: 0.25; stroke-width: 0.4"/>
     </g>
     <g id="line2d_24"/>
     <g id="text_12">
      <!-- 0.4 -->
      <g style="fill: #838383" transform="translate(11.02125 62.709241) scale(0.12 -0.12)">
       <defs>
        <path id="DejaVuSans-34" d="M 2419 4116 
L 825 1625 
L 2419 1625 
L 2419 4116 
z
M 2253 4666 
L 3047 4666 
L 3047 1625 
L 3713 1625 
L 3713 1100 
L 3047 1100 
L 3047 0 
L 2419 0 
L 2419 1100 
L 313 1100 
L 313 1709 
L 2253 4666 
z
" transform="scale(0.015625)"/>
       </defs>
       <use xlink:href="#DejaVuSans-30"/>
       <use xlink:href="#DejaVuSans-2e" x="63.623047"/>
       <use xlink:href="#DejaVuSans-34" x="95.410156"/>
      </g>
     </g>
    </g>
   </g>
   <g id="patch_33">
    <path d="M 33.605 318.30175 
L 33.605 24.14175 
" style="fill: none"/>
   </g>
   <g id="patch_34">
    <path d="M 444.793125 318.30175 
L 444.793125 24.14175 
" style="fill: none"/>
   </g>
   <g id="patch_35">
    <path d="M 33.605 318.30175 
L 444.793125 318.30175 
" style="fill: none"/>
   </g>
   <g id="patch_36">
    <path d="M 33.605 24.14175 
L 444.793125 24.14175 
" style="fill: none"/>
   </g>
   <g id="text_13">
    <!-- bars with legend -->
    <g style="fill: #838383" transform="translate(179.089188 18.14175) scale(0.144 -0.144)">
     <defs>
      <path id="DejaVuSans-62" d="M 3116 1747 
Q 3116 2381 2855 2742 
Q 2594 3103 2138 3103 
Q 1681 3103 1420 2742 
Q 1159 2381 1159 1747 
Q 1159 1113 1420 752 
Q 1681 391 2138 391 
Q 2594 391 2855 752 
Q 3116 1113 3116 1747 
z
M 1159 2969 
Q 1341 3281 1617 3432 
Q 1894 3584 2278 3584 
Q 2916 3584 3314 3078 
Q 3713 2572 3713 1747 
Q 3713 922 3314 415 
Q 2916 -91 2278 -91 
Q 1894 -91 1617 61 
Q 1341 213 1159 525 
L 1159 0 
L 581 0 
L 581 4863 
L 1159 4863 
L 1159 2969 
z
" transform="scale(0.015625)"/>
      <path id="DejaVuSans-61" d="M 2194 1759 
Q 1497 1759 1228 1600 
Q 959 1441 959 1056 
Q 959 750 1161 570 
Q 1363 391 1709 391 
Q 2188 391 2477 730 
Q 2766 1069 2766 1631 
L 2766 1759 
L 2194 1759 
z
M 3341 1997 
L 3341 0 
L 2766 0 
L 2766 531 
Q 2569 213 2275 61 
Q 1981 -91 1556 -91 
Q 1019 -91 701 211 
Q 384 513 384 1019 
Q 384 1609 779 1909 
Q 1175 2209 1959 2209 
L 2766 2209 
L 2766 2266 
Q 2766 2663 2505 2880 
Q 2244 3097 1772 3097 
Q 1472 3097 1187 3025 
Q 903 2953 641 2809 
L 641 3341 
Q 956 3463 1253 3523 
Q 1550 3584 1831 3584 
Q 2591 3584 2966 3190 
Q 3341 2797 3341 1997 
z
" transform="scale(0.015625)"/>
      <path id="DejaVuSans-72" d="M 2631 2963 
Q 2534 3019 2420 3045 
Q 2306 3072 2169 3072 
Q 1681 3072 1420 2755 
Q 1159 2438 1159 1844 
L 1159 0 
L 581 0 
L 581 3500 
L 1159 3500 
L 1159 2956 
Q 1341 3275 1631 3429 
Q 1922 3584 2338 3584 
Q 2397 3584 2469 3576 
Q 2541 3569 2628 3553 
L 2631 2963 
z
" transform="scale(0.015625)"/>
      <path id="DejaVuSans-73" d="M 2834 3397 
L 2834 2853 
Q 2591 2978 2328 3040 
Q 2066 3103 1784 3103 
Q 1356 3103 1142 2972 
Q 928 2841 928 2578 
Q 928 2378 1081 2264 
Q 1234 2150 1697 2047 
L 1894 2003 
Q 2506 1872 2764 1633 
Q 3022 1394 3022 966 
Q 3022 478 2636 193 
Q 2250 -91 1575 -91 
Q 1294 -91 989 -36 
Q 684 19 347 128 
L 347 722 
Q 666 556 975 473 
Q 1284 391 1588 391 
Q 1994 391 2212 530 
Q 2431 669 2431 922 
Q 2431 1156 2273 1281 
Q 2116 1406 1581 1522 
L 1381 1569 
Q 847 1681 609 1914 
Q 372 2147 372 2553 
Q 372 3047 722 3315 
Q 1072 3584 1716 3584 
Q 2034 3584 2315 3537 
Q 2597 3491 2834 3397 
z
" transform="scale(0.015625)"/>
      <path id="DejaVuSans-20" transform="scale(0.015625)"/>
      <path id="DejaVuSans-77" d="M 269 3500 
L 844 3500 
L 1563 769 
L 2278 3500 
L 2956 3500 
L 3675 769 
L 4391 3500 
L 4966 3500 
L 4050 0 
L 3372 0 
L 2619 2869 
L 1863 0 
L 1184 0 
L 269 3500 
z
" transform="scale(0.015625)"/>
      <path id="DejaVuSans-69" d="M 603 3500 
L 1178 3500 
L 1178 0 
L 603 0 
L 603 3500 
z
M 603 4863 
L 1178 4863 
L 1178 4134 
L 603 4134 
L 603 4863 
z
" transform="scale(0.015625)"/>
      <path id="DejaVuSans-74" d="M 1172 4494 
L 1172 3500 
L 2356 3500 
L 2356 3053 
L 1172 3053 
L 1172 1153 
Q 1172 725 1289 603 
Q 1406 481 1766 481 
L 2356 481 
L 2356 0 
L 1766 0 
Q 1100 0 847 248 
Q 594 497 594 1153 
L 594 3053 
L 172 3053 
L 172 3500 
L 594 3500 
L 594 4494 
L 1172 4494 
z
" transform="scale(0.015625)"/>
      <path id="DejaVuSans-68" d="M 3513 2113 
L 3513 0 
L 2938 0 
L 2938 2094 
Q 2938 2591 2744 2837 
Q 2550 3084 2163 3084 
Q 1697 3084 1428 2787 
Q 1159 2491 1159 1978 
L 1159 0 
L 581 0 
L 581 4863 
L 1159 4863 
L 1159 2956 
Q 1366 3272 1645 3428 
Q 1925 3584 2291 3584 
Q 2894 3584 3203 3211 
Q 3513 2838 3513 2113 
z
" transform="scale(0.015625)"/>
      <path id="DejaVuSans-6c" d="M 603 4863 
L 1178 4863 
L 1178 0 
L 603 0 
L 603 4863 
z
" transform="scale(0.015625)"/>
      <path id="DejaVuSans-65" d="M 3597 1894 
L 3597 1613 
L 953 1613 
Q 991 1019 1311 708 
Q 1631 397 2203 397 
Q 2534 397 2845 478 
Q 3156 559 3463 722 
L 3463 178 
Q 3153 47 2828 -22 
Q 2503 -91 2169 -91 
Q 1331 -91 842 396 
Q 353 884 353 1716 
Q 353 2575 817 3079 
Q 1281 3584 2069 3584 
Q 2775 3584 3186 3129 
Q 3597 2675 3597 1894 
z
M 3022 2063 
Q 3016 2534 2758 2815 
Q 2500 3097 2075 3097 
Q 1594 3097 1305 2825 
Q 1016 2553 972 2059 
L 3022 2063 
z
" transform="scale(0.015625)"/>
      <path id="DejaVuSans-67" d="M 2906 1791 
Q 2906 2416 2648 2759 
Q 2391 3103 1925 3103 
Q 1463 3103 1205 2759 
Q 947 2416 947 1791 
Q 947 1169 1205 825 
Q 1463 481 1925 481 
Q 2391 481 2648 825 
Q 2906 1169 2906 1791 
z
M 3481 434 
Q 3481 -459 3084 -895 
Q 2688 -1331 1869 -1331 
Q 1566 -1331 1297 -1286 
Q 1028 -1241 775 -1147 
L 775 -588 
Q 1028 -725 1275 -790 
Q 1522 -856 1778 -856 
Q 2344 -856 2625 -561 
Q 2906 -266 2906 331 
L 2906 616 
Q 2728 306 2450 153 
Q 2172 0 1784 0 
Q 1141 0 747 490 
Q 353 981 353 1791 
Q 353 2603 747 3093 
Q 1141 3584 1784 3584 
Q 2172 3584 2450 3431 
Q 2728 3278 2906 2969 
L 2906 3500 
L 3481 3500 
L 3481 434 
z
" transform="scale(0.015625)"/>
      <path id="DejaVuSans-6e" d="M 3513 2113 
L 3513 0 
L 2938 0 
L 2938 2094 
Q 2938 2591 2744 2837 
Q 2550 3084 2163 3084 
Q 1697 3084 1428 2787 
Q 1159 2491 1159 1978 
L 1159 0 
L 581 0 
L 581 3500 
L 1159 3500 
L 1159 2956 
Q 1366 3272 1645 3428 
Q 1925 3584 2291 3584 
Q 2894 3584 3203 3211 
Q 3513 2838 3513 2113 
z
" transform="scale(0.015625)"/>
      <path id="DejaVuSans-64" d="M 2906 2969 
L 2906 4863 
L 3481 4863 
L 3481 0 
L 2906 0 
L 2906 525 
Q 2725 213 2448 61 
Q 2172 -91 1784 -91 
Q 1150 -91 751 415 
Q 353 922 353 1747 
Q 353 2572 751 3078 
Q 1150 3584 1784 3584 
Q 2172 3584 2448 3432 
Q 2725 3281 2906 2969 
z
M 947 1747 
Q 947 1113 1208 752 
Q 1469 391 1925 391 
Q 2381 391 2643 752 
Q 2906 1113 2906 1747 
Q 2906 2381 2643 2742 
Q 2381 3103 1925 3103 
Q 1469 3103 1208 2742 
Q 947 2381 947 1747 
z
" transform="scale(0.015625)"/>
     </defs>
     <use xlink:href="#DejaVuSans-62"/>
     <use xlink:href="#DejaVuSans-61" x="63.476562"/>
     <use xlink:href="#DejaVuSans-72" x="124.755859"/>
     <use xlink:href="#DejaVuSans-73" x="165.869141"/>
     <use xlink:href="#DejaVuSans-20" x="217.96875"/>
     <use xlink:href="#DejaVuSans-77" x="249.755859"/>
     <use xlink:href="#DejaVuSans-69" x="331.542969"/>
     <use xlink:href="#DejaVuSans-74" x="359.326172"/>
     <use xlink:href="#DejaVuSans-68" x="398.535156"/>
     <use xlink:href="#DejaVuSans-20" x="461.914062"/>
     <use xlink:href="#DejaVuSans-6c" x="493.701172"/>
     <use xlink:href="#DejaVuSans-65" x="521.484375"/>
     <use xlink:href="#DejaVuSans-67" x="583.007812"/>
     <use xlink:href="#DejaVuSans-65" x="646.484375"/>
     <use xlink:href="#DejaVuSans-6e" x="708.007812"/>
     <use xlink:href="#DejaVuSans-64" x="771.386719"/>
    </g>
   </g>
   <g id="legend_1">
    <g id="patch_37">
     <path d="M 344.5275 44.059875 
L 368.5275 44.059875 
L 368.5275 35.659875 
L 344.5275 35.659875 
z
" style="fill: #333333"/>
    </g>
    <g id="text_14">
     <!-- #333333 -->
     <g style="fill: #838383" transform="translate(378.1275 44.059875) scale(0.12 -0.12)">
      <defs>
       <path id="DejaVuSans-23" d="M 3272 2816 
L 2363 2816 
L 2100 1772 
L 3016 1772 
L 3272 2816 
z
M 2803 4594 
L 2478 3297 
L 3391 3297 
L 3719 4594 
L 4219 4594 
L 3897 3297 
L 4872 3297 
L 4872 2816 
L 3775 2816 
L 3519 1772 
L 4513 1772 
L 4513 1294 
L 3397 1294 
L 3072 0 
L 2572 0 
L 2894 1294 
L 1978 1294 
L 1656 0 
L 1153 0 
L 1478 1294 
L 494 1294 
L 494 1772 
L 1594 1772 
L 1856 2816 
L 850 2816 
L 850 3297 
L 1978 3297 
L 2297 4594 
L 2803 4594 
z
" transform="scale(0.015625)"/>
      </defs>
      <use xlink:href="#DejaVuSans-23"/>
      <use xlink:href="#DejaVuSans-33" x="83.789062"/>
      <use xlink:href="#DejaVuSans-33" x="147.412109"/>
      <use xlink:href="#DejaVuSans-33" x="211.035156"/>
      <use xlink:href="#DejaVuSans-33" x="274.658203"/>
      <use xlink:href="#DejaVuSans-33" x="338.28125"/>
      <use xlink:href="#DejaVuSans-33" x="401.904297"/>
     </g>
    </g>
    <g id="patch_38">
     <path d="M 344.5275 61.673625 
L 368.5275 61.673625 
L 368.5275 53.273625 
L 344.5275 53.273625 
z
" style="fill: #666666"/>
    </g>
    <g id="text_15">
     <!-- #666666 -->
     <g style="fill: #838383" transform="translate(378.1275 61.673625) scale(0.12 -0.12)">
      <defs>
       <path id="DejaVuSans-36" d="M 2113 2584 
Q 1688 2584 1439 2293 
Q 1191 2003 1191 1497 
Q 1191 994 1439 701 
Q 1688 409 2113 409 
Q 2538 409 2786 701 
Q 3034 994 3034 1497 
Q 3034 2003 2786 2293 
Q 2538 2584 2113 2584 
z
M 3366 4563 
L 3366 3988 
Q 3128 4100 2886 4159 
Q 2644 4219 2406 4219 
Q 1781 4219 1451 3797 
Q 1122 3375 1075 2522 
Q 1259 2794 1537 2939 
Q 1816 3084 2150 3084 
Q 2853 3084 3261 2657 
Q 3669 2231 3669 1497 
Q 3669 778 3244 343 
Q 2819 -91 2113 -91 
Q 1303 -91 875 529 
Q 447 1150 447 2328 
Q 447 3434 972 4092 
Q 1497 4750 2381 4750 
Q 2619 4750 2861 4703 
Q 3103 4656 3366 4563 
z
" transform="scale(0.015625)"/>
      </defs>
      <use xlink:href="#DejaVuSans-23"/>
      <use xlink:href="#DejaVuSans-36" x="83.789062"/>
      <use xlink:href="#DejaVuSans-36" x="147.412109"/>
      <use xlink:href="#DejaVuSans-36" x="211.035156"/>
      <use xlink:href="#DejaVuSans-36" x="274.658203"/>
      <use xlink:href="#DejaVuSans-36" x="338.28125"/>
      <use xlink:href="#DejaVuSans-36" x="401.904297"/>
     </g>
    </g>
    <g id="patch_39">
     <path d="M 344.5275 79.287375 
L 368.5275 79.287375 
L 368.5275 70.887375 
L 344.5275 70.887375 
z
" style="fill: #999999"/>
    </g>
    <g id="text_16">
     <!-- #999999 -->
     <g style="fill: #838383" transform="translate(378.1275 79.287375) scale(0.12 -0.12)">
      <defs>
       <path id="DejaVuSans-39" d="M 703 97 
L 703 672 
Q 941 559 1184 500 
Q 1428 441 1663 441 
Q 2288 441 2617 861 
Q 2947 1281 2994 2138 
Q 2813 1869 2534 1725 
Q 2256 1581 1919 1581 
Q 1219 1581 811 2004 
Q 403 2428 403 3163 
Q 403 3881 828 4315 
Q 1253 4750 1959 4750 
Q 2769 4750 3195 4129 
Q 3622 3509 3622 2328 
Q 3622 1225 3098 567 
Q 2575 -91 1691 -91 
Q 1453 -91 1209 -44 
Q 966 3 703 97 
z
M 1959 2075 
Q 2384 2075 2632 2365 
Q 2881 2656 2881 3163 
Q 2881 3666 2632 3958 
Q 2384 4250 1959 4250 
Q 1534 4250 1286 3958 
Q 1038 3666 1038 3163 
Q 1038 2656 1286 2365 
Q 1534 2075 1959 2075 
z
" transform="scale(0.015625)"/>
      </defs>
      <use xlink:href="#DejaVuSans-23"/>
      <use xlink:href="#DejaVuSans-39" x="83.789062"/>
      <use xlink:href="#DejaVuSans-39" x="147.412109"/>
      <use xlink:href="#DejaVuSans-39" x="211.035156"/>
      <use xlink:href="#DejaVuSans-39" x="274.658203"/>
      <use xlink:href="#DejaVuSans-39" x="338.28125"/>
      <use xlink:href="#DejaVuSans-39" x="401.904297"/>
     </g>
    </g>
   </g>
  </g>
  <g id="axes_2">
   <g id="patch_40">
    <path d="M 491.721875 318.30175 
L 902.91 318.30175 
L 902.91 24.14175 
L 491.721875 24.14175 
L 491.721875 318.30175 
z
" style="fill: none"/>
   </g>
   <g id="patch_41">
    <path d="M 510.412244 318.30175 
L 547.792983 318.30175 
L 547.792983 317.310645 
L 510.412244 317.310645 
z
" clip-path="url(#p8c7935110f)" style="fill: #2196f3; opacity: 0.4"/>
   </g>
   <g id="patch_42">
    <path d="M 547.792983 318.30175 
L 585.173722 318.30175 
L 585.173722 311.033646 
L 547.792983 311.033646 
z
" clip-path="url(#p8c7935110f)" style="fill: #2196f3; opacity: 0.4"/>
   </g>
   <g id="patch_43">
    <path d="M 585.173722 318.30175 
L 622.55446 318.30175 
L 622.55446 289.229333 
L 585.173722 289.229333 
z
" clip-path="url(#p8c7935110f)" style="fill: #2196f3; opacity: 0.4"/>
   </g>
   <g id="patch_44">
    <path d="M 622.55446 318.30175 
L 659.935199 318.30175 
L 659.935199 262.469495 
L 622.55446 262.469495 
z
" clip-path="url(#p8c7935110f)" style="fill: #2196f3; opacity: 0.4"/>
   </g>
   <g id="patch_45">
    <path d="M 659.935199 318.30175 
L 697.315937 318.30175 
L 697.315937 228.771921 
L 659.935199 228.771921 
z
" clip-path="url(#p8c7935110f)" style="fill: #2196f3; opacity: 0.4"/>
   </g>
   <g id="patch_46">
    <path d="M 697.315937 318.30175 
L 734.696676 318.30175 
L 734.696676 240.334814 
L 697.315937 240.334814 
z
" clip-path="url(#p8c7935110f)" style="fill: #2196f3; opacity: 0.4"/>
   </g>
   <g id="patch_47">
    <path d="M 734.696676 318.30175 
L 772.077415 318.30175 
L 772.077415 272.050178 
L 734.696676 272.050178 
z
" clip-path="url(#p8c7935110f)" style="fill: #2196f3; opacity: 0.4"/>
   </g>
   <g id="patch_48">
    <path d="M 772.077415 318.30175 
L 809.458153 318.30175 
L 809.458153 299.801121 
L 772.077415 299.801121 
z
" clip-path="url(#p8c7935110f)" style="fill: #2196f3; opacity: 0.4"/>
   </g>
   <g id="patch_49">
    <path d="M 809.458153 318.30175 
L 846.838892 318.30175 
L 846.838892 314.33733 
L 809.458153 314.33733 
z
" clip-path="url(#p8c7935110f)" style="fill: #2196f3; opacity: 0.4"/>
   </g>
   <g id="patch_50">
    <path d="M 846.838892 318.30175 
L 884.219631 318.30175 
L 884.219631 317.310645 
L 846.838892 317.310645 
z
" clip-path="url(#p8c7935110f)" style="fill: #2196f3; opacity: 0.4"/>
   </g>
   <g id="patch_51">
    <path d="M 510.412244 317.310645 
L 547.792983 317.310645 
L 547.792983 316.31954 
L 510.412244 316.31954 
z
" clip-path="url(#p8c7935110f)" style="fill: #ef5350; opacity: 0.4"/>
   </g>
   <g id="patch_52">
    <path d="M 547.792983 311.033646 
L 585.173722 311.033646 
L 585.173722 303.104805 
L 547.792983 303.104805 
z
" clip-path="url(#p8c7935110f)" style="fill: #ef5350; opacity: 0.4"/>
   </g>
   <g id="patch_53">
    <path d="M 585.173722 289.229333 
L 622.55446 289.229333 
L 622.55446 260.156916 
L 585.173722 260.156916 
z
" clip-path="url(#p8c7935110f)" style="fill: #ef5350; opacity: 0.4"/>
   </g>
   <g id="patch_54">
    <path d="M 622.55446 262.469495 
L 659.935199 262.469495 
L 659.935199 203.003188 
L 622.55446 203.003188 
z
" clip-path="url(#p8c7935110f)" style="fill: #ef5350; opacity: 0.4"/>
   </g>
   <g id="patch_55">
    <path d="M 659.935199 228.771921 
L 697.315937 228.771921 
L 697.315937 136.268776 
L 659.935199 136.268776 
z
" clip-path="url(#p8c7935110f)" style="fill: #ef5350; opacity: 0.4"/>
   </g>
   <g id="patch_56">
    <path d="M 697.315937 240.334814 
L 734.696676 240.334814 
L 734.696676 166.332298 
L 697.315937 166.332298 
z
" clip-path="url(#p8c7935110f)" style="fill: #ef5350; opacity: 0.4"/>
   </g>
   <g id="patch_57">
    <path d="M 734.696676 272.050178 
L 772.077415 272.050178 
L 772.077415 222.82529 
L 734.696676 222.82529 
z
" clip-path="url(#p8c7935110f)" style="fill: #ef5350; opacity: 0.4"/>
   </g>
   <g id="patch_58">
    <path d="M 772.077415 299.801121 
L 809.458153 299.801121 
L 809.458153 285.925649 
L 772.077415 285.925649 
z
" clip-path="url(#p8c7935110f)" style="fill: #ef5350; opacity: 0.4"/>
   </g>
   <g id="patch_59">
    <path d="M 809.458153 314.33733 
L 846.838892 314.33733 
L 846.838892 312.024751 
L 809.458153 312.024751 
z
" clip-path="url(#p8c7935110f)" style="fill: #ef5350; opacity: 0.4"/>
   </g>
   <g id="patch_60">
    <path d="M 846.838892 317.310645 
L 884.219631 317.310645 
L 884.219631 316.31954 
L 846.838892 316.31954 
z
" clip-path="url(#p8c7935110f)" style="fill: #ef5350; opacity: 0.4"/>
   </g>
   <g id="patch_61">
    <path d="M 510.412244 316.31954 
L 547.792983 316.31954 
L 547.792983 315.328435 
L 510.412244 315.328435 
z
" clip-path="url(#p8c7935110f)" style="fill: #4caf50; opacity: 0.4"/>
   </g>
   <g id="patch_62">
    <path d="M 547.792983 303.104805 
L 585.173722 303.104805 
L 585.173722 294.515227 
L 547.792983 294.515227 
z
" clip-path="url(#p8c7935110f)" style="fill: #4caf50; opacity: 0.4"/>
   </g>
   <g id="patch_63">
    <path d="M 585.173722 260.156916 
L 622.55446 260.156916 
L 622.55446 229.432657 
L 585.173722 229.432657 
z
" clip-path="url(#p8c7935110f)" style="fill: #4caf50; opacity: 0.4"/>
   </g>
   <g id="patch_64">
    <path d="M 622.55446 203.003188 
L 659.935199 203.003188 
L 659.935199 150.144248 
L 622.55446 150.144248 
z
" clip-path="url(#p8c7935110f)" style="fill: #4caf50; opacity: 0.4"/>
   </g>
   <g id="patch_65">
    <path d="M 659.935199 136.268776 
L 697.315937 136.268776 
L 697.315937 38.149369 
L 659.935199 38.149369 
z
" clip-path="url(#p8c7935110f)" style="fill: #4caf50; opacity: 0.4"/>
   </g>
   <g id="patch_66">
    <path d="M 697.315937 166.332298 
L 734.696676 166.332298 
L 734.696676 93.981624 
L 697.315937 93.981624 
z
" clip-path="url(#p8c7935110f)" style="fill: #4caf50; opacity: 0.4"/>
   </g>
   <g id="patch_67">
    <path d="M 734.696676 222.82529 
L 772.077415 222.82529 
L 772.077415 176.573718 
L 734.696676 176.573718 
z
" clip-path="url(#p8c7935110f)" style="fill: #4caf50; opacity: 0.4"/>
   </g>
   <g id="patch_68">
    <path d="M 772.077415 285.925649 
L 809.458153 285.925649 
L 809.458153 268.085757 
L 772.077415 268.085757 
z
" clip-path="url(#p8c7935110f)" style="fill: #4caf50; opacity: 0.4"/>
   </g>
   <g id="patch_69">
    <path d="M 809.458153 312.024751 
L 846.838892 312.024751 
L 846.838892 310.042541 
L 809.458153 310.042541 
z
" clip-path="url(#p8c7935110f)" style="fill: #4caf50; opacity: 0.4"/>
   </g>
   <g id="patch_70">
    <path d="M 846.838892 316.31954 
L 884.219631 316.31954 
L 884.219631 315.658803 
L 846.838892 315.658803 
z
" clip-path="url(#p8c7935110f)" style="fill: #4caf50; opacity: 0.4"/>
   </g>
   <g id="matplotlib.axis_3">
    <g id="xtick_8">
     <g id="line2d_25">
      <path d="M 526.109047 318.30175 
L 526.109047 24.14175 
" clip-path="url(#p8c7935110f)" style="fill: none; stroke-dasharray: 1.48,0.64; stroke-dashoffset: 0; stroke: #838383; stroke-opacity: 0.25; stroke-width: 0.4"/>
     </g>
     <g id="line2d_26"/>
     <g id="text_17">
      <!-- −3 -->
      <g style="fill: #838383" transform="translate(517.263735 330.919875) scale(0.12 -0.12)">
       <use xlink:href="#DejaVuSans-2212"/>
       <use xlink:href="#DejaVuSans-33" x="83.789062"/>
      </g>
     </g>
    </g>
    <g id="xtick_9">
     <g id="line2d_27">
      <path d="M 580.324025 318.30175 
L 580.324025 24.14175 
" clip-path="url(#p8c7935110f)" style="fill: none; stroke-dasharray: 1.48,0.64; stroke-dashoffset: 0; stroke: #838383; stroke-opacity: 0.25; stroke-width: 0.4"/>
     </g>
     <g id="line2d_28"/>
     <g id="text_18">
      <!-- −2 -->
      <g style="fill: #838383" transform="translate(571.478712 330.919875) scale(0.12 -0.12)">
       <use xlink:href="#DejaVuSans-2212"/>
       <use xlink:href="#DejaVuSans-32" x="83.789062"/>
      </g>
     </g>
    </g>
    <g id="xtick_10">
     <g id="line2d_29">
      <path d="M 634.539003 318.30175 
L 634.539003 24.14175 
" clip-path="url(#p8c7935110f)" style="fill: none; stroke-dasharray: 1.48,0.64; stroke-dashoffset: 0; stroke: #838383; stroke-opacity: 0.25; stroke-width: 0.4"/>
     </g>
     <g id="line2d_30"/>
     <g id="text_19">
      <!-- −1 -->
      <g style="fill: #838383" transform="translate(625.69369 330.919875) scale(0.12 -0.12)">
       <use xlink:href="#DejaVuSans-2212"/>
       <use xlink:href="#DejaVuSans-31" x="83.789062"/>
      </g>
     </g>
    </g>
    <g id="xtick_11">
     <g id="line2d_31">
      <path d="M 688.753981 318.30175 
L 688.753981 24.14175 
" clip-path="url(#p8c7935110f)" style="fill: none; stroke-dasharray: 1.48,0.64; stroke-dashoffset: 0; stroke: #838383; stroke-opacity: 0.25; stroke-width: 0.4"/>
     </g>
     <g id="line2d_32"/>
     <g id="text_20">
      <!-- 0 -->
      <g style="fill: #838383" transform="translate(684.936481 330.919875) scale(0.12 -0.12)">
       <use xlink:href="#DejaVuSans-30"/>
      </g>
     </g>
    </g>
    <g id="xtick_12">
     <g id="line2d_33">
      <path d="M 742.968959 318.30175 
L 742.968959 24.14175 
" clip-path="url(#p8c7935110f)" style="fill: none; stroke-dasharray: 1.48,0.64; stroke-dashoffset: 0; stroke: #838383; stroke-opacity: 0.25; stroke-width: 0.4"/>
     </g>
     <g id="line2d_34"/>
     <g id="text_21">
      <!-- 1 -->
      <g style="fill: #838383" transform="translate(739.151459 330.919875) scale(0.12 -0.12)">
       <use xlink:href="#DejaVuSans-31"/>
      </g>
     </g>
    </g>
    <g id="xtick_13">
     <g id="line2d_35">
      <path d="M 797.183936 318.30175 
L 797.183936 24.14175 
" clip-path="url(#p8c7935110f)" style="fill: none; stroke-dasharray: 1.48,0.64; stroke-dashoffset: 0; stroke: #838383; stroke-opacity: 0.25; stroke-width: 0.4"/>
     </g>
     <g id="line2d_36"/>
     <g id="text_22">
      <!-- 2 -->
      <g style="fill: #838383" transform="translate(793.366436 330.919875) scale(0.12 -0.12)">
       <use xlink:href="#DejaVuSans-32"/>
      </g>
     </g>
    </g>
    <g id="xtick_14">
     <g id="line2d_37">
      <path d="M 851.398914 318.30175 
L 851.398914 24.14175 
" clip-path="url(#p8c7935110f)" style="fill: none; stroke-dasharray: 1.48,0.64; stroke-dashoffset: 0; stroke: #838383; stroke-opacity: 0.25; stroke-width: 0.4"/>
     </g>
     <g id="line2d_38"/>
     <g id="text_23">
      <!-- 3 -->
      <g style="fill: #838383" transform="translate(847.581414 330.919875) scale(0.12 -0.12)">
       <use xlink:href="#DejaVuSans-33"/>
      </g>
     </g>
    </g>
   </g>
   <g id="matplotlib.axis_4">
    <g id="ytick_6">
     <g id="line2d_39">
      <path d="M 491.721875 318.30175 
L 902.91 318.30175 
" clip-path="url(#p8c7935110f)" style="fill: none; stroke-dasharray: 1.48,0.64; stroke-dashoffset: 0; stroke: #838383; stroke-opacity: 0.25; stroke-width: 0.4"/>
     </g>
     <g id="line2d_40"/>
     <g id="text_24">
      <!-- 0.00 -->
      <g style="fill: #838383" transform="translate(461.503125 322.860812) scale(0.12 -0.12)">
       <use xlink:href="#DejaVuSans-30"/>
       <use xlink:href="#DejaVuSans-2e" x="63.623047"/>
       <use xlink:href="#DejaVuSans-30" x="95.410156"/>
       <use xlink:href="#DejaVuSans-30" x="159.033203"/>
      </g>
     </g>
    </g>
    <g id="ytick_7">
     <g id="line2d_41">
      <path d="M 491.721875 284.133848 
L 902.91 284.133848 
" clip-path="url(#p8c7935110f)" style="fill: none; stroke-dasharray: 1.48,0.64; stroke-dashoffset: 0; stroke: #838383; stroke-opacity: 0.25; stroke-width: 0.4"/>
     </g>
     <g id="line2d_42"/>
     <g id="text_25">
      <!-- 0.05 -->
      <g style="fill: #838383" transform="translate(461.503125 288.69291) scale(0.12 -0.12)">
       <defs>
        <path id="DejaVuSans-35" d="M 691 4666 
L 3169 4666 
L 3169 4134 
L 1269 4134 
L 1269 2991 
Q 1406 3038 1543 3061 
Q 1681 3084 1819 3084 
Q 2600 3084 3056 2656 
Q 3513 2228 3513 1497 
Q 3513 744 3044 326 
Q 2575 -91 1722 -91 
Q 1428 -91 1123 -41 
Q 819 9 494 109 
L 494 744 
Q 775 591 1075 516 
Q 1375 441 1709 441 
Q 2250 441 2565 725 
Q 2881 1009 2881 1497 
Q 2881 1984 2565 2268 
Q 2250 2553 1709 2553 
Q 1456 2553 1204 2497 
Q 953 2441 691 2322 
L 691 4666 
z
" transform="scale(0.015625)"/>
       </defs>
       <use xlink:href="#DejaVuSans-30"/>
       <use xlink:href="#DejaVuSans-2e" x="63.623047"/>
       <use xlink:href="#DejaVuSans-30" x="95.410156"/>
       <use xlink:href="#DejaVuSans-35" x="159.033203"/>
      </g>
     </g>
    </g>
    <g id="ytick_8">
     <g id="line2d_43">
      <path d="M 491.721875 249.965945 
L 902.91 249.965945 
" clip-path="url(#p8c7935110f)" style="fill: none; stroke-dasharray: 1.48,0.64; stroke-dashoffset: 0; stroke: #838383; stroke-opacity: 0.25; stroke-width: 0.4"/>
     </g>
     <g id="line2d_44"/>
     <g id="text_26">
      <!-- 0.10 -->
      <g style="fill: #838383" transform="translate(461.503125 254.525008) scale(0.12 -0.12)">
       <use xlink:href="#DejaVuSans-30"/>
       <use xlink:href="#DejaVuSans-2e" x="63.623047"/>
       <use xlink:href="#DejaVuSans-31" x="95.410156"/>
       <use xlink:href="#DejaVuSans-30" x="159.033203"/>
      </g>
     </g>
    </g>
    <g id="ytick_9">
     <g id="line2d_45">
      <path d="M 491.721875 215.798043 
L 902.91 215.798043 
" clip-path="url(#p8c7935110f)" style="fill: none; stroke-dasharray: 1.48,0.64; stroke-dashoffset: 0; stroke: #838383; stroke-opacity: 0.25; stroke-width: 0.4"/>
     </g>
     <g id="line2d_46"/>
     <g id="text_27">
      <!-- 0.15 -->
      <g style="fill: #838383" transform="translate(461.503125 220.357105) scale(0.12 -0.12)">
       <use xlink:href="#DejaVuSans-30"/>
       <use xlink:href="#DejaVuSans-2e" x="63.623047"/>
       <use xlink:href="#DejaVuSans-31" x="95.410156"/>
       <use xlink:href="#DejaVuSans-35" x="159.033203"/>
      </g>
     </g>
    </g>
    <g id="ytick_10">
     <g id="line2d_47">
      <path d="M 491.721875 181.63014 
L 902.91 181.63014 
" clip-path="url(#p8c7935110f)" style="fill: none; stroke-dasharray: 1.48,0.64; stroke-dashoffset: 0; stroke: #838383; stroke-opacity: 0.25; stroke-width: 0.4"/>
     </g>
     <g id="line2d_48"/>
     <g id="text_28">
      <!-- 0.20 -->
      <g style="fill: #838383" transform="translate(461.503125 186.189203) scale(0.12 -0.12)">
       <use xlink:href="#DejaVuSans-30"/>
       <use xlink:href="#DejaVuSans-2e" x="63.623047"/>
       <use xlink:href="#DejaVuSans-32" x="95.410156"/>
       <use xlink:href="#DejaVuSans-30" x="159.033203"/>
      </g>
     </g>
    </g>
    <g id="ytick_11">
     <g id="line2d_49">
      <path d="M 491.721875 147.462238 
L 902.91 147.462238 
" clip-path="url(#p8c7935110f)" style="fill: none; stroke-dasharray: 1.48,0.64; stroke-dashoffset: 0; stroke: #838383; stroke-opacity: 0.25; stroke-width: 0.4"/>
     </g>
     <g id="line2d_50"/>
     <g id="text_29">
      <!-- 0.25 -->
      <g style="fill: #838383" transform="translate(461.503125 152.0213) scale(0.12 -0.12)">
       <use xlink:href="#DejaVuSans-30"/>
       <use xlink:href="#DejaVuSans-2e" x="63.623047"/>
       <use xlink:href="#DejaVuSans-32" x="95.410156"/>
       <use xlink:href="#DejaVuSans-35" x="159.033203"/>
      </g>
     </g>
    </g>
    <g id="ytick_12">
     <g id="line2d_51">
      <path d="M 491.721875 113.294335 
L 902.91 113.294335 
" clip-path="url(#p8c7935110f)" style="fill: none; stroke-dasharray: 1.48,0.64; stroke-dashoffset: 0; stroke: #838383; stroke-opacity: 0.25; stroke-width: 0.4"/>
     </g>
     <g id="line2d_52"/>
     <g id="text_30">
      <!-- 0.30 -->
      <g style="fill: #838383" transform="translate(461.503125 117.853398) scale(0.12 -0.12)">
       <use xlink:href="#DejaVuSans-30"/>
       <use xlink:href="#DejaVuSans-2e" x="63.623047"/>
       <use xlink:href="#DejaVuSans-33" x="95.410156"/>
       <use xlink:href="#DejaVuSans-30" x="159.033203"/>
      </g>
     </g>
    </g>
    <g id="ytick_13">
     <g id="line2d_53">
      <path d="M 491.721875 79.126433 
L 902.91 79.126433 
" clip-path="url(#p8c7935110f)" style="fill: none; stroke-dasharray: 1.48,0.64; stroke-dashoffset: 0; stroke: #838383; stroke-opacity: 0.25; stroke-width: 0.4"/>
     </g>
     <g id="line2d_54"/>
     <g id="text_31">
      <!-- 0.35 -->
      <g style="fill: #838383" transform="translate(461.503125 83.685495) scale(0.12 -0.12)">
       <use xlink:href="#DejaVuSans-30"/>
       <use xlink:href="#DejaVuSans-2e" x="63.623047"/>
       <use xlink:href="#DejaVuSans-33" x="95.410156"/>
       <use xlink:href="#DejaVuSans-35" x="159.033203"/>
      </g>
     </g>
    </g>
    <g id="ytick_14">
     <g id="line2d_55">
      <path d="M 491.721875 44.95853 
L 902.91 44.95853 
" clip-path="url(#p8c7935110f)" style="fill: none; stroke-dasharray: 1.48,0.64; stroke-dashoffset: 0; stroke: #838383; stroke-opacity: 0.25; stroke-width: 0.4"/>
     </g>
     <g id="line2d_56"/>
     <g id="text_32">
      <!-- 0.40 -->
      <g style="fill: #838383" transform="translate(461.503125 49.517593) scale(0.12 -0.12)">
       <use xlink:href="#DejaVuSans-30"/>
       <use xlink:href="#DejaVuSans-2e" x="63.623047"/>
       <use xlink:href="#DejaVuSans-34" x="95.410156"/>
       <use xlink:href="#DejaVuSans-30" x="159.033203"/>
      </g>
     </g>
    </g>
   </g>
   <g id="patch_71">
    <path d="M 491.721875 318.30175 
L 491.721875 24.14175 
" style="fill: none"/>
   </g>
   <g id="patch_72">
    <path d="M 902.91 318.30175 
L 902.91 24.14175 
" style="fill: none"/>
   </g>
   <g id="patch_73">
    <path d="M 491.721875 318.30175 
L 902.91 318.30175 
" style="fill: none"/>
   </g>
   <g id="patch_74">
    <path d="M 491.721875 24.14175 
L 902.91 24.14175 
" style="fill: none"/>
   </g>
   <g id="text_33">
    <!-- stacked bar -->
    <g style="fill: #838383" transform="translate(655.230813 18.14175) scale(0.144 -0.144)">
     <defs>
      <path id="DejaVuSans-63" d="M 3122 3366 
L 3122 2828 
Q 2878 2963 2633 3030 
Q 2388 3097 2138 3097 
Q 1578 3097 1268 2742 
Q 959 2388 959 1747 
Q 959 1106 1268 751 
Q 1578 397 2138 397 
Q 2388 397 2633 464 
Q 2878 531 3122 666 
L 3122 134 
Q 2881 22 2623 -34 
Q 2366 -91 2075 -91 
Q 1284 -91 818 406 
Q 353 903 353 1747 
Q 353 2603 823 3093 
Q 1294 3584 2113 3584 
Q 2378 3584 2631 3529 
Q 2884 3475 3122 3366 
z
" transform="scale(0.015625)"/>
      <path id="DejaVuSans-6b" d="M 581 4863 
L 1159 4863 
L 1159 1991 
L 2875 3500 
L 3609 3500 
L 1753 1863 
L 3688 0 
L 2938 0 
L 1159 1709 
L 1159 0 
L 581 0 
L 581 4863 
z
" transform="scale(0.015625)"/>
     </defs>
     <use xlink:href="#DejaVuSans-73"/>
     <use xlink:href="#DejaVuSans-74" x="52.099609"/>
     <use xlink:href="#DejaVuSans-61" x="91.308594"/>
     <use xlink:href="#DejaVuSans-63" x="152.587891"/>
     <use xlink:href="#DejaVuSans-6b" x="207.568359"/>
     <use xlink:href="#DejaVuSans-65" x="261.853516"/>
     <use xlink:href="#DejaVuSans-64" x="323.376953"/>
     <use xlink:href="#DejaVuSans-20" x="386.853516"/>
     <use xlink:href="#DejaVuSans-62" x="418.640625"/>
     <use xlink:href="#DejaVuSans-61" x="482.117188"/>
     <use xlink:href="#DejaVuSans-72" x="543.396484"/>
    </g>
   </g>
  </g>
  <g id="axes_3">
   <g id="patch_75">
    <path d="M 33.605 657.42175 
L 444.793125 657.42175 
L 444.793125 363.26175 
L 33.605 363.26175 
L 33.605 657.42175 
z
" style="fill: none"/>
   </g>
   <g id="matplotlib.axis_5">
    <g id="xtick_15">
     <g id="line2d_57">
      <path d="M 67.992172 657.42175 
L 67.992172 363.26175 
" clip-path="url(#pd06c826459)" style="fill: none; stroke-dasharray: 1.48,0.64; stroke-dashoffset: 0; stroke: #838383; stroke-opacity: 0.25; stroke-width: 0.4"/>
     </g>
     <g id="line2d_58"/>
     <g id="text_34">
      <!-- −3 -->
      <g style="fill: #838383" transform="translate(59.14686 670.039875) scale(0.12 -0.12)">
       <use xlink:href="#DejaVuSans-2212"/>
       <use xlink:href="#DejaVuSans-33" x="83.789062"/>
      </g>
     </g>
    </g>
    <g id="xtick_16">
     <g id="line2d_59">
      <path d="M 122.20715 657.42175 
L 122.20715 363.26175 
" clip-path="url(#pd06c826459)" style="fill: none; stroke-dasharray: 1.48,0.64; stroke-dashoffset: 0; stroke: #838383; stroke-opacity: 0.25; stroke-width: 0.4"/>
     </g>
     <g id="line2d_60"/>
     <g id="text_35">
      <!-- −2 -->
      <g style="fill: #838383" transform="translate(113.361837 670.039875) scale(0.12 -0.12)">
       <use xlink:href="#DejaVuSans-2212"/>
       <use xlink:href="#DejaVuSans-32" x="83.789062"/>
      </g>
     </g>
    </g>
    <g id="xtick_17">
     <g id="line2d_61">
      <path d="M 176.422128 657.42175 
L 176.422128 363.26175 
" clip-path="url(#pd06c826459)" style="fill: none; stroke-dasharray: 1.48,0.64; stroke-dashoffset: 0; stroke: #838383; stroke-opacity: 0.25; stroke-width: 0.4"/>
     </g>
     <g id="line2d_62"/>
     <g id="text_36">
      <!-- −1 -->
      <g style="fill: #838383" transform="translate(167.576815 670.039875) scale(0.12 -0.12)">
       <use xlink:href="#DejaVuSans-2212"/>
       <use xlink:href="#DejaVuSans-31" x="83.789062"/>
      </g>
     </g>
    </g>
    <g id="xtick_18">
     <g id="line2d_63">
      <path d="M 230.637106 657.42175 
L 230.637106 363.26175 
" clip-path="url(#pd06c826459)" style="fill: none; stroke-dasharray: 1.48,0.64; stroke-dashoffset: 0; stroke: #838383; stroke-opacity: 0.25; stroke-width: 0.4"/>
     </g>
     <g id="line2d_64"/>
     <g id="text_37">
      <!-- 0 -->
      <g style="fill: #838383" transform="translate(226.819606 670.039875) scale(0.12 -0.12)">
       <use xlink:href="#DejaVuSans-30"/>
      </g>
     </g>
    </g>
    <g id="xtick_19">
     <g id="line2d_65">
      <path d="M 284.852084 657.42175 
L 284.852084 363.26175 
" clip-path="url(#pd06c826459)" style="fill: none; stroke-dasharray: 1.48,0.64; stroke-dashoffset: 0; stroke: #838383; stroke-opacity: 0.25; stroke-width: 0.4"/>
     </g>
     <g id="line2d_66"/>
     <g id="text_38">
      <!-- 1 -->
      <g style="fill: #838383" transform="translate(281.034584 670.039875) scale(0.12 -0.12)">
       <use xlink:href="#DejaVuSans-31"/>
      </g>
     </g>
    </g>
    <g id="xtick_20">
     <g id="line2d_67">
      <path d="M 339.067061 657.42175 
L 339.067061 363.26175 
" clip-path="url(#pd06c826459)" style="fill: none; stroke-dasharray: 1.48,0.64; stroke-dashoffset: 0; stroke: #838383; stroke-opacity: 0.25; stroke-width: 0.4"/>
     </g>
     <g id="line2d_68"/>
     <g id="text_39">
      <!-- 2 -->
      <g style="fill: #838383" transform="translate(335.249561 670.039875) scale(0.12 -0.12)">
       <use xlink:href="#DejaVuSans-32"/>
      </g>
     </g>
    </g>
    <g id="xtick_21">
     <g id="line2d_69">
      <path d="M 393.282039 657.42175 
L 393.282039 363.26175 
" clip-path="url(#pd06c826459)" style="fill: none; stroke-dasharray: 1.48,0.64; stroke-dashoffset: 0; stroke: #838383; stroke-opacity: 0.25; stroke-width: 0.4"/>
     </g>
     <g id="line2d_70"/>
     <g id="text_40">
      <!-- 3 -->
      <g style="fill: #838383" transform="translate(389.464539 670.039875) scale(0.12 -0.12)">
       <use xlink:href="#DejaVuSans-33"/>
      </g>
     </g>
    </g>
   </g>
   <g id="matplotlib.axis_6">
    <g id="ytick_15">
     <g id="line2d_71">
      <path d="M 33.605 657.42175 
L 444.793125 657.42175 
" clip-path="url(#pd06c826459)" style="fill: none; stroke-dasharray: 1.48,0.64; stroke-dashoffset: 0; stroke: #838383; stroke-opacity: 0.25; stroke-width: 0.4"/>
     </g>
     <g id="line2d_72"/>
     <g id="text_41">
      <!-- 0 -->
      <g style="fill: #838383" transform="translate(22.47 661.980812) scale(0.12 -0.12)">
       <use xlink:href="#DejaVuSans-30"/>
      </g>
     </g>
    </g>
    <g id="ytick_16">
     <g id="line2d_73">
      <path d="M 33.605 624.384913 
L 444.793125 624.384913 
" clip-path="url(#pd06c826459)" style="fill: none; stroke-dasharray: 1.48,0.64; stroke-dashoffset: 0; stroke: #838383; stroke-opacity: 0.25; stroke-width: 0.4"/>
     </g>
     <g id="line2d_74"/>
     <g id="text_42">
      <!-- 100 -->
      <g style="fill: #838383" transform="translate(7.2 628.943975) scale(0.12 -0.12)">
       <use xlink:href="#DejaVuSans-31"/>
       <use xlink:href="#DejaVuSans-30" x="63.623047"/>
       <use xlink:href="#DejaVuSans-30" x="127.246094"/>
      </g>
     </g>
    </g>
    <g id="ytick_17">
     <g id="line2d_75">
      <path d="M 33.605 591.348075 
L 444.793125 591.348075 
" clip-path="url(#pd06c826459)" style="fill: none; stroke-dasharray: 1.48,0.64; stroke-dashoffset: 0; stroke: #838383; stroke-opacity: 0.25; stroke-width: 0.4"/>
     </g>
     <g id="line2d_76"/>
     <g id="text_43">
      <!-- 200 -->
      <g style="fill: #838383" transform="translate(7.2 595.907138) scale(0.12 -0.12)">
       <use xlink:href="#DejaVuSans-32"/>
       <use xlink:href="#DejaVuSans-30" x="63.623047"/>
       <use xlink:href="#DejaVuSans-30" x="127.246094"/>
      </g>
     </g>
    </g>
    <g id="ytick_18">
     <g id="line2d_77">
      <path d="M 33.605 558.311238 
L 444.793125 558.311238 
" clip-path="url(#pd06c826459)" style="fill: none; stroke-dasharray: 1.48,0.64; stroke-dashoffset: 0; stroke: #838383; stroke-opacity: 0.25; stroke-width: 0.4"/>
     </g>
     <g id="line2d_78"/>
     <g id="text_44">
      <!-- 300 -->
      <g style="fill: #838383" transform="translate(7.2 562.8703) scale(0.12 -0.12)">
       <use xlink:href="#DejaVuSans-33"/>
       <use xlink:href="#DejaVuSans-30" x="63.623047"/>
       <use xlink:href="#DejaVuSans-30" x="127.246094"/>
      </g>
     </g>
    </g>
    <g id="ytick_19">
     <g id="line2d_79">
      <path d="M 33.605 525.2744 
L 444.793125 525.2744 
" clip-path="url(#pd06c826459)" style="fill: none; stroke-dasharray: 1.48,0.64; stroke-dashoffset: 0; stroke: #838383; stroke-opacity: 0.25; stroke-width: 0.4"/>
     </g>
     <g id="line2d_80"/>
     <g id="text_45">
      <!-- 400 -->
      <g style="fill: #838383" transform="translate(7.2 529.833463) scale(0.12 -0.12)">
       <use xlink:href="#DejaVuSans-34"/>
       <use xlink:href="#DejaVuSans-30" x="63.623047"/>
       <use xlink:href="#DejaVuSans-30" x="127.246094"/>
      </g>
     </g>
    </g>
    <g id="ytick_20">
     <g id="line2d_81">
      <path d="M 33.605 492.237563 
L 444.793125 492.237563 
" clip-path="url(#pd06c826459)" style="fill: none; stroke-dasharray: 1.48,0.64; stroke-dashoffset: 0; stroke: #838383; stroke-opacity: 0.25; stroke-width: 0.4"/>
     </g>
     <g id="line2d_82"/>
     <g id="text_46">
      <!-- 500 -->
      <g style="fill: #838383" transform="translate(7.2 496.796626) scale(0.12 -0.12)">
       <use xlink:href="#DejaVuSans-35"/>
       <use xlink:href="#DejaVuSans-30" x="63.623047"/>
       <use xlink:href="#DejaVuSans-30" x="127.246094"/>
      </g>
     </g>
    </g>
    <g id="ytick_21">
     <g id="line2d_83">
      <path d="M 33.605 459.200726 
L 444.793125 459.200726 
" clip-path="url(#pd06c826459)" style="fill: none; stroke-dasharray: 1.48,0.64; stroke-dashoffset: 0; stroke: #838383; stroke-opacity: 0.25; stroke-width: 0.4"/>
     </g>
     <g id="line2d_84"/>
     <g id="text_47">
      <!-- 600 -->
      <g style="fill: #838383" transform="translate(7.2 463.759788) scale(0.12 -0.12)">
       <use xlink:href="#DejaVuSans-36"/>
       <use xlink:href="#DejaVuSans-30" x="63.623047"/>
       <use xlink:href="#DejaVuSans-30" x="127.246094"/>
      </g>
     </g>
    </g>
    <g id="ytick_22">
     <g id="line2d_85">
      <path d="M 33.605 426.163888 
L 444.793125 426.163888 
" clip-path="url(#pd06c826459)" style="fill: none; stroke-dasharray: 1.48,0.64; stroke-dashoffset: 0; stroke: #838383; stroke-opacity: 0.25; stroke-width: 0.4"/>
     </g>
     <g id="line2d_86"/>
     <g id="text_48">
      <!-- 700 -->
      <g style="fill: #838383" transform="translate(7.2 430.722951) scale(0.12 -0.12)">
       <defs>
        <path id="DejaVuSans-37" d="M 525 4666 
L 3525 4666 
L 3525 4397 
L 1831 0 
L 1172 0 
L 2766 4134 
L 525 4134 
L 525 4666 
z
" transform="scale(0.015625)"/>
       </defs>
       <use xlink:href="#DejaVuSans-37"/>
       <use xlink:href="#DejaVuSans-30" x="63.623047"/>
       <use xlink:href="#DejaVuSans-30" x="127.246094"/>
      </g>
     </g>
    </g>
    <g id="ytick_23">
     <g id="line2d_87">
      <path d="M 33.605 393.127051 
L 444.793125 393.127051 
" clip-path="url(#pd06c826459)" style="fill: none; stroke-dasharray: 1.48,0.64; stroke-dashoffset: 0; stroke: #838383; stroke-opacity: 0.25; stroke-width: 0.4"/>
     </g>
     <g id="line2d_88"/>
     <g id="text_49">
      <!-- 800 -->
      <g style="fill: #838383" transform="translate(7.2 397.686113) scale(0.12 -0.12)">
       <defs>
        <path id="DejaVuSans-38" d="M 2034 2216 
Q 1584 2216 1326 1975 
Q 1069 1734 1069 1313 
Q 1069 891 1326 650 
Q 1584 409 2034 409 
Q 2484 409 2743 651 
Q 3003 894 3003 1313 
Q 3003 1734 2745 1975 
Q 2488 2216 2034 2216 
z
M 1403 2484 
Q 997 2584 770 2862 
Q 544 3141 544 3541 
Q 544 4100 942 4425 
Q 1341 4750 2034 4750 
Q 2731 4750 3128 4425 
Q 3525 4100 3525 3541 
Q 3525 3141 3298 2862 
Q 3072 2584 2669 2484 
Q 3125 2378 3379 2068 
Q 3634 1759 3634 1313 
Q 3634 634 3220 271 
Q 2806 -91 2034 -91 
Q 1263 -91 848 271 
Q 434 634 434 1313 
Q 434 1759 690 2068 
Q 947 2378 1403 2484 
z
M 1172 3481 
Q 1172 3119 1398 2916 
Q 1625 2713 2034 2713 
Q 2441 2713 2670 2916 
Q 2900 3119 2900 3481 
Q 2900 3844 2670 4047 
Q 2441 4250 2034 4250 
Q 1625 4250 1398 4047 
Q 1172 3844 1172 3481 
z
" transform="scale(0.015625)"/>
       </defs>
       <use xlink:href="#DejaVuSans-38"/>
       <use xlink:href="#DejaVuSans-30" x="63.623047"/>
       <use xlink:href="#DejaVuSans-30" x="127.246094"/>
      </g>
     </g>
    </g>
   </g>
   <g id="patch_76">
    <path d="M 52.295369 655.43954 
L 52.295369 654.448435 
L 89.676108 654.448435 
L 89.676108 633.635227 
L 127.056847 633.635227 
L 127.056847 568.552657 
L 164.437585 568.552657 
L 164.437585 489.264248 
L 201.818324 489.264248 
L 201.818324 377.269369 
L 239.199062 377.269369 
L 239.199062 433.101624 
L 276.579801 433.101624 
L 276.579801 515.693718 
L 313.96054 515.693718 
L 313.96054 607.205757 
L 351.341278 607.205757 
L 351.341278 649.162541 
L 388.722017 649.162541 
L 388.722017 654.778803 
L 426.102756 654.778803 
L 426.102756 655.43954 
" clip-path="url(#pd06c826459)" style="fill: none; stroke: #4caf50; stroke-linejoin: miter"/>
   </g>
   <g id="patch_77">
    <path d="M 52.295369 656.430645 
L 52.295369 655.43954 
L 89.676108 655.43954 
L 89.676108 642.224805 
L 127.056847 642.224805 
L 127.056847 599.276916 
L 164.437585 599.276916 
L 164.437585 542.123188 
L 201.818324 542.123188 
L 201.818324 475.388776 
L 239.199062 475.388776 
L 239.199062 505.452298 
L 276.579801 505.452298 
L 276.579801 561.94529 
L 313.96054 561.94529 
L 313.96054 625.045649 
L 351.341278 625.045649 
L 351.341278 651.144751 
L 388.722017 651.144751 
L 388.722017 655.43954 
L 426.102756 655.43954 
L 426.102756 656.430645 
" clip-path="url(#pd06c826459)" style="fill: none; stroke: #ef5350; stroke-linejoin: miter"/>
   </g>
   <g id="patch_78">
    <path d="M 52.295369 657.42175 
L 52.295369 656.430645 
L 89.676108 656.430645 
L 89.676108 650.153646 
L 127.056847 650.153646 
L 127.056847 628.349333 
L 164.437585 628.349333 
L 164.437585 601.589495 
L 201.818324 601.589495 
L 201.818324 567.891921 
L 239.199062 567.891921 
L 239.199062 579.454814 
L 276.579801 579.454814 
L 276.579801 611.170178 
L 313.96054 611.170178 
L 313.96054 638.921121 
L 351.341278 638.921121 
L 351.341278 653.45733 
L 388.722017 653.45733 
L 388.722017 656.430645 
L 426.102756 656.430645 
L 426.102756 657.42175 
" clip-path="url(#pd06c826459)" style="fill: none; stroke: #2196f3; stroke-linejoin: miter"/>
   </g>
   <g id="patch_79">
    <path d="M 33.605 657.42175 
L 33.605 363.26175 
" style="fill: none"/>
   </g>
   <g id="patch_80">
    <path d="M 444.793125 657.42175 
L 444.793125 363.26175 
" style="fill: none"/>
   </g>
   <g id="patch_81">
    <path d="M 33.605 657.42175 
L 444.793125 657.42175 
" style="fill: none"/>
   </g>
   <g id="patch_82">
    <path d="M 33.605 363.26175 
L 444.793125 363.26175 
" style="fill: none"/>
   </g>
   <g id="text_50">
    <!-- stack step (unfilled) -->
    <g style="fill: #838383" transform="translate(167.653563 357.26175) scale(0.144 -0.144)">
     <defs>
      <path id="DejaVuSans-70" d="M 1159 525 
L 1159 -1331 
L 581 -1331 
L 581 3500 
L 1159 3500 
L 1159 2969 
Q 1341 3281 1617 3432 
Q 1894 3584 2278 3584 
Q 2916 3584 3314 3078 
Q 3713 2572 3713 1747 
Q 3713 922 3314 415 
Q 2916 -91 2278 -91 
Q 1894 -91 1617 61 
Q 1341 213 1159 525 
z
M 3116 1747 
Q 3116 2381 2855 2742 
Q 2594 3103 2138 3103 
Q 1681 3103 1420 2742 
Q 1159 2381 1159 1747 
Q 1159 1113 1420 752 
Q 1681 391 2138 391 
Q 2594 391 2855 752 
Q 3116 1113 3116 1747 
z
" transform="scale(0.015625)"/>
      <path id="DejaVuSans-28" d="M 1984 4856 
Q 1566 4138 1362 3434 
Q 1159 2731 1159 2009 
Q 1159 1288 1364 580 
Q 1569 -128 1984 -844 
L 1484 -844 
Q 1016 -109 783 600 
Q 550 1309 550 2009 
Q 550 2706 781 3412 
Q 1013 4119 1484 4856 
L 1984 4856 
z
" transform="scale(0.015625)"/>
      <path id="DejaVuSans-75" d="M 544 1381 
L 544 3500 
L 1119 3500 
L 1119 1403 
Q 1119 906 1312 657 
Q 1506 409 1894 409 
Q 2359 409 2629 706 
Q 2900 1003 2900 1516 
L 2900 3500 
L 3475 3500 
L 3475 0 
L 2900 0 
L 2900 538 
Q 2691 219 2414 64 
Q 2138 -91 1772 -91 
Q 1169 -91 856 284 
Q 544 659 544 1381 
z
M 1991 3584 
L 1991 3584 
z
" transform="scale(0.015625)"/>
      <path id="DejaVuSans-66" d="M 2375 4863 
L 2375 4384 
L 1825 4384 
Q 1516 4384 1395 4259 
Q 1275 4134 1275 3809 
L 1275 3500 
L 2222 3500 
L 2222 3053 
L 1275 3053 
L 1275 0 
L 697 0 
L 697 3053 
L 147 3053 
L 147 3500 
L 697 3500 
L 697 3744 
Q 697 4328 969 4595 
Q 1241 4863 1831 4863 
L 2375 4863 
z
" transform="scale(0.015625)"/>
      <path id="DejaVuSans-29" d="M 513 4856 
L 1013 4856 
Q 1481 4119 1714 3412 
Q 1947 2706 1947 2009 
Q 1947 1309 1714 600 
Q 1481 -109 1013 -844 
L 513 -844 
Q 928 -128 1133 580 
Q 1338 1288 1338 2009 
Q 1338 2731 1133 3434 
Q 928 4138 513 4856 
z
" transform="scale(0.015625)"/>
     </defs>
     <use xlink:href="#DejaVuSans-73"/>
     <use xlink:href="#DejaVuSans-74" x="52.099609"/>
     <use xlink:href="#DejaVuSans-61" x="91.308594"/>
     <use xlink:href="#DejaVuSans-63" x="152.587891"/>
     <use xlink:href="#DejaVuSans-6b" x="207.568359"/>
     <use xlink:href="#DejaVuSans-20" x="265.478516"/>
     <use xlink:href="#DejaVuSans-73" x="297.265625"/>
     <use xlink:href="#DejaVuSans-74" x="349.365234"/>
     <use xlink:href="#DejaVuSans-65" x="388.574219"/>
     <use xlink:href="#DejaVuSans-70" x="450.097656"/>
     <use xlink:href="#DejaVuSans-20" x="513.574219"/>
     <use xlink:href="#DejaVuSans-28" x="545.361328"/>
     <use xlink:href="#DejaVuSans-75" x="584.375"/>
     <use xlink:href="#DejaVuSans-6e" x="647.753906"/>
     <use xlink:href="#DejaVuSans-66" x="711.132812"/>
     <use xlink:href="#DejaVuSans-69" x="746.337891"/>
     <use xlink:href="#DejaVuSans-6c" x="774.121094"/>
     <use xlink:href="#DejaVuSans-6c" x="801.904297"/>
     <use xlink:href="#DejaVuSans-65" x="829.6875"/>
     <use xlink:href="#DejaVuSans-64" x="891.210938"/>
     <use xlink:href="#DejaVuSans-29" x="954.6875"/>
    </g>
   </g>
  </g>
  <g id="axes_4">
   <g id="patch_83">
    <path d="M 491.721875 657.42175 
L 902.91 657.42175 
L 902.91 363.26175 
L 491.721875 363.26175 
L 491.721875 657.42175 
z
" style="fill: none"/>
   </g>
   <g id="patch_84">
    <path d="M 510.412244 657.42175 
L 520.583874 657.42175 
L 520.583874 655.987523 
L 510.412244 655.987523 
z
" clip-path="url(#pe35275108a)" style="fill: #2196f3"/>
   </g>
   <g id="patch_85">
    <path d="M 548.555855 657.42175 
L 558.727485 657.42175 
L 558.727485 647.57339 
L 548.555855 647.57339 
z
" clip-path="url(#pe35275108a)" style="fill: #2196f3"/>
   </g>
   <g id="patch_86">
    <path d="M 586.699466 657.42175 
L 596.871096 657.42175 
L 596.871096 605.311495 
L 586.699466 605.311495 
z
" clip-path="url(#pe35275108a)" style="fill: #2196f3"/>
   </g>
   <g id="patch_87">
    <path d="M 624.843077 657.42175 
L 635.014706 657.42175 
L 635.014706 493.346158 
L 624.843077 493.346158 
z
" clip-path="url(#pe35275108a)" style="fill: #2196f3"/>
   </g>
   <g id="patch_88">
    <path d="M 662.986688 657.42175 
L 673.158317 657.42175 
L 673.158317 377.269369 
L 662.986688 377.269369 
z
" clip-path="url(#pe35275108a)" style="fill: #2196f3"/>
   </g>
   <g id="patch_89">
    <path d="M 701.130299 657.42175 
L 711.301928 657.42175 
L 711.301928 383.962429 
L 701.130299 383.962429 
z
" clip-path="url(#pe35275108a)" style="fill: #2196f3"/>
   </g>
   <g id="patch_90">
    <path d="M 739.273909 657.42175 
L 749.445539 657.42175 
L 749.445539 529.584298 
L 739.273909 529.584298 
z
" clip-path="url(#pe35275108a)" style="fill: #2196f3"/>
   </g>
   <g id="patch_91">
    <path d="M 777.41752 657.42175 
L 787.58915 657.42175 
L 787.58915 617.072158 
L 777.41752 617.072158 
z
" clip-path="url(#pe35275108a)" style="fill: #2196f3"/>
   </g>
   <g id="patch_92">
    <path d="M 815.561131 657.42175 
L 825.732761 657.42175 
L 825.732761 650.91992 
L 815.561131 650.91992 
z
" clip-path="url(#pe35275108a)" style="fill: #2196f3"/>
   </g>
   <g id="patch_93">
    <path d="M 853.704742 657.42175 
L 863.876372 657.42175 
L 863.876372 657.039289 
L 853.704742 657.039289 
z
" clip-path="url(#pe35275108a)" style="fill: #2196f3"/>
   </g>
   <g id="patch_94">
    <path d="M 520.583874 657.42175 
L 530.755503 657.42175 
L 530.755503 656.752444 
L 520.583874 656.752444 
z
" clip-path="url(#pe35275108a)" style="fill: #ef5350"/>
   </g>
   <g id="patch_95">
    <path d="M 558.727485 657.42175 
L 568.899114 657.42175 
L 568.899114 651.493611 
L 558.727485 651.493611 
z
" clip-path="url(#pe35275108a)" style="fill: #ef5350"/>
   </g>
   <g id="patch_96">
    <path d="M 596.871096 657.42175 
L 607.042725 657.42175 
L 607.042725 628.25913 
L 596.871096 628.25913 
z
" clip-path="url(#pe35275108a)" style="fill: #ef5350"/>
   </g>
   <g id="patch_97">
    <path d="M 635.014706 657.42175 
L 645.186336 657.42175 
L 645.186336 577.487487 
L 635.014706 577.487487 
z
" clip-path="url(#pe35275108a)" style="fill: #ef5350"/>
   </g>
   <g id="patch_98">
    <path d="M 673.158317 657.42175 
L 683.329947 657.42175 
L 683.329947 514.19026 
L 673.158317 514.19026 
z
" clip-path="url(#pe35275108a)" style="fill: #ef5350"/>
   </g>
   <g id="patch_99">
    <path d="M 711.301928 657.42175 
L 721.473558 657.42175 
L 721.473558 528.341301 
L 711.301928 528.341301 
z
" clip-path="url(#pe35275108a)" style="fill: #ef5350"/>
   </g>
   <g id="patch_100">
    <path d="M 749.445539 657.42175 
L 759.617169 657.42175 
L 759.617169 590.013071 
L 749.445539 590.013071 
z
" clip-path="url(#pe35275108a)" style="fill: #ef5350"/>
   </g>
   <g id="patch_101">
    <path d="M 787.58915 657.42175 
L 797.760779 657.42175 
L 797.760779 637.246954 
L 787.58915 637.246954 
z
" clip-path="url(#pe35275108a)" style="fill: #ef5350"/>
   </g>
   <g id="patch_102">
    <path d="M 825.732761 657.42175 
L 835.90439 657.42175 
L 835.90439 655.031371 
L 825.732761 655.031371 
z
" clip-path="url(#pe35275108a)" style="fill: #ef5350"/>
   </g>
   <g id="patch_103">
    <path d="M 863.876372 657.42175 
L 874.048001 657.42175 
L 874.048001 657.326135 
L 863.876372 657.326135 
z
" clip-path="url(#pe35275108a)" style="fill: #ef5350"/>
   </g>
   <g id="patch_104">
    <path d="M 530.755503 657.42175 
L 540.927133 657.42175 
L 540.927133 657.134905 
L 530.755503 657.134905 
z
" clip-path="url(#pe35275108a)" style="fill: #4caf50"/>
   </g>
   <g id="patch_105">
    <path d="M 568.899114 657.42175 
L 579.070744 657.42175 
L 579.070744 655.509447 
L 568.899114 655.509447 
z
" clip-path="url(#pe35275108a)" style="fill: #4caf50"/>
   </g>
   <g id="patch_106">
    <path d="M 607.042725 657.42175 
L 617.214355 657.42175 
L 617.214355 647.76462 
L 607.042725 647.76462 
z
" clip-path="url(#pe35275108a)" style="fill: #4caf50"/>
   </g>
   <g id="patch_107">
    <path d="M 645.186336 657.42175 
L 655.357966 657.42175 
L 655.357966 624.625755 
L 645.186336 624.625755 
z
" clip-path="url(#pe35275108a)" style="fill: #4caf50"/>
   </g>
   <g id="patch_108">
    <path d="M 683.329947 657.42175 
L 693.501576 657.42175 
L 693.501576 602.347425 
L 683.329947 602.347425 
z
" clip-path="url(#pe35275108a)" style="fill: #4caf50"/>
   </g>
   <g id="patch_109">
    <path d="M 721.473558 657.42175 
L 731.645187 657.42175 
L 731.645187 604.450959 
L 721.473558 604.450959 
z
" clip-path="url(#pe35275108a)" style="fill: #4caf50"/>
   </g>
   <g id="patch_110">
    <path d="M 759.617169 657.42175 
L 769.788798 657.42175 
L 769.788798 629.119666 
L 759.617169 629.119666 
z
" clip-path="url(#pe35275108a)" style="fill: #4caf50"/>
   </g>
   <g id="patch_111">
    <path d="M 797.760779 657.42175 
L 807.932409 657.42175 
L 807.932409 648.338311 
L 797.760779 648.338311 
z
" clip-path="url(#pe35275108a)" style="fill: #4caf50"/>
   </g>
   <g id="patch_112">
    <path d="M 835.90439 657.42175 
L 846.07602 657.42175 
L 846.07602 656.369983 
L 835.90439 656.369983 
z
" clip-path="url(#pe35275108a)" style="fill: #4caf50"/>
   </g>
   <g id="patch_113">
    <path d="M 874.048001 657.42175 
L 884.219631 657.42175 
L 884.219631 657.326135 
L 874.048001 657.326135 
z
" clip-path="url(#pe35275108a)" style="fill: #4caf50"/>
   </g>
   <g id="matplotlib.axis_7">
    <g id="xtick_22">
     <g id="line2d_89">
      <path d="M 498.904674 657.42175 
L 498.904674 363.26175 
" clip-path="url(#pe35275108a)" style="fill: none; stroke-dasharray: 1.48,0.64; stroke-dashoffset: 0; stroke: #838383; stroke-opacity: 0.25; stroke-width: 0.4"/>
     </g>
     <g id="line2d_90"/>
     <g id="text_51">
      <!-- −4 -->
      <g style="fill: #838383" transform="translate(490.059362 670.039875) scale(0.12 -0.12)">
       <use xlink:href="#DejaVuSans-2212"/>
       <use xlink:href="#DejaVuSans-34" x="83.789062"/>
      </g>
     </g>
    </g>
    <g id="xtick_23">
     <g id="line2d_91">
      <path d="M 547.417859 657.42175 
L 547.417859 363.26175 
" clip-path="url(#pe35275108a)" style="fill: none; stroke-dasharray: 1.48,0.64; stroke-dashoffset: 0; stroke: #838383; stroke-opacity: 0.25; stroke-width: 0.4"/>
     </g>
     <g id="line2d_92"/>
     <g id="text_52">
      <!-- −3 -->
      <g style="fill: #838383" transform="translate(538.572546 670.039875) scale(0.12 -0.12)">
       <use xlink:href="#DejaVuSans-2212"/>
       <use xlink:href="#DejaVuSans-33" x="83.789062"/>
      </g>
     </g>
    </g>
    <g id="xtick_24">
     <g id="line2d_93">
      <path d="M 595.931043 657.42175 
L 595.931043 363.26175 
" clip-path="url(#pe35275108a)" style="fill: none; stroke-dasharray: 1.48,0.64; stroke-dashoffset: 0; stroke: #838383; stroke-opacity: 0.25; stroke-width: 0.4"/>
     </g>
     <g id="line2d_94"/>
     <g id="text_53">
      <!-- −2 -->
      <g style="fill: #838383" transform="translate(587.08573 670.039875) scale(0.12 -0.12)">
       <use xlink:href="#DejaVuSans-2212"/>
       <use xlink:href="#DejaVuSans-32" x="83.789062"/>
      </g>
     </g>
    </g>
    <g id="xtick_25">
     <g id="line2d_95">
      <path d="M 644.444227 657.42175 
L 644.444227 363.26175 
" clip-path="url(#pe35275108a)" style="fill: none; stroke-dasharray: 1.48,0.64; stroke-dashoffset: 0; stroke: #838383; stroke-opacity: 0.25; stroke-width: 0.4"/>
     </g>
     <g id="line2d_96"/>
     <g id="text_54">
      <!-- −1 -->
      <g style="fill: #838383" transform="translate(635.598914 670.039875) scale(0.12 -0.12)">
       <use xlink:href="#DejaVuSans-2212"/>
       <use xlink:href="#DejaVuSans-31" x="83.789062"/>
      </g>
     </g>
    </g>
    <g id="xtick_26">
     <g id="line2d_97">
      <path d="M 692.957411 657.42175 
L 692.957411 363.26175 
" clip-path="url(#pe35275108a)" style="fill: none; stroke-dasharray: 1.48,0.64; stroke-dashoffset: 0; stroke: #838383; stroke-opacity: 0.25; stroke-width: 0.4"/>
     </g>
     <g id="line2d_98"/>
     <g id="text_55">
      <!-- 0 -->
      <g style="fill: #838383" transform="translate(689.139911 670.039875) scale(0.12 -0.12)">
       <use xlink:href="#DejaVuSans-30"/>
      </g>
     </g>
    </g>
    <g id="xtick_27">
     <g id="line2d_99">
      <path d="M 741.470595 657.42175 
L 741.470595 363.26175 
" clip-path="url(#pe35275108a)" style="fill: none; stroke-dasharray: 1.48,0.64; stroke-dashoffset: 0; stroke: #838383; stroke-opacity: 0.25; stroke-width: 0.4"/>
     </g>
     <g id="line2d_100"/>
     <g id="text_56">
      <!-- 1 -->
      <g style="fill: #838383" transform="translate(737.653095 670.039875) scale(0.12 -0.12)">
       <use xlink:href="#DejaVuSans-31"/>
      </g>
     </g>
    </g>
    <g id="xtick_28">
     <g id="line2d_101">
      <path d="M 789.983779 657.42175 
L 789.983779 363.26175 
" clip-path="url(#pe35275108a)" style="fill: none; stroke-dasharray: 1.48,0.64; stroke-dashoffset: 0; stroke: #838383; stroke-opacity: 0.25; stroke-width: 0.4"/>
     </g>
     <g id="line2d_102"/>
     <g id="text_57">
      <!-- 2 -->
      <g style="fill: #838383" transform="translate(786.166279 670.039875) scale(0.12 -0.12)">
       <use xlink:href="#DejaVuSans-32"/>
      </g>
     </g>
    </g>
    <g id="xtick_29">
     <g id="line2d_103">
      <path d="M 838.496964 657.42175 
L 838.496964 363.26175 
" clip-path="url(#pe35275108a)" style="fill: none; stroke-dasharray: 1.48,0.64; stroke-dashoffset: 0; stroke: #838383; stroke-opacity: 0.25; stroke-width: 0.4"/>
     </g>
     <g id="line2d_104"/>
     <g id="text_58">
      <!-- 3 -->
      <g style="fill: #838383" transform="translate(834.679464 670.039875) scale(0.12 -0.12)">
       <use xlink:href="#DejaVuSans-33"/>
      </g>
     </g>
    </g>
    <g id="xtick_30">
     <g id="line2d_105">
      <path d="M 887.010148 657.42175 
L 887.010148 363.26175 
" clip-path="url(#pe35275108a)" style="fill: none; stroke-dasharray: 1.48,0.64; stroke-dashoffset: 0; stroke: #838383; stroke-opacity: 0.25; stroke-width: 0.4"/>
     </g>
     <g id="line2d_106"/>
     <g id="text_59">
      <!-- 4 -->
      <g style="fill: #838383" transform="translate(883.192648 670.039875) scale(0.12 -0.12)">
       <use xlink:href="#DejaVuSans-34"/>
      </g>
     </g>
    </g>
   </g>
   <g id="matplotlib.axis_8">
    <g id="ytick_24">
     <g id="line2d_107">
      <path d="M 491.721875 657.42175 
L 902.91 657.42175 
" clip-path="url(#pe35275108a)" style="fill: none; stroke-dasharray: 1.48,0.64; stroke-dashoffset: 0; stroke: #838383; stroke-opacity: 0.25; stroke-width: 0.4"/>
     </g>
     <g id="line2d_108"/>
     <g id="text_60">
      <!-- 0 -->
      <g style="fill: #838383" transform="translate(480.586875 661.980812) scale(0.12 -0.12)">
       <use xlink:href="#DejaVuSans-30"/>
      </g>
     </g>
    </g>
    <g id="ytick_25">
     <g id="line2d_109">
      <path d="M 491.721875 609.614176 
L 902.91 609.614176 
" clip-path="url(#pe35275108a)" style="fill: none; stroke-dasharray: 1.48,0.64; stroke-dashoffset: 0; stroke: #838383; stroke-opacity: 0.25; stroke-width: 0.4"/>
     </g>
     <g id="line2d_110"/>
     <g id="text_61">
      <!-- 500 -->
      <g style="fill: #838383" transform="translate(465.316875 614.173239) scale(0.12 -0.12)">
       <use xlink:href="#DejaVuSans-35"/>
       <use xlink:href="#DejaVuSans-30" x="63.623047"/>
       <use xlink:href="#DejaVuSans-30" x="127.246094"/>
      </g>
     </g>
    </g>
    <g id="ytick_26">
     <g id="line2d_111">
      <path d="M 491.721875 561.806603 
L 902.91 561.806603 
" clip-path="url(#pe35275108a)" style="fill: none; stroke-dasharray: 1.48,0.64; stroke-dashoffset: 0; stroke: #838383; stroke-opacity: 0.25; stroke-width: 0.4"/>
     </g>
     <g id="line2d_112"/>
     <g id="text_62">
      <!-- 1000 -->
      <g style="fill: #838383" transform="translate(457.681875 566.365665) scale(0.12 -0.12)">
       <use xlink:href="#DejaVuSans-31"/>
       <use xlink:href="#DejaVuSans-30" x="63.623047"/>
       <use xlink:href="#DejaVuSans-30" x="127.246094"/>
       <use xlink:href="#DejaVuSans-30" x="190.869141"/>
      </g>
     </g>
    </g>
    <g id="ytick_27">
     <g id="line2d_113">
      <path d="M 491.721875 513.999029 
L 902.91 513.999029 
" clip-path="url(#pe35275108a)" style="fill: none; stroke-dasharray: 1.48,0.64; stroke-dashoffset: 0; stroke: #838383; stroke-opacity: 0.25; stroke-width: 0.4"/>
     </g>
     <g id="line2d_114"/>
     <g id="text_63">
      <!-- 1500 -->
      <g style="fill: #838383" transform="translate(457.681875 518.558092) scale(0.12 -0.12)">
       <use xlink:href="#DejaVuSans-31"/>
       <use xlink:href="#DejaVuSans-35" x="63.623047"/>
       <use xlink:href="#DejaVuSans-30" x="127.246094"/>
       <use xlink:href="#DejaVuSans-30" x="190.869141"/>
      </g>
     </g>
    </g>
    <g id="ytick_28">
     <g id="line2d_115">
      <path d="M 491.721875 466.191456 
L 902.91 466.191456 
" clip-path="url(#pe35275108a)" style="fill: none; stroke-dasharray: 1.48,0.64; stroke-dashoffset: 0; stroke: #838383; stroke-opacity: 0.25; stroke-width: 0.4"/>
     </g>
     <g id="line2d_116"/>
     <g id="text_64">
      <!-- 2000 -->
      <g style="fill: #838383" transform="translate(457.681875 470.750518) scale(0.12 -0.12)">
       <use xlink:href="#DejaVuSans-32"/>
       <use xlink:href="#DejaVuSans-30" x="63.623047"/>
       <use xlink:href="#DejaVuSans-30" x="127.246094"/>
       <use xlink:href="#DejaVuSans-30" x="190.869141"/>
      </g>
     </g>
    </g>
    <g id="ytick_29">
     <g id="line2d_117">
      <path d="M 491.721875 418.383882 
L 902.91 418.383882 
" clip-path="url(#pe35275108a)" style="fill: none; stroke-dasharray: 1.48,0.64; stroke-dashoffset: 0; stroke: #838383; stroke-opacity: 0.25; stroke-width: 0.4"/>
     </g>
     <g id="line2d_118"/>
     <g id="text_65">
      <!-- 2500 -->
      <g style="fill: #838383" transform="translate(457.681875 422.942945) scale(0.12 -0.12)">
       <use xlink:href="#DejaVuSans-32"/>
       <use xlink:href="#DejaVuSans-35" x="63.623047"/>
       <use xlink:href="#DejaVuSans-30" x="127.246094"/>
       <use xlink:href="#DejaVuSans-30" x="190.869141"/>
      </g>
     </g>
    </g>
    <g id="ytick_30">
     <g id="line2d_119">
      <path d="M 491.721875 370.576309 
L 902.91 370.576309 
" clip-path="url(#pe35275108a)" style="fill: none; stroke-dasharray: 1.48,0.64; stroke-dashoffset: 0; stroke: #838383; stroke-opacity: 0.25; stroke-width: 0.4"/>
     </g>
     <g id="line2d_120"/>
     <g id="text_66">
      <!-- 3000 -->
      <g style="fill: #838383" transform="translate(457.681875 375.135371) scale(0.12 -0.12)">
       <use xlink:href="#DejaVuSans-33"/>
       <use xlink:href="#DejaVuSans-30" x="63.623047"/>
       <use xlink:href="#DejaVuSans-30" x="127.246094"/>
       <use xlink:href="#DejaVuSans-30" x="190.869141"/>
      </g>
     </g>
    </g>
   </g>
   <g id="patch_114">
    <path d="M 491.721875 657.42175 
L 491.721875 363.26175 
" style="fill: none"/>
   </g>
   <g id="patch_115">
    <path d="M 902.91 657.42175 
L 902.91 363.26175 
" style="fill: none"/>
   </g>
   <g id="patch_116">
    <path d="M 491.721875 657.42175 
L 902.91 657.42175 
" style="fill: none"/>
   </g>
   <g id="patch_117">
    <path d="M 491.721875 363.26175 
L 902.91 363.26175 
" style="fill: none"/>
   </g>
   <g id="text_67">
    <!-- different sample sizes -->
    <g style="fill: #838383" transform="translate(618.166563 357.26175) scale(0.144 -0.144)">
     <defs>
      <path id="DejaVuSans-6d" d="M 3328 2828 
Q 3544 3216 3844 3400 
Q 4144 3584 4550 3584 
Q 5097 3584 5394 3201 
Q 5691 2819 5691 2113 
L 5691 0 
L 5113 0 
L 5113 2094 
Q 5113 2597 4934 2840 
Q 4756 3084 4391 3084 
Q 3944 3084 3684 2787 
Q 3425 2491 3425 1978 
L 3425 0 
L 2847 0 
L 2847 2094 
Q 2847 2600 2669 2842 
Q 2491 3084 2119 3084 
Q 1678 3084 1418 2786 
Q 1159 2488 1159 1978 
L 1159 0 
L 581 0 
L 581 3500 
L 1159 3500 
L 1159 2956 
Q 1356 3278 1631 3431 
Q 1906 3584 2284 3584 
Q 2666 3584 2933 3390 
Q 3200 3197 3328 2828 
z
" transform="scale(0.015625)"/>
      <path id="DejaVuSans-7a" d="M 353 3500 
L 3084 3500 
L 3084 2975 
L 922 459 
L 3084 459 
L 3084 0 
L 275 0 
L 275 525 
L 2438 3041 
L 353 3041 
L 353 3500 
z
" transform="scale(0.015625)"/>
     </defs>
     <use xlink:href="#DejaVuSans-64"/>
     <use xlink:href="#DejaVuSans-69" x="63.476562"/>
     <use xlink:href="#DejaVuSans-66" x="91.259766"/>
     <use xlink:href="#DejaVuSans-66" x="126.464844"/>
     <use xlink:href="#DejaVuSans-65" x="161.669922"/>
     <use xlink:href="#DejaVuSans-72" x="223.193359"/>
     <use xlink:href="#DejaVuSans-65" x="262.056641"/>
     <use xlink:href="#DejaVuSans-6e" x="323.580078"/>
     <use xlink:href="#DejaVuSans-74" x="386.958984"/>
     <use xlink:href="#DejaVuSans-20" x="426.167969"/>
     <use xlink:href="#DejaVuSans-73" x="457.955078"/>
     <use xlink:href="#DejaVuSans-61" x="510.054688"/>
     <use xlink:href="#DejaVuSans-6d" x="571.333984"/>
     <use xlink:href="#DejaVuSans-70" x="668.746094"/>
     <use xlink:href="#DejaVuSans-6c" x="732.222656"/>
     <use xlink:href="#DejaVuSans-65" x="760.005859"/>
     <use xlink:href="#DejaVuSans-20" x="821.529297"/>
     <use xlink:href="#DejaVuSans-73" x="853.316406"/>
     <use xlink:href="#DejaVuSans-69" x="905.416016"/>
     <use xlink:href="#DejaVuSans-7a" x="933.199219"/>
     <use xlink:href="#DejaVuSans-65" x="985.689453"/>
     <use xlink:href="#DejaVuSans-73" x="1047.212891"/>
    </g>
   </g>
  </g>
 </g>
 <defs>
  <clipPath id="p0e48f8fd48">
   <rect x="33.605" y="24.14175" width="411.188125" height="294.16"/>
  </clipPath>
  <clipPath id="p8c7935110f">
   <rect x="491.721875" y="24.14175" width="411.188125" height="294.16"/>
  </clipPath>
  <clipPath id="pd06c826459">
   <rect x="33.605" y="363.26175" width="411.188125" height="294.16"/>
  </clipPath>
  <clipPath id="pe35275108a">
   <rect x="491.721875" y="363.26175" width="411.188125" height="294.16"/>
  </clipPath>
 </defs>
</svg>
