<?xml version="1.0" encoding="utf-8" standalone="no"?>
<!DOCTYPE svg PUBLIC "-//W3C//DTD SVG 1.1//EN"
  "http://www.w3.org/Graphics/SVG/1.1/DTD/svg11.dtd">
<svg xmlns:xlink="http://www.w3.org/1999/xlink" width="550.120436pt" height="546.624pt" viewBox="0 0 550.120436 546.624" xmlns="http://www.w3.org/2000/svg" version="1.1">
 <metadata>
  <rdf:RDF xmlns:dc="http://purl.org/dc/elements/1.1/" xmlns:cc="http://creativecommons.org/ns#" xmlns:rdf="http://www.w3.org/1999/02/22-rdf-syntax-ns#">
   <cc:Work>
    <dc:type rdf:resource="http://purl.org/dc/dcmitype/StillImage"/>
    <dc:date>2023-12-29T00:17:59.109671</dc:date>
    <dc:format>image/svg+xml</dc:format>
    <dc:creator>
     <cc:Agent>
      <dc:title>Matplotlib v3.8.1, https://matplotlib.org/</dc:title>
     </cc:Agent>
    </dc:creator>
   </cc:Work>
  </rdf:RDF>
 </metadata>
 <defs>
  <style type="text/css">*{stroke-linejoin: round; stroke-linecap: butt}</style>
 </defs>
 <g id="figure_1">
  <g id="patch_1">
   <path d="M 0 546.624 
L 550.120436 546.624 
L 550.120436 0 
L 0 0 
L 0 546.624 
z
" style="fill: none"/>
  </g>
  <g id="patch_2">
   <path d="M 7.2 539.424 
L 539.424 539.424 
L 539.424 7.2 
L 7.2 7.2 
L 7.2 539.424 
z
" style="fill: none"/>
  </g>
  <g id="pane3d_1">
   <g id="patch_3">
    <path d="M 47.386582 408.194618 
L 223.144329 260.87099 
L 220.701128 48.403982 
L 36.532467 182.801882 
" style="fill: #f2f2f2; opacity: 0.5; stroke: #f2f2f2; stroke-linejoin: miter"/>
   </g>
  </g>
  <g id="pane3d_2">
   <g id="patch_4">
    <path d="M 223.144329 260.87099 
L 505.172801 342.845532 
L 515.237403 123.060342 
L 220.701128 48.403982 
" style="fill: #e6e6e6; opacity: 0.5; stroke: #e6e6e6; stroke-linejoin: miter"/>
   </g>
  </g>
  <g id="pane3d_3">
   <g id="patch_5">
    <path d="M 47.386582 408.194618 
L 346.350538 505.836245 
L 505.172801 342.845532 
L 223.144329 260.87099 
" style="fill: #ececec; opacity: 0.5; stroke: #ececec; stroke-linejoin: miter"/>
   </g>
  </g>
  <g id="grid3d_1">
   <g id="Line3DCollection_1">
    <path d="M 53.064529 410.049035 
L 228.523884 262.434614 
L 226.307641 49.82507 
" style="fill: none; stroke-dasharray: 1.48,0.64; stroke-dashoffset: 0; stroke: #838383; stroke-width: 0.4"/>
    <path d="M 108.172995 428.04746 
L 280.689319 277.597047 
L 280.697287 63.611259 
" style="fill: none; stroke-dasharray: 1.48,0.64; stroke-dashoffset: 0; stroke: #838383; stroke-width: 0.4"/>
    <path d="M 164.391612 446.40846 
L 333.818086 293.039482 
L 336.134987 77.6631 
" style="fill: none; stroke-dasharray: 1.48,0.64; stroke-dashoffset: 0; stroke: #838383; stroke-width: 0.4"/>
    <path d="M 221.754267 465.143103 
L 387.937117 308.769748 
L 392.65133 91.988346 
" style="fill: none; stroke-dasharray: 1.48,0.64; stroke-dashoffset: 0; stroke: #838383; stroke-width: 0.4"/>
    <path d="M 280.29624 484.262912 
L 443.074361 324.795967 
L 450.278106 106.595054 
" style="fill: none; stroke-dasharray: 1.48,0.64; stroke-dashoffset: 0; stroke: #838383; stroke-width: 0.4"/>
    <path d="M 340.054278 503.779887 
L 499.258824 341.126573 
L 509.048367 121.491601 
" style="fill: none; stroke-dasharray: 1.48,0.64; stroke-dashoffset: 0; stroke: #838383; stroke-width: 0.4"/>
   </g>
  </g>
  <g id="grid3d_2">
   <g id="Line3DCollection_2">
    <path d="M 40.551356 179.86908 
L 51.20771 404.991673 
L 349.818419 502.277347 
" style="fill: none; stroke-dasharray: 1.48,0.64; stroke-dashoffset: 0; stroke: #838383; stroke-width: 0.4"/>
    <path d="M 78.385774 152.259245 
L 87.211387 374.812677 
L 382.460977 468.778051 
" style="fill: none; stroke-dasharray: 1.48,0.64; stroke-dashoffset: 0; stroke: #838383; stroke-width: 0.4"/>
    <path d="M 114.916339 125.600903 
L 122.027586 345.629049 
L 413.970741 436.441282 
" style="fill: none; stroke-dasharray: 1.48,0.64; stroke-dashoffset: 0; stroke: #838383; stroke-width: 0.4"/>
    <path d="M 150.209308 99.845701 
L 155.714103 317.392343 
L 444.405671 405.207556 
" style="fill: none; stroke-dasharray: 1.48,0.64; stroke-dashoffset: 0; stroke: #838383; stroke-width: 0.4"/>
    <path d="M 184.326527 74.948509 
L 188.325042 290.057207 
L 473.819842 375.021382 
" style="fill: none; stroke-dasharray: 1.48,0.64; stroke-dashoffset: 0; stroke: #838383; stroke-width: 0.4"/>
    <path d="M 217.325785 50.867153 
L 219.911107 263.58114 
L 502.263758 345.830926 
" style="fill: none; stroke-dasharray: 1.48,0.64; stroke-dashoffset: 0; stroke: #838383; stroke-width: 0.4"/>
   </g>
  </g>
  <g id="grid3d_3">
   <g id="Line3DCollection_3">
    <path d="M 505.365628 338.634691 
L 223.097423 256.79192 
L 47.178973 403.883478 
" style="fill: none; stroke-dasharray: 1.48,0.64; stroke-dashoffset: 0; stroke: #838383; stroke-width: 0.4"/>
    <path d="M 507.233744 297.839796 
L 222.643191 217.290724 
L 45.166948 362.10247 
" style="fill: none; stroke-dasharray: 1.48,0.64; stroke-dashoffset: 0; stroke: #838383; stroke-width: 0.4"/>
    <path d="M 509.133161 256.361385 
L 222.181713 177.159434 
L 43.11992 319.594617 
" style="fill: none; stroke-dasharray: 1.48,0.64; stroke-dashoffset: 0; stroke: #838383; stroke-width: 0.4"/>
    <path d="M 511.064672 214.182136 
L 221.712815 136.382854 
L 41.036969 276.340786 
" style="fill: none; stroke-dasharray: 1.48,0.64; stroke-dashoffset: 0; stroke: #838383; stroke-width: 0.4"/>
    <path d="M 513.029096 171.284135 
L 221.236316 94.945293 
L 38.91714 232.321165 
" style="fill: none; stroke-dasharray: 1.48,0.64; stroke-dashoffset: 0; stroke: #838383; stroke-width: 0.4"/>
    <path d="M 515.027282 127.648851 
L 220.75203 52.830548 
L 36.759446 187.515236 
" style="fill: none; stroke-dasharray: 1.48,0.64; stroke-dashoffset: 0; stroke: #838383; stroke-width: 0.4"/>
   </g>
  </g>
  <g id="axis3d_1">
   <g id="line2d_1">
    <path d="M 47.386582 408.194618 
L 346.350538 505.836245 
" style="fill: none"/>
   </g>
   <g id="xtick_1">
    <g id="line2d_2">
     <path d="M 280.504216 266.119784 
" clip-path="url(#pbd9d925090)" style="fill: none; stroke-dasharray: 1.48,0.64; stroke-dashoffset: 0; stroke: #838383; stroke-opacity: 0.25; stroke-width: 0.4"/>
    </g>
    <g id="line2d_3">
     <path d="M 54.592141 408.763852 
L 50.002766 412.624905 
" style="fill: none; stroke: #000000; stroke-opacity: 0; stroke-width: 0.8; stroke-linecap: round"/>
    </g>
    <g id="text_1">
     <!-- 0.0 -->
     <g style="fill: #838383" transform="translate(36.711149 434.567833) scale(0.12 -0.12)">
      <defs>
       <path id="IBMPlexSans-Regular-30" d="M 1920 -77 
Q 1120 -77 752 531 
Q 384 1139 384 2234 
Q 384 3328 752 3936 
Q 1120 4544 1920 4544 
Q 2720 4544 3088 3936 
Q 3456 3328 3456 2234 
Q 3456 1139 3088 531 
Q 2720 -77 1920 -77 
z
M 1920 390 
Q 2182 390 2368 499 
Q 2554 608 2669 806 
Q 2784 1005 2838 1273 
Q 2893 1542 2893 1869 
L 2893 2598 
Q 2893 2925 2838 3193 
Q 2784 3462 2669 3660 
Q 2554 3859 2368 3968 
Q 2182 4077 1920 4077 
Q 1658 4077 1472 3968 
Q 1286 3859 1171 3660 
Q 1056 3462 1001 3193 
Q 947 2925 947 2598 
L 947 1869 
Q 947 1542 1001 1273 
Q 1056 1005 1171 806 
Q 1286 608 1472 499 
Q 1658 390 1920 390 
z
" transform="scale(0.015625)"/>
       <path id="IBMPlexSans-Regular-2e" d="M 870 -77 
Q 666 -77 573 25 
Q 480 128 480 294 
L 480 378 
Q 480 544 573 646 
Q 666 749 870 749 
Q 1075 749 1168 646 
Q 1261 544 1261 378 
L 1261 294 
Q 1261 128 1168 25 
Q 1075 -77 870 -77 
z
" transform="scale(0.015625)"/>
      </defs>
      <use xlink:href="#IBMPlexSans-Regular-30"/>
      <use xlink:href="#IBMPlexSans-Regular-2e" x="59.999985"/>
      <use xlink:href="#IBMPlexSans-Regular-30" x="87.199982"/>
     </g>
    </g>
   </g>
   <g id="xtick_2">
    <g id="line2d_4">
     <path d="M 280.504216 266.119784 
" clip-path="url(#pbd9d925090)" style="fill: none; stroke-dasharray: 1.48,0.64; stroke-dashoffset: 0; stroke: #838383; stroke-opacity: 0.25; stroke-width: 0.4"/>
    </g>
    <g id="line2d_5">
     <path d="M 109.676198 426.736526 
L 105.160089 430.674997 
" style="fill: none; stroke: #000000; stroke-opacity: 0; stroke-width: 0.8; stroke-linecap: round"/>
    </g>
    <g id="text_2">
     <!-- 0.2 -->
     <g style="fill: #838383" transform="translate(91.847499 452.756147) scale(0.12 -0.12)">
      <defs>
       <path id="IBMPlexSans-Regular-32" d="M 3411 0 
L 480 0 
L 480 550 
L 1939 1894 
Q 2253 2182 2464 2505 
Q 2675 2829 2675 3155 
L 2675 3232 
Q 2675 3603 2470 3833 
Q 2266 4064 1850 4064 
Q 1645 4064 1491 4006 
Q 1338 3949 1226 3846 
Q 1114 3744 1040 3606 
Q 966 3469 922 3309 
L 442 3494 
Q 506 3693 618 3881 
Q 730 4070 899 4217 
Q 1069 4365 1309 4454 
Q 1549 4544 1875 4544 
Q 2202 4544 2458 4448 
Q 2714 4352 2886 4179 
Q 3059 4006 3152 3769 
Q 3245 3533 3245 3245 
Q 3245 2982 3171 2758 
Q 3098 2534 2970 2332 
Q 2842 2131 2659 1939 
Q 2477 1747 2266 1555 
L 1062 474 
L 3411 474 
L 3411 0 
z
" transform="scale(0.015625)"/>
      </defs>
      <use xlink:href="#IBMPlexSans-Regular-30"/>
      <use xlink:href="#IBMPlexSans-Regular-2e" x="59.999985"/>
      <use xlink:href="#IBMPlexSans-Regular-32" x="87.199982"/>
     </g>
    </g>
   </g>
   <g id="xtick_3">
    <g id="line2d_6">
     <path d="M 280.504216 266.119784 
" clip-path="url(#pbd9d925090)" style="fill: none; stroke-dasharray: 1.48,0.64; stroke-dashoffset: 0; stroke: #838383; stroke-opacity: 0.25; stroke-width: 0.4"/>
    </g>
    <g id="line2d_7">
     <path d="M 165.869108 445.070995 
L 161.430166 449.089234 
" style="fill: none; stroke: #000000; stroke-opacity: 0; stroke-width: 0.8; stroke-linecap: round"/>
    </g>
    <g id="text_3">
     <!-- 0.4 -->
     <g style="fill: #838383" transform="translate(148.096659 471.311554) scale(0.12 -0.12)">
      <defs>
       <path id="IBMPlexSans-Regular-34" d="M 2400 0 
L 2400 877 
L 243 877 
L 243 1350 
L 2112 4467 
L 2912 4467 
L 2912 1325 
L 3558 1325 
L 3558 877 
L 2912 877 
L 2912 0 
L 2400 0 
z
M 749 1325 
L 2400 1325 
L 2400 4051 
L 2368 4051 
L 749 1325 
z
" transform="scale(0.015625)"/>
      </defs>
      <use xlink:href="#IBMPlexSans-Regular-30"/>
      <use xlink:href="#IBMPlexSans-Regular-2e" x="59.999985"/>
      <use xlink:href="#IBMPlexSans-Regular-34" x="87.199982"/>
     </g>
    </g>
   </g>
   <g id="xtick_4">
    <g id="line2d_8">
     <path d="M 280.504216 266.119784 
" clip-path="url(#pbd9d925090)" style="fill: none; stroke-dasharray: 1.48,0.64; stroke-dashoffset: 0; stroke: #838383; stroke-opacity: 0.25; stroke-width: 0.4"/>
    </g>
    <g id="line2d_9">
     <path d="M 223.204694 463.778292 
L 218.847012 467.878748 
" style="fill: none; stroke: #000000; stroke-opacity: 0; stroke-width: 0.8; stroke-linecap: round"/>
    </g>
    <g id="text_4">
     <!-- 0.6 -->
     <g style="fill: #838383" transform="translate(205.492662 490.24528) scale(0.12 -0.12)">
      <defs>
       <path id="IBMPlexSans-Regular-36" d="M 1926 -77 
Q 1581 -77 1302 41 
Q 1024 160 829 381 
Q 634 602 531 922 
Q 429 1242 429 1638 
Q 429 2138 576 2576 
Q 723 3014 956 3376 
Q 1190 3738 1472 4016 
Q 1754 4294 2022 4467 
L 2714 4467 
Q 2355 4205 2073 3955 
Q 1792 3706 1581 3434 
Q 1370 3162 1222 2851 
Q 1075 2541 986 2150 
L 1018 2138 
Q 1178 2413 1430 2595 
Q 1683 2778 2093 2778 
Q 2381 2778 2624 2682 
Q 2867 2586 3040 2406 
Q 3213 2227 3312 1971 
Q 3411 1715 3411 1402 
Q 3411 1075 3305 803 
Q 3200 531 3005 336 
Q 2810 141 2534 32 
Q 2259 -77 1926 -77 
z
M 1920 390 
Q 2362 390 2608 633 
Q 2854 877 2854 1331 
L 2854 1382 
Q 2854 1837 2608 2080 
Q 2362 2323 1920 2323 
Q 1478 2323 1232 2080 
Q 986 1837 986 1382 
L 986 1331 
Q 986 877 1232 633 
Q 1478 390 1920 390 
z
" transform="scale(0.015625)"/>
      </defs>
      <use xlink:href="#IBMPlexSans-Regular-30"/>
      <use xlink:href="#IBMPlexSans-Regular-2e" x="59.999985"/>
      <use xlink:href="#IBMPlexSans-Regular-36" x="87.199982"/>
     </g>
    </g>
   </g>
   <g id="xtick_5">
    <g id="line2d_10">
     <path d="M 280.504216 266.119784 
" clip-path="url(#pbd9d925090)" style="fill: none; stroke-dasharray: 1.48,0.64; stroke-dashoffset: 0; stroke: #838383; stroke-opacity: 0.25; stroke-width: 0.4"/>
    </g>
    <g id="line2d_11">
     <path d="M 281.718168 482.869908 
L 277.446044 487.05513 
" style="fill: none; stroke: #000000; stroke-opacity: 0; stroke-width: 0.8; stroke-linecap: round"/>
    </g>
    <g id="text_5">
     <!-- 0.8 -->
     <g style="fill: #838383" transform="translate(264.070944 509.569014) scale(0.12 -0.12)">
      <defs>
       <path id="IBMPlexSans-Regular-38" d="M 1920 -77 
Q 1536 -77 1248 22 
Q 960 122 765 294 
Q 570 467 470 704 
Q 371 941 371 1216 
Q 371 1677 620 1945 
Q 870 2214 1274 2323 
L 1274 2374 
Q 922 2496 714 2768 
Q 506 3040 506 3424 
Q 506 3936 877 4240 
Q 1248 4544 1920 4544 
Q 2592 4544 2963 4240 
Q 3334 3936 3334 3424 
Q 3334 3040 3126 2768 
Q 2918 2496 2566 2374 
L 2566 2323 
Q 2970 2214 3219 1945 
Q 3469 1677 3469 1216 
Q 3469 941 3369 704 
Q 3270 467 3075 294 
Q 2880 122 2592 22 
Q 2304 -77 1920 -77 
z
M 1920 390 
Q 2387 390 2643 598 
Q 2899 806 2899 1190 
L 2899 1325 
Q 2899 1709 2643 1917 
Q 2387 2125 1920 2125 
Q 1453 2125 1197 1917 
Q 941 1709 941 1325 
L 941 1190 
Q 941 806 1197 598 
Q 1453 390 1920 390 
z
M 1920 2573 
Q 2342 2573 2560 2752 
Q 2778 2931 2778 3277 
L 2778 3373 
Q 2778 3718 2560 3897 
Q 2342 4077 1920 4077 
Q 1498 4077 1280 3897 
Q 1062 3718 1062 3373 
L 1062 3277 
Q 1062 2931 1280 2752 
Q 1498 2573 1920 2573 
z
" transform="scale(0.015625)"/>
      </defs>
      <use xlink:href="#IBMPlexSans-Regular-30"/>
      <use xlink:href="#IBMPlexSans-Regular-2e" x="59.999985"/>
      <use xlink:href="#IBMPlexSans-Regular-38" x="87.199982"/>
     </g>
    </g>
   </g>
   <g id="xtick_6">
    <g id="line2d_12">
     <path d="M 280.504216 266.119784 
" clip-path="url(#pbd9d925090)" style="fill: none; stroke-dasharray: 1.48,0.64; stroke-dashoffset: 0; stroke: #838383; stroke-opacity: 0.25; stroke-width: 0.4"/>
    </g>
    <g id="line2d_13">
     <path d="M 341.446205 502.357807 
L 337.264155 506.630451 
" style="fill: none; stroke: #000000; stroke-opacity: 0; stroke-width: 0.8; stroke-linecap: round"/>
    </g>
    <g id="text_6">
     <!-- 1.0 -->
     <g style="fill: #838383" transform="translate(323.868414 529.294933) scale(0.12 -0.12)">
      <defs>
       <path id="IBMPlexSans-Regular-31" d="M 563 0 
L 563 474 
L 1811 474 
L 1811 4070 
L 1766 4070 
L 640 3021 
L 326 3360 
L 1510 4467 
L 2349 4467 
L 2349 474 
L 3501 474 
L 3501 0 
L 563 0 
z
" transform="scale(0.015625)"/>
      </defs>
      <use xlink:href="#IBMPlexSans-Regular-31"/>
      <use xlink:href="#IBMPlexSans-Regular-2e" x="59.999985"/>
      <use xlink:href="#IBMPlexSans-Regular-30" x="87.199982"/>
     </g>
    </g>
   </g>
   <g id="text_7">
    <!-- X -->
    <g style="fill: #838383" transform="translate(173.025865 494.094542) scale(0.12 -0.12)">
     <defs>
      <path id="IBMPlexSans-Regular-58" d="M 3770 0 
L 3123 0 
L 1952 1875 
L 1939 1875 
L 768 0 
L 154 0 
L 1613 2272 
L 192 4467 
L 838 4467 
L 1958 2688 
L 1971 2688 
L 3117 4467 
L 3731 4467 
L 2298 2291 
L 3770 0 
z
" transform="scale(0.015625)"/>
     </defs>
     <use xlink:href="#IBMPlexSans-Regular-58"/>
    </g>
   </g>
  </g>
  <g id="axis3d_2">
   <g id="line2d_14">
    <path d="M 505.172801 342.845532 
L 346.350538 505.836245 
" style="fill: none"/>
   </g>
   <g id="xtick_7">
    <g id="line2d_15">
     <path d="M 280.504216 266.119784 
" clip-path="url(#pbd9d925090)" style="fill: none; stroke-dasharray: 1.48,0.64; stroke-dashoffset: 0; stroke: #838383; stroke-opacity: 0.25; stroke-width: 0.4"/>
    </g>
    <g id="line2d_16">
     <path d="M 347.301497 501.457348 
L 354.858799 503.919474 
" style="fill: none; stroke: #000000; stroke-opacity: 0; stroke-width: 0.8; stroke-linecap: round"/>
    </g>
    <g id="text_8">
     <!-- 0.0 -->
     <g style="fill: #838383" transform="translate(353.913371 524.633779) scale(0.12 -0.12)">
      <use xlink:href="#IBMPlexSans-Regular-30"/>
      <use xlink:href="#IBMPlexSans-Regular-2e" x="59.999985"/>
      <use xlink:href="#IBMPlexSans-Regular-30" x="87.199982"/>
     </g>
    </g>
   </g>
   <g id="xtick_8">
    <g id="line2d_17">
     <path d="M 280.504216 266.119784 
" clip-path="url(#pbd9d925090)" style="fill: none; stroke-dasharray: 1.48,0.64; stroke-dashoffset: 0; stroke: #838383; stroke-opacity: 0.25; stroke-width: 0.4"/>
    </g>
    <g id="line2d_18">
     <path d="M 379.97462 467.98675 
L 387.440035 470.362673 
" style="fill: none; stroke: #000000; stroke-opacity: 0; stroke-width: 0.8; stroke-linecap: round"/>
    </g>
    <g id="text_9">
     <!-- 0.2 -->
     <g style="fill: #838383" transform="translate(386.337233 490.886559) scale(0.12 -0.12)">
      <use xlink:href="#IBMPlexSans-Regular-30"/>
      <use xlink:href="#IBMPlexSans-Regular-2e" x="59.999985"/>
      <use xlink:href="#IBMPlexSans-Regular-32" x="87.199982"/>
     </g>
    </g>
   </g>
   <g id="xtick_9">
    <g id="line2d_19">
     <path d="M 280.504216 266.119784 
" clip-path="url(#pbd9d925090)" style="fill: none; stroke-dasharray: 1.48,0.64; stroke-dashoffset: 0; stroke: #838383; stroke-opacity: 0.25; stroke-width: 0.4"/>
    </g>
    <g id="line2d_20">
     <path d="M 411.51436 435.677197 
L 418.889659 437.971367 
" style="fill: none; stroke: #000000; stroke-opacity: 0; stroke-width: 0.8; stroke-linecap: round"/>
    </g>
    <g id="text_10">
     <!-- 0.4 -->
     <g style="fill: #838383" transform="translate(417.635562 458.310808) scale(0.12 -0.12)">
      <use xlink:href="#IBMPlexSans-Regular-30"/>
      <use xlink:href="#IBMPlexSans-Regular-2e" x="59.999985"/>
      <use xlink:href="#IBMPlexSans-Regular-34" x="87.199982"/>
     </g>
    </g>
   </g>
   <g id="xtick_10">
    <g id="line2d_21">
     <path d="M 280.504216 266.119784 
" clip-path="url(#pbd9d925090)" style="fill: none; stroke-dasharray: 1.48,0.64; stroke-dashoffset: 0; stroke: #838383; stroke-opacity: 0.25; stroke-width: 0.4"/>
    </g>
    <g id="line2d_22">
     <path d="M 441.978686 404.469308 
L 449.265621 406.685873 
" style="fill: none; stroke: #000000; stroke-opacity: 0; stroke-width: 0.8; stroke-linecap: round"/>
    </g>
    <g id="text_11">
     <!-- 0.6 -->
     <g style="fill: #838383" transform="translate(447.865967 426.84657) scale(0.12 -0.12)">
      <use xlink:href="#IBMPlexSans-Regular-30"/>
      <use xlink:href="#IBMPlexSans-Regular-2e" x="59.999985"/>
      <use xlink:href="#IBMPlexSans-Regular-36" x="87.199982"/>
     </g>
    </g>
   </g>
   <g id="xtick_11">
    <g id="line2d_23">
     <path d="M 280.504216 266.119784 
" clip-path="url(#pbd9d925090)" style="fill: none; stroke-dasharray: 1.48,0.64; stroke-dashoffset: 0; stroke: #838383; stroke-opacity: 0.25; stroke-width: 0.4"/>
    </g>
    <g id="line2d_24">
     <path d="M 471.421679 374.307681 
L 478.621977 376.450513 
" style="fill: none; stroke: #000000; stroke-opacity: 0; stroke-width: 0.8; stroke-linecap: round"/>
    </g>
    <g id="text_12">
     <!-- 0.8 -->
     <g style="fill: #838383" transform="translate(477.082186 396.437909) scale(0.12 -0.12)">
      <use xlink:href="#IBMPlexSans-Regular-30"/>
      <use xlink:href="#IBMPlexSans-Regular-2e" x="59.999985"/>
      <use xlink:href="#IBMPlexSans-Regular-38" x="87.199982"/>
     </g>
    </g>
   </g>
   <g id="xtick_12">
    <g id="line2d_25">
     <path d="M 280.504216 266.119784 
" clip-path="url(#pbd9d925090)" style="fill: none; stroke-dasharray: 1.48,0.64; stroke-dashoffset: 0; stroke: #838383; stroke-opacity: 0.25; stroke-width: 0.4"/>
    </g>
    <g id="line2d_26">
     <path d="M 499.893851 345.140568 
L 507.009218 347.213286 
" style="fill: none; stroke: #000000; stroke-opacity: 0; stroke-width: 0.8; stroke-linecap: round"/>
    </g>
    <g id="text_13">
     <!-- 1.0 -->
     <g style="fill: #838383" transform="translate(505.334416 367.032584) scale(0.12 -0.12)">
      <use xlink:href="#IBMPlexSans-Regular-31"/>
      <use xlink:href="#IBMPlexSans-Regular-2e" x="59.999985"/>
      <use xlink:href="#IBMPlexSans-Regular-30" x="87.199982"/>
     </g>
    </g>
   </g>
   <g id="text_14">
    <!-- Y -->
    <g style="fill: #838383" transform="translate(452.713649 451.924851) scale(0.12 -0.12)">
     <defs>
      <path id="IBMPlexSans-Regular-59" d="M 1619 0 
L 1619 1766 
L 83 4467 
L 698 4467 
L 1888 2317 
L 1907 2317 
L 3098 4467 
L 3712 4467 
L 2157 1786 
L 2157 0 
L 1619 0 
z
" transform="scale(0.015625)"/>
     </defs>
     <use xlink:href="#IBMPlexSans-Regular-59"/>
    </g>
   </g>
  </g>
  <g id="axis3d_3">
   <g id="line2d_27">
    <path d="M 505.172801 342.845532 
L 515.237403 123.060342 
" style="fill: none"/>
   </g>
   <g id="xtick_13">
    <g id="line2d_28">
     <path d="M 280.504216 266.119784 
" style="fill: none; stroke-dasharray: 1.48,0.64; stroke-dashoffset: 0; stroke: #838383; stroke-opacity: 0.25; stroke-width: 0.4"/>
    </g>
    <g id="line2d_29">
     <path d="M 502.996525 337.947777 
L 510.109473 340.010154 
" style="fill: none; stroke: #000000; stroke-opacity: 0; stroke-width: 0.8; stroke-linecap: round"/>
    </g>
    <g id="text_15">
     <!-- 0.0 -->
     <g style="fill: #838383" transform="translate(514.82485 344.909874) scale(0.12 -0.12)">
      <use xlink:href="#IBMPlexSans-Regular-30"/>
      <use xlink:href="#IBMPlexSans-Regular-2e" x="59.999985"/>
      <use xlink:href="#IBMPlexSans-Regular-30" x="87.199982"/>
     </g>
    </g>
   </g>
   <g id="xtick_14">
    <g id="line2d_30">
     <path d="M 280.504216 266.119784 
" style="fill: none; stroke-dasharray: 1.48,0.64; stroke-dashoffset: 0; stroke: #838383; stroke-opacity: 0.25; stroke-width: 0.4"/>
    </g>
    <g id="line2d_31">
     <path d="M 504.844221 297.163477 
L 512.018527 299.194056 
" style="fill: none; stroke: #000000; stroke-opacity: 0; stroke-width: 0.8; stroke-linecap: round"/>
    </g>
    <g id="text_16">
     <!-- 0.2 -->
     <g style="fill: #838383" transform="translate(516.841868 304.15518) scale(0.12 -0.12)">
      <use xlink:href="#IBMPlexSans-Regular-30"/>
      <use xlink:href="#IBMPlexSans-Regular-2e" x="59.999985"/>
      <use xlink:href="#IBMPlexSans-Regular-32" x="87.199982"/>
     </g>
    </g>
   </g>
   <g id="xtick_15">
    <g id="line2d_32">
     <path d="M 280.504216 266.119784 
" style="fill: none; stroke-dasharray: 1.48,0.64; stroke-dashoffset: 0; stroke: #838383; stroke-opacity: 0.25; stroke-width: 0.4"/>
    </g>
    <g id="line2d_33">
     <path d="M 506.722862 255.696114 
L 513.959593 257.693536 
" style="fill: none; stroke: #000000; stroke-opacity: 0; stroke-width: 0.8; stroke-linecap: round"/>
    </g>
    <g id="text_17">
     <!-- 0.4 -->
     <g style="fill: #838383" transform="translate(518.89263 262.718687) scale(0.12 -0.12)">
      <use xlink:href="#IBMPlexSans-Regular-30"/>
      <use xlink:href="#IBMPlexSans-Regular-2e" x="59.999985"/>
      <use xlink:href="#IBMPlexSans-Regular-34" x="87.199982"/>
     </g>
    </g>
   </g>
   <g id="xtick_16">
    <g id="line2d_34">
     <path d="M 280.504216 266.119784 
" style="fill: none; stroke-dasharray: 1.48,0.64; stroke-dashoffset: 0; stroke: #838383; stroke-opacity: 0.25; stroke-width: 0.4"/>
    </g>
    <g id="line2d_35">
     <path d="M 508.633233 213.528385 
L 515.933483 215.491234 
" style="fill: none; stroke: #000000; stroke-opacity: 0; stroke-width: 0.8; stroke-linecap: round"/>
    </g>
    <g id="text_18">
     <!-- 0.6 -->
     <g style="fill: #838383" transform="translate(520.977989 220.583143) scale(0.12 -0.12)">
      <use xlink:href="#IBMPlexSans-Regular-30"/>
      <use xlink:href="#IBMPlexSans-Regular-2e" x="59.999985"/>
      <use xlink:href="#IBMPlexSans-Regular-36" x="87.199982"/>
     </g>
    </g>
   </g>
   <g id="xtick_17">
    <g id="line2d_36">
     <path d="M 280.504216 266.119784 
" style="fill: none; stroke-dasharray: 1.48,0.64; stroke-dashoffset: 0; stroke: #838383; stroke-opacity: 0.25; stroke-width: 0.4"/>
    </g>
    <g id="line2d_37">
     <path d="M 510.576145 170.642393 
L 517.941036 172.569197 
" style="fill: none; stroke: #000000; stroke-opacity: 0; stroke-width: 0.8; stroke-linecap: round"/>
    </g>
    <g id="text_19">
     <!-- 0.8 -->
     <g style="fill: #838383" transform="translate(523.098829 177.730707) scale(0.12 -0.12)">
      <use xlink:href="#IBMPlexSans-Regular-30"/>
      <use xlink:href="#IBMPlexSans-Regular-2e" x="59.999985"/>
      <use xlink:href="#IBMPlexSans-Regular-38" x="87.199982"/>
     </g>
    </g>
   </g>
   <g id="xtick_18">
    <g id="line2d_38">
     <path d="M 280.504216 266.119784 
" style="fill: none; stroke-dasharray: 1.48,0.64; stroke-dashoffset: 0; stroke: #838383; stroke-opacity: 0.25; stroke-width: 0.4"/>
    </g>
    <g id="line2d_39">
     <path d="M 512.552435 127.019631 
L 519.983121 128.908854 
" style="fill: none; stroke: #000000; stroke-opacity: 0; stroke-width: 0.8; stroke-linecap: round"/>
    </g>
    <g id="text_20">
     <!-- 1.0 -->
     <g style="fill: #838383" transform="translate(525.256061 134.142926) scale(0.12 -0.12)">
      <use xlink:href="#IBMPlexSans-Regular-31"/>
      <use xlink:href="#IBMPlexSans-Regular-2e" x="59.999985"/>
      <use xlink:href="#IBMPlexSans-Regular-30" x="87.199982"/>
     </g>
    </g>
   </g>
   <g id="text_21">
    <!-- Z -->
    <g style="fill: #838383" transform="translate(547.125077 233.17313) scale(0.12 -0.12)">
     <defs>
      <path id="IBMPlexSans-Regular-5a" d="M 3482 0 
L 230 0 
L 230 486 
L 2810 3994 
L 365 3994 
L 365 4467 
L 3392 4467 
L 3392 3981 
L 806 474 
L 3482 474 
L 3482 0 
z
" transform="scale(0.015625)"/>
     </defs>
     <use xlink:href="#IBMPlexSans-Regular-5a"/>
    </g>
   </g>
  </g>
  <g id="axes_1">
   <g id="line2d_40"/>
   <g id="line2d_41"/>
   <g id="line2d_42"/>
   <g id="line2d_43"/>
   <g id="line2d_44"/>
   <g id="line2d_45"/>
   <g id="line2d_46"/>
   <g id="line2d_47"/>
   <g id="line2d_48"/>
   <g id="line2d_49"/>
   <g id="line2d_50"/>
   <g id="line2d_51"/>
   <g id="line2d_52"/>
   <g id="line2d_53"/>
   <g id="line2d_54"/>
   <g id="line2d_55"/>
   <g id="line2d_56"/>
   <g id="line2d_57"/>
   <g id="line2d_58"/>
   <g id="line2d_59"/>
   <g id="line2d_60"/>
   <g id="line2d_61"/>
   <g id="line2d_62"/>
   <g id="line2d_63"/>
   <g id="line2d_64"/>
   <g id="line2d_65"/>
   <g id="line2d_66"/>
   <g id="line2d_67"/>
   <g id="line2d_68"/>
   <g id="line2d_69"/>
   <g id="line2d_70"/>
   <g id="line2d_71"/>
   <g id="line2d_72"/>
   <g id="line2d_73"/>
   <g id="line2d_74"/>
   <g id="line2d_75"/>
   <g id="line2d_76"/>
   <g id="line2d_77"/>
   <g id="line2d_78"/>
   <g id="line2d_79"/>
  </g>
 </g>
 <defs>
  <clipPath id="pbd9d925090">
   <rect x="7.2" y="7.2" width="532.224" height="532.224"/>
  </clipPath>
 </defs>
</svg>
