<?xml version="1.0" encoding="utf-8" standalone="no"?>
<!DOCTYPE svg PUBLIC "-//W3C//DTD SVG 1.1//EN"
  "http://www.w3.org/Graphics/SVG/1.1/DTD/svg11.dtd">
<svg xmlns:xlink="http://www.w3.org/1999/xlink" width="379.41875pt" height="378.10125pt" viewBox="0 0 379.41875 378.10125" xmlns="http://www.w3.org/2000/svg" version="1.1">
 <metadata>
  <rdf:RDF xmlns:dc="http://purl.org/dc/elements/1.1/" xmlns:cc="http://creativecommons.org/ns#" xmlns:rdf="http://www.w3.org/1999/02/22-rdf-syntax-ns#">
   <cc:Work>
    <dc:type rdf:resource="http://purl.org/dc/dcmitype/StillImage"/>
    <dc:date>2024-05-13T21:14:13.441059</dc:date>
    <dc:format>image/svg+xml</dc:format>
    <dc:creator>
     <cc:Agent>
      <dc:title>Matplotlib v3.8.4, https://matplotlib.org/</dc:title>
     </cc:Agent>
    </dc:creator>
   </cc:Work>
  </rdf:RDF>
 </metadata>
 <defs>
  <style type="text/css">*{stroke-linejoin: round; stroke-linecap: butt}</style>
 </defs>
 <g id="figure_1">
  <g id="patch_1">
   <path d="M 0 378.10125 
L 379.41875 378.10125 
L 379.41875 0 
L 0 0 
L 0 378.10125 
z
" style="fill: none"/>
  </g>
  <g id="axes_1">
   <g id="patch_2">
    <path d="M 37.41875 339.84 
L 372.21875 339.84 
L 372.21875 7.2 
L 37.41875 7.2 
L 37.41875 339.84 
z
" style="fill: none"/>
   </g>
   <g id="PolyCollection_1">
    <defs>
     <path id="m0c4324b09f" d="M 92.073715 -38.81117 
L 92.073715 -38.26125 
L 93.405005 -38.26125 
L 94.736296 -38.26125 
L 96.067587 -38.26125 
L 97.398878 -38.26125 
L 98.730168 -38.26125 
L 100.061459 -38.26125 
L 101.39275 -38.26125 
L 102.72404 -38.26125 
L 104.055331 -38.26125 
L 105.386622 -38.26125 
L 106.717913 -38.26125 
L 108.049203 -38.26125 
L 109.380494 -38.26125 
L 110.711785 -38.26125 
L 112.043075 -38.26125 
L 113.374366 -38.26125 
L 114.705657 -38.26125 
L 116.036948 -38.26125 
L 117.368238 -38.26125 
L 118.699529 -38.26125 
L 120.03082 -38.26125 
L 121.362111 -38.26125 
L 122.693401 -38.26125 
L 124.024692 -38.26125 
L 125.355983 -38.26125 
L 126.687273 -38.26125 
L 128.018564 -38.26125 
L 129.349855 -38.26125 
L 130.681146 -38.26125 
L 132.012436 -38.26125 
L 133.343727 -38.26125 
L 134.675018 -38.26125 
L 136.006308 -38.26125 
L 137.337599 -38.26125 
L 138.66889 -38.26125 
L 140.000181 -38.26125 
L 141.331471 -38.26125 
L 142.662762 -38.26125 
L 143.994053 -38.26125 
L 145.325343 -38.26125 
L 146.656634 -38.26125 
L 147.987925 -38.26125 
L 149.319216 -38.26125 
L 150.650506 -38.26125 
L 151.981797 -38.26125 
L 153.313088 -38.26125 
L 154.644379 -38.26125 
L 155.975669 -38.26125 
L 157.30696 -38.26125 
L 158.638251 -38.26125 
L 159.969541 -38.26125 
L 161.300832 -38.26125 
L 162.632123 -38.26125 
L 163.963414 -38.26125 
L 165.294704 -38.26125 
L 166.625995 -38.26125 
L 167.957286 -38.26125 
L 169.288576 -38.26125 
L 170.619867 -38.26125 
L 171.951158 -38.26125 
L 173.282449 -38.26125 
L 174.613739 -38.26125 
L 175.94503 -38.26125 
L 177.276321 -38.26125 
L 178.607612 -38.26125 
L 179.938902 -38.26125 
L 181.270193 -38.26125 
L 182.601484 -38.26125 
L 183.932774 -38.26125 
L 185.264065 -38.26125 
L 186.595356 -38.26125 
L 187.926647 -38.26125 
L 189.257937 -38.26125 
L 190.589228 -38.26125 
L 191.920519 -38.26125 
L 193.251809 -38.26125 
L 194.5831 -38.26125 
L 195.914391 -38.26125 
L 197.245682 -38.26125 
L 198.576972 -38.26125 
L 199.908263 -38.26125 
L 201.239554 -38.26125 
L 202.570845 -38.26125 
L 203.902135 -38.26125 
L 205.233426 -38.26125 
L 206.564717 -38.26125 
L 207.896007 -38.26125 
L 209.227298 -38.26125 
L 210.558589 -38.26125 
L 211.88988 -38.26125 
L 213.22117 -38.26125 
L 214.552461 -38.26125 
L 215.883752 -38.26125 
L 217.215042 -38.26125 
L 218.546333 -38.26125 
L 219.877624 -38.26125 
L 221.208915 -38.26125 
L 222.540205 -38.26125 
L 223.871496 -38.26125 
L 225.202787 -38.26125 
L 226.534077 -38.26125 
L 227.865368 -38.26125 
L 229.196659 -38.26125 
L 230.52795 -38.26125 
L 231.85924 -38.26125 
L 233.190531 -38.26125 
L 234.521822 -38.26125 
L 235.853113 -38.26125 
L 237.184403 -38.26125 
L 238.515694 -38.26125 
L 239.846985 -38.26125 
L 241.178275 -38.26125 
L 242.509566 -38.26125 
L 243.840857 -38.26125 
L 245.172148 -38.26125 
L 246.503438 -38.26125 
L 247.834729 -38.26125 
L 249.16602 -38.26125 
L 250.49731 -38.26125 
L 251.828601 -38.26125 
L 253.159892 -38.26125 
L 254.491183 -38.26125 
L 255.822473 -38.26125 
L 257.153764 -38.26125 
L 258.485055 -38.26125 
L 259.816346 -38.26125 
L 261.147636 -38.26125 
L 262.478927 -38.26125 
L 263.810218 -38.26125 
L 265.141508 -38.26125 
L 266.472799 -38.26125 
L 267.80409 -38.26125 
L 269.135381 -38.26125 
L 270.466671 -38.26125 
L 271.797962 -38.26125 
L 273.129253 -38.26125 
L 274.460543 -38.26125 
L 275.791834 -38.26125 
L 277.123125 -38.26125 
L 278.454416 -38.26125 
L 279.785706 -38.26125 
L 281.116997 -38.26125 
L 282.448288 -38.26125 
L 283.779579 -38.26125 
L 285.110869 -38.26125 
L 286.44216 -38.26125 
L 287.773451 -38.26125 
L 289.104741 -38.26125 
L 290.436032 -38.26125 
L 291.767323 -38.26125 
L 293.098614 -38.26125 
L 294.429904 -38.26125 
L 295.761195 -38.26125 
L 297.092486 -38.26125 
L 298.423776 -38.26125 
L 299.755067 -38.26125 
L 301.086358 -38.26125 
L 302.417649 -38.26125 
L 303.748939 -38.26125 
L 305.08023 -38.26125 
L 306.411521 -38.26125 
L 307.742811 -38.26125 
L 309.074102 -38.26125 
L 310.405393 -38.26125 
L 311.736684 -38.26125 
L 313.067974 -38.26125 
L 314.399265 -38.26125 
L 315.730556 -38.26125 
L 317.061847 -38.26125 
L 318.393137 -38.26125 
L 319.724428 -38.26125 
L 321.055719 -38.26125 
L 322.387009 -38.26125 
L 323.7183 -38.26125 
L 325.049591 -38.26125 
L 326.380882 -38.26125 
L 327.712172 -38.26125 
L 329.043463 -38.26125 
L 330.374754 -38.26125 
L 331.706044 -38.26125 
L 333.037335 -38.26125 
L 334.368626 -38.26125 
L 335.699917 -38.26125 
L 337.031207 -38.26125 
L 338.362498 -38.26125 
L 339.693789 -38.26125 
L 341.02508 -38.26125 
L 342.35637 -38.26125 
L 343.687661 -38.26125 
L 345.018952 -38.26125 
L 346.350242 -38.26125 
L 347.681533 -38.26125 
L 349.012824 -38.26125 
L 350.344115 -38.26125 
L 351.675405 -38.26125 
L 353.006696 -38.26125 
L 354.337987 -38.26125 
L 355.669277 -38.26125 
L 357.000568 -38.26125 
L 357.000568 -38.678447 
L 357.000568 -38.678447 
L 355.669277 -38.738393 
L 354.337987 -38.805847 
L 353.006696 -38.881577 
L 351.675405 -38.966408 
L 350.344115 -39.061216 
L 349.012824 -39.166933 
L 347.681533 -39.284547 
L 346.350242 -39.415094 
L 345.018952 -39.559665 
L 343.687661 -39.719395 
L 342.35637 -39.895466 
L 341.02508 -40.089097 
L 339.693789 -40.301542 
L 338.362498 -40.534081 
L 337.031207 -40.788017 
L 335.699917 -41.06466 
L 334.368626 -41.365325 
L 333.037335 -41.691316 
L 331.706044 -42.043917 
L 330.374754 -42.424379 
L 329.043463 -42.833906 
L 327.712172 -43.273643 
L 326.380882 -43.744658 
L 325.049591 -44.247928 
L 323.7183 -44.784325 
L 322.387009 -45.354597 
L 321.055719 -45.959356 
L 319.724428 -46.59906 
L 318.393137 -47.273997 
L 317.061847 -47.984274 
L 315.730556 -48.729801 
L 314.399265 -49.510281 
L 313.067974 -50.325196 
L 311.736684 -51.173805 
L 310.405393 -52.05513 
L 309.074102 -52.967956 
L 307.742811 -53.91083 
L 306.411521 -54.88206 
L 305.08023 -55.879719 
L 303.748939 -56.901656 
L 302.417649 -57.945501 
L 301.086358 -59.008685 
L 299.755067 -60.088452 
L 298.423776 -61.181883 
L 297.092486 -62.285919 
L 295.761195 -63.397386 
L 294.429904 -64.51303 
L 293.098614 -65.629544 
L 291.767323 -66.743605 
L 290.436032 -67.851913 
L 289.104741 -68.951228 
L 287.773451 -70.038409 
L 286.44216 -71.110456 
L 285.110869 -72.164548 
L 283.779579 -73.198087 
L 282.448288 -74.208734 
L 281.116997 -75.194447 
L 279.785706 -76.153517 
L 278.454416 -77.084598 
L 277.123125 -77.98674 
L 275.791834 -78.859409 
L 274.460543 -79.70251 
L 273.129253 -80.516404 
L 271.797962 -81.301912 
L 270.466671 -82.060328 
L 269.135381 -82.79341 
L 267.80409 -83.503375 
L 266.472799 -84.192885 
L 265.141508 -84.865025 
L 263.810218 -85.523279 
L 262.478927 -86.171494 
L 261.147636 -86.813844 
L 259.816346 -87.454781 
L 258.485055 -88.098993 
L 257.153764 -88.751342 
L 255.822473 -89.416813 
L 254.491183 -90.100445 
L 253.159892 -90.807274 
L 251.828601 -91.542265 
L 250.49731 -92.310239 
L 249.16602 -93.115815 
L 247.834729 -93.963335 
L 246.503438 -94.856802 
L 245.172148 -95.799817 
L 243.840857 -96.795516 
L 242.509566 -97.846515 
L 241.178275 -98.954858 
L 239.846985 -100.121969 
L 238.515694 -101.348613 
L 237.184403 -102.634858 
L 235.853113 -103.98005 
L 234.521822 -105.382793 
L 233.190531 -106.840935 
L 231.85924 -108.351562 
L 230.52795 -109.911007 
L 229.196659 -111.514853 
L 227.865368 -113.157959 
L 226.534077 -114.834487 
L 225.202787 -116.537933 
L 223.871496 -118.261172 
L 222.540205 -119.99651 
L 221.208915 -121.735735 
L 219.877624 -123.47018 
L 218.546333 -125.190796 
L 217.215042 -126.888213 
L 215.883752 -128.552827 
L 214.552461 -130.17487 
L 213.22117 -131.744496 
L 211.88988 -133.251863 
L 210.558589 -134.687216 
L 209.227298 -136.040968 
L 207.896007 -137.303786 
L 206.564717 -138.466671 
L 205.233426 -139.521031 
L 203.902135 -140.458762 
L 202.570845 -141.272312 
L 201.239554 -141.954751 
L 199.908263 -142.49983 
L 198.576972 -142.902031 
L 197.245682 -143.156619 
L 195.914391 -143.259679 
L 194.5831 -143.208151 
L 193.251809 -142.999852 
L 191.920519 -142.633497 
L 190.589228 -142.108705 
L 189.257937 -141.426001 
L 187.926647 -140.586811 
L 186.595356 -139.593444 
L 185.264065 -138.449072 
L 183.932774 -137.1577 
L 182.601484 -135.724129 
L 181.270193 -134.153913 
L 179.938902 -132.453309 
L 178.607612 -130.629226 
L 177.276321 -128.689161 
L 175.94503 -126.641137 
L 174.613739 -124.493641 
L 173.282449 -122.255546 
L 171.951158 -119.936048 
L 170.619867 -117.544588 
L 169.288576 -115.090782 
L 167.957286 -112.584347 
L 166.625995 -110.03503 
L 165.294704 -107.452539 
L 163.963414 -104.846473 
L 162.632123 -102.226263 
L 161.300832 -99.601106 
L 159.969541 -96.97991 
L 158.638251 -94.371243 
L 157.30696 -91.783287 
L 155.975669 -89.223792 
L 154.644379 -86.700043 
L 153.313088 -84.218826 
L 151.981797 -81.786408 
L 150.650506 -79.40851 
L 149.319216 -77.090299 
L 147.987925 -74.836376 
L 146.656634 -72.650774 
L 145.325343 -70.536963 
L 143.994053 -68.49785 
L 142.662762 -66.535794 
L 141.331471 -64.652625 
L 140.000181 -62.849655 
L 138.66889 -61.127708 
L 137.337599 -59.487138 
L 136.006308 -57.927865 
L 134.675018 -56.449397 
L 133.343727 -55.050867 
L 132.012436 -53.73106 
L 130.681146 -52.488451 
L 129.349855 -51.321237 
L 128.018564 -50.227368 
L 126.687273 -49.204583 
L 125.355983 -48.250441 
L 124.024692 -47.362351 
L 122.693401 -46.537605 
L 121.362111 -45.773403 
L 120.03082 -45.066885 
L 118.699529 -44.41515 
L 117.368238 -43.815283 
L 116.036948 -43.264377 
L 114.705657 -42.75955 
L 113.374366 -42.297964 
L 112.043075 -41.876838 
L 110.711785 -41.493465 
L 109.380494 -41.14522 
L 108.049203 -40.829571 
L 106.717913 -40.544087 
L 105.386622 -40.286444 
L 104.055331 -40.054427 
L 102.72404 -39.845938 
L 101.39275 -39.658993 
L 100.061459 -39.491726 
L 98.730168 -39.342385 
L 97.398878 -39.209334 
L 96.067587 -39.09105 
L 94.736296 -38.986117 
L 93.405005 -38.893226 
L 92.073715 -38.81117 
z
"/>
    </defs>
    <g clip-path="url(#pc4e50f5b9f)">
     <use xlink:href="#m0c4324b09f" x="0" y="378.10125" style="fill: #edb081; fill-opacity: 0.3"/>
    </g>
   </g>
   <g id="PolyCollection_2">
    <defs>
     <path id="m63cd8cb950" d="M 87.962286 -38.710505 
L 87.962286 -38.26125 
L 89.056456 -38.26125 
L 90.150625 -38.26125 
L 91.244795 -38.26125 
L 92.338964 -38.26125 
L 93.433134 -38.26125 
L 94.527303 -38.26125 
L 95.621472 -38.26125 
L 96.715642 -38.26125 
L 97.809811 -38.26125 
L 98.903981 -38.26125 
L 99.99815 -38.26125 
L 101.09232 -38.26125 
L 102.186489 -38.26125 
L 103.280659 -38.26125 
L 104.374828 -38.26125 
L 105.468998 -38.26125 
L 106.563167 -38.26125 
L 107.657337 -38.26125 
L 108.751506 -38.26125 
L 109.845676 -38.26125 
L 110.939845 -38.26125 
L 112.034015 -38.26125 
L 113.128184 -38.26125 
L 114.222354 -38.26125 
L 115.316523 -38.26125 
L 116.410693 -38.26125 
L 117.504862 -38.26125 
L 118.599031 -38.26125 
L 119.693201 -38.26125 
L 120.78737 -38.26125 
L 121.88154 -38.26125 
L 122.975709 -38.26125 
L 124.069879 -38.26125 
L 125.164048 -38.26125 
L 126.258218 -38.26125 
L 127.352387 -38.26125 
L 128.446557 -38.26125 
L 129.540726 -38.26125 
L 130.634896 -38.26125 
L 131.729065 -38.26125 
L 132.823235 -38.26125 
L 133.917404 -38.26125 
L 135.011574 -38.26125 
L 136.105743 -38.26125 
L 137.199913 -38.26125 
L 138.294082 -38.26125 
L 139.388252 -38.26125 
L 140.482421 -38.26125 
L 141.57659 -38.26125 
L 142.67076 -38.26125 
L 143.764929 -38.26125 
L 144.859099 -38.26125 
L 145.953268 -38.26125 
L 147.047438 -38.26125 
L 148.141607 -38.26125 
L 149.235777 -38.26125 
L 150.329946 -38.26125 
L 151.424116 -38.26125 
L 152.518285 -38.26125 
L 153.612455 -38.26125 
L 154.706624 -38.26125 
L 155.800794 -38.26125 
L 156.894963 -38.26125 
L 157.989133 -38.26125 
L 159.083302 -38.26125 
L 160.177472 -38.26125 
L 161.271641 -38.26125 
L 162.365811 -38.26125 
L 163.45998 -38.26125 
L 164.554149 -38.26125 
L 165.648319 -38.26125 
L 166.742488 -38.26125 
L 167.836658 -38.26125 
L 168.930827 -38.26125 
L 170.024997 -38.26125 
L 171.119166 -38.26125 
L 172.213336 -38.26125 
L 173.307505 -38.26125 
L 174.401675 -38.26125 
L 175.495844 -38.26125 
L 176.590014 -38.26125 
L 177.684183 -38.26125 
L 178.778353 -38.26125 
L 179.872522 -38.26125 
L 180.966692 -38.26125 
L 182.060861 -38.26125 
L 183.155031 -38.26125 
L 184.2492 -38.26125 
L 185.34337 -38.26125 
L 186.437539 -38.26125 
L 187.531708 -38.26125 
L 188.625878 -38.26125 
L 189.720047 -38.26125 
L 190.814217 -38.26125 
L 191.908386 -38.26125 
L 193.002556 -38.26125 
L 194.096725 -38.26125 
L 195.190895 -38.26125 
L 196.285064 -38.26125 
L 197.379234 -38.26125 
L 198.473403 -38.26125 
L 199.567573 -38.26125 
L 200.661742 -38.26125 
L 201.755912 -38.26125 
L 202.850081 -38.26125 
L 203.944251 -38.26125 
L 205.03842 -38.26125 
L 206.13259 -38.26125 
L 207.226759 -38.26125 
L 208.320929 -38.26125 
L 209.415098 -38.26125 
L 210.509267 -38.26125 
L 211.603437 -38.26125 
L 212.697606 -38.26125 
L 213.791776 -38.26125 
L 214.885945 -38.26125 
L 215.980115 -38.26125 
L 217.074284 -38.26125 
L 218.168454 -38.26125 
L 219.262623 -38.26125 
L 220.356793 -38.26125 
L 221.450962 -38.26125 
L 222.545132 -38.26125 
L 223.639301 -38.26125 
L 224.733471 -38.26125 
L 225.82764 -38.26125 
L 226.92181 -38.26125 
L 228.015979 -38.26125 
L 229.110149 -38.26125 
L 230.204318 -38.26125 
L 231.298488 -38.26125 
L 232.392657 -38.26125 
L 233.486826 -38.26125 
L 234.580996 -38.26125 
L 235.675165 -38.26125 
L 236.769335 -38.26125 
L 237.863504 -38.26125 
L 238.957674 -38.26125 
L 240.051843 -38.26125 
L 241.146013 -38.26125 
L 242.240182 -38.26125 
L 243.334352 -38.26125 
L 244.428521 -38.26125 
L 245.522691 -38.26125 
L 246.61686 -38.26125 
L 247.71103 -38.26125 
L 248.805199 -38.26125 
L 249.899369 -38.26125 
L 250.993538 -38.26125 
L 252.087708 -38.26125 
L 253.181877 -38.26125 
L 254.276047 -38.26125 
L 255.370216 -38.26125 
L 256.464385 -38.26125 
L 257.558555 -38.26125 
L 258.652724 -38.26125 
L 259.746894 -38.26125 
L 260.841063 -38.26125 
L 261.935233 -38.26125 
L 263.029402 -38.26125 
L 264.123572 -38.26125 
L 265.217741 -38.26125 
L 266.311911 -38.26125 
L 267.40608 -38.26125 
L 268.50025 -38.26125 
L 269.594419 -38.26125 
L 270.688589 -38.26125 
L 271.782758 -38.26125 
L 272.876928 -38.26125 
L 273.971097 -38.26125 
L 275.065267 -38.26125 
L 276.159436 -38.26125 
L 277.253606 -38.26125 
L 278.347775 -38.26125 
L 279.441944 -38.26125 
L 280.536114 -38.26125 
L 281.630283 -38.26125 
L 282.724453 -38.26125 
L 283.818622 -38.26125 
L 284.912792 -38.26125 
L 286.006961 -38.26125 
L 287.101131 -38.26125 
L 288.1953 -38.26125 
L 289.28947 -38.26125 
L 290.383639 -38.26125 
L 291.477809 -38.26125 
L 292.571978 -38.26125 
L 293.666148 -38.26125 
L 294.760317 -38.26125 
L 295.854487 -38.26125 
L 296.948656 -38.26125 
L 298.042826 -38.26125 
L 299.136995 -38.26125 
L 300.231165 -38.26125 
L 301.325334 -38.26125 
L 302.419503 -38.26125 
L 303.513673 -38.26125 
L 304.607842 -38.26125 
L 305.702012 -38.26125 
L 305.702012 -38.707336 
L 305.702012 -38.707336 
L 304.607842 -38.778167 
L 303.513673 -38.858783 
L 302.419503 -38.950283 
L 301.325334 -39.053856 
L 300.231165 -39.170773 
L 299.136995 -39.302389 
L 298.042826 -39.450146 
L 296.948656 -39.615563 
L 295.854487 -39.800237 
L 294.760317 -40.005835 
L 293.666148 -40.234088 
L 292.571978 -40.486779 
L 291.477809 -40.765736 
L 290.383639 -41.072817 
L 289.28947 -41.409894 
L 288.1953 -41.77884 
L 287.101131 -42.181509 
L 286.006961 -42.619712 
L 284.912792 -43.095204 
L 283.818622 -43.609651 
L 282.724453 -44.164615 
L 281.630283 -44.761522 
L 280.536114 -45.40164 
L 279.441944 -46.086052 
L 278.347775 -46.815633 
L 277.253606 -47.59102 
L 276.159436 -48.412597 
L 275.065267 -49.280464 
L 273.971097 -50.194427 
L 272.876928 -51.153974 
L 271.782758 -52.15827 
L 270.688589 -53.20614 
L 269.594419 -54.296074 
L 268.50025 -55.426222 
L 267.40608 -56.594404 
L 266.311911 -57.79812 
L 265.217741 -59.034569 
L 264.123572 -60.300677 
L 263.029402 -61.593125 
L 261.935233 -62.908388 
L 260.841063 -64.242776 
L 259.746894 -65.592486 
L 258.652724 -66.953656 
L 257.558555 -68.322421 
L 256.464385 -69.694981 
L 255.370216 -71.067659 
L 254.276047 -72.436975 
L 253.181877 -73.79971 
L 252.087708 -75.152977 
L 250.993538 -76.494282 
L 249.899369 -77.82159 
L 248.805199 -79.133381 
L 247.71103 -80.428702 
L 246.61686 -81.707212 
L 245.522691 -82.969217 
L 244.428521 -84.215696 
L 243.334352 -85.448314 
L 242.240182 -86.669428 
L 241.146013 -87.882074 
L 240.051843 -89.089945 
L 238.957674 -90.297356 
L 237.863504 -91.50919 
L 236.769335 -92.730836 
L 235.675165 -93.968114 
L 234.580996 -95.227182 
L 233.486826 -96.514438 
L 232.392657 -97.836412 
L 231.298488 -99.19964 
L 230.204318 -100.610548 
L 229.110149 -102.075312 
L 228.015979 -103.599735 
L 226.92181 -105.189106 
L 225.82764 -106.848075 
L 224.733471 -108.580522 
L 223.639301 -110.38944 
L 222.545132 -112.276827 
L 221.450962 -114.243584 
L 220.356793 -116.289433 
L 219.262623 -118.412846 
L 218.168454 -120.611 
L 217.074284 -122.879737 
L 215.980115 -125.21356 
L 214.885945 -127.605636 
L 213.791776 -130.047834 
L 212.697606 -132.530769 
L 211.603437 -135.043882 
L 210.509267 -137.575533 
L 209.415098 -140.113111 
L 208.320929 -142.643166 
L 207.226759 -145.151557 
L 206.13259 -147.62361 
L 205.03842 -150.044289 
L 203.944251 -152.398376 
L 202.850081 -154.670655 
L 201.755912 -156.846096 
L 200.661742 -158.910046 
L 199.567573 -160.848404 
L 198.473403 -162.6478 
L 197.379234 -164.295755 
L 196.285064 -165.780836 
L 195.190895 -167.092789 
L 194.096725 -168.222657 
L 193.002556 -169.16288 
L 191.908386 -169.907371 
L 190.814217 -170.451568 
L 189.720047 -170.792471 
L 188.625878 -170.928649 
L 187.531708 -170.860225 
L 186.437539 -170.588841 
L 185.34337 -170.117599 
L 184.2492 -169.450986 
L 183.155031 -168.59478 
L 182.060861 -167.555937 
L 180.966692 -166.342468 
L 179.872522 -164.963306 
L 178.778353 -163.428163 
L 177.684183 -161.747384 
L 176.590014 -159.931794 
L 175.495844 -157.992552 
L 174.401675 -155.941005 
L 173.307505 -153.788546 
L 172.213336 -151.546484 
L 171.119166 -149.225918 
L 170.024997 -146.837634 
L 168.930827 -144.392 
L 167.836658 -141.898889 
L 166.742488 -139.367606 
L 165.648319 -136.806841 
L 164.554149 -134.224628 
L 163.45998 -131.628326 
L 162.365811 -129.024609 
L 161.271641 -126.419472 
L 160.177472 -123.818251 
L 159.083302 -121.225651 
L 157.989133 -118.645785 
L 156.894963 -116.08222 
L 155.800794 -113.538029 
L 154.706624 -111.015849 
L 153.612455 -108.51794 
L 152.518285 -106.046243 
L 151.424116 -103.602443 
L 150.329946 -101.188023 
L 149.235777 -98.804318 
L 148.141607 -96.452567 
L 147.047438 -94.133956 
L 145.953268 -91.849652 
L 144.859099 -89.600838 
L 143.764929 -87.388737 
L 142.67076 -85.214626 
L 141.57659 -83.079851 
L 140.482421 -80.985825 
L 139.388252 -78.934031 
L 138.294082 -76.926008 
L 137.199913 -74.963345 
L 136.105743 -73.047656 
L 135.011574 -71.180567 
L 133.917404 -69.363688 
L 132.823235 -67.598589 
L 131.729065 -65.886776 
L 130.634896 -64.229666 
L 129.540726 -62.628558 
L 128.446557 -61.084618 
L 127.352387 -59.598847 
L 126.258218 -58.17207 
L 125.164048 -56.80492 
L 124.069879 -55.497819 
L 122.975709 -54.250976 
L 121.88154 -53.064375 
L 120.78737 -51.937777 
L 119.693201 -50.870719 
L 118.599031 -49.86252 
L 117.504862 -48.912284 
L 116.410693 -48.018917 
L 115.316523 -47.181132 
L 114.222354 -46.397471 
L 113.128184 -45.666317 
L 112.034015 -44.98591 
L 110.939845 -44.354373 
L 109.845676 -43.769723 
L 108.751506 -43.229898 
L 107.657337 -42.732771 
L 106.563167 -42.276171 
L 105.468998 -41.857903 
L 104.374828 -41.475765 
L 103.280659 -41.127561 
L 102.186489 -40.81112 
L 101.09232 -40.524311 
L 99.99815 -40.26505 
L 98.903981 -40.031314 
L 97.809811 -39.821152 
L 96.715642 -39.63269 
L 95.621472 -39.464136 
L 94.527303 -39.313789 
L 93.433134 -39.180039 
L 92.338964 -39.06137 
L 91.244795 -38.956361 
L 90.150625 -38.863686 
L 89.056456 -38.782114 
L 87.962286 -38.710505 
z
"/>
    </defs>
    <g clip-path="url(#pc4e50f5b9f)">
     <use xlink:href="#m63cd8cb950" x="0" y="378.10125" style="fill: #e77e63; fill-opacity: 0.3"/>
    </g>
   </g>
   <g id="PolyCollection_3">
    <defs>
     <path id="mc20c820501" d="M 84.710622 -38.435408 
L 84.710622 -38.26125 
L 85.898838 -38.26125 
L 87.087053 -38.26125 
L 88.275268 -38.26125 
L 89.463484 -38.26125 
L 90.651699 -38.26125 
L 91.839914 -38.26125 
L 93.02813 -38.26125 
L 94.216345 -38.26125 
L 95.40456 -38.26125 
L 96.592776 -38.26125 
L 97.780991 -38.26125 
L 98.969206 -38.26125 
L 100.157422 -38.26125 
L 101.345637 -38.26125 
L 102.533852 -38.26125 
L 103.722068 -38.26125 
L 104.910283 -38.26125 
L 106.098498 -38.26125 
L 107.286714 -38.26125 
L 108.474929 -38.26125 
L 109.663144 -38.26125 
L 110.85136 -38.26125 
L 112.039575 -38.26125 
L 113.22779 -38.26125 
L 114.416005 -38.26125 
L 115.604221 -38.26125 
L 116.792436 -38.26125 
L 117.980651 -38.26125 
L 119.168867 -38.26125 
L 120.357082 -38.26125 
L 121.545297 -38.26125 
L 122.733513 -38.26125 
L 123.921728 -38.26125 
L 125.109943 -38.26125 
L 126.298159 -38.26125 
L 127.486374 -38.26125 
L 128.674589 -38.26125 
L 129.862805 -38.26125 
L 131.05102 -38.26125 
L 132.239235 -38.26125 
L 133.427451 -38.26125 
L 134.615666 -38.26125 
L 135.803881 -38.26125 
L 136.992097 -38.26125 
L 138.180312 -38.26125 
L 139.368527 -38.26125 
L 140.556743 -38.26125 
L 141.744958 -38.26125 
L 142.933173 -38.26125 
L 144.121389 -38.26125 
L 145.309604 -38.26125 
L 146.497819 -38.26125 
L 147.686034 -38.26125 
L 148.87425 -38.26125 
L 150.062465 -38.26125 
L 151.25068 -38.26125 
L 152.438896 -38.26125 
L 153.627111 -38.26125 
L 154.815326 -38.26125 
L 156.003542 -38.26125 
L 157.191757 -38.26125 
L 158.379972 -38.26125 
L 159.568188 -38.26125 
L 160.756403 -38.26125 
L 161.944618 -38.26125 
L 163.132834 -38.26125 
L 164.321049 -38.26125 
L 165.509264 -38.26125 
L 166.69748 -38.26125 
L 167.885695 -38.26125 
L 169.07391 -38.26125 
L 170.262126 -38.26125 
L 171.450341 -38.26125 
L 172.638556 -38.26125 
L 173.826772 -38.26125 
L 175.014987 -38.26125 
L 176.203202 -38.26125 
L 177.391417 -38.26125 
L 178.579633 -38.26125 
L 179.767848 -38.26125 
L 180.956063 -38.26125 
L 182.144279 -38.26125 
L 183.332494 -38.26125 
L 184.520709 -38.26125 
L 185.708925 -38.26125 
L 186.89714 -38.26125 
L 188.085355 -38.26125 
L 189.273571 -38.26125 
L 190.461786 -38.26125 
L 191.650001 -38.26125 
L 192.838217 -38.26125 
L 194.026432 -38.26125 
L 195.214647 -38.26125 
L 196.402863 -38.26125 
L 197.591078 -38.26125 
L 198.779293 -38.26125 
L 199.967509 -38.26125 
L 201.155724 -38.26125 
L 202.343939 -38.26125 
L 203.532155 -38.26125 
L 204.72037 -38.26125 
L 205.908585 -38.26125 
L 207.096801 -38.26125 
L 208.285016 -38.26125 
L 209.473231 -38.26125 
L 210.661446 -38.26125 
L 211.849662 -38.26125 
L 213.037877 -38.26125 
L 214.226092 -38.26125 
L 215.414308 -38.26125 
L 216.602523 -38.26125 
L 217.790738 -38.26125 
L 218.978954 -38.26125 
L 220.167169 -38.26125 
L 221.355384 -38.26125 
L 222.5436 -38.26125 
L 223.731815 -38.26125 
L 224.92003 -38.26125 
L 226.108246 -38.26125 
L 227.296461 -38.26125 
L 228.484676 -38.26125 
L 229.672892 -38.26125 
L 230.861107 -38.26125 
L 232.049322 -38.26125 
L 233.237538 -38.26125 
L 234.425753 -38.26125 
L 235.613968 -38.26125 
L 236.802184 -38.26125 
L 237.990399 -38.26125 
L 239.178614 -38.26125 
L 240.36683 -38.26125 
L 241.555045 -38.26125 
L 242.74326 -38.26125 
L 243.931475 -38.26125 
L 245.119691 -38.26125 
L 246.307906 -38.26125 
L 247.496121 -38.26125 
L 248.684337 -38.26125 
L 249.872552 -38.26125 
L 251.060767 -38.26125 
L 252.248983 -38.26125 
L 253.437198 -38.26125 
L 254.625413 -38.26125 
L 255.813629 -38.26125 
L 257.001844 -38.26125 
L 258.190059 -38.26125 
L 259.378275 -38.26125 
L 260.56649 -38.26125 
L 261.754705 -38.26125 
L 262.942921 -38.26125 
L 264.131136 -38.26125 
L 265.319351 -38.26125 
L 266.507567 -38.26125 
L 267.695782 -38.26125 
L 268.883997 -38.26125 
L 270.072213 -38.26125 
L 271.260428 -38.26125 
L 272.448643 -38.26125 
L 273.636859 -38.26125 
L 274.825074 -38.26125 
L 276.013289 -38.26125 
L 277.201504 -38.26125 
L 278.38972 -38.26125 
L 279.577935 -38.26125 
L 280.76615 -38.26125 
L 281.954366 -38.26125 
L 283.142581 -38.26125 
L 284.330796 -38.26125 
L 285.519012 -38.26125 
L 286.707227 -38.26125 
L 287.895442 -38.26125 
L 289.083658 -38.26125 
L 290.271873 -38.26125 
L 291.460088 -38.26125 
L 292.648304 -38.26125 
L 293.836519 -38.26125 
L 295.024734 -38.26125 
L 296.21295 -38.26125 
L 297.401165 -38.26125 
L 298.58938 -38.26125 
L 299.777596 -38.26125 
L 300.965811 -38.26125 
L 302.154026 -38.26125 
L 303.342242 -38.26125 
L 304.530457 -38.26125 
L 305.718672 -38.26125 
L 306.906888 -38.26125 
L 308.095103 -38.26125 
L 309.283318 -38.26125 
L 310.471533 -38.26125 
L 311.659749 -38.26125 
L 312.847964 -38.26125 
L 314.036179 -38.26125 
L 315.224395 -38.26125 
L 316.41261 -38.26125 
L 317.600825 -38.26125 
L 318.789041 -38.26125 
L 319.977256 -38.26125 
L 321.165471 -38.26125 
L 321.165471 -38.412227 
L 321.165471 -38.412227 
L 319.977256 -38.446381 
L 318.789041 -38.487212 
L 317.600825 -38.535777 
L 316.41261 -38.593242 
L 315.224395 -38.660888 
L 314.036179 -38.740106 
L 312.847964 -38.832395 
L 311.659749 -38.93935 
L 310.471533 -39.062653 
L 309.283318 -39.204057 
L 308.095103 -39.365363 
L 306.906888 -39.548399 
L 305.718672 -39.754988 
L 304.530457 -39.986915 
L 303.342242 -40.245893 
L 302.154026 -40.533521 
L 300.965811 -40.851242 
L 299.777596 -41.200301 
L 298.58938 -41.581701 
L 297.401165 -41.99616 
L 296.21295 -42.444077 
L 295.024734 -42.925491 
L 293.836519 -43.440059 
L 292.648304 -43.987033 
L 291.460088 -44.565249 
L 290.271873 -45.173129 
L 289.083658 -45.80869 
L 287.895442 -46.469573 
L 286.707227 -47.153073 
L 285.519012 -47.856196 
L 284.330796 -48.575718 
L 283.142581 -49.308259 
L 281.954366 -50.050365 
L 280.76615 -50.798603 
L 279.577935 -51.549652 
L 278.38972 -52.300405 
L 277.201504 -53.048067 
L 276.013289 -53.790247 
L 274.825074 -54.525042 
L 273.636859 -55.25112 
L 272.448643 -55.967776 
L 271.260428 -56.674978 
L 270.072213 -57.373401 
L 268.883997 -58.064424 
L 267.695782 -58.750127 
L 266.507567 -59.433246 
L 265.319351 -60.117124 
L 264.131136 -60.805633 
L 262.942921 -61.503078 
L 261.754705 -62.214093 
L 260.56649 -62.943517 
L 259.378275 -63.696265 
L 258.190059 -64.477196 
L 257.001844 -65.290978 
L 255.813629 -66.141959 
L 254.625413 -67.034044 
L 253.437198 -67.970581 
L 252.248983 -68.954269 
L 251.060767 -69.987074 
L 249.872552 -71.070171 
L 248.684337 -72.203906 
L 247.496121 -73.387776 
L 246.307906 -74.62043 
L 245.119691 -75.899703 
L 243.931475 -77.222647 
L 242.74326 -78.585603 
L 241.555045 -79.984276 
L 240.36683 -81.413819 
L 239.178614 -82.868941 
L 237.990399 -84.344007 
L 236.802184 -85.833155 
L 235.613968 -87.330401 
L 234.425753 -88.829757 
L 233.237538 -90.325332 
L 232.049322 -91.811437 
L 230.861107 -93.282679 
L 229.672892 -94.734046 
L 228.484676 -96.160987 
L 227.296461 -97.559476 
L 226.108246 -98.926074 
L 224.92003 -100.257976 
L 223.731815 -101.553051 
L 222.5436 -102.80987 
L 221.355384 -104.027731 
L 220.167169 -105.206671 
L 218.978954 -106.347469 
L 217.790738 -107.451643 
L 216.602523 -108.521437 
L 215.414308 -109.559797 
L 214.226092 -110.570342 
L 213.037877 -111.557319 
L 211.849662 -112.525549 
L 210.661446 -113.48036 
L 209.473231 -114.427511 
L 208.285016 -115.373097 
L 207.096801 -116.323449 
L 205.908585 -117.285013 
L 204.72037 -118.264223 
L 203.532155 -119.267364 
L 202.343939 -120.300423 
L 201.155724 -121.368941 
L 199.967509 -122.477855 
L 198.779293 -123.631347 
L 197.591078 -124.832698 
L 196.402863 -126.084148 
L 195.214647 -127.386773 
L 194.026432 -128.740382 
L 192.838217 -130.143431 
L 191.650001 -131.592965 
L 190.461786 -133.084594 
L 189.273571 -134.612491 
L 188.085355 -136.169428 
L 186.89714 -137.746841 
L 185.708925 -139.334932 
L 184.520709 -140.922787 
L 183.332494 -142.498538 
L 182.144279 -144.049529 
L 180.956063 -145.56251 
L 179.767848 -147.023841 
L 178.579633 -148.419696 
L 177.391417 -149.736273 
L 176.203202 -150.95999 
L 175.014987 -152.077679 
L 173.826772 -153.076754 
L 172.638556 -153.945367 
L 171.450341 -154.672529 
L 170.262126 -155.24822 
L 169.07391 -155.663466 
L 167.885695 -155.910388 
L 166.69748 -155.982234 
L 165.509264 -155.873393 
L 164.321049 -155.579381 
L 163.132834 -155.096827 
L 161.944618 -154.423441 
L 160.756403 -153.557987 
L 159.568188 -152.500245 
L 158.379972 -151.250985 
L 157.191757 -149.811944 
L 156.003542 -148.185807 
L 154.815326 -146.376204 
L 153.627111 -144.387707 
L 152.438896 -142.225841 
L 151.25068 -139.897092 
L 150.062465 -137.408925 
L 148.87425 -134.769792 
L 147.686034 -131.989139 
L 146.497819 -129.077407 
L 145.309604 -126.046006 
L 144.121389 -122.907289 
L 142.933173 -119.674497 
L 141.744958 -116.36168 
L 140.556743 -112.983607 
L 139.368527 -109.555642 
L 138.180312 -106.093605 
L 136.992097 -102.613618 
L 135.803881 -99.131924 
L 134.615666 -95.664711 
L 133.427451 -92.22791 
L 132.239235 -88.83701 
L 131.05102 -85.506861 
L 129.862805 -82.251495 
L 128.674589 -79.083959 
L 127.486374 -76.016159 
L 126.298159 -73.058737 
L 125.109943 -70.220965 
L 123.921728 -67.510666 
L 122.733513 -64.934168 
L 121.545297 -62.496286 
L 120.357082 -60.200325 
L 119.168867 -58.048123 
L 117.980651 -56.040107 
L 116.792436 -54.175375 
L 115.604221 -52.451804 
L 114.416005 -50.866159 
L 113.22779 -49.414225 
L 112.039575 -48.090946 
L 110.85136 -46.89056 
L 109.663144 -45.806745 
L 108.474929 -44.832752 
L 107.286714 -43.96154 
L 106.098498 -43.1859 
L 104.910283 -42.498569 
L 103.722068 -41.892331 
L 102.533852 -41.36011 
L 101.345637 -40.895043 
L 100.157422 -40.490548 
L 98.969206 -40.14037 
L 97.780991 -39.838623 
L 96.592776 -39.579817 
L 95.40456 -39.358868 
L 94.216345 -39.171115 
L 93.02813 -39.012308 
L 91.839914 -38.878607 
L 90.651699 -38.766563 
L 89.463484 -38.673102 
L 88.275268 -38.595502 
L 87.087053 -38.531369 
L 85.898838 -38.47861 
L 84.710622 -38.435408 
z
"/>
    </defs>
    <g clip-path="url(#pc4e50f5b9f)">
     <use xlink:href="#mc20c820501" x="0" y="378.10125" style="fill: #d64f5f; fill-opacity: 0.3"/>
    </g>
   </g>
   <g id="PolyCollection_4">
    <defs>
     <path id="m43e806cb75" d="M 54.594405 -38.404364 
L 54.594405 -38.26125 
L 56.008484 -38.26125 
L 57.422564 -38.26125 
L 58.836643 -38.26125 
L 60.250722 -38.26125 
L 61.664801 -38.26125 
L 63.078881 -38.26125 
L 64.49296 -38.26125 
L 65.907039 -38.26125 
L 67.321118 -38.26125 
L 68.735198 -38.26125 
L 70.149277 -38.26125 
L 71.563356 -38.26125 
L 72.977435 -38.26125 
L 74.391515 -38.26125 
L 75.805594 -38.26125 
L 77.219673 -38.26125 
L 78.633752 -38.26125 
L 80.047832 -38.26125 
L 81.461911 -38.26125 
L 82.87599 -38.26125 
L 84.290069 -38.26125 
L 85.704149 -38.26125 
L 87.118228 -38.26125 
L 88.532307 -38.26125 
L 89.946386 -38.26125 
L 91.360466 -38.26125 
L 92.774545 -38.26125 
L 94.188624 -38.26125 
L 95.602703 -38.26125 
L 97.016783 -38.26125 
L 98.430862 -38.26125 
L 99.844941 -38.26125 
L 101.25902 -38.26125 
L 102.6731 -38.26125 
L 104.087179 -38.26125 
L 105.501258 -38.26125 
L 106.915337 -38.26125 
L 108.329417 -38.26125 
L 109.743496 -38.26125 
L 111.157575 -38.26125 
L 112.571654 -38.26125 
L 113.985734 -38.26125 
L 115.399813 -38.26125 
L 116.813892 -38.26125 
L 118.227971 -38.26125 
L 119.642051 -38.26125 
L 121.05613 -38.26125 
L 122.470209 -38.26125 
L 123.884288 -38.26125 
L 125.298368 -38.26125 
L 126.712447 -38.26125 
L 128.126526 -38.26125 
L 129.540605 -38.26125 
L 130.954685 -38.26125 
L 132.368764 -38.26125 
L 133.782843 -38.26125 
L 135.196922 -38.26125 
L 136.611002 -38.26125 
L 138.025081 -38.26125 
L 139.43916 -38.26125 
L 140.853239 -38.26125 
L 142.267319 -38.26125 
L 143.681398 -38.26125 
L 145.095477 -38.26125 
L 146.509556 -38.26125 
L 147.923636 -38.26125 
L 149.337715 -38.26125 
L 150.751794 -38.26125 
L 152.165873 -38.26125 
L 153.579953 -38.26125 
L 154.994032 -38.26125 
L 156.408111 -38.26125 
L 157.82219 -38.26125 
L 159.23627 -38.26125 
L 160.650349 -38.26125 
L 162.064428 -38.26125 
L 163.478507 -38.26125 
L 164.892587 -38.26125 
L 166.306666 -38.26125 
L 167.720745 -38.26125 
L 169.134824 -38.26125 
L 170.548904 -38.26125 
L 171.962983 -38.26125 
L 173.377062 -38.26125 
L 174.791141 -38.26125 
L 176.205221 -38.26125 
L 177.6193 -38.26125 
L 179.033379 -38.26125 
L 180.447458 -38.26125 
L 181.861538 -38.26125 
L 183.275617 -38.26125 
L 184.689696 -38.26125 
L 186.103775 -38.26125 
L 187.517855 -38.26125 
L 188.931934 -38.26125 
L 190.346013 -38.26125 
L 191.760092 -38.26125 
L 193.174172 -38.26125 
L 194.588251 -38.26125 
L 196.00233 -38.26125 
L 197.416409 -38.26125 
L 198.830489 -38.26125 
L 200.244568 -38.26125 
L 201.658647 -38.26125 
L 203.072726 -38.26125 
L 204.486806 -38.26125 
L 205.900885 -38.26125 
L 207.314964 -38.26125 
L 208.729043 -38.26125 
L 210.143122 -38.26125 
L 211.557202 -38.26125 
L 212.971281 -38.26125 
L 214.38536 -38.26125 
L 215.799439 -38.26125 
L 217.213519 -38.26125 
L 218.627598 -38.26125 
L 220.041677 -38.26125 
L 221.455756 -38.26125 
L 222.869836 -38.26125 
L 224.283915 -38.26125 
L 225.697994 -38.26125 
L 227.112073 -38.26125 
L 228.526153 -38.26125 
L 229.940232 -38.26125 
L 231.354311 -38.26125 
L 232.76839 -38.26125 
L 234.18247 -38.26125 
L 235.596549 -38.26125 
L 237.010628 -38.26125 
L 238.424707 -38.26125 
L 239.838787 -38.26125 
L 241.252866 -38.26125 
L 242.666945 -38.26125 
L 244.081024 -38.26125 
L 245.495104 -38.26125 
L 246.909183 -38.26125 
L 248.323262 -38.26125 
L 249.737341 -38.26125 
L 251.151421 -38.26125 
L 252.5655 -38.26125 
L 253.979579 -38.26125 
L 255.393658 -38.26125 
L 256.807738 -38.26125 
L 258.221817 -38.26125 
L 259.635896 -38.26125 
L 261.049975 -38.26125 
L 262.464055 -38.26125 
L 263.878134 -38.26125 
L 265.292213 -38.26125 
L 266.706292 -38.26125 
L 268.120372 -38.26125 
L 269.534451 -38.26125 
L 270.94853 -38.26125 
L 272.362609 -38.26125 
L 273.776689 -38.26125 
L 275.190768 -38.26125 
L 276.604847 -38.26125 
L 278.018926 -38.26125 
L 279.433006 -38.26125 
L 280.847085 -38.26125 
L 282.261164 -38.26125 
L 283.675243 -38.26125 
L 285.089323 -38.26125 
L 286.503402 -38.26125 
L 287.917481 -38.26125 
L 289.33156 -38.26125 
L 290.74564 -38.26125 
L 292.159719 -38.26125 
L 293.573798 -38.26125 
L 294.987877 -38.26125 
L 296.401957 -38.26125 
L 297.816036 -38.26125 
L 299.230115 -38.26125 
L 300.644194 -38.26125 
L 302.058274 -38.26125 
L 303.472353 -38.26125 
L 304.886432 -38.26125 
L 306.300511 -38.26125 
L 307.714591 -38.26125 
L 309.12867 -38.26125 
L 310.542749 -38.26125 
L 311.956828 -38.26125 
L 313.370908 -38.26125 
L 314.784987 -38.26125 
L 316.199066 -38.26125 
L 317.613145 -38.26125 
L 319.027225 -38.26125 
L 320.441304 -38.26125 
L 321.855383 -38.26125 
L 323.269462 -38.26125 
L 324.683542 -38.26125 
L 326.097621 -38.26125 
L 327.5117 -38.26125 
L 328.925779 -38.26125 
L 330.339859 -38.26125 
L 331.753938 -38.26125 
L 333.168017 -38.26125 
L 334.582096 -38.26125 
L 335.996176 -38.26125 
L 335.996176 -38.33117 
L 335.996176 -38.33117 
L 334.582096 -38.348698 
L 333.168017 -38.370027 
L 331.753938 -38.395826 
L 330.339859 -38.426847 
L 328.925779 -38.463924 
L 327.5117 -38.507977 
L 326.097621 -38.560006 
L 324.683542 -38.62109 
L 323.269462 -38.69238 
L 321.855383 -38.775087 
L 320.441304 -38.870473 
L 319.027225 -38.979831 
L 317.613145 -39.10447 
L 316.199066 -39.245694 
L 314.784987 -39.404773 
L 313.370908 -39.582925 
L 311.956828 -39.781283 
L 310.542749 -40.00087 
L 309.12867 -40.242576 
L 307.714591 -40.507123 
L 306.300511 -40.795049 
L 304.886432 -41.106686 
L 303.472353 -41.44214 
L 302.058274 -41.801279 
L 300.644194 -42.183727 
L 299.230115 -42.588858 
L 297.816036 -43.015801 
L 296.401957 -43.463443 
L 294.987877 -43.930444 
L 293.573798 -44.415248 
L 292.159719 -44.916106 
L 290.74564 -45.43109 
L 289.33156 -45.95812 
L 287.917481 -46.494982 
L 286.503402 -47.039349 
L 285.089323 -47.588805 
L 283.675243 -48.140861 
L 282.261164 -48.692972 
L 280.847085 -49.242556 
L 279.433006 -49.787008 
L 278.018926 -50.323721 
L 276.604847 -50.850095 
L 275.190768 -51.363566 
L 273.776689 -51.861623 
L 272.362609 -52.341838 
L 270.94853 -52.801896 
L 269.534451 -53.239635 
L 268.120372 -53.653082 
L 266.706292 -54.040504 
L 265.292213 -54.400454 
L 263.878134 -54.731822 
L 262.464055 -55.033883 
L 261.049975 -55.306344 
L 259.635896 -55.549387 
L 258.221817 -55.763697 
L 256.807738 -55.95049 
L 255.393658 -56.111525 
L 253.979579 -56.249095 
L 252.5655 -56.36602 
L 251.151421 -56.465612 
L 249.737341 -56.551637 
L 248.323262 -56.628258 
L 246.909183 -56.699973 
L 245.495104 -56.771552 
L 244.081024 -56.847958 
L 242.666945 -56.934279 
L 241.252866 -57.035662 
L 239.838787 -57.157248 
L 238.424707 -57.30412 
L 237.010628 -57.48126 
L 235.596549 -57.693514 
L 234.18247 -57.945572 
L 232.76839 -58.241956 
L 231.354311 -58.587009 
L 229.940232 -58.984901 
L 228.526153 -59.439628 
L 227.112073 -59.955012 
L 225.697994 -60.5347 
L 224.283915 -61.182149 
L 222.869836 -61.900613 
L 221.455756 -62.693106 
L 220.041677 -63.562365 
L 218.627598 -64.510801 
L 217.213519 -65.540435 
L 215.799439 -66.652839 
L 214.38536 -67.84907 
L 212.971281 -69.129607 
L 211.557202 -70.494299 
L 210.143122 -71.942325 
L 208.729043 -73.472172 
L 207.314964 -75.081638 
L 205.900885 -76.767856 
L 204.486806 -78.527352 
L 203.072726 -80.356124 
L 201.658647 -82.249757 
L 200.244568 -84.203551 
L 198.830489 -86.212684 
L 197.416409 -88.272377 
L 196.00233 -90.378068 
L 194.588251 -92.525596 
L 193.174172 -94.711358 
L 191.760092 -96.932464 
L 190.346013 -99.18685 
L 188.931934 -101.473365 
L 187.517855 -103.791805 
L 186.103775 -106.142909 
L 184.689696 -108.528283 
L 183.275617 -110.950287 
L 181.861538 -113.411849 
L 180.447458 -115.916227 
L 179.033379 -118.466729 
L 177.6193 -121.066374 
L 176.205221 -123.71753 
L 174.791141 -126.421524 
L 173.377062 -129.178238 
L 171.962983 -131.985711 
L 170.548904 -134.839763 
L 169.134824 -137.733649 
L 167.720745 -140.657769 
L 166.306666 -143.599441 
L 164.892587 -146.542763 
L 163.478507 -149.468555 
L 162.064428 -152.354426 
L 160.650349 -155.174934 
L 159.23627 -157.90187 
L 157.82219 -160.504654 
L 156.408111 -162.950844 
L 154.994032 -165.206739 
L 153.579953 -167.238074 
L 152.165873 -169.010779 
L 150.751794 -170.491787 
L 149.337715 -171.649867 
L 147.923636 -172.456449 
L 146.509556 -172.886413 
L 145.095477 -172.918828 
L 143.681398 -172.537597 
L 142.267319 -171.731988 
L 140.853239 -170.497043 
L 139.43916 -168.833828 
L 138.025081 -166.749528 
L 136.611002 -164.257379 
L 135.196922 -161.376438 
L 133.782843 -158.131187 
L 132.368764 -154.551009 
L 130.954685 -150.669531 
L 129.540605 -146.523869 
L 128.126526 -142.1538 
L 126.712447 -137.60089 
L 125.298368 -132.907605 
L 123.884288 -128.116438 
L 122.470209 -123.26908 
L 121.05613 -118.405653 
L 119.642051 -113.564035 
L 118.227971 -108.779288 
L 116.813892 -104.083198 
L 115.399813 -99.503942 
L 113.985734 -95.06587 
L 112.571654 -90.789409 
L 111.157575 -86.691078 
L 109.743496 -82.783596 
L 108.329417 -79.076078 
L 106.915337 -75.574298 
L 105.501258 -72.280998 
L 104.087179 -69.196239 
L 102.6731 -66.317763 
L 101.25902 -63.641359 
L 99.844941 -61.161225 
L 98.430862 -58.870302 
L 97.016783 -56.760588 
L 95.602703 -54.823413 
L 94.188624 -53.049681 
L 92.774545 -51.430076 
L 91.360466 -49.955225 
L 89.946386 -48.615836 
L 88.532307 -47.402797 
L 87.118228 -46.307252 
L 85.704149 -45.320656 
L 84.290069 -44.434806 
L 82.87599 -43.641862 
L 81.461911 -42.934358 
L 80.047832 -42.305204 
L 78.633752 -41.747683 
L 77.219673 -41.255445 
L 75.805594 -40.822503 
L 74.391515 -40.443227 
L 72.977435 -40.112334 
L 71.563356 -39.824885 
L 70.149277 -39.576279 
L 68.735198 -39.362244 
L 67.321118 -39.178834 
L 65.907039 -39.02242 
L 64.49296 -38.889684 
L 63.078881 -38.777604 
L 61.664801 -38.683447 
L 60.250722 -38.604758 
L 58.836643 -38.539341 
L 57.422564 -38.485247 
L 56.008484 -38.440757 
L 54.594405 -38.404364 
z
"/>
    </defs>
    <g clip-path="url(#pc4e50f5b9f)">
     <use xlink:href="#m43e806cb75" x="0" y="378.10125" style="fill: #aa3a6e; fill-opacity: 0.3"/>
    </g>
   </g>
   <g id="PolyCollection_5">
    <defs>
     <path id="m9f1d741717" d="M 64.770664 -38.306915 
L 64.770664 -38.26125 
L 65.772718 -38.26125 
L 66.774772 -38.26125 
L 67.776826 -38.26125 
L 68.77888 -38.26125 
L 69.780934 -38.26125 
L 70.782988 -38.26125 
L 71.785042 -38.26125 
L 72.787097 -38.26125 
L 73.789151 -38.26125 
L 74.791205 -38.26125 
L 75.793259 -38.26125 
L 76.795313 -38.26125 
L 77.797367 -38.26125 
L 78.799421 -38.26125 
L 79.801475 -38.26125 
L 80.803529 -38.26125 
L 81.805583 -38.26125 
L 82.807637 -38.26125 
L 83.809691 -38.26125 
L 84.811745 -38.26125 
L 85.813799 -38.26125 
L 86.815854 -38.26125 
L 87.817908 -38.26125 
L 88.819962 -38.26125 
L 89.822016 -38.26125 
L 90.82407 -38.26125 
L 91.826124 -38.26125 
L 92.828178 -38.26125 
L 93.830232 -38.26125 
L 94.832286 -38.26125 
L 95.83434 -38.26125 
L 96.836394 -38.26125 
L 97.838448 -38.26125 
L 98.840502 -38.26125 
L 99.842556 -38.26125 
L 100.84461 -38.26125 
L 101.846665 -38.26125 
L 102.848719 -38.26125 
L 103.850773 -38.26125 
L 104.852827 -38.26125 
L 105.854881 -38.26125 
L 106.856935 -38.26125 
L 107.858989 -38.26125 
L 108.861043 -38.26125 
L 109.863097 -38.26125 
L 110.865151 -38.26125 
L 111.867205 -38.26125 
L 112.869259 -38.26125 
L 113.871313 -38.26125 
L 114.873367 -38.26125 
L 115.875422 -38.26125 
L 116.877476 -38.26125 
L 117.87953 -38.26125 
L 118.881584 -38.26125 
L 119.883638 -38.26125 
L 120.885692 -38.26125 
L 121.887746 -38.26125 
L 122.8898 -38.26125 
L 123.891854 -38.26125 
L 124.893908 -38.26125 
L 125.895962 -38.26125 
L 126.898016 -38.26125 
L 127.90007 -38.26125 
L 128.902124 -38.26125 
L 129.904179 -38.26125 
L 130.906233 -38.26125 
L 131.908287 -38.26125 
L 132.910341 -38.26125 
L 133.912395 -38.26125 
L 134.914449 -38.26125 
L 135.916503 -38.26125 
L 136.918557 -38.26125 
L 137.920611 -38.26125 
L 138.922665 -38.26125 
L 139.924719 -38.26125 
L 140.926773 -38.26125 
L 141.928827 -38.26125 
L 142.930881 -38.26125 
L 143.932936 -38.26125 
L 144.93499 -38.26125 
L 145.937044 -38.26125 
L 146.939098 -38.26125 
L 147.941152 -38.26125 
L 148.943206 -38.26125 
L 149.94526 -38.26125 
L 150.947314 -38.26125 
L 151.949368 -38.26125 
L 152.951422 -38.26125 
L 153.953476 -38.26125 
L 154.95553 -38.26125 
L 155.957584 -38.26125 
L 156.959638 -38.26125 
L 157.961693 -38.26125 
L 158.963747 -38.26125 
L 159.965801 -38.26125 
L 160.967855 -38.26125 
L 161.969909 -38.26125 
L 162.971963 -38.26125 
L 163.974017 -38.26125 
L 164.976071 -38.26125 
L 165.978125 -38.26125 
L 166.980179 -38.26125 
L 167.982233 -38.26125 
L 168.984287 -38.26125 
L 169.986341 -38.26125 
L 170.988395 -38.26125 
L 171.99045 -38.26125 
L 172.992504 -38.26125 
L 173.994558 -38.26125 
L 174.996612 -38.26125 
L 175.998666 -38.26125 
L 177.00072 -38.26125 
L 178.002774 -38.26125 
L 179.004828 -38.26125 
L 180.006882 -38.26125 
L 181.008936 -38.26125 
L 182.01099 -38.26125 
L 183.013044 -38.26125 
L 184.015098 -38.26125 
L 185.017152 -38.26125 
L 186.019207 -38.26125 
L 187.021261 -38.26125 
L 188.023315 -38.26125 
L 189.025369 -38.26125 
L 190.027423 -38.26125 
L 191.029477 -38.26125 
L 192.031531 -38.26125 
L 193.033585 -38.26125 
L 194.035639 -38.26125 
L 195.037693 -38.26125 
L 196.039747 -38.26125 
L 197.041801 -38.26125 
L 198.043855 -38.26125 
L 199.045909 -38.26125 
L 200.047964 -38.26125 
L 201.050018 -38.26125 
L 202.052072 -38.26125 
L 203.054126 -38.26125 
L 204.05618 -38.26125 
L 205.058234 -38.26125 
L 206.060288 -38.26125 
L 207.062342 -38.26125 
L 208.064396 -38.26125 
L 209.06645 -38.26125 
L 210.068504 -38.26125 
L 211.070558 -38.26125 
L 212.072612 -38.26125 
L 213.074666 -38.26125 
L 214.076721 -38.26125 
L 215.078775 -38.26125 
L 216.080829 -38.26125 
L 217.082883 -38.26125 
L 218.084937 -38.26125 
L 219.086991 -38.26125 
L 220.089045 -38.26125 
L 221.091099 -38.26125 
L 222.093153 -38.26125 
L 223.095207 -38.26125 
L 224.097261 -38.26125 
L 225.099315 -38.26125 
L 226.101369 -38.26125 
L 227.103423 -38.26125 
L 228.105478 -38.26125 
L 229.107532 -38.26125 
L 230.109586 -38.26125 
L 231.11164 -38.26125 
L 232.113694 -38.26125 
L 233.115748 -38.26125 
L 234.117802 -38.26125 
L 235.119856 -38.26125 
L 236.12191 -38.26125 
L 237.123964 -38.26125 
L 238.126018 -38.26125 
L 239.128072 -38.26125 
L 240.130126 -38.26125 
L 241.13218 -38.26125 
L 242.134234 -38.26125 
L 243.136289 -38.26125 
L 244.138343 -38.26125 
L 245.140397 -38.26125 
L 246.142451 -38.26125 
L 247.144505 -38.26125 
L 248.146559 -38.26125 
L 249.148613 -38.26125 
L 250.150667 -38.26125 
L 251.152721 -38.26125 
L 252.154775 -38.26125 
L 253.156829 -38.26125 
L 254.158883 -38.26125 
L 255.160937 -38.26125 
L 256.162991 -38.26125 
L 257.165046 -38.26125 
L 258.1671 -38.26125 
L 259.169154 -38.26125 
L 260.171208 -38.26125 
L 261.173262 -38.26125 
L 262.175316 -38.26125 
L 263.17737 -38.26125 
L 264.179424 -38.26125 
L 264.179424 -38.295787 
L 264.179424 -38.295787 
L 263.17737 -38.308945 
L 262.175316 -38.326328 
L 261.173262 -38.348987 
L 260.171208 -38.378123 
L 259.169154 -38.415076 
L 258.1671 -38.461298 
L 257.165046 -38.518303 
L 256.162991 -38.587611 
L 255.160937 -38.670663 
L 254.158883 -38.768724 
L 253.156829 -38.882771 
L 252.154775 -39.013378 
L 251.152721 -39.160588 
L 250.150667 -39.323814 
L 249.148613 -39.501739 
L 248.146559 -39.692269 
L 247.144505 -39.892507 
L 246.142451 -40.0988 
L 245.140397 -40.306826 
L 244.138343 -40.51175 
L 243.136289 -40.708434 
L 242.134234 -40.891695 
L 241.13218 -41.0566 
L 240.130126 -41.198781 
L 239.128072 -41.314742 
L 238.126018 -41.402155 
L 237.123964 -41.460103 
L 236.12191 -41.489269 
L 235.119856 -41.492045 
L 234.117802 -41.472555 
L 233.115748 -41.436598 
L 232.113694 -41.391497 
L 231.11164 -41.345873 
L 230.109586 -41.309352 
L 229.107532 -41.292223 
L 228.105478 -41.305054 
L 227.103423 -41.358295 
L 226.101369 -41.461874 
L 225.099315 -41.624792 
L 224.097261 -41.854752 
L 223.095207 -42.1578 
L 222.093153 -42.538015 
L 221.091099 -42.997239 
L 220.089045 -43.53486 
L 219.086991 -44.147661 
L 218.084937 -44.829757 
L 217.082883 -45.572607 
L 216.080829 -46.36515 
L 215.078775 -47.194044 
L 214.076721 -48.044045 
L 213.074666 -48.898502 
L 212.072612 -49.73999 
L 211.070558 -50.551034 
L 210.068504 -51.314921 
L 209.06645 -52.016547 
L 208.064396 -52.643262 
L 207.062342 -53.185643 
L 206.060288 -53.638152 
L 205.058234 -53.99962 
L 204.05618 -54.27351 
L 203.054126 -54.467924 
L 202.052072 -54.595341 
L 201.050018 -54.672096 
L 200.047964 -54.717607 
L 199.045909 -54.753427 
L 198.043855 -54.80215 
L 197.041801 -54.886272 
L 196.039747 -55.027078 
L 195.037693 -55.243636 
L 194.035639 -55.551963 
L 193.033585 -55.964436 
L 192.031531 -56.489464 
L 191.029477 -57.131462 
L 190.027423 -57.89109 
L 189.025369 -58.765749 
L 188.023315 -59.750278 
L 187.021261 -60.837782 
L 186.019207 -62.02053 
L 185.017152 -63.290839 
L 184.015098 -64.641881 
L 183.013044 -66.068339 
L 182.01099 -67.566888 
L 181.008936 -69.13644 
L 180.006882 -70.77817 
L 179.004828 -72.495311 
L 178.002774 -74.292756 
L 177.00072 -76.176496 
L 175.998666 -78.152963 
L 174.996612 -80.228316 
L 173.994558 -82.40775 
L 172.992504 -84.694872 
L 171.99045 -87.091205 
L 170.988395 -89.595854 
L 169.986341 -92.205367 
L 168.984287 -94.913792 
L 167.982233 -97.71294 
L 166.980179 -100.592822 
L 165.978125 -103.542232 
L 164.976071 -106.549445 
L 163.974017 -109.602952 
L 162.971963 -112.692212 
L 161.969909 -115.808343 
L 160.967855 -118.944705 
L 159.965801 -122.097343 
L 158.963747 -125.265246 
L 157.961693 -128.450395 
L 156.959638 -131.657606 
L 155.957584 -134.894166 
L 154.95553 -138.16928 
L 153.953476 -141.49337 
L 152.951422 -144.877274 
L 151.949368 -148.331391 
L 150.947314 -151.864844 
L 149.94526 -155.484713 
L 148.943206 -159.195388 
L 147.941152 -162.9981 
L 146.939098 -166.890634 
L 145.937044 -170.867253 
L 144.93499 -174.918804 
L 143.932936 -179.032984 
L 142.930881 -183.194705 
L 141.928827 -187.386515 
L 140.926773 -191.588989 
L 139.924719 -195.781045 
L 138.922665 -199.940141 
L 137.920611 -204.042301 
L 136.918557 -208.061995 
L 135.916503 -211.971879 
L 134.914449 -215.742447 
L 133.912395 -219.341665 
L 132.910341 -222.734671 
L 131.908287 -225.883622 
L 130.906233 -228.747773 
L 129.904179 -231.283842 
L 128.902124 -233.4467 
L 127.90007 -235.190376 
L 126.898016 -236.469362 
L 125.895962 -237.24013 
L 124.893908 -237.462782 
L 123.891854 -237.102721 
L 122.8898 -236.132226 
L 121.887746 -234.531816 
L 120.885692 -232.291326 
L 119.883638 -229.410604 
L 118.881584 -225.89982 
L 117.87953 -221.779355 
L 116.877476 -217.079312 
L 115.875422 -211.838686 
L 114.873367 -206.104271 
L 113.871313 -199.929358 
L 112.869259 -193.372326 
L 111.867205 -186.495171 
L 110.865151 -179.362052 
L 109.863097 -172.037903 
L 108.861043 -164.58714 
L 107.858989 -157.072502 
L 106.856935 -149.554035 
L 105.854881 -142.088237 
L 104.852827 -134.727366 
L 103.850773 -127.518907 
L 102.848719 -120.505197 
L 101.846665 -113.723211 
L 100.84461 -107.20447 
L 99.842556 -100.975088 
L 98.840502 -95.055912 
L 97.838448 -89.462753 
L 96.836394 -84.206683 
L 95.83434 -79.294361 
L 94.832286 -74.728405 
L 93.830232 -70.507755 
L 92.828178 -66.628044 
L 91.826124 -63.081962 
L 90.82407 -59.859608 
L 89.822016 -56.948829 
L 88.819962 -54.335554 
L 87.817908 -52.004122 
L 86.815854 -49.937602 
L 85.813799 -48.118109 
L 84.811745 -46.52712 
L 83.809691 -45.145779 
L 82.807637 -43.955184 
L 81.805583 -42.936669 
L 80.803529 -42.072052 
L 79.801475 -41.343857 
L 78.799421 -40.735509 
L 77.797367 -40.231479 
L 76.795313 -39.817408 
L 75.793259 -39.480176 
L 74.791205 -39.207946 
L 73.789151 -38.990165 
L 72.787097 -38.81754 
L 71.785042 -38.681987 
L 70.782988 -38.576557 
L 69.780934 -38.495349 
L 68.77888 -38.433414 
L 67.776826 -38.386649 
L 66.774772 -38.351697 
L 65.772718 -38.325842 
L 64.770664 -38.306915 
z
"/>
    </defs>
    <g clip-path="url(#pc4e50f5b9f)">
     <use xlink:href="#m9f1d741717" x="0" y="378.10125" style="fill: #7a2e70; fill-opacity: 0.3"/>
    </g>
   </g>
   <g id="PolyCollection_6">
    <defs>
     <path id="m9ef6cf7337" d="M 52.636932 -39.561784 
L 52.636932 -38.26125 
L 53.068793 -38.26125 
L 53.500655 -38.26125 
L 53.932517 -38.26125 
L 54.364378 -38.26125 
L 54.79624 -38.26125 
L 55.228101 -38.26125 
L 55.659963 -38.26125 
L 56.091825 -38.26125 
L 56.523686 -38.26125 
L 56.955548 -38.26125 
L 57.38741 -38.26125 
L 57.819271 -38.26125 
L 58.251133 -38.26125 
L 58.682994 -38.26125 
L 59.114856 -38.26125 
L 59.546718 -38.26125 
L 59.978579 -38.26125 
L 60.410441 -38.26125 
L 60.842302 -38.26125 
L 61.274164 -38.26125 
L 61.706026 -38.26125 
L 62.137887 -38.26125 
L 62.569749 -38.26125 
L 63.00161 -38.26125 
L 63.433472 -38.26125 
L 63.865334 -38.26125 
L 64.297195 -38.26125 
L 64.729057 -38.26125 
L 65.160918 -38.26125 
L 65.59278 -38.26125 
L 66.024642 -38.26125 
L 66.456503 -38.26125 
L 66.888365 -38.26125 
L 67.320227 -38.26125 
L 67.752088 -38.26125 
L 68.18395 -38.26125 
L 68.615811 -38.26125 
L 69.047673 -38.26125 
L 69.479535 -38.26125 
L 69.911396 -38.26125 
L 70.343258 -38.26125 
L 70.775119 -38.26125 
L 71.206981 -38.26125 
L 71.638843 -38.26125 
L 72.070704 -38.26125 
L 72.502566 -38.26125 
L 72.934427 -38.26125 
L 73.366289 -38.26125 
L 73.798151 -38.26125 
L 74.230012 -38.26125 
L 74.661874 -38.26125 
L 75.093735 -38.26125 
L 75.525597 -38.26125 
L 75.957459 -38.26125 
L 76.38932 -38.26125 
L 76.821182 -38.26125 
L 77.253044 -38.26125 
L 77.684905 -38.26125 
L 78.116767 -38.26125 
L 78.548628 -38.26125 
L 78.98049 -38.26125 
L 79.412352 -38.26125 
L 79.844213 -38.26125 
L 80.276075 -38.26125 
L 80.707936 -38.26125 
L 81.139798 -38.26125 
L 81.57166 -38.26125 
L 82.003521 -38.26125 
L 82.435383 -38.26125 
L 82.867244 -38.26125 
L 83.299106 -38.26125 
L 83.730968 -38.26125 
L 84.162829 -38.26125 
L 84.594691 -38.26125 
L 85.026552 -38.26125 
L 85.458414 -38.26125 
L 85.890276 -38.26125 
L 86.322137 -38.26125 
L 86.753999 -38.26125 
L 87.185861 -38.26125 
L 87.617722 -38.26125 
L 88.049584 -38.26125 
L 88.481445 -38.26125 
L 88.913307 -38.26125 
L 89.345169 -38.26125 
L 89.77703 -38.26125 
L 90.208892 -38.26125 
L 90.640753 -38.26125 
L 91.072615 -38.26125 
L 91.504477 -38.26125 
L 91.936338 -38.26125 
L 92.3682 -38.26125 
L 92.800061 -38.26125 
L 93.231923 -38.26125 
L 93.663785 -38.26125 
L 94.095646 -38.26125 
L 94.527508 -38.26125 
L 94.959369 -38.26125 
L 95.391231 -38.26125 
L 95.823093 -38.26125 
L 96.254954 -38.26125 
L 96.686816 -38.26125 
L 97.118678 -38.26125 
L 97.550539 -38.26125 
L 97.982401 -38.26125 
L 98.414262 -38.26125 
L 98.846124 -38.26125 
L 99.277986 -38.26125 
L 99.709847 -38.26125 
L 100.141709 -38.26125 
L 100.57357 -38.26125 
L 101.005432 -38.26125 
L 101.437294 -38.26125 
L 101.869155 -38.26125 
L 102.301017 -38.26125 
L 102.732878 -38.26125 
L 103.16474 -38.26125 
L 103.596602 -38.26125 
L 104.028463 -38.26125 
L 104.460325 -38.26125 
L 104.892186 -38.26125 
L 105.324048 -38.26125 
L 105.75591 -38.26125 
L 106.187771 -38.26125 
L 106.619633 -38.26125 
L 107.051495 -38.26125 
L 107.483356 -38.26125 
L 107.915218 -38.26125 
L 108.347079 -38.26125 
L 108.778941 -38.26125 
L 109.210803 -38.26125 
L 109.642664 -38.26125 
L 110.074526 -38.26125 
L 110.506387 -38.26125 
L 110.938249 -38.26125 
L 111.370111 -38.26125 
L 111.801972 -38.26125 
L 112.233834 -38.26125 
L 112.665695 -38.26125 
L 113.097557 -38.26125 
L 113.529419 -38.26125 
L 113.96128 -38.26125 
L 114.393142 -38.26125 
L 114.825003 -38.26125 
L 115.256865 -38.26125 
L 115.688727 -38.26125 
L 116.120588 -38.26125 
L 116.55245 -38.26125 
L 116.984312 -38.26125 
L 117.416173 -38.26125 
L 117.848035 -38.26125 
L 118.279896 -38.26125 
L 118.711758 -38.26125 
L 119.14362 -38.26125 
L 119.575481 -38.26125 
L 120.007343 -38.26125 
L 120.439204 -38.26125 
L 120.871066 -38.26125 
L 121.302928 -38.26125 
L 121.734789 -38.26125 
L 122.166651 -38.26125 
L 122.598512 -38.26125 
L 123.030374 -38.26125 
L 123.462236 -38.26125 
L 123.894097 -38.26125 
L 124.325959 -38.26125 
L 124.757821 -38.26125 
L 125.189682 -38.26125 
L 125.621544 -38.26125 
L 126.053405 -38.26125 
L 126.485267 -38.26125 
L 126.917129 -38.26125 
L 127.34899 -38.26125 
L 127.780852 -38.26125 
L 128.212713 -38.26125 
L 128.644575 -38.26125 
L 129.076437 -38.26125 
L 129.508298 -38.26125 
L 129.94016 -38.26125 
L 130.372021 -38.26125 
L 130.803883 -38.26125 
L 131.235745 -38.26125 
L 131.667606 -38.26125 
L 132.099468 -38.26125 
L 132.531329 -38.26125 
L 132.963191 -38.26125 
L 133.395053 -38.26125 
L 133.826914 -38.26125 
L 134.258776 -38.26125 
L 134.690638 -38.26125 
L 135.122499 -38.26125 
L 135.554361 -38.26125 
L 135.986222 -38.26125 
L 136.418084 -38.26125 
L 136.849946 -38.26125 
L 137.281807 -38.26125 
L 137.713669 -38.26125 
L 138.14553 -38.26125 
L 138.577392 -38.26125 
L 138.577392 -39.723626 
L 138.577392 -39.723626 
L 138.14553 -39.94221 
L 137.713669 -40.189676 
L 137.281807 -40.469239 
L 136.849946 -40.784388 
L 136.418084 -41.138891 
L 135.986222 -41.536809 
L 135.554361 -41.982503 
L 135.122499 -42.480637 
L 134.690638 -43.036189 
L 134.258776 -43.654447 
L 133.826914 -44.341013 
L 133.395053 -45.101796 
L 132.963191 -45.943007 
L 132.531329 -46.871147 
L 132.099468 -47.892997 
L 131.667606 -49.015592 
L 131.235745 -50.246207 
L 130.803883 -51.592323 
L 130.372021 -53.061598 
L 129.94016 -54.661832 
L 129.508298 -56.400918 
L 129.076437 -58.286806 
L 128.644575 -60.327441 
L 128.212713 -62.530713 
L 127.780852 -64.904396 
L 127.34899 -67.456078 
L 126.917129 -70.193095 
L 126.485267 -73.122459 
L 126.053405 -76.25078 
L 125.621544 -79.584187 
L 125.189682 -83.128247 
L 124.757821 -86.887886 
L 124.325959 -90.867304 
L 123.894097 -95.069893 
L 123.462236 -99.498158 
L 123.030374 -104.153635 
L 122.598512 -109.036819 
L 122.166651 -114.147089 
L 121.734789 -119.482643 
L 121.302928 -125.040439 
L 120.871066 -130.816135 
L 120.439204 -136.804049 
L 120.007343 -142.997119 
L 119.575481 -149.386876 
L 119.14362 -155.963422 
L 118.711758 -162.715429 
L 118.279896 -169.63014 
L 117.848035 -176.693387 
L 117.416173 -183.889615 
L 116.984312 -191.201932 
L 116.55245 -198.612153 
L 116.120588 -206.100872 
L 115.688727 -213.647542 
L 115.256865 -221.230558 
L 114.825003 -228.827371 
L 114.393142 -236.414592 
L 113.96128 -243.968121 
L 113.529419 -251.463282 
L 113.097557 -258.874962 
L 112.665695 -266.177766 
L 112.233834 -273.346172 
L 111.801972 -280.354695 
L 111.370111 -287.178053 
L 110.938249 -293.791338 
L 110.506387 -300.170188 
L 110.074526 -306.290957 
L 109.642664 -312.130883 
L 109.210803 -317.66826 
L 108.778941 -322.882596 
L 108.347079 -327.75477 
L 107.915218 -332.267178 
L 107.483356 -336.40388 
L 107.051495 -340.150718 
L 106.619633 -343.495443 
L 106.187771 -346.427811 
L 105.75591 -348.939679 
L 105.324048 -351.025074 
L 104.892186 -352.680254 
L 104.460325 -353.903747 
L 104.028463 -354.696373 
L 103.596602 -355.06125 
L 103.16474 -355.003776 
L 102.732878 -354.531597 
L 102.301017 -353.654552 
L 101.869155 -352.384601 
L 101.437294 -350.735734 
L 101.005432 -348.723857 
L 100.57357 -346.366671 
L 100.141709 -343.683522 
L 99.709847 -340.695245 
L 99.277986 -337.423987 
L 98.846124 -333.893023 
L 98.414262 -330.126556 
L 97.982401 -326.149513 
L 97.550539 -321.987326 
L 97.118678 -317.665719 
L 96.686816 -313.210482 
L 96.254954 -308.647251 
L 95.823093 -304.001285 
L 95.391231 -299.297256 
L 94.959369 -294.559033 
L 94.527508 -289.809486 
L 94.095646 -285.070299 
L 93.663785 -280.361794 
L 93.231923 -275.70277 
L 92.800061 -271.110366 
L 92.3682 -266.599938 
L 91.936338 -262.184957 
L 91.504477 -257.876933 
L 91.072615 -253.685357 
L 90.640753 -249.617668 
L 90.208892 -245.679251 
L 89.77703 -241.873444 
L 89.345169 -238.201586 
L 88.913307 -234.663074 
L 88.481445 -231.25545 
L 88.049584 -227.974506 
L 87.617722 -224.814406 
L 87.185861 -221.767832 
L 86.753999 -218.826137 
L 86.322137 -215.979519 
L 85.890276 -213.217196 
L 85.458414 -210.527602 
L 85.026552 -207.898571 
L 84.594691 -205.317543 
L 84.162829 -202.771756 
L 83.730968 -200.248436 
L 83.299106 -197.734991 
L 82.867244 -195.219188 
L 82.435383 -192.689321 
L 82.003521 -190.134373 
L 81.57166 -187.544154 
L 81.139798 -184.909434 
L 80.707936 -182.222046 
L 80.276075 -179.474985 
L 79.844213 -176.662476 
L 79.412352 -173.780028 
L 78.98049 -170.824469 
L 78.548628 -167.79396 
L 78.116767 -164.687988 
L 77.684905 -161.507346 
L 77.253044 -158.254089 
L 76.821182 -154.93148 
L 76.38932 -151.543921 
L 75.957459 -148.096863 
L 75.525597 -144.596715 
L 75.093735 -141.050741 
L 74.661874 -137.466942 
L 74.230012 -133.853944 
L 73.798151 -130.220873 
L 73.366289 -126.577233 
L 72.934427 -122.932784 
L 72.502566 -119.297422 
L 72.070704 -115.681056 
L 71.638843 -112.093505 
L 71.206981 -108.544383 
L 70.775119 -105.043006 
L 70.343258 -101.598301 
L 69.911396 -98.218724 
L 69.479535 -94.912191 
L 69.047673 -91.686018 
L 68.615811 -88.546871 
L 68.18395 -85.500726 
L 67.752088 -82.552842 
L 67.320227 -79.707742 
L 66.888365 -76.969203 
L 66.456503 -74.340261 
L 66.024642 -71.823216 
L 65.59278 -69.419653 
L 65.160918 -67.130463 
L 64.729057 -64.955878 
L 64.297195 -62.895502 
L 63.865334 -60.948357 
L 63.433472 -59.112925 
L 63.00161 -57.387193 
L 62.569749 -55.768705 
L 62.137887 -54.254614 
L 61.706026 -52.841726 
L 61.274164 -51.526556 
L 60.842302 -50.305374 
L 60.410441 -49.174257 
L 59.978579 -48.129128 
L 59.546718 -47.165806 
L 59.114856 -46.280044 
L 58.682994 -45.467565 
L 58.251133 -44.724101 
L 57.819271 -44.045419 
L 57.38741 -43.427354 
L 56.955548 -42.86583 
L 56.523686 -42.356884 
L 56.091825 -41.896682 
L 55.659963 -41.481534 
L 55.228101 -41.107907 
L 54.79624 -40.772434 
L 54.364378 -40.471921 
L 53.932517 -40.20335 
L 53.500655 -39.96388 
L 53.068793 -39.750853 
L 52.636932 -39.561784 
z
"/>
    </defs>
    <g clip-path="url(#pc4e50f5b9f)">
     <use xlink:href="#m9ef6cf7337" x="0" y="378.10125" style="fill: #4b2362; fill-opacity: 0.3"/>
    </g>
   </g>
   <g id="matplotlib.axis_1">
    <g id="xtick_1">
     <g id="line2d_1">
      <path d="M 68.317537 339.84 
L 68.317537 7.2 
" clip-path="url(#pc4e50f5b9f)" style="fill: none; stroke-dasharray: 1.48,0.64; stroke-dashoffset: 0; stroke: #838383; stroke-opacity: 0.25; stroke-width: 0.4"/>
     </g>
     <g id="line2d_2"/>
     <g id="text_1">
      <!-- 0 -->
      <g style="fill: #838383" transform="translate(64.500037 352.458125) scale(0.12 -0.12)">
       <defs>
        <path id="DejaVuSans-30" d="M 2034 4250 
Q 1547 4250 1301 3770 
Q 1056 3291 1056 2328 
Q 1056 1369 1301 889 
Q 1547 409 2034 409 
Q 2525 409 2770 889 
Q 3016 1369 3016 2328 
Q 3016 3291 2770 3770 
Q 2525 4250 2034 4250 
z
M 2034 4750 
Q 2819 4750 3233 4129 
Q 3647 3509 3647 2328 
Q 3647 1150 3233 529 
Q 2819 -91 2034 -91 
Q 1250 -91 836 529 
Q 422 1150 422 2328 
Q 422 3509 836 4129 
Q 1250 4750 2034 4750 
z
" transform="scale(0.015625)"/>
       </defs>
       <use xlink:href="#DejaVuSans-30"/>
      </g>
     </g>
    </g>
    <g id="xtick_2">
     <g id="line2d_3">
      <path d="M 109.854257 339.84 
L 109.854257 7.2 
" clip-path="url(#pc4e50f5b9f)" style="fill: none; stroke-dasharray: 1.48,0.64; stroke-dashoffset: 0; stroke: #838383; stroke-opacity: 0.25; stroke-width: 0.4"/>
     </g>
     <g id="line2d_4"/>
     <g id="text_2">
      <!-- 10 -->
      <g style="fill: #838383" transform="translate(102.219257 352.458125) scale(0.12 -0.12)">
       <defs>
        <path id="DejaVuSans-31" d="M 794 531 
L 1825 531 
L 1825 4091 
L 703 3866 
L 703 4441 
L 1819 4666 
L 2450 4666 
L 2450 531 
L 3481 531 
L 3481 0 
L 794 0 
L 794 531 
z
" transform="scale(0.015625)"/>
       </defs>
       <use xlink:href="#DejaVuSans-31"/>
       <use xlink:href="#DejaVuSans-30" x="63.623047"/>
      </g>
     </g>
    </g>
    <g id="xtick_3">
     <g id="line2d_5">
      <path d="M 151.390977 339.84 
L 151.390977 7.2 
" clip-path="url(#pc4e50f5b9f)" style="fill: none; stroke-dasharray: 1.48,0.64; stroke-dashoffset: 0; stroke: #838383; stroke-opacity: 0.25; stroke-width: 0.4"/>
     </g>
     <g id="line2d_6"/>
     <g id="text_3">
      <!-- 20 -->
      <g style="fill: #838383" transform="translate(143.755977 352.458125) scale(0.12 -0.12)">
       <defs>
        <path id="DejaVuSans-32" d="M 1228 531 
L 3431 531 
L 3431 0 
L 469 0 
L 469 531 
Q 828 903 1448 1529 
Q 2069 2156 2228 2338 
Q 2531 2678 2651 2914 
Q 2772 3150 2772 3378 
Q 2772 3750 2511 3984 
Q 2250 4219 1831 4219 
Q 1534 4219 1204 4116 
Q 875 4013 500 3803 
L 500 4441 
Q 881 4594 1212 4672 
Q 1544 4750 1819 4750 
Q 2544 4750 2975 4387 
Q 3406 4025 3406 3419 
Q 3406 3131 3298 2873 
Q 3191 2616 2906 2266 
Q 2828 2175 2409 1742 
Q 1991 1309 1228 531 
z
" transform="scale(0.015625)"/>
       </defs>
       <use xlink:href="#DejaVuSans-32"/>
       <use xlink:href="#DejaVuSans-30" x="63.623047"/>
      </g>
     </g>
    </g>
    <g id="xtick_4">
     <g id="line2d_7">
      <path d="M 192.927697 339.84 
L 192.927697 7.2 
" clip-path="url(#pc4e50f5b9f)" style="fill: none; stroke-dasharray: 1.48,0.64; stroke-dashoffset: 0; stroke: #838383; stroke-opacity: 0.25; stroke-width: 0.4"/>
     </g>
     <g id="line2d_8"/>
     <g id="text_4">
      <!-- 30 -->
      <g style="fill: #838383" transform="translate(185.292697 352.458125) scale(0.12 -0.12)">
       <defs>
        <path id="DejaVuSans-33" d="M 2597 2516 
Q 3050 2419 3304 2112 
Q 3559 1806 3559 1356 
Q 3559 666 3084 287 
Q 2609 -91 1734 -91 
Q 1441 -91 1130 -33 
Q 819 25 488 141 
L 488 750 
Q 750 597 1062 519 
Q 1375 441 1716 441 
Q 2309 441 2620 675 
Q 2931 909 2931 1356 
Q 2931 1769 2642 2001 
Q 2353 2234 1838 2234 
L 1294 2234 
L 1294 2753 
L 1863 2753 
Q 2328 2753 2575 2939 
Q 2822 3125 2822 3475 
Q 2822 3834 2567 4026 
Q 2313 4219 1838 4219 
Q 1578 4219 1281 4162 
Q 984 4106 628 3988 
L 628 4550 
Q 988 4650 1302 4700 
Q 1616 4750 1894 4750 
Q 2613 4750 3031 4423 
Q 3450 4097 3450 3541 
Q 3450 3153 3228 2886 
Q 3006 2619 2597 2516 
z
" transform="scale(0.015625)"/>
       </defs>
       <use xlink:href="#DejaVuSans-33"/>
       <use xlink:href="#DejaVuSans-30" x="63.623047"/>
      </g>
     </g>
    </g>
    <g id="xtick_5">
     <g id="line2d_9">
      <path d="M 234.464418 339.84 
L 234.464418 7.2 
" clip-path="url(#pc4e50f5b9f)" style="fill: none; stroke-dasharray: 1.48,0.64; stroke-dashoffset: 0; stroke: #838383; stroke-opacity: 0.25; stroke-width: 0.4"/>
     </g>
     <g id="line2d_10"/>
     <g id="text_5">
      <!-- 40 -->
      <g style="fill: #838383" transform="translate(226.829418 352.458125) scale(0.12 -0.12)">
       <defs>
        <path id="DejaVuSans-34" d="M 2419 4116 
L 825 1625 
L 2419 1625 
L 2419 4116 
z
M 2253 4666 
L 3047 4666 
L 3047 1625 
L 3713 1625 
L 3713 1100 
L 3047 1100 
L 3047 0 
L 2419 0 
L 2419 1100 
L 313 1100 
L 313 1709 
L 2253 4666 
z
" transform="scale(0.015625)"/>
       </defs>
       <use xlink:href="#DejaVuSans-34"/>
       <use xlink:href="#DejaVuSans-30" x="63.623047"/>
      </g>
     </g>
    </g>
    <g id="xtick_6">
     <g id="line2d_11">
      <path d="M 276.001138 339.84 
L 276.001138 7.2 
" clip-path="url(#pc4e50f5b9f)" style="fill: none; stroke-dasharray: 1.48,0.64; stroke-dashoffset: 0; stroke: #838383; stroke-opacity: 0.25; stroke-width: 0.4"/>
     </g>
     <g id="line2d_12"/>
     <g id="text_6">
      <!-- 50 -->
      <g style="fill: #838383" transform="translate(268.366138 352.458125) scale(0.12 -0.12)">
       <defs>
        <path id="DejaVuSans-35" d="M 691 4666 
L 3169 4666 
L 3169 4134 
L 1269 4134 
L 1269 2991 
Q 1406 3038 1543 3061 
Q 1681 3084 1819 3084 
Q 2600 3084 3056 2656 
Q 3513 2228 3513 1497 
Q 3513 744 3044 326 
Q 2575 -91 1722 -91 
Q 1428 -91 1123 -41 
Q 819 9 494 109 
L 494 744 
Q 775 591 1075 516 
Q 1375 441 1709 441 
Q 2250 441 2565 725 
Q 2881 1009 2881 1497 
Q 2881 1984 2565 2268 
Q 2250 2553 1709 2553 
Q 1456 2553 1204 2497 
Q 953 2441 691 2322 
L 691 4666 
z
" transform="scale(0.015625)"/>
       </defs>
       <use xlink:href="#DejaVuSans-35"/>
       <use xlink:href="#DejaVuSans-30" x="63.623047"/>
      </g>
     </g>
    </g>
    <g id="xtick_7">
     <g id="line2d_13">
      <path d="M 317.537858 339.84 
L 317.537858 7.2 
" clip-path="url(#pc4e50f5b9f)" style="fill: none; stroke-dasharray: 1.48,0.64; stroke-dashoffset: 0; stroke: #838383; stroke-opacity: 0.25; stroke-width: 0.4"/>
     </g>
     <g id="line2d_14"/>
     <g id="text_7">
      <!-- 60 -->
      <g style="fill: #838383" transform="translate(309.902858 352.458125) scale(0.12 -0.12)">
       <defs>
        <path id="DejaVuSans-36" d="M 2113 2584 
Q 1688 2584 1439 2293 
Q 1191 2003 1191 1497 
Q 1191 994 1439 701 
Q 1688 409 2113 409 
Q 2538 409 2786 701 
Q 3034 994 3034 1497 
Q 3034 2003 2786 2293 
Q 2538 2584 2113 2584 
z
M 3366 4563 
L 3366 3988 
Q 3128 4100 2886 4159 
Q 2644 4219 2406 4219 
Q 1781 4219 1451 3797 
Q 1122 3375 1075 2522 
Q 1259 2794 1537 2939 
Q 1816 3084 2150 3084 
Q 2853 3084 3261 2657 
Q 3669 2231 3669 1497 
Q 3669 778 3244 343 
Q 2819 -91 2113 -91 
Q 1303 -91 875 529 
Q 447 1150 447 2328 
Q 447 3434 972 4092 
Q 1497 4750 2381 4750 
Q 2619 4750 2861 4703 
Q 3103 4656 3366 4563 
z
" transform="scale(0.015625)"/>
       </defs>
       <use xlink:href="#DejaVuSans-36"/>
       <use xlink:href="#DejaVuSans-30" x="63.623047"/>
      </g>
     </g>
    </g>
    <g id="xtick_8">
     <g id="line2d_15">
      <path d="M 359.074578 339.84 
L 359.074578 7.2 
" clip-path="url(#pc4e50f5b9f)" style="fill: none; stroke-dasharray: 1.48,0.64; stroke-dashoffset: 0; stroke: #838383; stroke-opacity: 0.25; stroke-width: 0.4"/>
     </g>
     <g id="line2d_16"/>
     <g id="text_8">
      <!-- 70 -->
      <g style="fill: #838383" transform="translate(351.439578 352.458125) scale(0.12 -0.12)">
       <defs>
        <path id="DejaVuSans-37" d="M 525 4666 
L 3525 4666 
L 3525 4397 
L 1831 0 
L 1172 0 
L 2766 4134 
L 525 4134 
L 525 4666 
z
" transform="scale(0.015625)"/>
       </defs>
       <use xlink:href="#DejaVuSans-37"/>
       <use xlink:href="#DejaVuSans-30" x="63.623047"/>
      </g>
     </g>
    </g>
    <g id="text_9">
     <!-- total_bill -->
     <g style="fill: #838383" transform="translate(179.289688 368.071875) scale(0.12 -0.12)">
      <defs>
       <path id="DejaVuSans-74" d="M 1172 4494 
L 1172 3500 
L 2356 3500 
L 2356 3053 
L 1172 3053 
L 1172 1153 
Q 1172 725 1289 603 
Q 1406 481 1766 481 
L 2356 481 
L 2356 0 
L 1766 0 
Q 1100 0 847 248 
Q 594 497 594 1153 
L 594 3053 
L 172 3053 
L 172 3500 
L 594 3500 
L 594 4494 
L 1172 4494 
z
" transform="scale(0.015625)"/>
       <path id="DejaVuSans-6f" d="M 1959 3097 
Q 1497 3097 1228 2736 
Q 959 2375 959 1747 
Q 959 1119 1226 758 
Q 1494 397 1959 397 
Q 2419 397 2687 759 
Q 2956 1122 2956 1747 
Q 2956 2369 2687 2733 
Q 2419 3097 1959 3097 
z
M 1959 3584 
Q 2709 3584 3137 3096 
Q 3566 2609 3566 1747 
Q 3566 888 3137 398 
Q 2709 -91 1959 -91 
Q 1206 -91 779 398 
Q 353 888 353 1747 
Q 353 2609 779 3096 
Q 1206 3584 1959 3584 
z
" transform="scale(0.015625)"/>
       <path id="DejaVuSans-61" d="M 2194 1759 
Q 1497 1759 1228 1600 
Q 959 1441 959 1056 
Q 959 750 1161 570 
Q 1363 391 1709 391 
Q 2188 391 2477 730 
Q 2766 1069 2766 1631 
L 2766 1759 
L 2194 1759 
z
M 3341 1997 
L 3341 0 
L 2766 0 
L 2766 531 
Q 2569 213 2275 61 
Q 1981 -91 1556 -91 
Q 1019 -91 701 211 
Q 384 513 384 1019 
Q 384 1609 779 1909 
Q 1175 2209 1959 2209 
L 2766 2209 
L 2766 2266 
Q 2766 2663 2505 2880 
Q 2244 3097 1772 3097 
Q 1472 3097 1187 3025 
Q 903 2953 641 2809 
L 641 3341 
Q 956 3463 1253 3523 
Q 1550 3584 1831 3584 
Q 2591 3584 2966 3190 
Q 3341 2797 3341 1997 
z
" transform="scale(0.015625)"/>
       <path id="DejaVuSans-6c" d="M 603 4863 
L 1178 4863 
L 1178 0 
L 603 0 
L 603 4863 
z
" transform="scale(0.015625)"/>
       <path id="DejaVuSans-5f" d="M 3263 -1063 
L 3263 -1509 
L -63 -1509 
L -63 -1063 
L 3263 -1063 
z
" transform="scale(0.015625)"/>
       <path id="DejaVuSans-62" d="M 3116 1747 
Q 3116 2381 2855 2742 
Q 2594 3103 2138 3103 
Q 1681 3103 1420 2742 
Q 1159 2381 1159 1747 
Q 1159 1113 1420 752 
Q 1681 391 2138 391 
Q 2594 391 2855 752 
Q 3116 1113 3116 1747 
z
M 1159 2969 
Q 1341 3281 1617 3432 
Q 1894 3584 2278 3584 
Q 2916 3584 3314 3078 
Q 3713 2572 3713 1747 
Q 3713 922 3314 415 
Q 2916 -91 2278 -91 
Q 1894 -91 1617 61 
Q 1341 213 1159 525 
L 1159 0 
L 581 0 
L 581 4863 
L 1159 4863 
L 1159 2969 
z
" transform="scale(0.015625)"/>
       <path id="DejaVuSans-69" d="M 603 3500 
L 1178 3500 
L 1178 0 
L 603 0 
L 603 3500 
z
M 603 4863 
L 1178 4863 
L 1178 4134 
L 603 4134 
L 603 4863 
z
" transform="scale(0.015625)"/>
      </defs>
      <use xlink:href="#DejaVuSans-74"/>
      <use xlink:href="#DejaVuSans-6f" x="39.208984"/>
      <use xlink:href="#DejaVuSans-74" x="100.390625"/>
      <use xlink:href="#DejaVuSans-61" x="139.599609"/>
      <use xlink:href="#DejaVuSans-6c" x="200.878906"/>
      <use xlink:href="#DejaVuSans-5f" x="228.662109"/>
      <use xlink:href="#DejaVuSans-62" x="278.662109"/>
      <use xlink:href="#DejaVuSans-69" x="342.138672"/>
      <use xlink:href="#DejaVuSans-6c" x="369.921875"/>
      <use xlink:href="#DejaVuSans-6c" x="397.705078"/>
     </g>
    </g>
   </g>
   <g id="matplotlib.axis_2">
    <g id="ytick_1">
     <g id="line2d_17">
      <path d="M 37.41875 339.84 
L 372.21875 339.84 
" clip-path="url(#pc4e50f5b9f)" style="fill: none; stroke-dasharray: 1.48,0.64; stroke-dashoffset: 0; stroke: #838383; stroke-opacity: 0.25; stroke-width: 0.4"/>
     </g>
     <g id="line2d_18"/>
     <g id="text_10">
      <!-- 0.00 -->
      <g style="fill: #838383" transform="translate(7.2 344.399063) scale(0.12 -0.12)">
       <defs>
        <path id="DejaVuSans-2e" d="M 684 794 
L 1344 794 
L 1344 0 
L 684 0 
L 684 794 
z
" transform="scale(0.015625)"/>
       </defs>
       <use xlink:href="#DejaVuSans-30"/>
       <use xlink:href="#DejaVuSans-2e" x="63.623047"/>
       <use xlink:href="#DejaVuSans-30" x="95.410156"/>
       <use xlink:href="#DejaVuSans-30" x="159.033203"/>
      </g>
     </g>
    </g>
    <g id="ytick_2">
     <g id="line2d_19">
      <path d="M 37.41875 286.317473 
L 372.21875 286.317473 
" clip-path="url(#pc4e50f5b9f)" style="fill: none; stroke-dasharray: 1.48,0.64; stroke-dashoffset: 0; stroke: #838383; stroke-opacity: 0.25; stroke-width: 0.4"/>
     </g>
     <g id="line2d_20"/>
     <g id="text_11">
      <!-- 0.02 -->
      <g style="fill: #838383" transform="translate(7.2 290.876536) scale(0.12 -0.12)">
       <use xlink:href="#DejaVuSans-30"/>
       <use xlink:href="#DejaVuSans-2e" x="63.623047"/>
       <use xlink:href="#DejaVuSans-30" x="95.410156"/>
       <use xlink:href="#DejaVuSans-32" x="159.033203"/>
      </g>
     </g>
    </g>
    <g id="ytick_3">
     <g id="line2d_21">
      <path d="M 37.41875 232.794946 
L 372.21875 232.794946 
" clip-path="url(#pc4e50f5b9f)" style="fill: none; stroke-dasharray: 1.48,0.64; stroke-dashoffset: 0; stroke: #838383; stroke-opacity: 0.25; stroke-width: 0.4"/>
     </g>
     <g id="line2d_22"/>
     <g id="text_12">
      <!-- 0.04 -->
      <g style="fill: #838383" transform="translate(7.2 237.354009) scale(0.12 -0.12)">
       <use xlink:href="#DejaVuSans-30"/>
       <use xlink:href="#DejaVuSans-2e" x="63.623047"/>
       <use xlink:href="#DejaVuSans-30" x="95.410156"/>
       <use xlink:href="#DejaVuSans-34" x="159.033203"/>
      </g>
     </g>
    </g>
    <g id="ytick_4">
     <g id="line2d_23">
      <path d="M 37.41875 179.27242 
L 372.21875 179.27242 
" clip-path="url(#pc4e50f5b9f)" style="fill: none; stroke-dasharray: 1.48,0.64; stroke-dashoffset: 0; stroke: #838383; stroke-opacity: 0.25; stroke-width: 0.4"/>
     </g>
     <g id="line2d_24"/>
     <g id="text_13">
      <!-- 0.06 -->
      <g style="fill: #838383" transform="translate(7.2 183.831482) scale(0.12 -0.12)">
       <use xlink:href="#DejaVuSans-30"/>
       <use xlink:href="#DejaVuSans-2e" x="63.623047"/>
       <use xlink:href="#DejaVuSans-30" x="95.410156"/>
       <use xlink:href="#DejaVuSans-36" x="159.033203"/>
      </g>
     </g>
    </g>
    <g id="ytick_5">
     <g id="line2d_25">
      <path d="M 37.41875 125.749893 
L 372.21875 125.749893 
" clip-path="url(#pc4e50f5b9f)" style="fill: none; stroke-dasharray: 1.48,0.64; stroke-dashoffset: 0; stroke: #838383; stroke-opacity: 0.25; stroke-width: 0.4"/>
     </g>
     <g id="line2d_26"/>
     <g id="text_14">
      <!-- 0.08 -->
      <g style="fill: #838383" transform="translate(7.2 130.308955) scale(0.12 -0.12)">
       <defs>
        <path id="DejaVuSans-38" d="M 2034 2216 
Q 1584 2216 1326 1975 
Q 1069 1734 1069 1313 
Q 1069 891 1326 650 
Q 1584 409 2034 409 
Q 2484 409 2743 651 
Q 3003 894 3003 1313 
Q 3003 1734 2745 1975 
Q 2488 2216 2034 2216 
z
M 1403 2484 
Q 997 2584 770 2862 
Q 544 3141 544 3541 
Q 544 4100 942 4425 
Q 1341 4750 2034 4750 
Q 2731 4750 3128 4425 
Q 3525 4100 3525 3541 
Q 3525 3141 3298 2862 
Q 3072 2584 2669 2484 
Q 3125 2378 3379 2068 
Q 3634 1759 3634 1313 
Q 3634 634 3220 271 
Q 2806 -91 2034 -91 
Q 1263 -91 848 271 
Q 434 634 434 1313 
Q 434 1759 690 2068 
Q 947 2378 1403 2484 
z
M 1172 3481 
Q 1172 3119 1398 2916 
Q 1625 2713 2034 2713 
Q 2441 2713 2670 2916 
Q 2900 3119 2900 3481 
Q 2900 3844 2670 4047 
Q 2441 4250 2034 4250 
Q 1625 4250 1398 4047 
Q 1172 3844 1172 3481 
z
" transform="scale(0.015625)"/>
       </defs>
       <use xlink:href="#DejaVuSans-30"/>
       <use xlink:href="#DejaVuSans-2e" x="63.623047"/>
       <use xlink:href="#DejaVuSans-30" x="95.410156"/>
       <use xlink:href="#DejaVuSans-38" x="159.033203"/>
      </g>
     </g>
    </g>
    <g id="ytick_6">
     <g id="line2d_27">
      <path d="M 37.41875 72.227366 
L 372.21875 72.227366 
" clip-path="url(#pc4e50f5b9f)" style="fill: none; stroke-dasharray: 1.48,0.64; stroke-dashoffset: 0; stroke: #838383; stroke-opacity: 0.25; stroke-width: 0.4"/>
     </g>
     <g id="line2d_28"/>
     <g id="text_15">
      <!-- 0.10 -->
      <g style="fill: #838383" transform="translate(7.2 76.786429) scale(0.12 -0.12)">
       <use xlink:href="#DejaVuSans-30"/>
       <use xlink:href="#DejaVuSans-2e" x="63.623047"/>
       <use xlink:href="#DejaVuSans-31" x="95.410156"/>
       <use xlink:href="#DejaVuSans-30" x="159.033203"/>
      </g>
     </g>
    </g>
    <g id="ytick_7">
     <g id="line2d_29">
      <path d="M 37.41875 18.704839 
L 372.21875 18.704839 
" clip-path="url(#pc4e50f5b9f)" style="fill: none; stroke-dasharray: 1.48,0.64; stroke-dashoffset: 0; stroke: #838383; stroke-opacity: 0.25; stroke-width: 0.4"/>
     </g>
     <g id="line2d_30"/>
     <g id="text_16">
      <!-- 0.12 -->
      <g style="fill: #838383" transform="translate(7.2 23.263902) scale(0.12 -0.12)">
       <use xlink:href="#DejaVuSans-30"/>
       <use xlink:href="#DejaVuSans-2e" x="63.623047"/>
       <use xlink:href="#DejaVuSans-31" x="95.410156"/>
       <use xlink:href="#DejaVuSans-32" x="159.033203"/>
      </g>
     </g>
    </g>
   </g>
   <g id="patch_3">
    <path d="M 37.41875 339.84 
L 37.41875 7.2 
" style="fill: none"/>
   </g>
   <g id="patch_4">
    <path d="M 372.21875 339.84 
L 372.21875 7.2 
" style="fill: none"/>
   </g>
   <g id="patch_5">
    <path d="M 37.41875 339.84 
L 372.21875 339.84 
" style="fill: none"/>
   </g>
   <g id="patch_6">
    <path d="M 37.41875 7.2 
L 372.21875 7.2 
" style="fill: none"/>
   </g>
   <g id="legend_1">
    <g id="text_17">
     <!-- size -->
     <g style="fill: #838383" transform="translate(329.167813 27.118125) scale(0.12 -0.12)">
      <defs>
       <path id="DejaVuSans-73" d="M 2834 3397 
L 2834 2853 
Q 2591 2978 2328 3040 
Q 2066 3103 1784 3103 
Q 1356 3103 1142 2972 
Q 928 2841 928 2578 
Q 928 2378 1081 2264 
Q 1234 2150 1697 2047 
L 1894 2003 
Q 2506 1872 2764 1633 
Q 3022 1394 3022 966 
Q 3022 478 2636 193 
Q 2250 -91 1575 -91 
Q 1294 -91 989 -36 
Q 684 19 347 128 
L 347 722 
Q 666 556 975 473 
Q 1284 391 1588 391 
Q 1994 391 2212 530 
Q 2431 669 2431 922 
Q 2431 1156 2273 1281 
Q 2116 1406 1581 1522 
L 1381 1569 
Q 847 1681 609 1914 
Q 372 2147 372 2553 
Q 372 3047 722 3315 
Q 1072 3584 1716 3584 
Q 2034 3584 2315 3537 
Q 2597 3491 2834 3397 
z
" transform="scale(0.015625)"/>
       <path id="DejaVuSans-7a" d="M 353 3500 
L 3084 3500 
L 3084 2975 
L 922 459 
L 3084 459 
L 3084 0 
L 275 0 
L 275 525 
L 2438 3041 
L 353 3041 
L 353 3500 
z
" transform="scale(0.015625)"/>
       <path id="DejaVuSans-65" d="M 3597 1894 
L 3597 1613 
L 953 1613 
Q 991 1019 1311 708 
Q 1631 397 2203 397 
Q 2534 397 2845 478 
Q 3156 559 3463 722 
L 3463 178 
Q 3153 47 2828 -22 
Q 2503 -91 2169 -91 
Q 1331 -91 842 396 
Q 353 884 353 1716 
Q 353 2575 817 3079 
Q 1281 3584 2069 3584 
Q 2775 3584 3186 3129 
Q 3597 2675 3597 1894 
z
M 3022 2063 
Q 3016 2534 2758 2815 
Q 2500 3097 2075 3097 
Q 1594 3097 1305 2825 
Q 1016 2553 972 2059 
L 3022 2063 
z
" transform="scale(0.015625)"/>
      </defs>
      <use xlink:href="#DejaVuSans-73"/>
      <use xlink:href="#DejaVuSans-69" x="52.099609"/>
      <use xlink:href="#DejaVuSans-7a" x="79.882812"/>
      <use xlink:href="#DejaVuSans-65" x="132.373047"/>
     </g>
    </g>
    <g id="patch_7">
     <path d="M 320.18375 44.731875 
L 344.18375 44.731875 
L 344.18375 36.331875 
L 320.18375 36.331875 
z
" style="fill: #4b2362; fill-opacity: 0.3"/>
    </g>
    <g id="text_18">
     <!-- 1 -->
     <g style="fill: #838383" transform="translate(353.78375 44.731875) scale(0.12 -0.12)">
      <use xlink:href="#DejaVuSans-31"/>
     </g>
    </g>
    <g id="patch_8">
     <path d="M 320.18375 62.345625 
L 344.18375 62.345625 
L 344.18375 53.945625 
L 320.18375 53.945625 
z
" style="fill: #7a2e70; fill-opacity: 0.3"/>
    </g>
    <g id="text_19">
     <!-- 2 -->
     <g style="fill: #838383" transform="translate(353.78375 62.345625) scale(0.12 -0.12)">
      <use xlink:href="#DejaVuSans-32"/>
     </g>
    </g>
    <g id="patch_9">
     <path d="M 320.18375 79.959375 
L 344.18375 79.959375 
L 344.18375 71.559375 
L 320.18375 71.559375 
z
" style="fill: #aa3a6e; fill-opacity: 0.3"/>
    </g>
    <g id="text_20">
     <!-- 3 -->
     <g style="fill: #838383" transform="translate(353.78375 79.959375) scale(0.12 -0.12)">
      <use xlink:href="#DejaVuSans-33"/>
     </g>
    </g>
    <g id="patch_10">
     <path d="M 320.18375 97.573125 
L 344.18375 97.573125 
L 344.18375 89.173125 
L 320.18375 89.173125 
z
" style="fill: #d64f5f; fill-opacity: 0.3"/>
    </g>
    <g id="text_21">
     <!-- 4 -->
     <g style="fill: #838383" transform="translate(353.78375 97.573125) scale(0.12 -0.12)">
      <use xlink:href="#DejaVuSans-34"/>
     </g>
    </g>
    <g id="patch_11">
     <path d="M 320.18375 115.186875 
L 344.18375 115.186875 
L 344.18375 106.786875 
L 320.18375 106.786875 
z
" style="fill: #e77e63; fill-opacity: 0.3"/>
    </g>
    <g id="text_22">
     <!-- 5 -->
     <g style="fill: #838383" transform="translate(353.78375 115.186875) scale(0.12 -0.12)">
      <use xlink:href="#DejaVuSans-35"/>
     </g>
    </g>
    <g id="patch_12">
     <path d="M 320.18375 132.800625 
L 344.18375 132.800625 
L 344.18375 124.400625 
L 320.18375 124.400625 
z
" style="fill: #edb081; fill-opacity: 0.3"/>
    </g>
    <g id="text_23">
     <!-- 6 -->
     <g style="fill: #838383" transform="translate(353.78375 132.800625) scale(0.12 -0.12)">
      <use xlink:href="#DejaVuSans-36"/>
     </g>
    </g>
   </g>
  </g>
 </g>
 <defs>
  <clipPath id="pc4e50f5b9f">
   <rect x="37.41875" y="7.2" width="334.8" height="332.64"/>
  </clipPath>
 </defs>
</svg>
